<?xml version="1.0" encoding="utf-8" standalone="no"?>
<!DOCTYPE svg PUBLIC "-//W3C//DTD SVG 1.1//EN"
  "http://www.w3.org/Graphics/SVG/1.1/DTD/svg11.dtd">
<svg xmlns:xlink="http://www.w3.org/1999/xlink" width="864pt" height="576pt" viewBox="0 0 864 576" xmlns="http://www.w3.org/2000/svg" version="1.1">
 <metadata>
  <rdf:RDF xmlns:dc="http://purl.org/dc/elements/1.1/" xmlns:cc="http://creativecommons.org/ns#" xmlns:rdf="http://www.w3.org/1999/02/22-rdf-syntax-ns#">
   <cc:Work>
    <dc:type rdf:resource="http://purl.org/dc/dcmitype/StillImage"/>
    <dc:date>2025-06-28T14:01:51.163032</dc:date>
    <dc:format>image/svg+xml</dc:format>
    <dc:creator>
     <cc:Agent>
      <dc:title>Matplotlib v3.9.2, https://matplotlib.org/</dc:title>
     </cc:Agent>
    </dc:creator>
   </cc:Work>
  </rdf:RDF>
 </metadata>
 <defs>
  <style type="text/css">*{stroke-linejoin: round; stroke-linecap: butt}</style>
 </defs>
 <g id="figure_1">
  <g id="patch_1">
   <path d="M 0 576 
L 864 576 
L 864 0 
L 0 0 
z
" style="fill: #ffffff"/>
  </g>
  <g id="axes_1">
   <g id="patch_2">
    <path d="M 78.05 509.56 
L 853.2 509.56 
L 853.2 38.4 
L 78.05 38.4 
z
" style="fill: #ffffff"/>
   </g>
   <g id="matplotlib.axis_1">
    <g id="xtick_1">
     <g id="line2d_1">
      <defs>
       <path id="me5e6d5a35a" d="M 0 0 
L 0 3.5 
" style="stroke: #000000; stroke-width: 0.8"/>
      </defs>
      <g>
       <use xlink:href="#me5e6d5a35a" x="179.623904" y="509.56" style="stroke: #000000; stroke-width: 0.8"/>
      </g>
     </g>
     <g id="text_1">
      <!-- −2 -->
      <g transform="translate(163.407498 533.276562) scale(0.22 -0.22)">
       <defs>
        <path id="DejaVuSans-2212" d="M 678 2272 
L 4684 2272 
L 4684 1741 
L 678 1741 
L 678 2272 
z
" transform="scale(0.015625)"/>
        <path id="DejaVuSans-32" d="M 1228 531 
L 3431 531 
L 3431 0 
L 469 0 
L 469 531 
Q 828 903 1448 1529 
Q 2069 2156 2228 2338 
Q 2531 2678 2651 2914 
Q 2772 3150 2772 3378 
Q 2772 3750 2511 3984 
Q 2250 4219 1831 4219 
Q 1534 4219 1204 4116 
Q 875 4013 500 3803 
L 500 4441 
Q 881 4594 1212 4672 
Q 1544 4750 1819 4750 
Q 2544 4750 2975 4387 
Q 3406 4025 3406 3419 
Q 3406 3131 3298 2873 
Q 3191 2616 2906 2266 
Q 2828 2175 2409 1742 
Q 1991 1309 1228 531 
z
" transform="scale(0.015625)"/>
       </defs>
       <use xlink:href="#DejaVuSans-2212"/>
       <use xlink:href="#DejaVuSans-32" x="83.789062"/>
      </g>
     </g>
    </g>
    <g id="xtick_2">
     <g id="line2d_2">
      <g>
       <use xlink:href="#me5e6d5a35a" x="322.769209" y="509.56" style="stroke: #000000; stroke-width: 0.8"/>
      </g>
     </g>
     <g id="text_2">
      <!-- −1 -->
      <g transform="translate(306.552803 533.276562) scale(0.22 -0.22)">
       <defs>
        <path id="DejaVuSans-31" d="M 794 531 
L 1825 531 
L 1825 4091 
L 703 3866 
L 703 4441 
L 1819 4666 
L 2450 4666 
L 2450 531 
L 3481 531 
L 3481 0 
L 794 0 
L 794 531 
z
" transform="scale(0.015625)"/>
       </defs>
       <use xlink:href="#DejaVuSans-2212"/>
       <use xlink:href="#DejaVuSans-31" x="83.789062"/>
      </g>
     </g>
    </g>
    <g id="xtick_3">
     <g id="line2d_3">
      <g>
       <use xlink:href="#me5e6d5a35a" x="465.914514" y="509.56" style="stroke: #000000; stroke-width: 0.8"/>
      </g>
     </g>
     <g id="text_3">
      <!-- 0 -->
      <g transform="translate(458.915764 533.276562) scale(0.22 -0.22)">
       <defs>
        <path id="DejaVuSans-30" d="M 2034 4250 
Q 1547 4250 1301 3770 
Q 1056 3291 1056 2328 
Q 1056 1369 1301 889 
Q 1547 409 2034 409 
Q 2525 409 2770 889 
Q 3016 1369 3016 2328 
Q 3016 3291 2770 3770 
Q 2525 4250 2034 4250 
z
M 2034 4750 
Q 2819 4750 3233 4129 
Q 3647 3509 3647 2328 
Q 3647 1150 3233 529 
Q 2819 -91 2034 -91 
Q 1250 -91 836 529 
Q 422 1150 422 2328 
Q 422 3509 836 4129 
Q 1250 4750 2034 4750 
z
" transform="scale(0.015625)"/>
       </defs>
       <use xlink:href="#DejaVuSans-30"/>
      </g>
     </g>
    </g>
    <g id="xtick_4">
     <g id="line2d_4">
      <g>
       <use xlink:href="#me5e6d5a35a" x="609.059819" y="509.56" style="stroke: #000000; stroke-width: 0.8"/>
      </g>
     </g>
     <g id="text_4">
      <!-- 1 -->
      <g transform="translate(602.061069 533.276562) scale(0.22 -0.22)">
       <use xlink:href="#DejaVuSans-31"/>
      </g>
     </g>
    </g>
    <g id="xtick_5">
     <g id="line2d_5">
      <g>
       <use xlink:href="#me5e6d5a35a" x="752.205124" y="509.56" style="stroke: #000000; stroke-width: 0.8"/>
      </g>
     </g>
     <g id="text_5">
      <!-- 2 -->
      <g transform="translate(745.206374 533.276562) scale(0.22 -0.22)">
       <use xlink:href="#DejaVuSans-32"/>
      </g>
     </g>
    </g>
    <g id="text_6">
     <!-- Theoretical Quantiles -->
     <g transform="translate(320.47375 560.088125) scale(0.24 -0.24)">
      <defs>
       <path id="DejaVuSans-Bold-54" d="M 31 4666 
L 4331 4666 
L 4331 3756 
L 2784 3756 
L 2784 0 
L 1581 0 
L 1581 3756 
L 31 3756 
L 31 4666 
z
" transform="scale(0.015625)"/>
       <path id="DejaVuSans-Bold-68" d="M 4056 2131 
L 4056 0 
L 2931 0 
L 2931 347 
L 2931 1625 
Q 2931 2084 2911 2256 
Q 2891 2428 2841 2509 
Q 2775 2619 2662 2680 
Q 2550 2741 2406 2741 
Q 2056 2741 1856 2470 
Q 1656 2200 1656 1722 
L 1656 0 
L 538 0 
L 538 4863 
L 1656 4863 
L 1656 2988 
Q 1909 3294 2193 3439 
Q 2478 3584 2822 3584 
Q 3428 3584 3742 3212 
Q 4056 2841 4056 2131 
z
" transform="scale(0.015625)"/>
       <path id="DejaVuSans-Bold-65" d="M 4031 1759 
L 4031 1441 
L 1416 1441 
Q 1456 1047 1700 850 
Q 1944 653 2381 653 
Q 2734 653 3104 758 
Q 3475 863 3866 1075 
L 3866 213 
Q 3469 63 3072 -14 
Q 2675 -91 2278 -91 
Q 1328 -91 801 392 
Q 275 875 275 1747 
Q 275 2603 792 3093 
Q 1309 3584 2216 3584 
Q 3041 3584 3536 3087 
Q 4031 2591 4031 1759 
z
M 2881 2131 
Q 2881 2450 2695 2645 
Q 2509 2841 2209 2841 
Q 1884 2841 1681 2658 
Q 1478 2475 1428 2131 
L 2881 2131 
z
" transform="scale(0.015625)"/>
       <path id="DejaVuSans-Bold-6f" d="M 2203 2784 
Q 1831 2784 1636 2517 
Q 1441 2250 1441 1747 
Q 1441 1244 1636 976 
Q 1831 709 2203 709 
Q 2569 709 2762 976 
Q 2956 1244 2956 1747 
Q 2956 2250 2762 2517 
Q 2569 2784 2203 2784 
z
M 2203 3584 
Q 3106 3584 3614 3096 
Q 4122 2609 4122 1747 
Q 4122 884 3614 396 
Q 3106 -91 2203 -91 
Q 1297 -91 786 396 
Q 275 884 275 1747 
Q 275 2609 786 3096 
Q 1297 3584 2203 3584 
z
" transform="scale(0.015625)"/>
       <path id="DejaVuSans-Bold-72" d="M 3138 2547 
Q 2991 2616 2845 2648 
Q 2700 2681 2553 2681 
Q 2122 2681 1889 2404 
Q 1656 2128 1656 1613 
L 1656 0 
L 538 0 
L 538 3500 
L 1656 3500 
L 1656 2925 
Q 1872 3269 2151 3426 
Q 2431 3584 2822 3584 
Q 2878 3584 2943 3579 
Q 3009 3575 3134 3559 
L 3138 2547 
z
" transform="scale(0.015625)"/>
       <path id="DejaVuSans-Bold-74" d="M 1759 4494 
L 1759 3500 
L 2913 3500 
L 2913 2700 
L 1759 2700 
L 1759 1216 
Q 1759 972 1856 886 
Q 1953 800 2241 800 
L 2816 800 
L 2816 0 
L 1856 0 
Q 1194 0 917 276 
Q 641 553 641 1216 
L 641 2700 
L 84 2700 
L 84 3500 
L 641 3500 
L 641 4494 
L 1759 4494 
z
" transform="scale(0.015625)"/>
       <path id="DejaVuSans-Bold-69" d="M 538 3500 
L 1656 3500 
L 1656 0 
L 538 0 
L 538 3500 
z
M 538 4863 
L 1656 4863 
L 1656 3950 
L 538 3950 
L 538 4863 
z
" transform="scale(0.015625)"/>
       <path id="DejaVuSans-Bold-63" d="M 3366 3391 
L 3366 2478 
Q 3138 2634 2908 2709 
Q 2678 2784 2431 2784 
Q 1963 2784 1702 2511 
Q 1441 2238 1441 1747 
Q 1441 1256 1702 982 
Q 1963 709 2431 709 
Q 2694 709 2930 787 
Q 3166 866 3366 1019 
L 3366 103 
Q 3103 6 2833 -42 
Q 2563 -91 2291 -91 
Q 1344 -91 809 395 
Q 275 881 275 1747 
Q 275 2613 809 3098 
Q 1344 3584 2291 3584 
Q 2566 3584 2833 3536 
Q 3100 3488 3366 3391 
z
" transform="scale(0.015625)"/>
       <path id="DejaVuSans-Bold-61" d="M 2106 1575 
Q 1756 1575 1579 1456 
Q 1403 1338 1403 1106 
Q 1403 894 1545 773 
Q 1688 653 1941 653 
Q 2256 653 2472 879 
Q 2688 1106 2688 1447 
L 2688 1575 
L 2106 1575 
z
M 3816 1997 
L 3816 0 
L 2688 0 
L 2688 519 
Q 2463 200 2181 54 
Q 1900 -91 1497 -91 
Q 953 -91 614 226 
Q 275 544 275 1050 
Q 275 1666 698 1953 
Q 1122 2241 2028 2241 
L 2688 2241 
L 2688 2328 
Q 2688 2594 2478 2717 
Q 2269 2841 1825 2841 
Q 1466 2841 1156 2769 
Q 847 2697 581 2553 
L 581 3406 
Q 941 3494 1303 3539 
Q 1666 3584 2028 3584 
Q 2975 3584 3395 3211 
Q 3816 2838 3816 1997 
z
" transform="scale(0.015625)"/>
       <path id="DejaVuSans-Bold-6c" d="M 538 4863 
L 1656 4863 
L 1656 0 
L 538 0 
L 538 4863 
z
" transform="scale(0.015625)"/>
       <path id="DejaVuSans-Bold-20" transform="scale(0.015625)"/>
       <path id="DejaVuSans-Bold-51" d="M 2847 -84 
L 2753 -84 
Q 1600 -84 959 553 
Q 319 1191 319 2328 
Q 319 3463 958 4106 
Q 1597 4750 2719 4750 
Q 3853 4750 4486 4112 
Q 5119 3475 5119 2328 
Q 5119 1541 4783 972 
Q 4447 403 3816 116 
L 4756 -934 
L 3609 -934 
L 2847 -84 
z
M 2719 3878 
Q 2169 3878 1866 3472 
Q 1563 3066 1563 2328 
Q 1563 1578 1859 1179 
Q 2156 781 2719 781 
Q 3272 781 3575 1187 
Q 3878 1594 3878 2328 
Q 3878 3066 3575 3472 
Q 3272 3878 2719 3878 
z
" transform="scale(0.015625)"/>
       <path id="DejaVuSans-Bold-75" d="M 500 1363 
L 500 3500 
L 1625 3500 
L 1625 3150 
Q 1625 2866 1622 2436 
Q 1619 2006 1619 1863 
Q 1619 1441 1641 1255 
Q 1663 1069 1716 984 
Q 1784 875 1895 815 
Q 2006 756 2150 756 
Q 2500 756 2700 1025 
Q 2900 1294 2900 1772 
L 2900 3500 
L 4019 3500 
L 4019 0 
L 2900 0 
L 2900 506 
Q 2647 200 2364 54 
Q 2081 -91 1741 -91 
Q 1134 -91 817 281 
Q 500 653 500 1363 
z
" transform="scale(0.015625)"/>
       <path id="DejaVuSans-Bold-6e" d="M 4056 2131 
L 4056 0 
L 2931 0 
L 2931 347 
L 2931 1631 
Q 2931 2084 2911 2256 
Q 2891 2428 2841 2509 
Q 2775 2619 2662 2680 
Q 2550 2741 2406 2741 
Q 2056 2741 1856 2470 
Q 1656 2200 1656 1722 
L 1656 0 
L 538 0 
L 538 3500 
L 1656 3500 
L 1656 2988 
Q 1909 3294 2193 3439 
Q 2478 3584 2822 3584 
Q 3428 3584 3742 3212 
Q 4056 2841 4056 2131 
z
" transform="scale(0.015625)"/>
       <path id="DejaVuSans-Bold-73" d="M 3272 3391 
L 3272 2541 
Q 2913 2691 2578 2766 
Q 2244 2841 1947 2841 
Q 1628 2841 1473 2761 
Q 1319 2681 1319 2516 
Q 1319 2381 1436 2309 
Q 1553 2238 1856 2203 
L 2053 2175 
Q 2913 2066 3209 1816 
Q 3506 1566 3506 1031 
Q 3506 472 3093 190 
Q 2681 -91 1863 -91 
Q 1516 -91 1145 -36 
Q 775 19 384 128 
L 384 978 
Q 719 816 1070 734 
Q 1422 653 1784 653 
Q 2113 653 2278 743 
Q 2444 834 2444 1013 
Q 2444 1163 2330 1236 
Q 2216 1309 1875 1350 
L 1678 1375 
Q 931 1469 631 1722 
Q 331 1975 331 2491 
Q 331 3047 712 3315 
Q 1094 3584 1881 3584 
Q 2191 3584 2531 3537 
Q 2872 3491 3272 3391 
z
" transform="scale(0.015625)"/>
      </defs>
      <use xlink:href="#DejaVuSans-Bold-54"/>
      <use xlink:href="#DejaVuSans-Bold-68" x="68.212891"/>
      <use xlink:href="#DejaVuSans-Bold-65" x="139.404297"/>
      <use xlink:href="#DejaVuSans-Bold-6f" x="207.226562"/>
      <use xlink:href="#DejaVuSans-Bold-72" x="275.927734"/>
      <use xlink:href="#DejaVuSans-Bold-65" x="325.244141"/>
      <use xlink:href="#DejaVuSans-Bold-74" x="393.066406"/>
      <use xlink:href="#DejaVuSans-Bold-69" x="440.869141"/>
      <use xlink:href="#DejaVuSans-Bold-63" x="475.146484"/>
      <use xlink:href="#DejaVuSans-Bold-61" x="534.423828"/>
      <use xlink:href="#DejaVuSans-Bold-6c" x="601.904297"/>
      <use xlink:href="#DejaVuSans-Bold-20" x="636.181641"/>
      <use xlink:href="#DejaVuSans-Bold-51" x="670.996094"/>
      <use xlink:href="#DejaVuSans-Bold-75" x="756.005859"/>
      <use xlink:href="#DejaVuSans-Bold-61" x="827.197266"/>
      <use xlink:href="#DejaVuSans-Bold-6e" x="894.677734"/>
      <use xlink:href="#DejaVuSans-Bold-74" x="965.869141"/>
      <use xlink:href="#DejaVuSans-Bold-69" x="1013.671875"/>
      <use xlink:href="#DejaVuSans-Bold-6c" x="1047.949219"/>
      <use xlink:href="#DejaVuSans-Bold-65" x="1082.226562"/>
      <use xlink:href="#DejaVuSans-Bold-73" x="1150.048828"/>
     </g>
    </g>
   </g>
   <g id="matplotlib.axis_2">
    <g id="ytick_1">
     <g id="line2d_6">
      <defs>
       <path id="m1f5ac2c9f1" d="M 0 0 
L -3.5 0 
" style="stroke: #000000; stroke-width: 0.8"/>
      </defs>
      <g>
       <use xlink:href="#m1f5ac2c9f1" x="78.05" y="445.43631" style="stroke: #000000; stroke-width: 0.8"/>
      </g>
     </g>
     <g id="text_7">
      <!-- −2 -->
      <g transform="translate(38.617188 453.794592) scale(0.22 -0.22)">
       <use xlink:href="#DejaVuSans-2212"/>
       <use xlink:href="#DejaVuSans-32" x="83.789062"/>
      </g>
     </g>
    </g>
    <g id="ytick_2">
     <g id="line2d_7">
      <g>
       <use xlink:href="#m1f5ac2c9f1" x="78.05" y="359.621381" style="stroke: #000000; stroke-width: 0.8"/>
      </g>
     </g>
     <g id="text_8">
      <!-- −1 -->
      <g transform="translate(38.617188 367.979662) scale(0.22 -0.22)">
       <use xlink:href="#DejaVuSans-2212"/>
       <use xlink:href="#DejaVuSans-31" x="83.789062"/>
      </g>
     </g>
    </g>
    <g id="ytick_3">
     <g id="line2d_8">
      <g>
       <use xlink:href="#m1f5ac2c9f1" x="78.05" y="273.806451" style="stroke: #000000; stroke-width: 0.8"/>
      </g>
     </g>
     <g id="text_9">
      <!-- 0 -->
      <g transform="translate(57.0525 282.164732) scale(0.22 -0.22)">
       <use xlink:href="#DejaVuSans-30"/>
      </g>
     </g>
    </g>
    <g id="ytick_4">
     <g id="line2d_9">
      <g>
       <use xlink:href="#m1f5ac2c9f1" x="78.05" y="187.991521" style="stroke: #000000; stroke-width: 0.8"/>
      </g>
     </g>
     <g id="text_10">
      <!-- 1 -->
      <g transform="translate(57.0525 196.349803) scale(0.22 -0.22)">
       <use xlink:href="#DejaVuSans-31"/>
      </g>
     </g>
    </g>
    <g id="ytick_5">
     <g id="line2d_10">
      <g>
       <use xlink:href="#m1f5ac2c9f1" x="78.05" y="102.176592" style="stroke: #000000; stroke-width: 0.8"/>
      </g>
     </g>
     <g id="text_11">
      <!-- 2 -->
      <g transform="translate(57.0525 110.534873) scale(0.22 -0.22)">
       <use xlink:href="#DejaVuSans-32"/>
      </g>
     </g>
    </g>
    <g id="text_12">
     <!-- Sample Quantiles -->
     <g transform="translate(29.625938 392.87375) rotate(-90) scale(0.24 -0.24)">
      <defs>
       <path id="DejaVuSans-Bold-53" d="M 3834 4519 
L 3834 3531 
Q 3450 3703 3084 3790 
Q 2719 3878 2394 3878 
Q 1963 3878 1756 3759 
Q 1550 3641 1550 3391 
Q 1550 3203 1689 3098 
Q 1828 2994 2194 2919 
L 2706 2816 
Q 3484 2659 3812 2340 
Q 4141 2022 4141 1434 
Q 4141 663 3683 286 
Q 3225 -91 2284 -91 
Q 1841 -91 1394 -6 
Q 947 78 500 244 
L 500 1259 
Q 947 1022 1364 901 
Q 1781 781 2169 781 
Q 2563 781 2772 912 
Q 2981 1044 2981 1288 
Q 2981 1506 2839 1625 
Q 2697 1744 2272 1838 
L 1806 1941 
Q 1106 2091 782 2419 
Q 459 2747 459 3303 
Q 459 4000 909 4375 
Q 1359 4750 2203 4750 
Q 2588 4750 2994 4692 
Q 3400 4634 3834 4519 
z
" transform="scale(0.015625)"/>
       <path id="DejaVuSans-Bold-6d" d="M 3781 2919 
Q 3994 3244 4286 3414 
Q 4578 3584 4928 3584 
Q 5531 3584 5847 3212 
Q 6163 2841 6163 2131 
L 6163 0 
L 5038 0 
L 5038 1825 
Q 5041 1866 5042 1909 
Q 5044 1953 5044 2034 
Q 5044 2406 4934 2573 
Q 4825 2741 4581 2741 
Q 4263 2741 4089 2478 
Q 3916 2216 3909 1719 
L 3909 0 
L 2784 0 
L 2784 1825 
Q 2784 2406 2684 2573 
Q 2584 2741 2328 2741 
Q 2006 2741 1831 2477 
Q 1656 2213 1656 1722 
L 1656 0 
L 531 0 
L 531 3500 
L 1656 3500 
L 1656 2988 
Q 1863 3284 2130 3434 
Q 2397 3584 2719 3584 
Q 3081 3584 3359 3409 
Q 3638 3234 3781 2919 
z
" transform="scale(0.015625)"/>
       <path id="DejaVuSans-Bold-70" d="M 1656 506 
L 1656 -1331 
L 538 -1331 
L 538 3500 
L 1656 3500 
L 1656 2988 
Q 1888 3294 2169 3439 
Q 2450 3584 2816 3584 
Q 3463 3584 3878 3070 
Q 4294 2556 4294 1747 
Q 4294 938 3878 423 
Q 3463 -91 2816 -91 
Q 2450 -91 2169 54 
Q 1888 200 1656 506 
z
M 2400 2772 
Q 2041 2772 1848 2508 
Q 1656 2244 1656 1747 
Q 1656 1250 1848 986 
Q 2041 722 2400 722 
Q 2759 722 2948 984 
Q 3138 1247 3138 1747 
Q 3138 2247 2948 2509 
Q 2759 2772 2400 2772 
z
" transform="scale(0.015625)"/>
      </defs>
      <use xlink:href="#DejaVuSans-Bold-53"/>
      <use xlink:href="#DejaVuSans-Bold-61" x="72.021484"/>
      <use xlink:href="#DejaVuSans-Bold-6d" x="139.501953"/>
      <use xlink:href="#DejaVuSans-Bold-70" x="243.701172"/>
      <use xlink:href="#DejaVuSans-Bold-6c" x="315.283203"/>
      <use xlink:href="#DejaVuSans-Bold-65" x="349.560547"/>
      <use xlink:href="#DejaVuSans-Bold-20" x="417.382812"/>
      <use xlink:href="#DejaVuSans-Bold-51" x="452.197266"/>
      <use xlink:href="#DejaVuSans-Bold-75" x="537.207031"/>
      <use xlink:href="#DejaVuSans-Bold-61" x="608.398438"/>
      <use xlink:href="#DejaVuSans-Bold-6e" x="675.878906"/>
      <use xlink:href="#DejaVuSans-Bold-74" x="747.070312"/>
      <use xlink:href="#DejaVuSans-Bold-69" x="794.873047"/>
      <use xlink:href="#DejaVuSans-Bold-6c" x="829.150391"/>
      <use xlink:href="#DejaVuSans-Bold-65" x="863.427734"/>
      <use xlink:href="#DejaVuSans-Bold-73" x="931.25"/>
     </g>
    </g>
   </g>
   <g id="line2d_11">
    <defs>
     <path id="med34dc587c" d="M 0 3 
C 0.795609 3 1.55874 2.683901 2.12132 2.12132 
C 2.683901 1.55874 3 0.795609 3 0 
C 3 -0.795609 2.683901 -1.55874 2.12132 -2.12132 
C 1.55874 -2.683901 0.795609 -3 0 -3 
C -0.795609 -3 -1.55874 -2.683901 -2.12132 -2.12132 
C -2.683901 -1.55874 -3 -0.795609 -3 0 
C -3 0.795609 -2.683901 1.55874 -2.12132 2.12132 
C -1.55874 2.683901 -0.795609 3 0 3 
z
" style="stroke: #0000ff"/>
    </defs>
    <g clip-path="url(#paac7b2ad54)">
     <use xlink:href="#med34dc587c" x="113.284091" y="464.995233" style="fill: #0000ff; stroke: #0000ff"/>
     <use xlink:href="#med34dc587c" x="161.416148" y="458.861343" style="fill: #0000ff; stroke: #0000ff"/>
     <use xlink:href="#med34dc587c" x="189.248032" y="447.638366" style="fill: #0000ff; stroke: #0000ff"/>
     <use xlink:href="#med34dc587c" x="209.395161" y="418.832623" style="fill: #0000ff; stroke: #0000ff"/>
     <use xlink:href="#med34dc587c" x="225.459698" y="415.092466" style="fill: #0000ff; stroke: #0000ff"/>
     <use xlink:href="#med34dc587c" x="238.96663" y="413.879799" style="fill: #0000ff; stroke: #0000ff"/>
     <use xlink:href="#med34dc587c" x="250.711621" y="407.785805" style="fill: #0000ff; stroke: #0000ff"/>
     <use xlink:href="#med34dc587c" x="261.16488" y="402.700872" style="fill: #0000ff; stroke: #0000ff"/>
     <use xlink:href="#med34dc587c" x="270.628529" y="382.530567" style="fill: #0000ff; stroke: #0000ff"/>
     <use xlink:href="#med34dc587c" x="279.308773" y="378.216235" style="fill: #0000ff; stroke: #0000ff"/>
     <use xlink:href="#med34dc587c" x="287.352944" y="372.511786" style="fill: #0000ff; stroke: #0000ff"/>
     <use xlink:href="#med34dc587c" x="294.870162" y="368.343241" style="fill: #0000ff; stroke: #0000ff"/>
     <use xlink:href="#med34dc587c" x="301.943627" y="367.848777" style="fill: #0000ff; stroke: #0000ff"/>
     <use xlink:href="#med34dc587c" x="308.638313" y="367.45118" style="fill: #0000ff; stroke: #0000ff"/>
     <use xlink:href="#med34dc587c" x="315.005995" y="365.475094" style="fill: #0000ff; stroke: #0000ff"/>
     <use xlink:href="#med34dc587c" x="321.088641" y="364.437522" style="fill: #0000ff; stroke: #0000ff"/>
     <use xlink:href="#med34dc587c" x="326.920784" y="363.393721" style="fill: #0000ff; stroke: #0000ff"/>
     <use xlink:href="#med34dc587c" x="332.531207" y="362.658639" style="fill: #0000ff; stroke: #0000ff"/>
     <use xlink:href="#med34dc587c" x="337.944179" y="362.646619" style="fill: #0000ff; stroke: #0000ff"/>
     <use xlink:href="#med34dc587c" x="343.180372" y="359.777438" style="fill: #0000ff; stroke: #0000ff"/>
     <use xlink:href="#med34dc587c" x="348.257558" y="356.591074" style="fill: #0000ff; stroke: #0000ff"/>
     <use xlink:href="#med34dc587c" x="353.191142" y="355.071974" style="fill: #0000ff; stroke: #0000ff"/>
     <use xlink:href="#med34dc587c" x="357.994581" y="348.153136" style="fill: #0000ff; stroke: #0000ff"/>
     <use xlink:href="#med34dc587c" x="362.679713" y="346.292515" style="fill: #0000ff; stroke: #0000ff"/>
     <use xlink:href="#med34dc587c" x="367.257015" y="345.697444" style="fill: #0000ff; stroke: #0000ff"/>
     <use xlink:href="#med34dc587c" x="371.735823" y="345.035762" style="fill: #0000ff; stroke: #0000ff"/>
     <use xlink:href="#med34dc587c" x="376.124495" y="340.779453" style="fill: #0000ff; stroke: #0000ff"/>
     <use xlink:href="#med34dc587c" x="380.430561" y="334.78582" style="fill: #0000ff; stroke: #0000ff"/>
     <use xlink:href="#med34dc587c" x="384.660833" y="330.315931" style="fill: #0000ff; stroke: #0000ff"/>
     <use xlink:href="#med34dc587c" x="388.821508" y="327.597198" style="fill: #0000ff; stroke: #0000ff"/>
     <use xlink:href="#med34dc587c" x="392.918247" y="320.594499" style="fill: #0000ff; stroke: #0000ff"/>
     <use xlink:href="#med34dc587c" x="396.956246" y="319.289599" style="fill: #0000ff; stroke: #0000ff"/>
     <use xlink:href="#med34dc587c" x="400.940293" y="313.942066" style="fill: #0000ff; stroke: #0000ff"/>
     <use xlink:href="#med34dc587c" x="404.874821" y="312.20414" style="fill: #0000ff; stroke: #0000ff"/>
     <use xlink:href="#med34dc587c" x="408.76395" y="310.813452" style="fill: #0000ff; stroke: #0000ff"/>
     <use xlink:href="#med34dc587c" x="412.611526" y="306.125031" style="fill: #0000ff; stroke: #0000ff"/>
     <use xlink:href="#med34dc587c" x="416.421154" y="305.668855" style="fill: #0000ff; stroke: #0000ff"/>
     <use xlink:href="#med34dc587c" x="420.196223" y="304.038454" style="fill: #0000ff; stroke: #0000ff"/>
     <use xlink:href="#med34dc587c" x="423.939938" y="300.958637" style="fill: #0000ff; stroke: #0000ff"/>
     <use xlink:href="#med34dc587c" x="427.655338" y="300.943964" style="fill: #0000ff; stroke: #0000ff"/>
     <use xlink:href="#med34dc587c" x="431.345315" y="298.579338" style="fill: #0000ff; stroke: #0000ff"/>
     <use xlink:href="#med34dc587c" x="435.012639" y="298.164675" style="fill: #0000ff; stroke: #0000ff"/>
     <use xlink:href="#med34dc587c" x="438.659966" y="296.907216" style="fill: #0000ff; stroke: #0000ff"/>
     <use xlink:href="#med34dc587c" x="442.289859" y="295.261053" style="fill: #0000ff; stroke: #0000ff"/>
     <use xlink:href="#med34dc587c" x="445.904798" y="291.758197" style="fill: #0000ff; stroke: #0000ff"/>
     <use xlink:href="#med34dc587c" x="449.507196" y="291.701443" style="fill: #0000ff; stroke: #0000ff"/>
     <use xlink:href="#med34dc587c" x="453.099409" y="291.280902" style="fill: #0000ff; stroke: #0000ff"/>
     <use xlink:href="#med34dc587c" x="456.683745" y="289.80464" style="fill: #0000ff; stroke: #0000ff"/>
     <use xlink:href="#med34dc587c" x="460.262481" y="286.43418" style="fill: #0000ff; stroke: #0000ff"/>
     <use xlink:href="#med34dc587c" x="463.837865" y="281.156512" style="fill: #0000ff; stroke: #0000ff"/>
     <use xlink:href="#med34dc587c" x="467.412135" y="280.675002" style="fill: #0000ff; stroke: #0000ff"/>
     <use xlink:href="#med34dc587c" x="470.987519" y="278.567618" style="fill: #0000ff; stroke: #0000ff"/>
     <use xlink:href="#med34dc587c" x="474.566255" y="278.234317" style="fill: #0000ff; stroke: #0000ff"/>
     <use xlink:href="#med34dc587c" x="478.150591" y="276.01077" style="fill: #0000ff; stroke: #0000ff"/>
     <use xlink:href="#med34dc587c" x="481.742804" y="260.26792" style="fill: #0000ff; stroke: #0000ff"/>
     <use xlink:href="#med34dc587c" x="485.345202" y="256.585643" style="fill: #0000ff; stroke: #0000ff"/>
     <use xlink:href="#med34dc587c" x="488.960141" y="250.372786" style="fill: #0000ff; stroke: #0000ff"/>
     <use xlink:href="#med34dc587c" x="492.590034" y="248.175301" style="fill: #0000ff; stroke: #0000ff"/>
     <use xlink:href="#med34dc587c" x="496.237361" y="244.057552" style="fill: #0000ff; stroke: #0000ff"/>
     <use xlink:href="#med34dc587c" x="499.904685" y="240.165475" style="fill: #0000ff; stroke: #0000ff"/>
     <use xlink:href="#med34dc587c" x="503.594662" y="239.74535" style="fill: #0000ff; stroke: #0000ff"/>
     <use xlink:href="#med34dc587c" x="507.310062" y="237.596973" style="fill: #0000ff; stroke: #0000ff"/>
     <use xlink:href="#med34dc587c" x="511.053777" y="235.380709" style="fill: #0000ff; stroke: #0000ff"/>
     <use xlink:href="#med34dc587c" x="514.828846" y="234.435378" style="fill: #0000ff; stroke: #0000ff"/>
     <use xlink:href="#med34dc587c" x="518.638474" y="233.771844" style="fill: #0000ff; stroke: #0000ff"/>
     <use xlink:href="#med34dc587c" x="522.48605" y="229.390188" style="fill: #0000ff; stroke: #0000ff"/>
     <use xlink:href="#med34dc587c" x="526.375179" y="226.331493" style="fill: #0000ff; stroke: #0000ff"/>
     <use xlink:href="#med34dc587c" x="530.309707" y="225.078561" style="fill: #0000ff; stroke: #0000ff"/>
     <use xlink:href="#med34dc587c" x="534.293754" y="221.078221" style="fill: #0000ff; stroke: #0000ff"/>
     <use xlink:href="#med34dc587c" x="538.331753" y="220.600877" style="fill: #0000ff; stroke: #0000ff"/>
     <use xlink:href="#med34dc587c" x="542.428492" y="219.152865" style="fill: #0000ff; stroke: #0000ff"/>
     <use xlink:href="#med34dc587c" x="546.589167" y="218.73529" style="fill: #0000ff; stroke: #0000ff"/>
     <use xlink:href="#med34dc587c" x="550.819439" y="217.480327" style="fill: #0000ff; stroke: #0000ff"/>
     <use xlink:href="#med34dc587c" x="555.125505" y="216.792916" style="fill: #0000ff; stroke: #0000ff"/>
     <use xlink:href="#med34dc587c" x="559.514177" y="214.91583" style="fill: #0000ff; stroke: #0000ff"/>
     <use xlink:href="#med34dc587c" x="563.992985" y="213.683031" style="fill: #0000ff; stroke: #0000ff"/>
     <use xlink:href="#med34dc587c" x="568.570287" y="212.171189" style="fill: #0000ff; stroke: #0000ff"/>
     <use xlink:href="#med34dc587c" x="573.255419" y="208.499568" style="fill: #0000ff; stroke: #0000ff"/>
     <use xlink:href="#med34dc587c" x="578.058858" y="202.872115" style="fill: #0000ff; stroke: #0000ff"/>
     <use xlink:href="#med34dc587c" x="582.992442" y="195.419852" style="fill: #0000ff; stroke: #0000ff"/>
     <use xlink:href="#med34dc587c" x="588.069628" y="195.370533" style="fill: #0000ff; stroke: #0000ff"/>
     <use xlink:href="#med34dc587c" x="593.305821" y="192.291859" style="fill: #0000ff; stroke: #0000ff"/>
     <use xlink:href="#med34dc587c" x="598.718793" y="191.413686" style="fill: #0000ff; stroke: #0000ff"/>
     <use xlink:href="#med34dc587c" x="604.329216" y="181.566159" style="fill: #0000ff; stroke: #0000ff"/>
     <use xlink:href="#med34dc587c" x="610.161359" y="180.43479" style="fill: #0000ff; stroke: #0000ff"/>
     <use xlink:href="#med34dc587c" x="616.244005" y="178.305347" style="fill: #0000ff; stroke: #0000ff"/>
     <use xlink:href="#med34dc587c" x="622.611687" y="178.19694" style="fill: #0000ff; stroke: #0000ff"/>
     <use xlink:href="#med34dc587c" x="629.306373" y="174.484752" style="fill: #0000ff; stroke: #0000ff"/>
     <use xlink:href="#med34dc587c" x="636.379838" y="170.36846" style="fill: #0000ff; stroke: #0000ff"/>
     <use xlink:href="#med34dc587c" x="643.897056" y="152.055339" style="fill: #0000ff; stroke: #0000ff"/>
     <use xlink:href="#med34dc587c" x="651.941227" y="148.433727" style="fill: #0000ff; stroke: #0000ff"/>
     <use xlink:href="#med34dc587c" x="660.621471" y="136.813142" style="fill: #0000ff; stroke: #0000ff"/>
     <use xlink:href="#med34dc587c" x="670.08512" y="136.775425" style="fill: #0000ff; stroke: #0000ff"/>
     <use xlink:href="#med34dc587c" x="680.538379" y="132.348051" style="fill: #0000ff; stroke: #0000ff"/>
     <use xlink:href="#med34dc587c" x="692.28337" y="129.491045" style="fill: #0000ff; stroke: #0000ff"/>
     <use xlink:href="#med34dc587c" x="705.790302" y="128.40618" style="fill: #0000ff; stroke: #0000ff"/>
     <use xlink:href="#med34dc587c" x="721.854839" y="127.109086" style="fill: #0000ff; stroke: #0000ff"/>
     <use xlink:href="#med34dc587c" x="742.001968" y="120.786207" style="fill: #0000ff; stroke: #0000ff"/>
     <use xlink:href="#med34dc587c" x="769.833852" y="108.988707" style="fill: #0000ff; stroke: #0000ff"/>
     <use xlink:href="#med34dc587c" x="817.965909" y="107.091227" style="fill: #0000ff; stroke: #0000ff"/>
    </g>
   </g>
   <g id="line2d_12">
    <path d="M 113.284091 488.143636 
L 161.416148 458.887492 
L 189.248032 441.970418 
L 209.395161 429.724373 
L 225.459698 419.959854 
L 238.96663 411.749925 
L 250.711621 404.610958 
L 261.16488 398.257146 
L 270.628529 392.50485 
L 279.308773 387.228731 
L 287.352944 382.339236 
L 294.870162 377.77004 
L 301.943627 373.47057 
L 308.638313 369.401334 
L 315.005995 365.530862 
L 321.088641 361.833642 
L 326.920784 358.288687 
L 332.531207 354.878499 
L 337.944179 351.588328 
L 343.180372 348.405609 
L 348.257558 345.319539 
L 353.191142 342.320755 
L 357.994581 339.401077 
L 362.679713 336.55331 
L 367.257015 333.771085 
L 371.735823 331.048728 
L 376.124495 328.381158 
L 380.430561 325.763799 
L 384.660833 323.19251 
L 388.821508 320.663523 
L 392.918247 318.1734 
L 396.956246 315.71898 
L 400.940293 313.297354 
L 404.874821 310.905827 
L 408.76395 308.541894 
L 412.611526 306.203219 
L 416.421154 303.88761 
L 420.196223 301.593007 
L 423.939938 299.317462 
L 427.655338 297.059128 
L 431.345315 294.816246 
L 435.012639 292.587134 
L 438.659966 290.370177 
L 442.289859 288.163816 
L 445.904798 285.966545 
L 449.507196 283.776897 
L 453.099409 281.59344 
L 456.683745 279.41477 
L 460.262481 277.239504 
L 463.837865 275.066275 
L 467.412135 272.893725 
L 470.987519 270.720496 
L 474.566255 268.54523 
L 478.150591 266.36656 
L 481.742804 264.183103 
L 485.345202 261.993455 
L 488.960141 259.796184 
L 492.590034 257.589823 
L 496.237361 255.372866 
L 499.904685 253.143754 
L 503.594662 250.900872 
L 507.310062 248.642538 
L 511.053777 246.366993 
L 514.828846 244.07239 
L 518.638474 241.756781 
L 522.48605 239.418106 
L 526.375179 237.054173 
L 530.309707 234.662646 
L 534.293754 232.24102 
L 538.331753 229.7866 
L 542.428492 227.296477 
L 546.589167 224.76749 
L 550.819439 222.196201 
L 555.125505 219.578842 
L 559.514177 216.911272 
L 563.992985 214.188915 
L 568.570287 211.40669 
L 573.255419 208.558923 
L 578.058858 205.639245 
L 582.992442 202.640461 
L 588.069628 199.554391 
L 593.305821 196.371672 
L 598.718793 193.081501 
L 604.329216 189.671313 
L 610.161359 186.126358 
L 616.244005 182.429138 
L 622.611687 178.558666 
L 629.306373 174.48943 
L 636.379838 170.18996 
L 643.897056 165.620764 
L 651.941227 160.731269 
L 660.621471 155.45515 
L 670.08512 149.702854 
L 680.538379 143.349042 
L 692.28337 136.210075 
L 705.790302 128.000146 
L 721.854839 118.235627 
L 742.001968 105.989582 
L 769.833852 89.072508 
L 817.965909 59.816364 
" clip-path="url(#paac7b2ad54)" style="fill: none; stroke: #ff0000; stroke-width: 1.5; stroke-linecap: square"/>
   </g>
   <g id="patch_3">
    <path d="M 78.05 509.56 
L 78.05 38.4 
" style="fill: none; stroke: #000000; stroke-width: 0.8; stroke-linejoin: miter; stroke-linecap: square"/>
   </g>
   <g id="patch_4">
    <path d="M 853.2 509.56 
L 853.2 38.4 
" style="fill: none; stroke: #000000; stroke-width: 0.8; stroke-linejoin: miter; stroke-linecap: square"/>
   </g>
   <g id="patch_5">
    <path d="M 78.05 509.56 
L 853.2 509.56 
" style="fill: none; stroke: #000000; stroke-width: 0.8; stroke-linejoin: miter; stroke-linecap: square"/>
   </g>
   <g id="patch_6">
    <path d="M 78.05 38.4 
L 853.2 38.4 
" style="fill: none; stroke: #000000; stroke-width: 0.8; stroke-linejoin: miter; stroke-linecap: square"/>
   </g>
   <g id="text_13">
    <!-- QQ Plot (BNN FC1 Index 0, r=0.9936) -->
    <g transform="translate(173.289688 32.4) scale(0.28 -0.28)">
     <defs>
      <path id="DejaVuSans-Bold-50" d="M 588 4666 
L 2584 4666 
Q 3475 4666 3951 4270 
Q 4428 3875 4428 3144 
Q 4428 2409 3951 2014 
Q 3475 1619 2584 1619 
L 1791 1619 
L 1791 0 
L 588 0 
L 588 4666 
z
M 1791 3794 
L 1791 2491 
L 2456 2491 
Q 2806 2491 2997 2661 
Q 3188 2831 3188 3144 
Q 3188 3456 2997 3625 
Q 2806 3794 2456 3794 
L 1791 3794 
z
" transform="scale(0.015625)"/>
      <path id="DejaVuSans-Bold-28" d="M 2413 -844 
L 1484 -844 
Q 1006 -72 778 623 
Q 550 1319 550 2003 
Q 550 2688 779 3389 
Q 1009 4091 1484 4856 
L 2413 4856 
Q 2013 4116 1813 3408 
Q 1613 2700 1613 2009 
Q 1613 1319 1811 609 
Q 2009 -100 2413 -844 
z
" transform="scale(0.015625)"/>
      <path id="DejaVuSans-Bold-42" d="M 2456 2859 
Q 2741 2859 2887 2984 
Q 3034 3109 3034 3353 
Q 3034 3594 2887 3720 
Q 2741 3847 2456 3847 
L 1791 3847 
L 1791 2859 
L 2456 2859 
z
M 2497 819 
Q 2859 819 3042 972 
Q 3225 1125 3225 1434 
Q 3225 1738 3044 1889 
Q 2863 2041 2497 2041 
L 1791 2041 
L 1791 819 
L 2497 819 
z
M 3616 2497 
Q 4003 2384 4215 2081 
Q 4428 1778 4428 1338 
Q 4428 663 3972 331 
Q 3516 0 2584 0 
L 588 0 
L 588 4666 
L 2394 4666 
Q 3366 4666 3802 4372 
Q 4238 4078 4238 3431 
Q 4238 3091 4078 2852 
Q 3919 2613 3616 2497 
z
" transform="scale(0.015625)"/>
      <path id="DejaVuSans-Bold-4e" d="M 588 4666 
L 1931 4666 
L 3628 1466 
L 3628 4666 
L 4769 4666 
L 4769 0 
L 3425 0 
L 1728 3200 
L 1728 0 
L 588 0 
L 588 4666 
z
" transform="scale(0.015625)"/>
      <path id="DejaVuSans-Bold-46" d="M 588 4666 
L 3834 4666 
L 3834 3756 
L 1791 3756 
L 1791 2888 
L 3713 2888 
L 3713 1978 
L 1791 1978 
L 1791 0 
L 588 0 
L 588 4666 
z
" transform="scale(0.015625)"/>
      <path id="DejaVuSans-Bold-43" d="M 4288 256 
Q 3956 84 3597 -3 
Q 3238 -91 2847 -91 
Q 1681 -91 1000 561 
Q 319 1213 319 2328 
Q 319 3447 1000 4098 
Q 1681 4750 2847 4750 
Q 3238 4750 3597 4662 
Q 3956 4575 4288 4403 
L 4288 3438 
Q 3953 3666 3628 3772 
Q 3303 3878 2944 3878 
Q 2300 3878 1931 3465 
Q 1563 3053 1563 2328 
Q 1563 1606 1931 1193 
Q 2300 781 2944 781 
Q 3303 781 3628 887 
Q 3953 994 4288 1222 
L 4288 256 
z
" transform="scale(0.015625)"/>
      <path id="DejaVuSans-Bold-31" d="M 750 831 
L 1813 831 
L 1813 3847 
L 722 3622 
L 722 4441 
L 1806 4666 
L 2950 4666 
L 2950 831 
L 4013 831 
L 4013 0 
L 750 0 
L 750 831 
z
" transform="scale(0.015625)"/>
      <path id="DejaVuSans-Bold-49" d="M 588 4666 
L 1791 4666 
L 1791 0 
L 588 0 
L 588 4666 
z
" transform="scale(0.015625)"/>
      <path id="DejaVuSans-Bold-64" d="M 2919 2988 
L 2919 4863 
L 4044 4863 
L 4044 0 
L 2919 0 
L 2919 506 
Q 2688 197 2409 53 
Q 2131 -91 1766 -91 
Q 1119 -91 703 423 
Q 288 938 288 1747 
Q 288 2556 703 3070 
Q 1119 3584 1766 3584 
Q 2128 3584 2408 3439 
Q 2688 3294 2919 2988 
z
M 2181 722 
Q 2541 722 2730 984 
Q 2919 1247 2919 1747 
Q 2919 2247 2730 2509 
Q 2541 2772 2181 2772 
Q 1825 2772 1636 2509 
Q 1447 2247 1447 1747 
Q 1447 1247 1636 984 
Q 1825 722 2181 722 
z
" transform="scale(0.015625)"/>
      <path id="DejaVuSans-Bold-78" d="M 1422 1791 
L 159 3500 
L 1344 3500 
L 2059 2463 
L 2784 3500 
L 3969 3500 
L 2706 1797 
L 4031 0 
L 2847 0 
L 2059 1106 
L 1281 0 
L 97 0 
L 1422 1791 
z
" transform="scale(0.015625)"/>
      <path id="DejaVuSans-Bold-30" d="M 2944 2338 
Q 2944 3213 2780 3570 
Q 2616 3928 2228 3928 
Q 1841 3928 1675 3570 
Q 1509 3213 1509 2338 
Q 1509 1453 1675 1090 
Q 1841 728 2228 728 
Q 2613 728 2778 1090 
Q 2944 1453 2944 2338 
z
M 4147 2328 
Q 4147 1169 3647 539 
Q 3147 -91 2228 -91 
Q 1306 -91 806 539 
Q 306 1169 306 2328 
Q 306 3491 806 4120 
Q 1306 4750 2228 4750 
Q 3147 4750 3647 4120 
Q 4147 3491 4147 2328 
z
" transform="scale(0.015625)"/>
      <path id="DejaVuSans-Bold-2c" d="M 653 1209 
L 1778 1209 
L 1778 256 
L 1006 -909 
L 341 -909 
L 653 256 
L 653 1209 
z
" transform="scale(0.015625)"/>
      <path id="DejaVuSans-Bold-3d" d="M 678 3084 
L 4684 3084 
L 4684 2350 
L 678 2350 
L 678 3084 
z
M 678 1663 
L 4684 1663 
L 4684 922 
L 678 922 
L 678 1663 
z
" transform="scale(0.015625)"/>
      <path id="DejaVuSans-Bold-2e" d="M 653 1209 
L 1778 1209 
L 1778 0 
L 653 0 
L 653 1209 
z
" transform="scale(0.015625)"/>
      <path id="DejaVuSans-Bold-39" d="M 641 103 
L 641 966 
Q 928 831 1190 764 
Q 1453 697 1709 697 
Q 2247 697 2547 995 
Q 2847 1294 2900 1881 
Q 2688 1725 2447 1647 
Q 2206 1569 1925 1569 
Q 1209 1569 770 1986 
Q 331 2403 331 3084 
Q 331 3838 820 4291 
Q 1309 4744 2131 4744 
Q 3044 4744 3544 4128 
Q 4044 3513 4044 2388 
Q 4044 1231 3459 570 
Q 2875 -91 1856 -91 
Q 1528 -91 1228 -42 
Q 928 6 641 103 
z
M 2125 2350 
Q 2441 2350 2600 2554 
Q 2759 2759 2759 3169 
Q 2759 3575 2600 3781 
Q 2441 3988 2125 3988 
Q 1809 3988 1650 3781 
Q 1491 3575 1491 3169 
Q 1491 2759 1650 2554 
Q 1809 2350 2125 2350 
z
" transform="scale(0.015625)"/>
      <path id="DejaVuSans-Bold-33" d="M 2981 2516 
Q 3453 2394 3698 2092 
Q 3944 1791 3944 1325 
Q 3944 631 3412 270 
Q 2881 -91 1863 -91 
Q 1503 -91 1142 -33 
Q 781 25 428 141 
L 428 1069 
Q 766 900 1098 814 
Q 1431 728 1753 728 
Q 2231 728 2486 893 
Q 2741 1059 2741 1369 
Q 2741 1688 2480 1852 
Q 2219 2016 1709 2016 
L 1228 2016 
L 1228 2791 
L 1734 2791 
Q 2188 2791 2409 2933 
Q 2631 3075 2631 3366 
Q 2631 3634 2415 3781 
Q 2200 3928 1806 3928 
Q 1516 3928 1219 3862 
Q 922 3797 628 3669 
L 628 4550 
Q 984 4650 1334 4700 
Q 1684 4750 2022 4750 
Q 2931 4750 3382 4451 
Q 3834 4153 3834 3553 
Q 3834 3144 3618 2883 
Q 3403 2622 2981 2516 
z
" transform="scale(0.015625)"/>
      <path id="DejaVuSans-Bold-36" d="M 2316 2303 
Q 2000 2303 1842 2098 
Q 1684 1894 1684 1484 
Q 1684 1075 1842 870 
Q 2000 666 2316 666 
Q 2634 666 2792 870 
Q 2950 1075 2950 1484 
Q 2950 1894 2792 2098 
Q 2634 2303 2316 2303 
z
M 3803 4544 
L 3803 3681 
Q 3506 3822 3243 3889 
Q 2981 3956 2731 3956 
Q 2194 3956 1894 3657 
Q 1594 3359 1544 2772 
Q 1750 2925 1990 3001 
Q 2231 3078 2516 3078 
Q 3231 3078 3670 2659 
Q 4109 2241 4109 1563 
Q 4109 813 3618 361 
Q 3128 -91 2303 -91 
Q 1394 -91 895 523 
Q 397 1138 397 2266 
Q 397 3422 980 4083 
Q 1563 4744 2578 4744 
Q 2900 4744 3203 4694 
Q 3506 4644 3803 4544 
z
" transform="scale(0.015625)"/>
      <path id="DejaVuSans-Bold-29" d="M 513 -844 
Q 913 -100 1113 609 
Q 1313 1319 1313 2009 
Q 1313 2700 1113 3408 
Q 913 4116 513 4856 
L 1441 4856 
Q 1916 4091 2145 3389 
Q 2375 2688 2375 2003 
Q 2375 1319 2147 623 
Q 1919 -72 1441 -844 
L 513 -844 
z
" transform="scale(0.015625)"/>
     </defs>
     <use xlink:href="#DejaVuSans-Bold-51"/>
     <use xlink:href="#DejaVuSans-Bold-51" x="85.009766"/>
     <use xlink:href="#DejaVuSans-Bold-20" x="170.019531"/>
     <use xlink:href="#DejaVuSans-Bold-50" x="204.833984"/>
     <use xlink:href="#DejaVuSans-Bold-6c" x="278.125"/>
     <use xlink:href="#DejaVuSans-Bold-6f" x="312.402344"/>
     <use xlink:href="#DejaVuSans-Bold-74" x="381.103516"/>
     <use xlink:href="#DejaVuSans-Bold-20" x="428.90625"/>
     <use xlink:href="#DejaVuSans-Bold-28" x="463.720703"/>
     <use xlink:href="#DejaVuSans-Bold-42" x="509.423828"/>
     <use xlink:href="#DejaVuSans-Bold-4e" x="585.644531"/>
     <use xlink:href="#DejaVuSans-Bold-4e" x="669.335938"/>
     <use xlink:href="#DejaVuSans-Bold-20" x="753.027344"/>
     <use xlink:href="#DejaVuSans-Bold-46" x="787.841797"/>
     <use xlink:href="#DejaVuSans-Bold-43" x="856.152344"/>
     <use xlink:href="#DejaVuSans-Bold-31" x="929.541016"/>
     <use xlink:href="#DejaVuSans-Bold-20" x="999.121094"/>
     <use xlink:href="#DejaVuSans-Bold-49" x="1033.935547"/>
     <use xlink:href="#DejaVuSans-Bold-6e" x="1071.142578"/>
     <use xlink:href="#DejaVuSans-Bold-64" x="1142.333984"/>
     <use xlink:href="#DejaVuSans-Bold-65" x="1213.916016"/>
     <use xlink:href="#DejaVuSans-Bold-78" x="1281.738281"/>
     <use xlink:href="#DejaVuSans-Bold-20" x="1346.240234"/>
     <use xlink:href="#DejaVuSans-Bold-30" x="1381.054688"/>
     <use xlink:href="#DejaVuSans-Bold-2c" x="1450.634766"/>
     <use xlink:href="#DejaVuSans-Bold-20" x="1488.623047"/>
     <use xlink:href="#DejaVuSans-Bold-72" x="1523.4375"/>
     <use xlink:href="#DejaVuSans-Bold-3d" x="1572.753906"/>
     <use xlink:href="#DejaVuSans-Bold-30" x="1656.542969"/>
     <use xlink:href="#DejaVuSans-Bold-2e" x="1726.123047"/>
     <use xlink:href="#DejaVuSans-Bold-39" x="1764.111328"/>
     <use xlink:href="#DejaVuSans-Bold-39" x="1833.691406"/>
     <use xlink:href="#DejaVuSans-Bold-33" x="1903.271484"/>
     <use xlink:href="#DejaVuSans-Bold-36" x="1972.851562"/>
     <use xlink:href="#DejaVuSans-Bold-29" x="2042.431641"/>
    </g>
   </g>
  </g>
 </g>
 <defs>
  <clipPath id="paac7b2ad54">
   <rect x="78.05" y="38.4" width="775.15" height="471.16"/>
  </clipPath>
 </defs>
</svg>
