<?xml version="1.0" encoding="utf-8" standalone="no"?>
<!DOCTYPE svg PUBLIC "-//W3C//DTD SVG 1.1//EN"
  "http://www.w3.org/Graphics/SVG/1.1/DTD/svg11.dtd">
<svg xmlns:xlink="http://www.w3.org/1999/xlink" width="864pt" height="576pt" viewBox="0 0 864 576" xmlns="http://www.w3.org/2000/svg" version="1.1">
 <metadata>
  <rdf:RDF xmlns:dc="http://purl.org/dc/elements/1.1/" xmlns:cc="http://creativecommons.org/ns#" xmlns:rdf="http://www.w3.org/1999/02/22-rdf-syntax-ns#">
   <cc:Work>
    <dc:type rdf:resource="http://purl.org/dc/dcmitype/StillImage"/>
    <dc:date>2025-06-16T13:09:02.947472</dc:date>
    <dc:format>image/svg+xml</dc:format>
    <dc:creator>
     <cc:Agent>
      <dc:title>Matplotlib v3.9.2, https://matplotlib.org/</dc:title>
     </cc:Agent>
    </dc:creator>
   </cc:Work>
  </rdf:RDF>
 </metadata>
 <defs>
  <style type="text/css">*{stroke-linejoin: round; stroke-linecap: butt}</style>
 </defs>
 <g id="figure_1">
  <g id="patch_1">
   <path d="M 0 576 
L 864 576 
L 864 0 
L 0 0 
z
" style="fill: #ffffff"/>
  </g>
  <g id="axes_1">
   <g id="patch_2">
    <path d="M 73.55 509.56 
L 853.2 509.56 
L 853.2 70.08 
L 73.55 70.08 
z
" style="fill: #ffffff"/>
   </g>
   <g id="patch_3">
    <path d="M 108.988636 509.56 
L 123.164091 509.56 
L 123.164091 502.698486 
L 108.988636 502.698486 
z
" clip-path="url(#p76323c80c8)" style="fill: #1f77b4; fill-opacity: 0.5; stroke: #000000; stroke-width: 2; stroke-linejoin: miter"/>
   </g>
   <g id="patch_4">
    <path d="M 123.164091 509.56 
L 137.339545 509.56 
L 137.339545 509.56 
L 123.164091 509.56 
z
" clip-path="url(#p76323c80c8)" style="fill: #1f77b4; fill-opacity: 0.5; stroke: #000000; stroke-width: 2; stroke-linejoin: miter"/>
   </g>
   <g id="patch_5">
    <path d="M 137.339545 509.56 
L 151.515 509.56 
L 151.515 509.56 
L 137.339545 509.56 
z
" clip-path="url(#p76323c80c8)" style="fill: #1f77b4; fill-opacity: 0.5; stroke: #000000; stroke-width: 2; stroke-linejoin: miter"/>
   </g>
   <g id="patch_6">
    <path d="M 151.515 509.56 
L 165.690455 509.56 
L 165.690455 509.56 
L 151.515 509.56 
z
" clip-path="url(#p76323c80c8)" style="fill: #1f77b4; fill-opacity: 0.5; stroke: #000000; stroke-width: 2; stroke-linejoin: miter"/>
   </g>
   <g id="patch_7">
    <path d="M 165.690455 509.56 
L 179.865909 509.56 
L 179.865909 502.698486 
L 165.690455 502.698486 
z
" clip-path="url(#p76323c80c8)" style="fill: #1f77b4; fill-opacity: 0.5; stroke: #000000; stroke-width: 2; stroke-linejoin: miter"/>
   </g>
   <g id="patch_8">
    <path d="M 179.865909 509.56 
L 194.041364 509.56 
L 194.041364 509.56 
L 179.865909 509.56 
z
" clip-path="url(#p76323c80c8)" style="fill: #1f77b4; fill-opacity: 0.5; stroke: #000000; stroke-width: 2; stroke-linejoin: miter"/>
   </g>
   <g id="patch_9">
    <path d="M 194.041364 509.56 
L 208.216818 509.56 
L 208.216818 502.698486 
L 194.041364 502.698486 
z
" clip-path="url(#p76323c80c8)" style="fill: #1f77b4; fill-opacity: 0.5; stroke: #000000; stroke-width: 2; stroke-linejoin: miter"/>
   </g>
   <g id="patch_10">
    <path d="M 208.216818 509.56 
L 222.392273 509.56 
L 222.392273 488.975457 
L 208.216818 488.975457 
z
" clip-path="url(#p76323c80c8)" style="fill: #1f77b4; fill-opacity: 0.5; stroke: #000000; stroke-width: 2; stroke-linejoin: miter"/>
   </g>
   <g id="patch_11">
    <path d="M 222.392273 509.56 
L 236.567727 509.56 
L 236.567727 475.252428 
L 222.392273 475.252428 
z
" clip-path="url(#p76323c80c8)" style="fill: #1f77b4; fill-opacity: 0.5; stroke: #000000; stroke-width: 2; stroke-linejoin: miter"/>
   </g>
   <g id="patch_12">
    <path d="M 236.567727 509.56 
L 250.743182 509.56 
L 250.743182 482.113942 
L 236.567727 482.113942 
z
" clip-path="url(#p76323c80c8)" style="fill: #1f77b4; fill-opacity: 0.5; stroke: #000000; stroke-width: 2; stroke-linejoin: miter"/>
   </g>
   <g id="patch_13">
    <path d="M 250.743182 509.56 
L 264.918636 509.56 
L 264.918636 440.944856 
L 250.743182 440.944856 
z
" clip-path="url(#p76323c80c8)" style="fill: #1f77b4; fill-opacity: 0.5; stroke: #000000; stroke-width: 2; stroke-linejoin: miter"/>
   </g>
   <g id="patch_14">
    <path d="M 264.918636 509.56 
L 279.094091 509.56 
L 279.094091 392.914254 
L 264.918636 392.914254 
z
" clip-path="url(#p76323c80c8)" style="fill: #1f77b4; fill-opacity: 0.5; stroke: #000000; stroke-width: 2; stroke-linejoin: miter"/>
   </g>
   <g id="patch_15">
    <path d="M 279.094091 509.56 
L 293.269545 509.56 
L 293.269545 413.498798 
L 279.094091 413.498798 
z
" clip-path="url(#p76323c80c8)" style="fill: #1f77b4; fill-opacity: 0.5; stroke: #000000; stroke-width: 2; stroke-linejoin: miter"/>
   </g>
   <g id="patch_16">
    <path d="M 293.269545 509.56 
L 307.445 509.56 
L 307.445 420.360312 
L 293.269545 420.360312 
z
" clip-path="url(#p76323c80c8)" style="fill: #1f77b4; fill-opacity: 0.5; stroke: #000000; stroke-width: 2; stroke-linejoin: miter"/>
   </g>
   <g id="patch_17">
    <path d="M 307.445 509.56 
L 321.620455 509.56 
L 321.620455 344.883653 
L 307.445 344.883653 
z
" clip-path="url(#p76323c80c8)" style="fill: #1f77b4; fill-opacity: 0.5; stroke: #000000; stroke-width: 2; stroke-linejoin: miter"/>
   </g>
   <g id="patch_18">
    <path d="M 321.620455 509.56 
L 335.795909 509.56 
L 335.795909 344.883653 
L 321.620455 344.883653 
z
" clip-path="url(#p76323c80c8)" style="fill: #1f77b4; fill-opacity: 0.5; stroke: #000000; stroke-width: 2; stroke-linejoin: miter"/>
   </g>
   <g id="patch_19">
    <path d="M 335.795909 509.56 
L 349.971364 509.56 
L 349.971364 221.376393 
L 335.795909 221.376393 
z
" clip-path="url(#p76323c80c8)" style="fill: #1f77b4; fill-opacity: 0.5; stroke: #000000; stroke-width: 2; stroke-linejoin: miter"/>
   </g>
   <g id="patch_20">
    <path d="M 349.971364 509.56 
L 364.146818 509.56 
L 364.146818 324.29911 
L 349.971364 324.29911 
z
" clip-path="url(#p76323c80c8)" style="fill: #1f77b4; fill-opacity: 0.5; stroke: #000000; stroke-width: 2; stroke-linejoin: miter"/>
   </g>
   <g id="patch_21">
    <path d="M 364.146818 509.56 
L 378.322273 509.56 
L 378.322273 262.54548 
L 364.146818 262.54548 
z
" clip-path="url(#p76323c80c8)" style="fill: #1f77b4; fill-opacity: 0.5; stroke: #000000; stroke-width: 2; stroke-linejoin: miter"/>
   </g>
   <g id="patch_22">
    <path d="M 378.322273 509.56 
L 392.497727 509.56 
L 392.497727 310.576081 
L 378.322273 310.576081 
z
" clip-path="url(#p76323c80c8)" style="fill: #1f77b4; fill-opacity: 0.5; stroke: #000000; stroke-width: 2; stroke-linejoin: miter"/>
   </g>
   <g id="patch_23">
    <path d="M 392.497727 509.56 
L 406.673182 509.56 
L 406.673182 214.514879 
L 392.497727 214.514879 
z
" clip-path="url(#p76323c80c8)" style="fill: #1f77b4; fill-opacity: 0.5; stroke: #000000; stroke-width: 2; stroke-linejoin: miter"/>
   </g>
   <g id="patch_24">
    <path d="M 406.673182 509.56 
L 420.848636 509.56 
L 420.848636 296.853052 
L 406.673182 296.853052 
z
" clip-path="url(#p76323c80c8)" style="fill: #1f77b4; fill-opacity: 0.5; stroke: #000000; stroke-width: 2; stroke-linejoin: miter"/>
   </g>
   <g id="patch_25">
    <path d="M 420.848636 509.56 
L 435.024091 509.56 
L 435.024091 152.761249 
L 420.848636 152.761249 
z
" clip-path="url(#p76323c80c8)" style="fill: #1f77b4; fill-opacity: 0.5; stroke: #000000; stroke-width: 2; stroke-linejoin: miter"/>
   </g>
   <g id="patch_26">
    <path d="M 435.024091 509.56 
L 449.199545 509.56 
L 449.199545 91.007619 
L 435.024091 91.007619 
z
" clip-path="url(#p76323c80c8)" style="fill: #1f77b4; fill-opacity: 0.5; stroke: #000000; stroke-width: 2; stroke-linejoin: miter"/>
   </g>
   <g id="patch_27">
    <path d="M 449.199545 509.56 
L 463.375 509.56 
L 463.375 187.068821 
L 449.199545 187.068821 
z
" clip-path="url(#p76323c80c8)" style="fill: #1f77b4; fill-opacity: 0.5; stroke: #000000; stroke-width: 2; stroke-linejoin: miter"/>
   </g>
   <g id="patch_28">
    <path d="M 463.375 509.56 
L 477.550455 509.56 
L 477.550455 193.930336 
L 463.375 193.930336 
z
" clip-path="url(#p76323c80c8)" style="fill: #1f77b4; fill-opacity: 0.5; stroke: #000000; stroke-width: 2; stroke-linejoin: miter"/>
   </g>
   <g id="patch_29">
    <path d="M 477.550455 509.56 
L 491.725909 509.56 
L 491.725909 262.54548 
L 477.550455 262.54548 
z
" clip-path="url(#p76323c80c8)" style="fill: #1f77b4; fill-opacity: 0.5; stroke: #000000; stroke-width: 2; stroke-linejoin: miter"/>
   </g>
   <g id="patch_30">
    <path d="M 491.725909 509.56 
L 505.901364 509.56 
L 505.901364 145.899735 
L 491.725909 145.899735 
z
" clip-path="url(#p76323c80c8)" style="fill: #1f77b4; fill-opacity: 0.5; stroke: #000000; stroke-width: 2; stroke-linejoin: miter"/>
   </g>
   <g id="patch_31">
    <path d="M 505.901364 509.56 
L 520.076818 509.56 
L 520.076818 221.376393 
L 505.901364 221.376393 
z
" clip-path="url(#p76323c80c8)" style="fill: #1f77b4; fill-opacity: 0.5; stroke: #000000; stroke-width: 2; stroke-linejoin: miter"/>
   </g>
   <g id="patch_32">
    <path d="M 520.076818 509.56 
L 534.252273 509.56 
L 534.252273 166.484278 
L 520.076818 166.484278 
z
" clip-path="url(#p76323c80c8)" style="fill: #1f77b4; fill-opacity: 0.5; stroke: #000000; stroke-width: 2; stroke-linejoin: miter"/>
   </g>
   <g id="patch_33">
    <path d="M 534.252273 509.56 
L 548.427727 509.56 
L 548.427727 241.960937 
L 534.252273 241.960937 
z
" clip-path="url(#p76323c80c8)" style="fill: #1f77b4; fill-opacity: 0.5; stroke: #000000; stroke-width: 2; stroke-linejoin: miter"/>
   </g>
   <g id="patch_34">
    <path d="M 548.427727 509.56 
L 562.603182 509.56 
L 562.603182 221.376393 
L 548.427727 221.376393 
z
" clip-path="url(#p76323c80c8)" style="fill: #1f77b4; fill-opacity: 0.5; stroke: #000000; stroke-width: 2; stroke-linejoin: miter"/>
   </g>
   <g id="patch_35">
    <path d="M 562.603182 509.56 
L 576.778636 509.56 
L 576.778636 221.376393 
L 562.603182 221.376393 
z
" clip-path="url(#p76323c80c8)" style="fill: #1f77b4; fill-opacity: 0.5; stroke: #000000; stroke-width: 2; stroke-linejoin: miter"/>
   </g>
   <g id="patch_36">
    <path d="M 576.778636 509.56 
L 590.954091 509.56 
L 590.954091 310.576081 
L 576.778636 310.576081 
z
" clip-path="url(#p76323c80c8)" style="fill: #1f77b4; fill-opacity: 0.5; stroke: #000000; stroke-width: 2; stroke-linejoin: miter"/>
   </g>
   <g id="patch_37">
    <path d="M 590.954091 509.56 
L 605.129545 509.56 
L 605.129545 413.498798 
L 590.954091 413.498798 
z
" clip-path="url(#p76323c80c8)" style="fill: #1f77b4; fill-opacity: 0.5; stroke: #000000; stroke-width: 2; stroke-linejoin: miter"/>
   </g>
   <g id="patch_38">
    <path d="M 605.129545 509.56 
L 619.305 509.56 
L 619.305 317.437596 
L 605.129545 317.437596 
z
" clip-path="url(#p76323c80c8)" style="fill: #1f77b4; fill-opacity: 0.5; stroke: #000000; stroke-width: 2; stroke-linejoin: miter"/>
   </g>
   <g id="patch_39">
    <path d="M 619.305 509.56 
L 633.480455 509.56 
L 633.480455 399.775769 
L 619.305 399.775769 
z
" clip-path="url(#p76323c80c8)" style="fill: #1f77b4; fill-opacity: 0.5; stroke: #000000; stroke-width: 2; stroke-linejoin: miter"/>
   </g>
   <g id="patch_40">
    <path d="M 633.480455 509.56 
L 647.655909 509.56 
L 647.655909 386.05274 
L 633.480455 386.05274 
z
" clip-path="url(#p76323c80c8)" style="fill: #1f77b4; fill-opacity: 0.5; stroke: #000000; stroke-width: 2; stroke-linejoin: miter"/>
   </g>
   <g id="patch_41">
    <path d="M 647.655909 509.56 
L 661.831364 509.56 
L 661.831364 406.637283 
L 647.655909 406.637283 
z
" clip-path="url(#p76323c80c8)" style="fill: #1f77b4; fill-opacity: 0.5; stroke: #000000; stroke-width: 2; stroke-linejoin: miter"/>
   </g>
   <g id="patch_42">
    <path d="M 661.831364 509.56 
L 676.006818 509.56 
L 676.006818 427.221827 
L 661.831364 427.221827 
z
" clip-path="url(#p76323c80c8)" style="fill: #1f77b4; fill-opacity: 0.5; stroke: #000000; stroke-width: 2; stroke-linejoin: miter"/>
   </g>
   <g id="patch_43">
    <path d="M 676.006818 509.56 
L 690.182273 509.56 
L 690.182273 454.667884 
L 676.006818 454.667884 
z
" clip-path="url(#p76323c80c8)" style="fill: #1f77b4; fill-opacity: 0.5; stroke: #000000; stroke-width: 2; stroke-linejoin: miter"/>
   </g>
   <g id="patch_44">
    <path d="M 690.182273 509.56 
L 704.357727 509.56 
L 704.357727 468.390913 
L 690.182273 468.390913 
z
" clip-path="url(#p76323c80c8)" style="fill: #1f77b4; fill-opacity: 0.5; stroke: #000000; stroke-width: 2; stroke-linejoin: miter"/>
   </g>
   <g id="patch_45">
    <path d="M 704.357727 509.56 
L 718.533182 509.56 
L 718.533182 488.975457 
L 704.357727 488.975457 
z
" clip-path="url(#p76323c80c8)" style="fill: #1f77b4; fill-opacity: 0.5; stroke: #000000; stroke-width: 2; stroke-linejoin: miter"/>
   </g>
   <g id="patch_46">
    <path d="M 718.533182 509.56 
L 732.708636 509.56 
L 732.708636 482.113942 
L 718.533182 482.113942 
z
" clip-path="url(#p76323c80c8)" style="fill: #1f77b4; fill-opacity: 0.5; stroke: #000000; stroke-width: 2; stroke-linejoin: miter"/>
   </g>
   <g id="patch_47">
    <path d="M 732.708636 509.56 
L 746.884091 509.56 
L 746.884091 475.252428 
L 732.708636 475.252428 
z
" clip-path="url(#p76323c80c8)" style="fill: #1f77b4; fill-opacity: 0.5; stroke: #000000; stroke-width: 2; stroke-linejoin: miter"/>
   </g>
   <g id="patch_48">
    <path d="M 746.884091 509.56 
L 761.059545 509.56 
L 761.059545 509.56 
L 746.884091 509.56 
z
" clip-path="url(#p76323c80c8)" style="fill: #1f77b4; fill-opacity: 0.5; stroke: #000000; stroke-width: 2; stroke-linejoin: miter"/>
   </g>
   <g id="patch_49">
    <path d="M 761.059545 509.56 
L 775.235 509.56 
L 775.235 488.975457 
L 761.059545 488.975457 
z
" clip-path="url(#p76323c80c8)" style="fill: #1f77b4; fill-opacity: 0.5; stroke: #000000; stroke-width: 2; stroke-linejoin: miter"/>
   </g>
   <g id="patch_50">
    <path d="M 775.235 509.56 
L 789.410455 509.56 
L 789.410455 495.836971 
L 775.235 495.836971 
z
" clip-path="url(#p76323c80c8)" style="fill: #1f77b4; fill-opacity: 0.5; stroke: #000000; stroke-width: 2; stroke-linejoin: miter"/>
   </g>
   <g id="patch_51">
    <path d="M 789.410455 509.56 
L 803.585909 509.56 
L 803.585909 502.698486 
L 789.410455 502.698486 
z
" clip-path="url(#p76323c80c8)" style="fill: #1f77b4; fill-opacity: 0.5; stroke: #000000; stroke-width: 2; stroke-linejoin: miter"/>
   </g>
   <g id="patch_52">
    <path d="M 803.585909 509.56 
L 817.761364 509.56 
L 817.761364 502.698486 
L 803.585909 502.698486 
z
" clip-path="url(#p76323c80c8)" style="fill: #1f77b4; fill-opacity: 0.5; stroke: #000000; stroke-width: 2; stroke-linejoin: miter"/>
   </g>
   <g id="matplotlib.axis_1">
    <g id="xtick_1">
     <g id="line2d_1">
      <defs>
       <path id="mf2d1422907" d="M 0 0 
L 0 3.5 
" style="stroke: #000000; stroke-width: 0.8"/>
      </defs>
      <g>
       <use xlink:href="#mf2d1422907" x="135.127665" y="509.56" style="stroke: #000000; stroke-width: 0.8"/>
      </g>
     </g>
     <g id="text_1">
      <!-- −3 -->
      <g transform="translate(118.911259 533.276562) scale(0.22 -0.22)">
       <defs>
        <path id="DejaVuSans-2212" d="M 678 2272 
L 4684 2272 
L 4684 1741 
L 678 1741 
L 678 2272 
z
" transform="scale(0.015625)"/>
        <path id="DejaVuSans-33" d="M 2597 2516 
Q 3050 2419 3304 2112 
Q 3559 1806 3559 1356 
Q 3559 666 3084 287 
Q 2609 -91 1734 -91 
Q 1441 -91 1130 -33 
Q 819 25 488 141 
L 488 750 
Q 750 597 1062 519 
Q 1375 441 1716 441 
Q 2309 441 2620 675 
Q 2931 909 2931 1356 
Q 2931 1769 2642 2001 
Q 2353 2234 1838 2234 
L 1294 2234 
L 1294 2753 
L 1863 2753 
Q 2328 2753 2575 2939 
Q 2822 3125 2822 3475 
Q 2822 3834 2567 4026 
Q 2313 4219 1838 4219 
Q 1578 4219 1281 4162 
Q 984 4106 628 3988 
L 628 4550 
Q 988 4650 1302 4700 
Q 1616 4750 1894 4750 
Q 2613 4750 3031 4423 
Q 3450 4097 3450 3541 
Q 3450 3153 3228 2886 
Q 3006 2619 2597 2516 
z
" transform="scale(0.015625)"/>
       </defs>
       <use xlink:href="#DejaVuSans-2212"/>
       <use xlink:href="#DejaVuSans-33" x="83.789062"/>
      </g>
     </g>
    </g>
    <g id="xtick_2">
     <g id="line2d_2">
      <g>
       <use xlink:href="#mf2d1422907" x="247.021889" y="509.56" style="stroke: #000000; stroke-width: 0.8"/>
      </g>
     </g>
     <g id="text_2">
      <!-- −2 -->
      <g transform="translate(230.805483 533.276562) scale(0.22 -0.22)">
       <defs>
        <path id="DejaVuSans-32" d="M 1228 531 
L 3431 531 
L 3431 0 
L 469 0 
L 469 531 
Q 828 903 1448 1529 
Q 2069 2156 2228 2338 
Q 2531 2678 2651 2914 
Q 2772 3150 2772 3378 
Q 2772 3750 2511 3984 
Q 2250 4219 1831 4219 
Q 1534 4219 1204 4116 
Q 875 4013 500 3803 
L 500 4441 
Q 881 4594 1212 4672 
Q 1544 4750 1819 4750 
Q 2544 4750 2975 4387 
Q 3406 4025 3406 3419 
Q 3406 3131 3298 2873 
Q 3191 2616 2906 2266 
Q 2828 2175 2409 1742 
Q 1991 1309 1228 531 
z
" transform="scale(0.015625)"/>
       </defs>
       <use xlink:href="#DejaVuSans-2212"/>
       <use xlink:href="#DejaVuSans-32" x="83.789062"/>
      </g>
     </g>
    </g>
    <g id="xtick_3">
     <g id="line2d_3">
      <g>
       <use xlink:href="#mf2d1422907" x="358.916113" y="509.56" style="stroke: #000000; stroke-width: 0.8"/>
      </g>
     </g>
     <g id="text_3">
      <!-- −1 -->
      <g transform="translate(342.699707 533.276562) scale(0.22 -0.22)">
       <defs>
        <path id="DejaVuSans-31" d="M 794 531 
L 1825 531 
L 1825 4091 
L 703 3866 
L 703 4441 
L 1819 4666 
L 2450 4666 
L 2450 531 
L 3481 531 
L 3481 0 
L 794 0 
L 794 531 
z
" transform="scale(0.015625)"/>
       </defs>
       <use xlink:href="#DejaVuSans-2212"/>
       <use xlink:href="#DejaVuSans-31" x="83.789062"/>
      </g>
     </g>
    </g>
    <g id="xtick_4">
     <g id="line2d_4">
      <g>
       <use xlink:href="#mf2d1422907" x="470.810337" y="509.56" style="stroke: #000000; stroke-width: 0.8"/>
      </g>
     </g>
     <g id="text_4">
      <!-- 0 -->
      <g transform="translate(463.811587 533.276562) scale(0.22 -0.22)">
       <defs>
        <path id="DejaVuSans-30" d="M 2034 4250 
Q 1547 4250 1301 3770 
Q 1056 3291 1056 2328 
Q 1056 1369 1301 889 
Q 1547 409 2034 409 
Q 2525 409 2770 889 
Q 3016 1369 3016 2328 
Q 3016 3291 2770 3770 
Q 2525 4250 2034 4250 
z
M 2034 4750 
Q 2819 4750 3233 4129 
Q 3647 3509 3647 2328 
Q 3647 1150 3233 529 
Q 2819 -91 2034 -91 
Q 1250 -91 836 529 
Q 422 1150 422 2328 
Q 422 3509 836 4129 
Q 1250 4750 2034 4750 
z
" transform="scale(0.015625)"/>
       </defs>
       <use xlink:href="#DejaVuSans-30"/>
      </g>
     </g>
    </g>
    <g id="xtick_5">
     <g id="line2d_5">
      <g>
       <use xlink:href="#mf2d1422907" x="582.704561" y="509.56" style="stroke: #000000; stroke-width: 0.8"/>
      </g>
     </g>
     <g id="text_5">
      <!-- 1 -->
      <g transform="translate(575.705811 533.276562) scale(0.22 -0.22)">
       <use xlink:href="#DejaVuSans-31"/>
      </g>
     </g>
    </g>
    <g id="xtick_6">
     <g id="line2d_6">
      <g>
       <use xlink:href="#mf2d1422907" x="694.598785" y="509.56" style="stroke: #000000; stroke-width: 0.8"/>
      </g>
     </g>
     <g id="text_6">
      <!-- 2 -->
      <g transform="translate(687.600035 533.276562) scale(0.22 -0.22)">
       <use xlink:href="#DejaVuSans-32"/>
      </g>
     </g>
    </g>
    <g id="xtick_7">
     <g id="line2d_7">
      <g>
       <use xlink:href="#mf2d1422907" x="806.493009" y="509.56" style="stroke: #000000; stroke-width: 0.8"/>
      </g>
     </g>
     <g id="text_7">
      <!-- 3 -->
      <g transform="translate(799.494259 533.276562) scale(0.22 -0.22)">
       <use xlink:href="#DejaVuSans-33"/>
      </g>
     </g>
    </g>
    <g id="text_8">
     <!-- Weight Value -->
     <g transform="translate(373.755625 560.088125) scale(0.24 -0.24)">
      <defs>
       <path id="DejaVuSans-Bold-57" d="M 191 4666 
L 1344 4666 
L 2150 1275 
L 2950 4666 
L 4109 4666 
L 4909 1275 
L 5716 4666 
L 6859 4666 
L 5759 0 
L 4372 0 
L 3525 3547 
L 2688 0 
L 1300 0 
L 191 4666 
z
" transform="scale(0.015625)"/>
       <path id="DejaVuSans-Bold-65" d="M 4031 1759 
L 4031 1441 
L 1416 1441 
Q 1456 1047 1700 850 
Q 1944 653 2381 653 
Q 2734 653 3104 758 
Q 3475 863 3866 1075 
L 3866 213 
Q 3469 63 3072 -14 
Q 2675 -91 2278 -91 
Q 1328 -91 801 392 
Q 275 875 275 1747 
Q 275 2603 792 3093 
Q 1309 3584 2216 3584 
Q 3041 3584 3536 3087 
Q 4031 2591 4031 1759 
z
M 2881 2131 
Q 2881 2450 2695 2645 
Q 2509 2841 2209 2841 
Q 1884 2841 1681 2658 
Q 1478 2475 1428 2131 
L 2881 2131 
z
" transform="scale(0.015625)"/>
       <path id="DejaVuSans-Bold-69" d="M 538 3500 
L 1656 3500 
L 1656 0 
L 538 0 
L 538 3500 
z
M 538 4863 
L 1656 4863 
L 1656 3950 
L 538 3950 
L 538 4863 
z
" transform="scale(0.015625)"/>
       <path id="DejaVuSans-Bold-67" d="M 2919 594 
Q 2688 288 2409 144 
Q 2131 0 1766 0 
Q 1125 0 706 504 
Q 288 1009 288 1791 
Q 288 2575 706 3076 
Q 1125 3578 1766 3578 
Q 2131 3578 2409 3434 
Q 2688 3291 2919 2981 
L 2919 3500 
L 4044 3500 
L 4044 353 
Q 4044 -491 3511 -936 
Q 2978 -1381 1966 -1381 
Q 1638 -1381 1331 -1331 
Q 1025 -1281 716 -1178 
L 716 -306 
Q 1009 -475 1290 -558 
Q 1572 -641 1856 -641 
Q 2406 -641 2662 -400 
Q 2919 -159 2919 353 
L 2919 594 
z
M 2181 2772 
Q 1834 2772 1640 2515 
Q 1447 2259 1447 1791 
Q 1447 1309 1634 1061 
Q 1822 813 2181 813 
Q 2531 813 2725 1069 
Q 2919 1325 2919 1791 
Q 2919 2259 2725 2515 
Q 2531 2772 2181 2772 
z
" transform="scale(0.015625)"/>
       <path id="DejaVuSans-Bold-68" d="M 4056 2131 
L 4056 0 
L 2931 0 
L 2931 347 
L 2931 1625 
Q 2931 2084 2911 2256 
Q 2891 2428 2841 2509 
Q 2775 2619 2662 2680 
Q 2550 2741 2406 2741 
Q 2056 2741 1856 2470 
Q 1656 2200 1656 1722 
L 1656 0 
L 538 0 
L 538 4863 
L 1656 4863 
L 1656 2988 
Q 1909 3294 2193 3439 
Q 2478 3584 2822 3584 
Q 3428 3584 3742 3212 
Q 4056 2841 4056 2131 
z
" transform="scale(0.015625)"/>
       <path id="DejaVuSans-Bold-74" d="M 1759 4494 
L 1759 3500 
L 2913 3500 
L 2913 2700 
L 1759 2700 
L 1759 1216 
Q 1759 972 1856 886 
Q 1953 800 2241 800 
L 2816 800 
L 2816 0 
L 1856 0 
Q 1194 0 917 276 
Q 641 553 641 1216 
L 641 2700 
L 84 2700 
L 84 3500 
L 641 3500 
L 641 4494 
L 1759 4494 
z
" transform="scale(0.015625)"/>
       <path id="DejaVuSans-Bold-20" transform="scale(0.015625)"/>
       <path id="DejaVuSans-Bold-56" d="M 31 4666 
L 1241 4666 
L 2478 1222 
L 3713 4666 
L 4922 4666 
L 3194 0 
L 1759 0 
L 31 4666 
z
" transform="scale(0.015625)"/>
       <path id="DejaVuSans-Bold-61" d="M 2106 1575 
Q 1756 1575 1579 1456 
Q 1403 1338 1403 1106 
Q 1403 894 1545 773 
Q 1688 653 1941 653 
Q 2256 653 2472 879 
Q 2688 1106 2688 1447 
L 2688 1575 
L 2106 1575 
z
M 3816 1997 
L 3816 0 
L 2688 0 
L 2688 519 
Q 2463 200 2181 54 
Q 1900 -91 1497 -91 
Q 953 -91 614 226 
Q 275 544 275 1050 
Q 275 1666 698 1953 
Q 1122 2241 2028 2241 
L 2688 2241 
L 2688 2328 
Q 2688 2594 2478 2717 
Q 2269 2841 1825 2841 
Q 1466 2841 1156 2769 
Q 847 2697 581 2553 
L 581 3406 
Q 941 3494 1303 3539 
Q 1666 3584 2028 3584 
Q 2975 3584 3395 3211 
Q 3816 2838 3816 1997 
z
" transform="scale(0.015625)"/>
       <path id="DejaVuSans-Bold-6c" d="M 538 4863 
L 1656 4863 
L 1656 0 
L 538 0 
L 538 4863 
z
" transform="scale(0.015625)"/>
       <path id="DejaVuSans-Bold-75" d="M 500 1363 
L 500 3500 
L 1625 3500 
L 1625 3150 
Q 1625 2866 1622 2436 
Q 1619 2006 1619 1863 
Q 1619 1441 1641 1255 
Q 1663 1069 1716 984 
Q 1784 875 1895 815 
Q 2006 756 2150 756 
Q 2500 756 2700 1025 
Q 2900 1294 2900 1772 
L 2900 3500 
L 4019 3500 
L 4019 0 
L 2900 0 
L 2900 506 
Q 2647 200 2364 54 
Q 2081 -91 1741 -91 
Q 1134 -91 817 281 
Q 500 653 500 1363 
z
" transform="scale(0.015625)"/>
      </defs>
      <use xlink:href="#DejaVuSans-Bold-57"/>
      <use xlink:href="#DejaVuSans-Bold-65" x="106.677734"/>
      <use xlink:href="#DejaVuSans-Bold-69" x="174.5"/>
      <use xlink:href="#DejaVuSans-Bold-67" x="208.777344"/>
      <use xlink:href="#DejaVuSans-Bold-68" x="280.359375"/>
      <use xlink:href="#DejaVuSans-Bold-74" x="351.550781"/>
      <use xlink:href="#DejaVuSans-Bold-20" x="399.353516"/>
      <use xlink:href="#DejaVuSans-Bold-56" x="434.167969"/>
      <use xlink:href="#DejaVuSans-Bold-61" x="506.060547"/>
      <use xlink:href="#DejaVuSans-Bold-6c" x="573.541016"/>
      <use xlink:href="#DejaVuSans-Bold-75" x="607.818359"/>
      <use xlink:href="#DejaVuSans-Bold-65" x="679.009766"/>
     </g>
    </g>
   </g>
   <g id="matplotlib.axis_2">
    <g id="ytick_1">
     <g id="line2d_8">
      <defs>
       <path id="m4927839c2d" d="M 0 0 
L -3.5 0 
" style="stroke: #000000; stroke-width: 0.8"/>
      </defs>
      <g>
       <use xlink:href="#m4927839c2d" x="73.55" y="509.56" style="stroke: #000000; stroke-width: 0.8"/>
      </g>
     </g>
     <g id="text_9">
      <!-- 0 -->
      <g transform="translate(52.5525 517.918281) scale(0.22 -0.22)">
       <use xlink:href="#DejaVuSans-30"/>
      </g>
     </g>
    </g>
    <g id="ytick_2">
     <g id="line2d_9">
      <g>
       <use xlink:href="#m4927839c2d" x="73.55" y="440.944856" style="stroke: #000000; stroke-width: 0.8"/>
      </g>
     </g>
     <g id="text_10">
      <!-- 10 -->
      <g transform="translate(38.555 449.303137) scale(0.22 -0.22)">
       <use xlink:href="#DejaVuSans-31"/>
       <use xlink:href="#DejaVuSans-30" x="63.623047"/>
      </g>
     </g>
    </g>
    <g id="ytick_3">
     <g id="line2d_10">
      <g>
       <use xlink:href="#m4927839c2d" x="73.55" y="372.329711" style="stroke: #000000; stroke-width: 0.8"/>
      </g>
     </g>
     <g id="text_11">
      <!-- 20 -->
      <g transform="translate(38.555 380.687992) scale(0.22 -0.22)">
       <use xlink:href="#DejaVuSans-32"/>
       <use xlink:href="#DejaVuSans-30" x="63.623047"/>
      </g>
     </g>
    </g>
    <g id="ytick_4">
     <g id="line2d_11">
      <g>
       <use xlink:href="#m4927839c2d" x="73.55" y="303.714567" style="stroke: #000000; stroke-width: 0.8"/>
      </g>
     </g>
     <g id="text_12">
      <!-- 30 -->
      <g transform="translate(38.555 312.072848) scale(0.22 -0.22)">
       <use xlink:href="#DejaVuSans-33"/>
       <use xlink:href="#DejaVuSans-30" x="63.623047"/>
      </g>
     </g>
    </g>
    <g id="ytick_5">
     <g id="line2d_12">
      <g>
       <use xlink:href="#m4927839c2d" x="73.55" y="235.099422" style="stroke: #000000; stroke-width: 0.8"/>
      </g>
     </g>
     <g id="text_13">
      <!-- 40 -->
      <g transform="translate(38.555 243.457704) scale(0.22 -0.22)">
       <defs>
        <path id="DejaVuSans-34" d="M 2419 4116 
L 825 1625 
L 2419 1625 
L 2419 4116 
z
M 2253 4666 
L 3047 4666 
L 3047 1625 
L 3713 1625 
L 3713 1100 
L 3047 1100 
L 3047 0 
L 2419 0 
L 2419 1100 
L 313 1100 
L 313 1709 
L 2253 4666 
z
" transform="scale(0.015625)"/>
       </defs>
       <use xlink:href="#DejaVuSans-34"/>
       <use xlink:href="#DejaVuSans-30" x="63.623047"/>
      </g>
     </g>
    </g>
    <g id="ytick_6">
     <g id="line2d_13">
      <g>
       <use xlink:href="#m4927839c2d" x="73.55" y="166.484278" style="stroke: #000000; stroke-width: 0.8"/>
      </g>
     </g>
     <g id="text_14">
      <!-- 50 -->
      <g transform="translate(38.555 174.842559) scale(0.22 -0.22)">
       <defs>
        <path id="DejaVuSans-35" d="M 691 4666 
L 3169 4666 
L 3169 4134 
L 1269 4134 
L 1269 2991 
Q 1406 3038 1543 3061 
Q 1681 3084 1819 3084 
Q 2600 3084 3056 2656 
Q 3513 2228 3513 1497 
Q 3513 744 3044 326 
Q 2575 -91 1722 -91 
Q 1428 -91 1123 -41 
Q 819 9 494 109 
L 494 744 
Q 775 591 1075 516 
Q 1375 441 1709 441 
Q 2250 441 2565 725 
Q 2881 1009 2881 1497 
Q 2881 1984 2565 2268 
Q 2250 2553 1709 2553 
Q 1456 2553 1204 2497 
Q 953 2441 691 2322 
L 691 4666 
z
" transform="scale(0.015625)"/>
       </defs>
       <use xlink:href="#DejaVuSans-35"/>
       <use xlink:href="#DejaVuSans-30" x="63.623047"/>
      </g>
     </g>
    </g>
    <g id="ytick_7">
     <g id="line2d_14">
      <g>
       <use xlink:href="#m4927839c2d" x="73.55" y="97.869133" style="stroke: #000000; stroke-width: 0.8"/>
      </g>
     </g>
     <g id="text_15">
      <!-- 60 -->
      <g transform="translate(38.555 106.227415) scale(0.22 -0.22)">
       <defs>
        <path id="DejaVuSans-36" d="M 2113 2584 
Q 1688 2584 1439 2293 
Q 1191 2003 1191 1497 
Q 1191 994 1439 701 
Q 1688 409 2113 409 
Q 2538 409 2786 701 
Q 3034 994 3034 1497 
Q 3034 2003 2786 2293 
Q 2538 2584 2113 2584 
z
M 3366 4563 
L 3366 3988 
Q 3128 4100 2886 4159 
Q 2644 4219 2406 4219 
Q 1781 4219 1451 3797 
Q 1122 3375 1075 2522 
Q 1259 2794 1537 2939 
Q 1816 3084 2150 3084 
Q 2853 3084 3261 2657 
Q 3669 2231 3669 1497 
Q 3669 778 3244 343 
Q 2819 -91 2113 -91 
Q 1303 -91 875 529 
Q 447 1150 447 2328 
Q 447 3434 972 4092 
Q 1497 4750 2381 4750 
Q 2619 4750 2861 4703 
Q 3103 4656 3366 4563 
z
" transform="scale(0.015625)"/>
       </defs>
       <use xlink:href="#DejaVuSans-36"/>
       <use xlink:href="#DejaVuSans-30" x="63.623047"/>
      </g>
     </g>
    </g>
    <g id="text_16">
     <!-- Count -->
     <g transform="translate(29.56375 329.691875) rotate(-90) scale(0.24 -0.24)">
      <defs>
       <path id="DejaVuSans-Bold-43" d="M 4288 256 
Q 3956 84 3597 -3 
Q 3238 -91 2847 -91 
Q 1681 -91 1000 561 
Q 319 1213 319 2328 
Q 319 3447 1000 4098 
Q 1681 4750 2847 4750 
Q 3238 4750 3597 4662 
Q 3956 4575 4288 4403 
L 4288 3438 
Q 3953 3666 3628 3772 
Q 3303 3878 2944 3878 
Q 2300 3878 1931 3465 
Q 1563 3053 1563 2328 
Q 1563 1606 1931 1193 
Q 2300 781 2944 781 
Q 3303 781 3628 887 
Q 3953 994 4288 1222 
L 4288 256 
z
" transform="scale(0.015625)"/>
       <path id="DejaVuSans-Bold-6f" d="M 2203 2784 
Q 1831 2784 1636 2517 
Q 1441 2250 1441 1747 
Q 1441 1244 1636 976 
Q 1831 709 2203 709 
Q 2569 709 2762 976 
Q 2956 1244 2956 1747 
Q 2956 2250 2762 2517 
Q 2569 2784 2203 2784 
z
M 2203 3584 
Q 3106 3584 3614 3096 
Q 4122 2609 4122 1747 
Q 4122 884 3614 396 
Q 3106 -91 2203 -91 
Q 1297 -91 786 396 
Q 275 884 275 1747 
Q 275 2609 786 3096 
Q 1297 3584 2203 3584 
z
" transform="scale(0.015625)"/>
       <path id="DejaVuSans-Bold-6e" d="M 4056 2131 
L 4056 0 
L 2931 0 
L 2931 347 
L 2931 1631 
Q 2931 2084 2911 2256 
Q 2891 2428 2841 2509 
Q 2775 2619 2662 2680 
Q 2550 2741 2406 2741 
Q 2056 2741 1856 2470 
Q 1656 2200 1656 1722 
L 1656 0 
L 538 0 
L 538 3500 
L 1656 3500 
L 1656 2988 
Q 1909 3294 2193 3439 
Q 2478 3584 2822 3584 
Q 3428 3584 3742 3212 
Q 4056 2841 4056 2131 
z
" transform="scale(0.015625)"/>
      </defs>
      <use xlink:href="#DejaVuSans-Bold-43"/>
      <use xlink:href="#DejaVuSans-Bold-6f" x="73.388672"/>
      <use xlink:href="#DejaVuSans-Bold-75" x="142.089844"/>
      <use xlink:href="#DejaVuSans-Bold-6e" x="213.28125"/>
      <use xlink:href="#DejaVuSans-Bold-74" x="284.472656"/>
     </g>
    </g>
   </g>
   <g id="line2d_15">
    <path d="M 108.988636 507.997305 
L 141.043684 507.533305 
L 148.167028 507.217184 
L 155.290372 506.723763 
L 162.413716 506.001692 
L 169.53706 504.991029 
L 176.660404 503.621593 
L 180.222076 502.778111 
L 183.783748 501.815282 
L 187.34542 500.72289 
L 190.907092 499.49079 
L 194.468764 498.108965 
L 198.030436 496.567529 
L 201.592108 494.856697 
L 205.15378 492.966767 
L 208.715452 490.888163 
L 212.277124 488.611591 
L 215.838796 486.128362 
L 219.400468 483.430883 
L 222.96214 480.513334 
L 226.523812 477.37245 
L 230.085484 474.008344 
L 233.647156 470.425221 
L 237.208828 466.631866 
L 240.7705 462.641758 
L 247.893844 454.145878 
L 255.017188 445.111769 
L 262.140532 435.712885 
L 272.825548 421.133755 
L 279.948892 411.033392 
L 287.072236 400.436348 
L 294.19558 389.142135 
L 301.318924 377.038212 
L 308.442268 364.200811 
L 322.688956 337.775766 
L 326.250628 331.417788 
L 329.8123 325.30951 
L 333.373972 319.515452 
L 336.935644 314.08617 
L 340.497316 309.054404 
L 344.058988 304.432422 
L 347.62066 300.21076 
L 351.182332 296.358461 
L 354.744004 292.82476 
L 358.305676 289.542053 
L 365.42902 283.399769 
L 372.552364 277.221215 
L 376.114036 273.900573 
L 379.675708 270.326598 
L 383.23738 266.442537 
L 386.799052 262.209289 
L 390.360724 257.60751 
L 393.922396 252.638967 
L 397.484068 247.327157 
L 401.04574 241.717207 
L 408.169084 229.885516 
L 415.292428 217.883277 
L 418.8541 212.107348 
L 422.415772 206.647523 
L 425.977444 201.625149 
L 429.539116 197.15092 
L 433.100788 193.318008 
L 436.66246 190.195766 
L 440.224132 187.824608 
L 443.785804 186.212642 
L 447.347476 185.334522 
L 450.909148 185.13279 
L 454.47082 185.521748 
L 458.032492 186.393615 
L 461.594164 187.626496 
L 468.717508 190.671842 
L 475.840852 193.745184 
L 479.402524 195.087801 
L 482.964196 196.245488 
L 486.525868 197.212885 
L 490.08754 198.011636 
L 497.210884 199.298129 
L 504.334228 200.626627 
L 507.8959 201.493258 
L 511.457572 202.586379 
L 515.019244 203.962368 
L 518.580916 205.665246 
L 522.142588 207.72645 
L 525.70426 210.165963 
L 529.265932 212.994431 
L 532.827604 216.215782 
L 536.389276 219.829874 
L 539.950948 223.834706 
L 543.51262 228.227856 
L 547.074292 233.006929 
L 550.635964 238.168976 
L 554.197636 243.709004 
L 557.759308 249.617856 
L 561.32098 255.879816 
L 564.882652 262.470396 
L 568.444324 269.354688 
L 575.567668 283.809544 
L 593.376028 320.844369 
L 596.9377 327.845798 
L 600.499372 334.581382 
L 604.061044 341.020509 
L 607.622716 347.148193 
L 611.184388 352.964772 
L 614.74606 358.484524 
L 618.307732 363.733418 
L 621.869404 368.746279 
L 628.992748 378.228716 
L 639.677764 391.722318 
L 653.924452 409.654911 
L 678.856156 441.493954 
L 685.9795 449.937658 
L 689.541172 453.909768 
L 693.102844 457.68229 
L 696.664516 461.235568 
L 700.226188 464.555171 
L 703.78786 467.632492 
L 707.349532 470.46501 
L 710.911204 473.056189 
L 714.472876 475.415013 
L 718.034548 477.555194 
L 721.59622 479.494119 
L 725.157892 481.251643 
L 728.719564 482.848831 
L 735.842908 485.645586 
L 742.966252 488.03714 
L 750.089596 490.14347 
L 757.21294 492.049657 
L 767.897956 494.658789 
L 782.144644 497.872936 
L 799.953004 501.644541 
L 810.63802 503.694801 
L 817.761364 504.910679 
L 817.761364 504.910679 
" clip-path="url(#p76323c80c8)" style="fill: none; stroke: #1f77b4; stroke-width: 1.5; stroke-linecap: square"/>
   </g>
   <g id="patch_53">
    <path d="M 73.55 509.56 
L 73.55 70.08 
" style="fill: none; stroke: #000000; stroke-width: 0.8; stroke-linejoin: miter; stroke-linecap: square"/>
   </g>
   <g id="patch_54">
    <path d="M 853.2 509.56 
L 853.2 70.08 
" style="fill: none; stroke: #000000; stroke-width: 0.8; stroke-linejoin: miter; stroke-linecap: square"/>
   </g>
   <g id="patch_55">
    <path d="M 73.55 509.56 
L 853.2 509.56 
" style="fill: none; stroke: #000000; stroke-width: 0.8; stroke-linejoin: miter; stroke-linecap: square"/>
   </g>
   <g id="patch_56">
    <path d="M 73.55 70.08 
L 853.2 70.08 
" style="fill: none; stroke: #000000; stroke-width: 0.8; stroke-linejoin: miter; stroke-linecap: square"/>
   </g>
   <g id="text_17">
    <!-- mu + sigma * N1 Distribution (FC1 Index 0) -->
    <g transform="translate(122.08125 32.4655) scale(0.28 -0.28)">
     <defs>
      <path id="DejaVuSans-Bold-6d" d="M 3781 2919 
Q 3994 3244 4286 3414 
Q 4578 3584 4928 3584 
Q 5531 3584 5847 3212 
Q 6163 2841 6163 2131 
L 6163 0 
L 5038 0 
L 5038 1825 
Q 5041 1866 5042 1909 
Q 5044 1953 5044 2034 
Q 5044 2406 4934 2573 
Q 4825 2741 4581 2741 
Q 4263 2741 4089 2478 
Q 3916 2216 3909 1719 
L 3909 0 
L 2784 0 
L 2784 1825 
Q 2784 2406 2684 2573 
Q 2584 2741 2328 2741 
Q 2006 2741 1831 2477 
Q 1656 2213 1656 1722 
L 1656 0 
L 531 0 
L 531 3500 
L 1656 3500 
L 1656 2988 
Q 1863 3284 2130 3434 
Q 2397 3584 2719 3584 
Q 3081 3584 3359 3409 
Q 3638 3234 3781 2919 
z
" transform="scale(0.015625)"/>
      <path id="DejaVuSans-Bold-2b" d="M 3053 4013 
L 3053 2375 
L 4684 2375 
L 4684 1638 
L 3053 1638 
L 3053 0 
L 2309 0 
L 2309 1638 
L 678 1638 
L 678 2375 
L 2309 2375 
L 2309 4013 
L 3053 4013 
z
" transform="scale(0.015625)"/>
      <path id="DejaVuSans-Bold-73" d="M 3272 3391 
L 3272 2541 
Q 2913 2691 2578 2766 
Q 2244 2841 1947 2841 
Q 1628 2841 1473 2761 
Q 1319 2681 1319 2516 
Q 1319 2381 1436 2309 
Q 1553 2238 1856 2203 
L 2053 2175 
Q 2913 2066 3209 1816 
Q 3506 1566 3506 1031 
Q 3506 472 3093 190 
Q 2681 -91 1863 -91 
Q 1516 -91 1145 -36 
Q 775 19 384 128 
L 384 978 
Q 719 816 1070 734 
Q 1422 653 1784 653 
Q 2113 653 2278 743 
Q 2444 834 2444 1013 
Q 2444 1163 2330 1236 
Q 2216 1309 1875 1350 
L 1678 1375 
Q 931 1469 631 1722 
Q 331 1975 331 2491 
Q 331 3047 712 3315 
Q 1094 3584 1881 3584 
Q 2191 3584 2531 3537 
Q 2872 3491 3272 3391 
z
" transform="scale(0.015625)"/>
      <path id="DejaVuSans-Bold-2a" d="M 3219 3803 
L 2188 3263 
L 3219 2719 
L 2981 2278 
L 1941 2853 
L 1941 1778 
L 1409 1778 
L 1409 2853 
L 366 2278 
L 128 2719 
L 1172 3263 
L 128 3803 
L 366 4244 
L 1409 3675 
L 1409 4750 
L 1941 4750 
L 1941 3675 
L 2981 4244 
L 3219 3803 
z
" transform="scale(0.015625)"/>
      <path id="DejaVuSans-Bold-4e" d="M 588 4666 
L 1931 4666 
L 3628 1466 
L 3628 4666 
L 4769 4666 
L 4769 0 
L 3425 0 
L 1728 3200 
L 1728 0 
L 588 0 
L 588 4666 
z
" transform="scale(0.015625)"/>
      <path id="DejaVuSans-Bold-31" d="M 750 831 
L 1813 831 
L 1813 3847 
L 722 3622 
L 722 4441 
L 1806 4666 
L 2950 4666 
L 2950 831 
L 4013 831 
L 4013 0 
L 750 0 
L 750 831 
z
" transform="scale(0.015625)"/>
      <path id="DejaVuSans-Bold-44" d="M 1791 3756 
L 1791 909 
L 2222 909 
Q 2959 909 3348 1275 
Q 3738 1641 3738 2338 
Q 3738 3031 3350 3393 
Q 2963 3756 2222 3756 
L 1791 3756 
z
M 588 4666 
L 1856 4666 
Q 2919 4666 3439 4514 
Q 3959 4363 4331 4000 
Q 4659 3684 4818 3271 
Q 4978 2859 4978 2338 
Q 4978 1809 4818 1395 
Q 4659 981 4331 666 
Q 3956 303 3431 151 
Q 2906 0 1856 0 
L 588 0 
L 588 4666 
z
" transform="scale(0.015625)"/>
      <path id="DejaVuSans-Bold-72" d="M 3138 2547 
Q 2991 2616 2845 2648 
Q 2700 2681 2553 2681 
Q 2122 2681 1889 2404 
Q 1656 2128 1656 1613 
L 1656 0 
L 538 0 
L 538 3500 
L 1656 3500 
L 1656 2925 
Q 1872 3269 2151 3426 
Q 2431 3584 2822 3584 
Q 2878 3584 2943 3579 
Q 3009 3575 3134 3559 
L 3138 2547 
z
" transform="scale(0.015625)"/>
      <path id="DejaVuSans-Bold-62" d="M 2400 722 
Q 2759 722 2948 984 
Q 3138 1247 3138 1747 
Q 3138 2247 2948 2509 
Q 2759 2772 2400 2772 
Q 2041 2772 1848 2508 
Q 1656 2244 1656 1747 
Q 1656 1250 1848 986 
Q 2041 722 2400 722 
z
M 1656 2988 
Q 1888 3294 2169 3439 
Q 2450 3584 2816 3584 
Q 3463 3584 3878 3070 
Q 4294 2556 4294 1747 
Q 4294 938 3878 423 
Q 3463 -91 2816 -91 
Q 2450 -91 2169 54 
Q 1888 200 1656 506 
L 1656 0 
L 538 0 
L 538 4863 
L 1656 4863 
L 1656 2988 
z
" transform="scale(0.015625)"/>
      <path id="DejaVuSans-Bold-28" d="M 2413 -844 
L 1484 -844 
Q 1006 -72 778 623 
Q 550 1319 550 2003 
Q 550 2688 779 3389 
Q 1009 4091 1484 4856 
L 2413 4856 
Q 2013 4116 1813 3408 
Q 1613 2700 1613 2009 
Q 1613 1319 1811 609 
Q 2009 -100 2413 -844 
z
" transform="scale(0.015625)"/>
      <path id="DejaVuSans-Bold-46" d="M 588 4666 
L 3834 4666 
L 3834 3756 
L 1791 3756 
L 1791 2888 
L 3713 2888 
L 3713 1978 
L 1791 1978 
L 1791 0 
L 588 0 
L 588 4666 
z
" transform="scale(0.015625)"/>
      <path id="DejaVuSans-Bold-49" d="M 588 4666 
L 1791 4666 
L 1791 0 
L 588 0 
L 588 4666 
z
" transform="scale(0.015625)"/>
      <path id="DejaVuSans-Bold-64" d="M 2919 2988 
L 2919 4863 
L 4044 4863 
L 4044 0 
L 2919 0 
L 2919 506 
Q 2688 197 2409 53 
Q 2131 -91 1766 -91 
Q 1119 -91 703 423 
Q 288 938 288 1747 
Q 288 2556 703 3070 
Q 1119 3584 1766 3584 
Q 2128 3584 2408 3439 
Q 2688 3294 2919 2988 
z
M 2181 722 
Q 2541 722 2730 984 
Q 2919 1247 2919 1747 
Q 2919 2247 2730 2509 
Q 2541 2772 2181 2772 
Q 1825 2772 1636 2509 
Q 1447 2247 1447 1747 
Q 1447 1247 1636 984 
Q 1825 722 2181 722 
z
" transform="scale(0.015625)"/>
      <path id="DejaVuSans-Bold-78" d="M 1422 1791 
L 159 3500 
L 1344 3500 
L 2059 2463 
L 2784 3500 
L 3969 3500 
L 2706 1797 
L 4031 0 
L 2847 0 
L 2059 1106 
L 1281 0 
L 97 0 
L 1422 1791 
z
" transform="scale(0.015625)"/>
      <path id="DejaVuSans-Bold-30" d="M 2944 2338 
Q 2944 3213 2780 3570 
Q 2616 3928 2228 3928 
Q 1841 3928 1675 3570 
Q 1509 3213 1509 2338 
Q 1509 1453 1675 1090 
Q 1841 728 2228 728 
Q 2613 728 2778 1090 
Q 2944 1453 2944 2338 
z
M 4147 2328 
Q 4147 1169 3647 539 
Q 3147 -91 2228 -91 
Q 1306 -91 806 539 
Q 306 1169 306 2328 
Q 306 3491 806 4120 
Q 1306 4750 2228 4750 
Q 3147 4750 3647 4120 
Q 4147 3491 4147 2328 
z
" transform="scale(0.015625)"/>
      <path id="DejaVuSans-Bold-29" d="M 513 -844 
Q 913 -100 1113 609 
Q 1313 1319 1313 2009 
Q 1313 2700 1113 3408 
Q 913 4116 513 4856 
L 1441 4856 
Q 1916 4091 2145 3389 
Q 2375 2688 2375 2003 
Q 2375 1319 2147 623 
Q 1919 -72 1441 -844 
L 513 -844 
z
" transform="scale(0.015625)"/>
     </defs>
     <use xlink:href="#DejaVuSans-Bold-6d"/>
     <use xlink:href="#DejaVuSans-Bold-75" x="104.199219"/>
     <use xlink:href="#DejaVuSans-Bold-20" x="175.390625"/>
     <use xlink:href="#DejaVuSans-Bold-2b" x="210.205078"/>
     <use xlink:href="#DejaVuSans-Bold-20" x="293.994141"/>
     <use xlink:href="#DejaVuSans-Bold-73" x="328.808594"/>
     <use xlink:href="#DejaVuSans-Bold-69" x="388.330078"/>
     <use xlink:href="#DejaVuSans-Bold-67" x="422.607422"/>
     <use xlink:href="#DejaVuSans-Bold-6d" x="494.189453"/>
     <use xlink:href="#DejaVuSans-Bold-61" x="598.388672"/>
     <use xlink:href="#DejaVuSans-Bold-20" x="665.869141"/>
     <use xlink:href="#DejaVuSans-Bold-2a" x="700.683594"/>
     <use xlink:href="#DejaVuSans-Bold-20" x="752.978516"/>
     <use xlink:href="#DejaVuSans-Bold-4e" x="787.792969"/>
     <use xlink:href="#DejaVuSans-Bold-31" x="871.484375"/>
     <use xlink:href="#DejaVuSans-Bold-20" x="941.064453"/>
     <use xlink:href="#DejaVuSans-Bold-44" x="975.878906"/>
     <use xlink:href="#DejaVuSans-Bold-69" x="1058.886719"/>
     <use xlink:href="#DejaVuSans-Bold-73" x="1093.164062"/>
     <use xlink:href="#DejaVuSans-Bold-74" x="1152.685547"/>
     <use xlink:href="#DejaVuSans-Bold-72" x="1200.488281"/>
     <use xlink:href="#DejaVuSans-Bold-69" x="1249.804688"/>
     <use xlink:href="#DejaVuSans-Bold-62" x="1284.082031"/>
     <use xlink:href="#DejaVuSans-Bold-75" x="1355.664062"/>
     <use xlink:href="#DejaVuSans-Bold-74" x="1426.855469"/>
     <use xlink:href="#DejaVuSans-Bold-69" x="1474.658203"/>
     <use xlink:href="#DejaVuSans-Bold-6f" x="1508.935547"/>
     <use xlink:href="#DejaVuSans-Bold-6e" x="1577.636719"/>
     <use xlink:href="#DejaVuSans-Bold-20" x="1648.828125"/>
     <use xlink:href="#DejaVuSans-Bold-28" x="1683.642578"/>
     <use xlink:href="#DejaVuSans-Bold-46" x="1729.345703"/>
     <use xlink:href="#DejaVuSans-Bold-43" x="1797.65625"/>
     <use xlink:href="#DejaVuSans-Bold-31" x="1871.044922"/>
     <use xlink:href="#DejaVuSans-Bold-20" x="1940.625"/>
     <use xlink:href="#DejaVuSans-Bold-49" x="1975.439453"/>
     <use xlink:href="#DejaVuSans-Bold-6e" x="2012.646484"/>
     <use xlink:href="#DejaVuSans-Bold-64" x="2083.837891"/>
     <use xlink:href="#DejaVuSans-Bold-65" x="2155.419922"/>
     <use xlink:href="#DejaVuSans-Bold-78" x="2223.242188"/>
     <use xlink:href="#DejaVuSans-Bold-20" x="2287.744141"/>
     <use xlink:href="#DejaVuSans-Bold-30" x="2322.558594"/>
     <use xlink:href="#DejaVuSans-Bold-29" x="2392.138672"/>
    </g>
    <!-- mu=-0.002, sigma=1.000 -->
    <g transform="translate(263.60375 64.038125) scale(0.28 -0.28)">
     <defs>
      <path id="DejaVuSans-Bold-3d" d="M 678 3084 
L 4684 3084 
L 4684 2350 
L 678 2350 
L 678 3084 
z
M 678 1663 
L 4684 1663 
L 4684 922 
L 678 922 
L 678 1663 
z
" transform="scale(0.015625)"/>
      <path id="DejaVuSans-Bold-2d" d="M 347 2297 
L 2309 2297 
L 2309 1388 
L 347 1388 
L 347 2297 
z
" transform="scale(0.015625)"/>
      <path id="DejaVuSans-Bold-2e" d="M 653 1209 
L 1778 1209 
L 1778 0 
L 653 0 
L 653 1209 
z
" transform="scale(0.015625)"/>
      <path id="DejaVuSans-Bold-32" d="M 1844 884 
L 3897 884 
L 3897 0 
L 506 0 
L 506 884 
L 2209 2388 
Q 2438 2594 2547 2791 
Q 2656 2988 2656 3200 
Q 2656 3528 2436 3728 
Q 2216 3928 1850 3928 
Q 1569 3928 1234 3808 
Q 900 3688 519 3450 
L 519 4475 
Q 925 4609 1322 4679 
Q 1719 4750 2100 4750 
Q 2938 4750 3402 4381 
Q 3866 4013 3866 3353 
Q 3866 2972 3669 2642 
Q 3472 2313 2841 1759 
L 1844 884 
z
" transform="scale(0.015625)"/>
      <path id="DejaVuSans-Bold-2c" d="M 653 1209 
L 1778 1209 
L 1778 256 
L 1006 -909 
L 341 -909 
L 653 256 
L 653 1209 
z
" transform="scale(0.015625)"/>
     </defs>
     <use xlink:href="#DejaVuSans-Bold-6d"/>
     <use xlink:href="#DejaVuSans-Bold-75" x="104.199219"/>
     <use xlink:href="#DejaVuSans-Bold-3d" x="175.390625"/>
     <use xlink:href="#DejaVuSans-Bold-2d" x="259.179688"/>
     <use xlink:href="#DejaVuSans-Bold-30" x="300.683594"/>
     <use xlink:href="#DejaVuSans-Bold-2e" x="370.263672"/>
     <use xlink:href="#DejaVuSans-Bold-30" x="408.251953"/>
     <use xlink:href="#DejaVuSans-Bold-30" x="477.832031"/>
     <use xlink:href="#DejaVuSans-Bold-32" x="547.412109"/>
     <use xlink:href="#DejaVuSans-Bold-2c" x="616.992188"/>
     <use xlink:href="#DejaVuSans-Bold-20" x="654.980469"/>
     <use xlink:href="#DejaVuSans-Bold-73" x="689.794922"/>
     <use xlink:href="#DejaVuSans-Bold-69" x="749.316406"/>
     <use xlink:href="#DejaVuSans-Bold-67" x="783.59375"/>
     <use xlink:href="#DejaVuSans-Bold-6d" x="855.175781"/>
     <use xlink:href="#DejaVuSans-Bold-61" x="959.375"/>
     <use xlink:href="#DejaVuSans-Bold-3d" x="1026.855469"/>
     <use xlink:href="#DejaVuSans-Bold-31" x="1110.644531"/>
     <use xlink:href="#DejaVuSans-Bold-2e" x="1180.224609"/>
     <use xlink:href="#DejaVuSans-Bold-30" x="1218.212891"/>
     <use xlink:href="#DejaVuSans-Bold-30" x="1287.792969"/>
     <use xlink:href="#DejaVuSans-Bold-30" x="1357.373047"/>
    </g>
   </g>
  </g>
 </g>
 <defs>
  <clipPath id="p76323c80c8">
   <rect x="73.55" y="70.08" width="779.65" height="439.48"/>
  </clipPath>
 </defs>
</svg>
