<?xml version="1.0" encoding="utf-8" standalone="no"?>
<!DOCTYPE svg PUBLIC "-//W3C//DTD SVG 1.1//EN"
  "http://www.w3.org/Graphics/SVG/1.1/DTD/svg11.dtd">
<svg xmlns:xlink="http://www.w3.org/1999/xlink" width="864pt" height="576pt" viewBox="0 0 864 576" xmlns="http://www.w3.org/2000/svg" version="1.1">
 <metadata>
  <rdf:RDF xmlns:dc="http://purl.org/dc/elements/1.1/" xmlns:cc="http://creativecommons.org/ns#" xmlns:rdf="http://www.w3.org/1999/02/22-rdf-syntax-ns#">
   <cc:Work>
    <dc:type rdf:resource="http://purl.org/dc/dcmitype/StillImage"/>
    <dc:date>2025-06-28T14:01:50.181681</dc:date>
    <dc:format>image/svg+xml</dc:format>
    <dc:creator>
     <cc:Agent>
      <dc:title>Matplotlib v3.9.2, https://matplotlib.org/</dc:title>
     </cc:Agent>
    </dc:creator>
   </cc:Work>
  </rdf:RDF>
 </metadata>
 <defs>
  <style type="text/css">*{stroke-linejoin: round; stroke-linecap: butt}</style>
 </defs>
 <g id="figure_1">
  <g id="patch_1">
   <path d="M 0 576 
L 864 576 
L 864 0 
L 0 0 
z
" style="fill: #ffffff"/>
  </g>
  <g id="axes_1">
   <g id="patch_2">
    <path d="M 101.45 509.56 
L 851.39788 509.56 
L 851.39788 38.4 
L 101.45 38.4 
z
" style="fill: #ffffff"/>
   </g>
   <g id="patch_3">
    <path d="M 135.53854 509.56 
L 149.173956 509.56 
L 149.173956 474.844977 
L 135.53854 474.844977 
z
" clip-path="url(#pfc12462e71)" style="fill: #1f77b4; fill-opacity: 0.5; stroke: #000000; stroke-width: 2; stroke-linejoin: miter"/>
   </g>
   <g id="patch_4">
    <path d="M 149.173956 509.56 
L 162.809372 509.56 
L 162.809372 500.559809 
L 149.173956 500.559809 
z
" clip-path="url(#pfc12462e71)" style="fill: #1f77b4; fill-opacity: 0.5; stroke: #000000; stroke-width: 2; stroke-linejoin: miter"/>
   </g>
   <g id="patch_5">
    <path d="M 162.809372 509.56 
L 176.444788 509.56 
L 176.444788 504.417034 
L 162.809372 504.417034 
z
" clip-path="url(#pfc12462e71)" style="fill: #1f77b4; fill-opacity: 0.5; stroke: #000000; stroke-width: 2; stroke-linejoin: miter"/>
   </g>
   <g id="patch_6">
    <path d="M 176.444788 509.56 
L 190.080204 509.56 
L 190.080204 505.274195 
L 176.444788 505.274195 
z
" clip-path="url(#pfc12462e71)" style="fill: #1f77b4; fill-opacity: 0.5; stroke: #000000; stroke-width: 2; stroke-linejoin: miter"/>
   </g>
   <g id="patch_7">
    <path d="M 190.080204 509.56 
L 203.71562 509.56 
L 203.71562 507.845678 
L 190.080204 507.845678 
z
" clip-path="url(#pfc12462e71)" style="fill: #1f77b4; fill-opacity: 0.5; stroke: #000000; stroke-width: 2; stroke-linejoin: miter"/>
   </g>
   <g id="patch_8">
    <path d="M 203.71562 509.56 
L 217.351036 509.56 
L 217.351036 507.845678 
L 203.71562 507.845678 
z
" clip-path="url(#pfc12462e71)" style="fill: #1f77b4; fill-opacity: 0.5; stroke: #000000; stroke-width: 2; stroke-linejoin: miter"/>
   </g>
   <g id="patch_9">
    <path d="M 217.351036 509.56 
L 230.986452 509.56 
L 230.986452 508.274258 
L 217.351036 508.274258 
z
" clip-path="url(#pfc12462e71)" style="fill: #1f77b4; fill-opacity: 0.5; stroke: #000000; stroke-width: 2; stroke-linejoin: miter"/>
   </g>
   <g id="patch_10">
    <path d="M 230.986452 509.56 
L 244.621868 509.56 
L 244.621868 508.274258 
L 230.986452 508.274258 
z
" clip-path="url(#pfc12462e71)" style="fill: #1f77b4; fill-opacity: 0.5; stroke: #000000; stroke-width: 2; stroke-linejoin: miter"/>
   </g>
   <g id="patch_11">
    <path d="M 244.621868 509.56 
L 258.257284 509.56 
L 258.257284 507.845678 
L 244.621868 507.845678 
z
" clip-path="url(#pfc12462e71)" style="fill: #1f77b4; fill-opacity: 0.5; stroke: #000000; stroke-width: 2; stroke-linejoin: miter"/>
   </g>
   <g id="patch_12">
    <path d="M 258.257284 509.56 
L 271.8927 509.56 
L 271.8927 506.559936 
L 258.257284 506.559936 
z
" clip-path="url(#pfc12462e71)" style="fill: #1f77b4; fill-opacity: 0.5; stroke: #000000; stroke-width: 2; stroke-linejoin: miter"/>
   </g>
   <g id="patch_13">
    <path d="M 271.8927 509.56 
L 285.528116 509.56 
L 285.528116 506.988517 
L 271.8927 506.988517 
z
" clip-path="url(#pfc12462e71)" style="fill: #1f77b4; fill-opacity: 0.5; stroke: #000000; stroke-width: 2; stroke-linejoin: miter"/>
   </g>
   <g id="patch_14">
    <path d="M 285.528116 509.56 
L 299.163532 509.56 
L 299.163532 505.274195 
L 285.528116 505.274195 
z
" clip-path="url(#pfc12462e71)" style="fill: #1f77b4; fill-opacity: 0.5; stroke: #000000; stroke-width: 2; stroke-linejoin: miter"/>
   </g>
   <g id="patch_15">
    <path d="M 299.163532 509.56 
L 312.798948 509.56 
L 312.798948 505.274195 
L 299.163532 505.274195 
z
" clip-path="url(#pfc12462e71)" style="fill: #1f77b4; fill-opacity: 0.5; stroke: #000000; stroke-width: 2; stroke-linejoin: miter"/>
   </g>
   <g id="patch_16">
    <path d="M 312.798948 509.56 
L 326.434364 509.56 
L 326.434364 506.988517 
L 312.798948 506.988517 
z
" clip-path="url(#pfc12462e71)" style="fill: #1f77b4; fill-opacity: 0.5; stroke: #000000; stroke-width: 2; stroke-linejoin: miter"/>
   </g>
   <g id="patch_17">
    <path d="M 326.434364 509.56 
L 340.06978 509.56 
L 340.06978 506.131356 
L 326.434364 506.131356 
z
" clip-path="url(#pfc12462e71)" style="fill: #1f77b4; fill-opacity: 0.5; stroke: #000000; stroke-width: 2; stroke-linejoin: miter"/>
   </g>
   <g id="patch_18">
    <path d="M 340.06978 509.56 
L 353.705196 509.56 
L 353.705196 503.559873 
L 340.06978 503.559873 
z
" clip-path="url(#pfc12462e71)" style="fill: #1f77b4; fill-opacity: 0.5; stroke: #000000; stroke-width: 2; stroke-linejoin: miter"/>
   </g>
   <g id="patch_19">
    <path d="M 353.705196 509.56 
L 367.340612 509.56 
L 367.340612 506.559936 
L 353.705196 506.559936 
z
" clip-path="url(#pfc12462e71)" style="fill: #1f77b4; fill-opacity: 0.5; stroke: #000000; stroke-width: 2; stroke-linejoin: miter"/>
   </g>
   <g id="patch_20">
    <path d="M 367.340612 509.56 
L 380.976028 509.56 
L 380.976028 507.417097 
L 367.340612 507.417097 
z
" clip-path="url(#pfc12462e71)" style="fill: #1f77b4; fill-opacity: 0.5; stroke: #000000; stroke-width: 2; stroke-linejoin: miter"/>
   </g>
   <g id="patch_21">
    <path d="M 380.976028 509.56 
L 394.611444 509.56 
L 394.611444 506.988517 
L 380.976028 506.988517 
z
" clip-path="url(#pfc12462e71)" style="fill: #1f77b4; fill-opacity: 0.5; stroke: #000000; stroke-width: 2; stroke-linejoin: miter"/>
   </g>
   <g id="patch_22">
    <path d="M 394.611444 509.56 
L 408.24686 509.56 
L 408.24686 507.417097 
L 394.611444 507.417097 
z
" clip-path="url(#pfc12462e71)" style="fill: #1f77b4; fill-opacity: 0.5; stroke: #000000; stroke-width: 2; stroke-linejoin: miter"/>
   </g>
   <g id="patch_23">
    <path d="M 408.24686 509.56 
L 421.882276 509.56 
L 421.882276 506.131356 
L 408.24686 506.131356 
z
" clip-path="url(#pfc12462e71)" style="fill: #1f77b4; fill-opacity: 0.5; stroke: #000000; stroke-width: 2; stroke-linejoin: miter"/>
   </g>
   <g id="patch_24">
    <path d="M 421.882276 509.56 
L 435.517692 509.56 
L 435.517692 506.988517 
L 421.882276 506.988517 
z
" clip-path="url(#pfc12462e71)" style="fill: #1f77b4; fill-opacity: 0.5; stroke: #000000; stroke-width: 2; stroke-linejoin: miter"/>
   </g>
   <g id="patch_25">
    <path d="M 435.517692 509.56 
L 449.153108 509.56 
L 449.153108 508.702839 
L 435.517692 508.702839 
z
" clip-path="url(#pfc12462e71)" style="fill: #1f77b4; fill-opacity: 0.5; stroke: #000000; stroke-width: 2; stroke-linejoin: miter"/>
   </g>
   <g id="patch_26">
    <path d="M 449.153108 509.56 
L 462.788524 509.56 
L 462.788524 506.559936 
L 449.153108 506.559936 
z
" clip-path="url(#pfc12462e71)" style="fill: #1f77b4; fill-opacity: 0.5; stroke: #000000; stroke-width: 2; stroke-linejoin: miter"/>
   </g>
   <g id="patch_27">
    <path d="M 462.788524 509.56 
L 476.42394 509.56 
L 476.42394 507.845678 
L 462.788524 507.845678 
z
" clip-path="url(#pfc12462e71)" style="fill: #1f77b4; fill-opacity: 0.5; stroke: #000000; stroke-width: 2; stroke-linejoin: miter"/>
   </g>
   <g id="patch_28">
    <path d="M 476.42394 509.56 
L 490.059356 509.56 
L 490.059356 506.988517 
L 476.42394 506.988517 
z
" clip-path="url(#pfc12462e71)" style="fill: #1f77b4; fill-opacity: 0.5; stroke: #000000; stroke-width: 2; stroke-linejoin: miter"/>
   </g>
   <g id="patch_29">
    <path d="M 490.059356 509.56 
L 503.694772 509.56 
L 503.694772 506.131356 
L 490.059356 506.131356 
z
" clip-path="url(#pfc12462e71)" style="fill: #1f77b4; fill-opacity: 0.5; stroke: #000000; stroke-width: 2; stroke-linejoin: miter"/>
   </g>
   <g id="patch_30">
    <path d="M 503.694772 509.56 
L 517.330188 509.56 
L 517.330188 504.417034 
L 503.694772 504.417034 
z
" clip-path="url(#pfc12462e71)" style="fill: #1f77b4; fill-opacity: 0.5; stroke: #000000; stroke-width: 2; stroke-linejoin: miter"/>
   </g>
   <g id="patch_31">
    <path d="M 517.330188 509.56 
L 530.965604 509.56 
L 530.965604 503.559873 
L 517.330188 503.559873 
z
" clip-path="url(#pfc12462e71)" style="fill: #1f77b4; fill-opacity: 0.5; stroke: #000000; stroke-width: 2; stroke-linejoin: miter"/>
   </g>
   <g id="patch_32">
    <path d="M 530.965604 509.56 
L 544.60102 509.56 
L 544.60102 499.702648 
L 530.965604 499.702648 
z
" clip-path="url(#pfc12462e71)" style="fill: #1f77b4; fill-opacity: 0.5; stroke: #000000; stroke-width: 2; stroke-linejoin: miter"/>
   </g>
   <g id="patch_33">
    <path d="M 544.60102 509.56 
L 558.236436 509.56 
L 558.236436 501.845551 
L 544.60102 501.845551 
z
" clip-path="url(#pfc12462e71)" style="fill: #1f77b4; fill-opacity: 0.5; stroke: #000000; stroke-width: 2; stroke-linejoin: miter"/>
   </g>
   <g id="patch_34">
    <path d="M 558.236436 509.56 
L 571.871852 509.56 
L 571.871852 493.27394 
L 558.236436 493.27394 
z
" clip-path="url(#pfc12462e71)" style="fill: #1f77b4; fill-opacity: 0.5; stroke: #000000; stroke-width: 2; stroke-linejoin: miter"/>
   </g>
   <g id="patch_35">
    <path d="M 571.871852 509.56 
L 585.507268 509.56 
L 585.507268 488.559554 
L 571.871852 488.559554 
z
" clip-path="url(#pfc12462e71)" style="fill: #1f77b4; fill-opacity: 0.5; stroke: #000000; stroke-width: 2; stroke-linejoin: miter"/>
   </g>
   <g id="patch_36">
    <path d="M 585.507268 509.56 
L 599.142684 509.56 
L 599.142684 474.844977 
L 585.507268 474.844977 
z
" clip-path="url(#pfc12462e71)" style="fill: #1f77b4; fill-opacity: 0.5; stroke: #000000; stroke-width: 2; stroke-linejoin: miter"/>
   </g>
   <g id="patch_37">
    <path d="M 599.142684 509.56 
L 612.7781 509.56 
L 612.7781 447.415824 
L 599.142684 447.415824 
z
" clip-path="url(#pfc12462e71)" style="fill: #1f77b4; fill-opacity: 0.5; stroke: #000000; stroke-width: 2; stroke-linejoin: miter"/>
   </g>
   <g id="patch_38">
    <path d="M 612.7781 509.56 
L 626.413516 509.56 
L 626.413516 400.700547 
L 612.7781 400.700547 
z
" clip-path="url(#pfc12462e71)" style="fill: #1f77b4; fill-opacity: 0.5; stroke: #000000; stroke-width: 2; stroke-linejoin: miter"/>
   </g>
   <g id="patch_39">
    <path d="M 626.413516 509.56 
L 640.048932 509.56 
L 640.048932 60.83619 
L 626.413516 60.83619 
z
" clip-path="url(#pfc12462e71)" style="fill: #1f77b4; fill-opacity: 0.5; stroke: #000000; stroke-width: 2; stroke-linejoin: miter"/>
   </g>
   <g id="patch_40">
    <path d="M 640.048932 509.56 
L 653.684348 509.56 
L 653.684348 479.559363 
L 640.048932 479.559363 
z
" clip-path="url(#pfc12462e71)" style="fill: #1f77b4; fill-opacity: 0.5; stroke: #000000; stroke-width: 2; stroke-linejoin: miter"/>
   </g>
   <g id="patch_41">
    <path d="M 653.684348 509.56 
L 667.319764 509.56 
L 667.319764 501.41697 
L 653.684348 501.41697 
z
" clip-path="url(#pfc12462e71)" style="fill: #1f77b4; fill-opacity: 0.5; stroke: #000000; stroke-width: 2; stroke-linejoin: miter"/>
   </g>
   <g id="patch_42">
    <path d="M 667.319764 509.56 
L 680.95518 509.56 
L 680.95518 506.988517 
L 667.319764 506.988517 
z
" clip-path="url(#pfc12462e71)" style="fill: #1f77b4; fill-opacity: 0.5; stroke: #000000; stroke-width: 2; stroke-linejoin: miter"/>
   </g>
   <g id="patch_43">
    <path d="M 680.95518 509.56 
L 694.590596 509.56 
L 694.590596 508.702839 
L 680.95518 508.702839 
z
" clip-path="url(#pfc12462e71)" style="fill: #1f77b4; fill-opacity: 0.5; stroke: #000000; stroke-width: 2; stroke-linejoin: miter"/>
   </g>
   <g id="patch_44">
    <path d="M 694.590596 509.56 
L 708.226012 509.56 
L 708.226012 509.56 
L 694.590596 509.56 
z
" clip-path="url(#pfc12462e71)" style="fill: #1f77b4; fill-opacity: 0.5; stroke: #000000; stroke-width: 2; stroke-linejoin: miter"/>
   </g>
   <g id="patch_45">
    <path d="M 708.226012 509.56 
L 721.861428 509.56 
L 721.861428 509.131419 
L 708.226012 509.131419 
z
" clip-path="url(#pfc12462e71)" style="fill: #1f77b4; fill-opacity: 0.5; stroke: #000000; stroke-width: 2; stroke-linejoin: miter"/>
   </g>
   <g id="patch_46">
    <path d="M 721.861428 509.56 
L 735.496844 509.56 
L 735.496844 509.56 
L 721.861428 509.56 
z
" clip-path="url(#pfc12462e71)" style="fill: #1f77b4; fill-opacity: 0.5; stroke: #000000; stroke-width: 2; stroke-linejoin: miter"/>
   </g>
   <g id="patch_47">
    <path d="M 735.496844 509.56 
L 749.13226 509.56 
L 749.13226 509.56 
L 735.496844 509.56 
z
" clip-path="url(#pfc12462e71)" style="fill: #1f77b4; fill-opacity: 0.5; stroke: #000000; stroke-width: 2; stroke-linejoin: miter"/>
   </g>
   <g id="patch_48">
    <path d="M 749.13226 509.56 
L 762.767676 509.56 
L 762.767676 509.131419 
L 749.13226 509.131419 
z
" clip-path="url(#pfc12462e71)" style="fill: #1f77b4; fill-opacity: 0.5; stroke: #000000; stroke-width: 2; stroke-linejoin: miter"/>
   </g>
   <g id="patch_49">
    <path d="M 762.767676 509.56 
L 776.403092 509.56 
L 776.403092 509.56 
L 762.767676 509.56 
z
" clip-path="url(#pfc12462e71)" style="fill: #1f77b4; fill-opacity: 0.5; stroke: #000000; stroke-width: 2; stroke-linejoin: miter"/>
   </g>
   <g id="patch_50">
    <path d="M 776.403092 509.56 
L 790.038508 509.56 
L 790.038508 509.56 
L 776.403092 509.56 
z
" clip-path="url(#pfc12462e71)" style="fill: #1f77b4; fill-opacity: 0.5; stroke: #000000; stroke-width: 2; stroke-linejoin: miter"/>
   </g>
   <g id="patch_51">
    <path d="M 790.038508 509.56 
L 803.673924 509.56 
L 803.673924 509.56 
L 790.038508 509.56 
z
" clip-path="url(#pfc12462e71)" style="fill: #1f77b4; fill-opacity: 0.5; stroke: #000000; stroke-width: 2; stroke-linejoin: miter"/>
   </g>
   <g id="patch_52">
    <path d="M 803.673924 509.56 
L 817.30934 509.56 
L 817.30934 509.131419 
L 803.673924 509.131419 
z
" clip-path="url(#pfc12462e71)" style="fill: #1f77b4; fill-opacity: 0.5; stroke: #000000; stroke-width: 2; stroke-linejoin: miter"/>
   </g>
   <g id="matplotlib.axis_1">
    <g id="xtick_1">
     <g id="line2d_1">
      <defs>
       <path id="mdb8808df9e" d="M 0 0 
L 0 3.5 
" style="stroke: #000000; stroke-width: 0.8"/>
      </defs>
      <g>
       <use xlink:href="#mdb8808df9e" x="133.979353" y="509.56" style="stroke: #000000; stroke-width: 0.8"/>
      </g>
     </g>
     <g id="text_1">
      <!-- 0.0 -->
      <g transform="translate(116.485915 533.276562) scale(0.22 -0.22)">
       <defs>
        <path id="DejaVuSans-30" d="M 2034 4250 
Q 1547 4250 1301 3770 
Q 1056 3291 1056 2328 
Q 1056 1369 1301 889 
Q 1547 409 2034 409 
Q 2525 409 2770 889 
Q 3016 1369 3016 2328 
Q 3016 3291 2770 3770 
Q 2525 4250 2034 4250 
z
M 2034 4750 
Q 2819 4750 3233 4129 
Q 3647 3509 3647 2328 
Q 3647 1150 3233 529 
Q 2819 -91 2034 -91 
Q 1250 -91 836 529 
Q 422 1150 422 2328 
Q 422 3509 836 4129 
Q 1250 4750 2034 4750 
z
" transform="scale(0.015625)"/>
        <path id="DejaVuSans-2e" d="M 684 794 
L 1344 794 
L 1344 0 
L 684 0 
L 684 794 
z
" transform="scale(0.015625)"/>
       </defs>
       <use xlink:href="#DejaVuSans-30"/>
       <use xlink:href="#DejaVuSans-2e" x="63.623047"/>
       <use xlink:href="#DejaVuSans-30" x="95.410156"/>
      </g>
     </g>
    </g>
    <g id="xtick_2">
     <g id="line2d_2">
      <g>
       <use xlink:href="#mdb8808df9e" x="233.962467" y="509.56" style="stroke: #000000; stroke-width: 0.8"/>
      </g>
     </g>
     <g id="text_2">
      <!-- 0.2 -->
      <g transform="translate(216.469029 533.276562) scale(0.22 -0.22)">
       <defs>
        <path id="DejaVuSans-32" d="M 1228 531 
L 3431 531 
L 3431 0 
L 469 0 
L 469 531 
Q 828 903 1448 1529 
Q 2069 2156 2228 2338 
Q 2531 2678 2651 2914 
Q 2772 3150 2772 3378 
Q 2772 3750 2511 3984 
Q 2250 4219 1831 4219 
Q 1534 4219 1204 4116 
Q 875 4013 500 3803 
L 500 4441 
Q 881 4594 1212 4672 
Q 1544 4750 1819 4750 
Q 2544 4750 2975 4387 
Q 3406 4025 3406 3419 
Q 3406 3131 3298 2873 
Q 3191 2616 2906 2266 
Q 2828 2175 2409 1742 
Q 1991 1309 1228 531 
z
" transform="scale(0.015625)"/>
       </defs>
       <use xlink:href="#DejaVuSans-30"/>
       <use xlink:href="#DejaVuSans-2e" x="63.623047"/>
       <use xlink:href="#DejaVuSans-32" x="95.410156"/>
      </g>
     </g>
    </g>
    <g id="xtick_3">
     <g id="line2d_3">
      <g>
       <use xlink:href="#mdb8808df9e" x="333.945581" y="509.56" style="stroke: #000000; stroke-width: 0.8"/>
      </g>
     </g>
     <g id="text_3">
      <!-- 0.4 -->
      <g transform="translate(316.452143 533.276562) scale(0.22 -0.22)">
       <defs>
        <path id="DejaVuSans-34" d="M 2419 4116 
L 825 1625 
L 2419 1625 
L 2419 4116 
z
M 2253 4666 
L 3047 4666 
L 3047 1625 
L 3713 1625 
L 3713 1100 
L 3047 1100 
L 3047 0 
L 2419 0 
L 2419 1100 
L 313 1100 
L 313 1709 
L 2253 4666 
z
" transform="scale(0.015625)"/>
       </defs>
       <use xlink:href="#DejaVuSans-30"/>
       <use xlink:href="#DejaVuSans-2e" x="63.623047"/>
       <use xlink:href="#DejaVuSans-34" x="95.410156"/>
      </g>
     </g>
    </g>
    <g id="xtick_4">
     <g id="line2d_4">
      <g>
       <use xlink:href="#mdb8808df9e" x="433.928695" y="509.56" style="stroke: #000000; stroke-width: 0.8"/>
      </g>
     </g>
     <g id="text_4">
      <!-- 0.6 -->
      <g transform="translate(416.435257 533.276562) scale(0.22 -0.22)">
       <defs>
        <path id="DejaVuSans-36" d="M 2113 2584 
Q 1688 2584 1439 2293 
Q 1191 2003 1191 1497 
Q 1191 994 1439 701 
Q 1688 409 2113 409 
Q 2538 409 2786 701 
Q 3034 994 3034 1497 
Q 3034 2003 2786 2293 
Q 2538 2584 2113 2584 
z
M 3366 4563 
L 3366 3988 
Q 3128 4100 2886 4159 
Q 2644 4219 2406 4219 
Q 1781 4219 1451 3797 
Q 1122 3375 1075 2522 
Q 1259 2794 1537 2939 
Q 1816 3084 2150 3084 
Q 2853 3084 3261 2657 
Q 3669 2231 3669 1497 
Q 3669 778 3244 343 
Q 2819 -91 2113 -91 
Q 1303 -91 875 529 
Q 447 1150 447 2328 
Q 447 3434 972 4092 
Q 1497 4750 2381 4750 
Q 2619 4750 2861 4703 
Q 3103 4656 3366 4563 
z
" transform="scale(0.015625)"/>
       </defs>
       <use xlink:href="#DejaVuSans-30"/>
       <use xlink:href="#DejaVuSans-2e" x="63.623047"/>
       <use xlink:href="#DejaVuSans-36" x="95.410156"/>
      </g>
     </g>
    </g>
    <g id="xtick_5">
     <g id="line2d_5">
      <g>
       <use xlink:href="#mdb8808df9e" x="533.911809" y="509.56" style="stroke: #000000; stroke-width: 0.8"/>
      </g>
     </g>
     <g id="text_5">
      <!-- 0.8 -->
      <g transform="translate(516.418371 533.276562) scale(0.22 -0.22)">
       <defs>
        <path id="DejaVuSans-38" d="M 2034 2216 
Q 1584 2216 1326 1975 
Q 1069 1734 1069 1313 
Q 1069 891 1326 650 
Q 1584 409 2034 409 
Q 2484 409 2743 651 
Q 3003 894 3003 1313 
Q 3003 1734 2745 1975 
Q 2488 2216 2034 2216 
z
M 1403 2484 
Q 997 2584 770 2862 
Q 544 3141 544 3541 
Q 544 4100 942 4425 
Q 1341 4750 2034 4750 
Q 2731 4750 3128 4425 
Q 3525 4100 3525 3541 
Q 3525 3141 3298 2862 
Q 3072 2584 2669 2484 
Q 3125 2378 3379 2068 
Q 3634 1759 3634 1313 
Q 3634 634 3220 271 
Q 2806 -91 2034 -91 
Q 1263 -91 848 271 
Q 434 634 434 1313 
Q 434 1759 690 2068 
Q 947 2378 1403 2484 
z
M 1172 3481 
Q 1172 3119 1398 2916 
Q 1625 2713 2034 2713 
Q 2441 2713 2670 2916 
Q 2900 3119 2900 3481 
Q 2900 3844 2670 4047 
Q 2441 4250 2034 4250 
Q 1625 4250 1398 4047 
Q 1172 3844 1172 3481 
z
" transform="scale(0.015625)"/>
       </defs>
       <use xlink:href="#DejaVuSans-30"/>
       <use xlink:href="#DejaVuSans-2e" x="63.623047"/>
       <use xlink:href="#DejaVuSans-38" x="95.410156"/>
      </g>
     </g>
    </g>
    <g id="xtick_6">
     <g id="line2d_6">
      <g>
       <use xlink:href="#mdb8808df9e" x="633.894923" y="509.56" style="stroke: #000000; stroke-width: 0.8"/>
      </g>
     </g>
     <g id="text_6">
      <!-- 1.0 -->
      <g transform="translate(616.401485 533.276562) scale(0.22 -0.22)">
       <defs>
        <path id="DejaVuSans-31" d="M 794 531 
L 1825 531 
L 1825 4091 
L 703 3866 
L 703 4441 
L 1819 4666 
L 2450 4666 
L 2450 531 
L 3481 531 
L 3481 0 
L 794 0 
L 794 531 
z
" transform="scale(0.015625)"/>
       </defs>
       <use xlink:href="#DejaVuSans-31"/>
       <use xlink:href="#DejaVuSans-2e" x="63.623047"/>
       <use xlink:href="#DejaVuSans-30" x="95.410156"/>
      </g>
     </g>
    </g>
    <g id="xtick_7">
     <g id="line2d_7">
      <g>
       <use xlink:href="#mdb8808df9e" x="733.878037" y="509.56" style="stroke: #000000; stroke-width: 0.8"/>
      </g>
     </g>
     <g id="text_7">
      <!-- 1.2 -->
      <g transform="translate(716.384599 533.276562) scale(0.22 -0.22)">
       <use xlink:href="#DejaVuSans-31"/>
       <use xlink:href="#DejaVuSans-2e" x="63.623047"/>
       <use xlink:href="#DejaVuSans-32" x="95.410156"/>
      </g>
     </g>
    </g>
    <g id="xtick_8">
     <g id="line2d_8">
      <g>
       <use xlink:href="#mdb8808df9e" x="833.861151" y="509.56" style="stroke: #000000; stroke-width: 0.8"/>
      </g>
     </g>
     <g id="text_8">
      <!-- 1.4 -->
      <g transform="translate(816.367713 533.276562) scale(0.22 -0.22)">
       <use xlink:href="#DejaVuSans-31"/>
       <use xlink:href="#DejaVuSans-2e" x="63.623047"/>
       <use xlink:href="#DejaVuSans-34" x="95.410156"/>
      </g>
     </g>
    </g>
    <g id="text_9">
     <!-- σ Value -->
     <g transform="translate(425.380815 560.088125) scale(0.24 -0.24)">
      <defs>
       <path id="DejaVuSans-Bold-3c3" d="M 2200 2784 
Q 1831 2784 1636 2517 
Q 1441 2250 1441 1747 
Q 1441 1244 1636 976 
Q 1831 709 2200 709 
Q 2569 709 2762 976 
Q 2956 1244 2956 1747 
Q 2956 2250 2762 2517 
Q 2569 2784 2200 2784 
z
M 4650 2700 
L 3916 2700 
Q 4122 2291 4122 1747 
Q 4122 884 3614 396 
Q 3106 -91 2203 -91 
Q 1297 -91 786 396 
Q 275 884 275 1747 
Q 275 2609 788 3097 
Q 1209 3500 2203 3500 
L 4650 3500 
L 4650 2700 
z
" transform="scale(0.015625)"/>
       <path id="DejaVuSans-Bold-20" transform="scale(0.015625)"/>
       <path id="DejaVuSans-Bold-56" d="M 31 4666 
L 1241 4666 
L 2478 1222 
L 3713 4666 
L 4922 4666 
L 3194 0 
L 1759 0 
L 31 4666 
z
" transform="scale(0.015625)"/>
       <path id="DejaVuSans-Bold-61" d="M 2106 1575 
Q 1756 1575 1579 1456 
Q 1403 1338 1403 1106 
Q 1403 894 1545 773 
Q 1688 653 1941 653 
Q 2256 653 2472 879 
Q 2688 1106 2688 1447 
L 2688 1575 
L 2106 1575 
z
M 3816 1997 
L 3816 0 
L 2688 0 
L 2688 519 
Q 2463 200 2181 54 
Q 1900 -91 1497 -91 
Q 953 -91 614 226 
Q 275 544 275 1050 
Q 275 1666 698 1953 
Q 1122 2241 2028 2241 
L 2688 2241 
L 2688 2328 
Q 2688 2594 2478 2717 
Q 2269 2841 1825 2841 
Q 1466 2841 1156 2769 
Q 847 2697 581 2553 
L 581 3406 
Q 941 3494 1303 3539 
Q 1666 3584 2028 3584 
Q 2975 3584 3395 3211 
Q 3816 2838 3816 1997 
z
" transform="scale(0.015625)"/>
       <path id="DejaVuSans-Bold-6c" d="M 538 4863 
L 1656 4863 
L 1656 0 
L 538 0 
L 538 4863 
z
" transform="scale(0.015625)"/>
       <path id="DejaVuSans-Bold-75" d="M 500 1363 
L 500 3500 
L 1625 3500 
L 1625 3150 
Q 1625 2866 1622 2436 
Q 1619 2006 1619 1863 
Q 1619 1441 1641 1255 
Q 1663 1069 1716 984 
Q 1784 875 1895 815 
Q 2006 756 2150 756 
Q 2500 756 2700 1025 
Q 2900 1294 2900 1772 
L 2900 3500 
L 4019 3500 
L 4019 0 
L 2900 0 
L 2900 506 
Q 2647 200 2364 54 
Q 2081 -91 1741 -91 
Q 1134 -91 817 281 
Q 500 653 500 1363 
z
" transform="scale(0.015625)"/>
       <path id="DejaVuSans-Bold-65" d="M 4031 1759 
L 4031 1441 
L 1416 1441 
Q 1456 1047 1700 850 
Q 1944 653 2381 653 
Q 2734 653 3104 758 
Q 3475 863 3866 1075 
L 3866 213 
Q 3469 63 3072 -14 
Q 2675 -91 2278 -91 
Q 1328 -91 801 392 
Q 275 875 275 1747 
Q 275 2603 792 3093 
Q 1309 3584 2216 3584 
Q 3041 3584 3536 3087 
Q 4031 2591 4031 1759 
z
M 2881 2131 
Q 2881 2450 2695 2645 
Q 2509 2841 2209 2841 
Q 1884 2841 1681 2658 
Q 1478 2475 1428 2131 
L 2881 2131 
z
" transform="scale(0.015625)"/>
      </defs>
      <use xlink:href="#DejaVuSans-Bold-3c3"/>
      <use xlink:href="#DejaVuSans-Bold-20" x="77.880859"/>
      <use xlink:href="#DejaVuSans-Bold-56" x="112.695312"/>
      <use xlink:href="#DejaVuSans-Bold-61" x="184.587891"/>
      <use xlink:href="#DejaVuSans-Bold-6c" x="252.068359"/>
      <use xlink:href="#DejaVuSans-Bold-75" x="286.345703"/>
      <use xlink:href="#DejaVuSans-Bold-65" x="357.537109"/>
     </g>
    </g>
   </g>
   <g id="matplotlib.axis_2">
    <g id="ytick_1">
     <g id="line2d_9">
      <defs>
       <path id="m4bd44e835c" d="M 0 0 
L -3.5 0 
" style="stroke: #000000; stroke-width: 0.8"/>
      </defs>
      <g>
       <use xlink:href="#m4bd44e835c" x="101.45" y="509.56" style="stroke: #000000; stroke-width: 0.8"/>
      </g>
     </g>
     <g id="text_10">
      <!-- 0 -->
      <g transform="translate(80.4525 517.918281) scale(0.22 -0.22)">
       <use xlink:href="#DejaVuSans-30"/>
      </g>
     </g>
    </g>
    <g id="ytick_2">
     <g id="line2d_10">
      <g>
       <use xlink:href="#m4bd44e835c" x="101.45" y="423.843895" style="stroke: #000000; stroke-width: 0.8"/>
      </g>
     </g>
     <g id="text_11">
      <!-- 200 -->
      <g transform="translate(52.4575 432.202176) scale(0.22 -0.22)">
       <use xlink:href="#DejaVuSans-32"/>
       <use xlink:href="#DejaVuSans-30" x="63.623047"/>
       <use xlink:href="#DejaVuSans-30" x="127.246094"/>
      </g>
     </g>
    </g>
    <g id="ytick_3">
     <g id="line2d_11">
      <g>
       <use xlink:href="#m4bd44e835c" x="101.45" y="338.12779" style="stroke: #000000; stroke-width: 0.8"/>
      </g>
     </g>
     <g id="text_12">
      <!-- 400 -->
      <g transform="translate(52.4575 346.486071) scale(0.22 -0.22)">
       <use xlink:href="#DejaVuSans-34"/>
       <use xlink:href="#DejaVuSans-30" x="63.623047"/>
       <use xlink:href="#DejaVuSans-30" x="127.246094"/>
      </g>
     </g>
    </g>
    <g id="ytick_4">
     <g id="line2d_12">
      <g>
       <use xlink:href="#m4bd44e835c" x="101.45" y="252.411685" style="stroke: #000000; stroke-width: 0.8"/>
      </g>
     </g>
     <g id="text_13">
      <!-- 600 -->
      <g transform="translate(52.4575 260.769966) scale(0.22 -0.22)">
       <use xlink:href="#DejaVuSans-36"/>
       <use xlink:href="#DejaVuSans-30" x="63.623047"/>
       <use xlink:href="#DejaVuSans-30" x="127.246094"/>
      </g>
     </g>
    </g>
    <g id="ytick_5">
     <g id="line2d_13">
      <g>
       <use xlink:href="#m4bd44e835c" x="101.45" y="166.69558" style="stroke: #000000; stroke-width: 0.8"/>
      </g>
     </g>
     <g id="text_14">
      <!-- 800 -->
      <g transform="translate(52.4575 175.053861) scale(0.22 -0.22)">
       <use xlink:href="#DejaVuSans-38"/>
       <use xlink:href="#DejaVuSans-30" x="63.623047"/>
       <use xlink:href="#DejaVuSans-30" x="127.246094"/>
      </g>
     </g>
    </g>
    <g id="ytick_6">
     <g id="line2d_14">
      <g>
       <use xlink:href="#m4bd44e835c" x="101.45" y="80.979475" style="stroke: #000000; stroke-width: 0.8"/>
      </g>
     </g>
     <g id="text_15">
      <!-- 1000 -->
      <g transform="translate(38.46 89.337756) scale(0.22 -0.22)">
       <use xlink:href="#DejaVuSans-31"/>
       <use xlink:href="#DejaVuSans-30" x="63.623047"/>
       <use xlink:href="#DejaVuSans-30" x="127.246094"/>
       <use xlink:href="#DejaVuSans-30" x="190.869141"/>
      </g>
     </g>
    </g>
    <g id="text_16">
     <!-- Count -->
     <g transform="translate(29.46875 313.851875) rotate(-90) scale(0.24 -0.24)">
      <defs>
       <path id="DejaVuSans-Bold-43" d="M 4288 256 
Q 3956 84 3597 -3 
Q 3238 -91 2847 -91 
Q 1681 -91 1000 561 
Q 319 1213 319 2328 
Q 319 3447 1000 4098 
Q 1681 4750 2847 4750 
Q 3238 4750 3597 4662 
Q 3956 4575 4288 4403 
L 4288 3438 
Q 3953 3666 3628 3772 
Q 3303 3878 2944 3878 
Q 2300 3878 1931 3465 
Q 1563 3053 1563 2328 
Q 1563 1606 1931 1193 
Q 2300 781 2944 781 
Q 3303 781 3628 887 
Q 3953 994 4288 1222 
L 4288 256 
z
" transform="scale(0.015625)"/>
       <path id="DejaVuSans-Bold-6f" d="M 2203 2784 
Q 1831 2784 1636 2517 
Q 1441 2250 1441 1747 
Q 1441 1244 1636 976 
Q 1831 709 2203 709 
Q 2569 709 2762 976 
Q 2956 1244 2956 1747 
Q 2956 2250 2762 2517 
Q 2569 2784 2203 2784 
z
M 2203 3584 
Q 3106 3584 3614 3096 
Q 4122 2609 4122 1747 
Q 4122 884 3614 396 
Q 3106 -91 2203 -91 
Q 1297 -91 786 396 
Q 275 884 275 1747 
Q 275 2609 786 3096 
Q 1297 3584 2203 3584 
z
" transform="scale(0.015625)"/>
       <path id="DejaVuSans-Bold-6e" d="M 4056 2131 
L 4056 0 
L 2931 0 
L 2931 347 
L 2931 1631 
Q 2931 2084 2911 2256 
Q 2891 2428 2841 2509 
Q 2775 2619 2662 2680 
Q 2550 2741 2406 2741 
Q 2056 2741 1856 2470 
Q 1656 2200 1656 1722 
L 1656 0 
L 538 0 
L 538 3500 
L 1656 3500 
L 1656 2988 
Q 1909 3294 2193 3439 
Q 2478 3584 2822 3584 
Q 3428 3584 3742 3212 
Q 4056 2841 4056 2131 
z
" transform="scale(0.015625)"/>
       <path id="DejaVuSans-Bold-74" d="M 1759 4494 
L 1759 3500 
L 2913 3500 
L 2913 2700 
L 1759 2700 
L 1759 1216 
Q 1759 972 1856 886 
Q 1953 800 2241 800 
L 2816 800 
L 2816 0 
L 1856 0 
Q 1194 0 917 276 
Q 641 553 641 1216 
L 641 2700 
L 84 2700 
L 84 3500 
L 641 3500 
L 641 4494 
L 1759 4494 
z
" transform="scale(0.015625)"/>
      </defs>
      <use xlink:href="#DejaVuSans-Bold-43"/>
      <use xlink:href="#DejaVuSans-Bold-6f" x="73.388672"/>
      <use xlink:href="#DejaVuSans-Bold-75" x="142.089844"/>
      <use xlink:href="#DejaVuSans-Bold-6e" x="213.28125"/>
      <use xlink:href="#DejaVuSans-Bold-74" x="284.472656"/>
     </g>
    </g>
   </g>
   <g id="line2d_15">
    <path d="M 135.53854 501.123632 
L 142.390508 500.554014 
L 149.242476 500.383267 
L 156.094444 500.612367 
L 162.946411 501.185181 
L 169.798379 502.004642 
L 197.206251 505.638588 
L 204.058218 506.286091 
L 214.33617 506.974359 
L 224.614122 507.356964 
L 234.892074 507.492718 
L 248.596009 507.393381 
L 265.725929 506.997538 
L 303.411752 506.027659 
L 320.541672 505.833364 
L 337.671591 505.846892 
L 354.801511 506.074734 
L 406.19127 506.995836 
L 440.451109 507.216502 
L 457.581029 507.109636 
L 471.284964 506.770319 
L 481.562916 506.322044 
L 491.840868 505.684297 
L 502.118819 504.82934 
L 512.396771 503.701978 
L 519.248739 502.74631 
L 526.100707 501.562267 
L 532.952675 500.059889 
L 536.378659 499.149715 
L 539.804643 498.105917 
L 543.230627 496.90308 
L 546.65661 495.511768 
L 550.082594 493.898481 
L 553.508578 492.025879 
L 556.934562 489.853352 
L 560.360546 487.33803 
L 563.78653 484.436316 
L 567.212514 481.106011 
L 570.638498 477.309064 
L 574.064482 473.014919 
L 577.490466 468.204365 
L 580.91645 462.873719 
L 584.342434 457.039074 
L 587.768418 450.740249 
L 591.194401 444.044053 
L 598.046369 429.872741 
L 604.898337 415.636563 
L 608.324321 408.948732 
L 611.750305 402.820227 
L 615.176289 397.458458 
L 618.602273 393.060196 
L 622.028257 389.800104 
L 625.454241 387.81979 
L 628.880225 387.218327 
L 632.306208 388.045096 
L 635.732192 390.295664 
L 639.158176 393.911118 
L 642.58416 398.780976 
L 646.010144 404.749473 
L 649.436128 411.624673 
L 652.862112 419.189653 
L 659.71408 435.47011 
L 666.566048 451.817416 
L 669.992032 459.542632 
L 673.418016 466.777063 
L 676.843999 473.421115 
L 680.269983 479.41085 
L 683.695967 484.71562 
L 687.121951 489.33407 
L 690.547935 493.289049 
L 693.973919 496.622014 
L 697.399903 499.387405 
L 700.825887 501.647407 
L 704.251871 503.467392 
L 707.677855 504.912203 
L 711.103839 506.043347 
L 714.529823 506.917078 
L 717.955806 507.583263 
L 721.38179 508.084914 
L 728.233758 508.732986 
L 735.085726 509.07784 
L 745.363678 509.308869 
L 765.919581 509.43172 
L 817.30934 509.469896 
L 817.30934 509.469896 
" clip-path="url(#pfc12462e71)" style="fill: none; stroke: #1f77b4; stroke-width: 1.5; stroke-linecap: square"/>
   </g>
   <g id="patch_53">
    <path d="M 101.45 509.56 
L 101.45 38.4 
" style="fill: none; stroke: #000000; stroke-width: 0.8; stroke-linejoin: miter; stroke-linecap: square"/>
   </g>
   <g id="patch_54">
    <path d="M 851.39788 509.56 
L 851.39788 38.4 
" style="fill: none; stroke: #000000; stroke-width: 0.8; stroke-linejoin: miter; stroke-linecap: square"/>
   </g>
   <g id="patch_55">
    <path d="M 101.45 509.56 
L 851.39788 509.56 
" style="fill: none; stroke: #000000; stroke-width: 0.8; stroke-linejoin: miter; stroke-linecap: square"/>
   </g>
   <g id="patch_56">
    <path d="M 101.45 38.4 
L 851.39788 38.4 
" style="fill: none; stroke: #000000; stroke-width: 0.8; stroke-linejoin: miter; stroke-linecap: square"/>
   </g>
   <g id="text_17">
    <!-- BNN FC2 σ Distribution -->
    <g transform="translate(293.00644 32.4) scale(0.28 -0.28)">
     <defs>
      <path id="DejaVuSans-Bold-42" d="M 2456 2859 
Q 2741 2859 2887 2984 
Q 3034 3109 3034 3353 
Q 3034 3594 2887 3720 
Q 2741 3847 2456 3847 
L 1791 3847 
L 1791 2859 
L 2456 2859 
z
M 2497 819 
Q 2859 819 3042 972 
Q 3225 1125 3225 1434 
Q 3225 1738 3044 1889 
Q 2863 2041 2497 2041 
L 1791 2041 
L 1791 819 
L 2497 819 
z
M 3616 2497 
Q 4003 2384 4215 2081 
Q 4428 1778 4428 1338 
Q 4428 663 3972 331 
Q 3516 0 2584 0 
L 588 0 
L 588 4666 
L 2394 4666 
Q 3366 4666 3802 4372 
Q 4238 4078 4238 3431 
Q 4238 3091 4078 2852 
Q 3919 2613 3616 2497 
z
" transform="scale(0.015625)"/>
      <path id="DejaVuSans-Bold-4e" d="M 588 4666 
L 1931 4666 
L 3628 1466 
L 3628 4666 
L 4769 4666 
L 4769 0 
L 3425 0 
L 1728 3200 
L 1728 0 
L 588 0 
L 588 4666 
z
" transform="scale(0.015625)"/>
      <path id="DejaVuSans-Bold-46" d="M 588 4666 
L 3834 4666 
L 3834 3756 
L 1791 3756 
L 1791 2888 
L 3713 2888 
L 3713 1978 
L 1791 1978 
L 1791 0 
L 588 0 
L 588 4666 
z
" transform="scale(0.015625)"/>
      <path id="DejaVuSans-Bold-32" d="M 1844 884 
L 3897 884 
L 3897 0 
L 506 0 
L 506 884 
L 2209 2388 
Q 2438 2594 2547 2791 
Q 2656 2988 2656 3200 
Q 2656 3528 2436 3728 
Q 2216 3928 1850 3928 
Q 1569 3928 1234 3808 
Q 900 3688 519 3450 
L 519 4475 
Q 925 4609 1322 4679 
Q 1719 4750 2100 4750 
Q 2938 4750 3402 4381 
Q 3866 4013 3866 3353 
Q 3866 2972 3669 2642 
Q 3472 2313 2841 1759 
L 1844 884 
z
" transform="scale(0.015625)"/>
      <path id="DejaVuSans-Bold-44" d="M 1791 3756 
L 1791 909 
L 2222 909 
Q 2959 909 3348 1275 
Q 3738 1641 3738 2338 
Q 3738 3031 3350 3393 
Q 2963 3756 2222 3756 
L 1791 3756 
z
M 588 4666 
L 1856 4666 
Q 2919 4666 3439 4514 
Q 3959 4363 4331 4000 
Q 4659 3684 4818 3271 
Q 4978 2859 4978 2338 
Q 4978 1809 4818 1395 
Q 4659 981 4331 666 
Q 3956 303 3431 151 
Q 2906 0 1856 0 
L 588 0 
L 588 4666 
z
" transform="scale(0.015625)"/>
      <path id="DejaVuSans-Bold-69" d="M 538 3500 
L 1656 3500 
L 1656 0 
L 538 0 
L 538 3500 
z
M 538 4863 
L 1656 4863 
L 1656 3950 
L 538 3950 
L 538 4863 
z
" transform="scale(0.015625)"/>
      <path id="DejaVuSans-Bold-73" d="M 3272 3391 
L 3272 2541 
Q 2913 2691 2578 2766 
Q 2244 2841 1947 2841 
Q 1628 2841 1473 2761 
Q 1319 2681 1319 2516 
Q 1319 2381 1436 2309 
Q 1553 2238 1856 2203 
L 2053 2175 
Q 2913 2066 3209 1816 
Q 3506 1566 3506 1031 
Q 3506 472 3093 190 
Q 2681 -91 1863 -91 
Q 1516 -91 1145 -36 
Q 775 19 384 128 
L 384 978 
Q 719 816 1070 734 
Q 1422 653 1784 653 
Q 2113 653 2278 743 
Q 2444 834 2444 1013 
Q 2444 1163 2330 1236 
Q 2216 1309 1875 1350 
L 1678 1375 
Q 931 1469 631 1722 
Q 331 1975 331 2491 
Q 331 3047 712 3315 
Q 1094 3584 1881 3584 
Q 2191 3584 2531 3537 
Q 2872 3491 3272 3391 
z
" transform="scale(0.015625)"/>
      <path id="DejaVuSans-Bold-72" d="M 3138 2547 
Q 2991 2616 2845 2648 
Q 2700 2681 2553 2681 
Q 2122 2681 1889 2404 
Q 1656 2128 1656 1613 
L 1656 0 
L 538 0 
L 538 3500 
L 1656 3500 
L 1656 2925 
Q 1872 3269 2151 3426 
Q 2431 3584 2822 3584 
Q 2878 3584 2943 3579 
Q 3009 3575 3134 3559 
L 3138 2547 
z
" transform="scale(0.015625)"/>
      <path id="DejaVuSans-Bold-62" d="M 2400 722 
Q 2759 722 2948 984 
Q 3138 1247 3138 1747 
Q 3138 2247 2948 2509 
Q 2759 2772 2400 2772 
Q 2041 2772 1848 2508 
Q 1656 2244 1656 1747 
Q 1656 1250 1848 986 
Q 2041 722 2400 722 
z
M 1656 2988 
Q 1888 3294 2169 3439 
Q 2450 3584 2816 3584 
Q 3463 3584 3878 3070 
Q 4294 2556 4294 1747 
Q 4294 938 3878 423 
Q 3463 -91 2816 -91 
Q 2450 -91 2169 54 
Q 1888 200 1656 506 
L 1656 0 
L 538 0 
L 538 4863 
L 1656 4863 
L 1656 2988 
z
" transform="scale(0.015625)"/>
     </defs>
     <use xlink:href="#DejaVuSans-Bold-42"/>
     <use xlink:href="#DejaVuSans-Bold-4e" x="76.220703"/>
     <use xlink:href="#DejaVuSans-Bold-4e" x="159.912109"/>
     <use xlink:href="#DejaVuSans-Bold-20" x="243.603516"/>
     <use xlink:href="#DejaVuSans-Bold-46" x="278.417969"/>
     <use xlink:href="#DejaVuSans-Bold-43" x="346.728516"/>
     <use xlink:href="#DejaVuSans-Bold-32" x="420.117188"/>
     <use xlink:href="#DejaVuSans-Bold-20" x="489.697266"/>
     <use xlink:href="#DejaVuSans-Bold-3c3" x="524.511719"/>
     <use xlink:href="#DejaVuSans-Bold-20" x="602.392578"/>
     <use xlink:href="#DejaVuSans-Bold-44" x="637.207031"/>
     <use xlink:href="#DejaVuSans-Bold-69" x="720.214844"/>
     <use xlink:href="#DejaVuSans-Bold-73" x="754.492188"/>
     <use xlink:href="#DejaVuSans-Bold-74" x="814.013672"/>
     <use xlink:href="#DejaVuSans-Bold-72" x="861.816406"/>
     <use xlink:href="#DejaVuSans-Bold-69" x="911.132812"/>
     <use xlink:href="#DejaVuSans-Bold-62" x="945.410156"/>
     <use xlink:href="#DejaVuSans-Bold-75" x="1016.992188"/>
     <use xlink:href="#DejaVuSans-Bold-74" x="1088.183594"/>
     <use xlink:href="#DejaVuSans-Bold-69" x="1135.986328"/>
     <use xlink:href="#DejaVuSans-Bold-6f" x="1170.263672"/>
     <use xlink:href="#DejaVuSans-Bold-6e" x="1238.964844"/>
    </g>
   </g>
  </g>
 </g>
 <defs>
  <clipPath id="pfc12462e71">
   <rect x="101.45" y="38.4" width="749.94788" height="471.16"/>
  </clipPath>
 </defs>
</svg>
