<?xml version="1.0" encoding="utf-8" standalone="no"?>
<!DOCTYPE svg PUBLIC "-//W3C//DTD SVG 1.1//EN"
  "http://www.w3.org/Graphics/SVG/1.1/DTD/svg11.dtd">
<svg xmlns:xlink="http://www.w3.org/1999/xlink" width="864pt" height="576pt" viewBox="0 0 864 576" xmlns="http://www.w3.org/2000/svg" version="1.1">
 <metadata>
  <rdf:RDF xmlns:dc="http://purl.org/dc/elements/1.1/" xmlns:cc="http://creativecommons.org/ns#" xmlns:rdf="http://www.w3.org/1999/02/22-rdf-syntax-ns#">
   <cc:Work>
    <dc:type rdf:resource="http://purl.org/dc/dcmitype/StillImage"/>
    <dc:date>2025-06-30T18:31:50.943583</dc:date>
    <dc:format>image/svg+xml</dc:format>
    <dc:creator>
     <cc:Agent>
      <dc:title>Matplotlib v3.10.3, https://matplotlib.org/</dc:title>
     </cc:Agent>
    </dc:creator>
   </cc:Work>
  </rdf:RDF>
 </metadata>
 <defs>
  <style type="text/css">*{stroke-linejoin: round; stroke-linecap: butt}</style>
 </defs>
 <g id="figure_1">
  <g id="patch_1">
   <path d="M 0 576 
L 864 576 
L 864 0 
L 0 0 
z
" style="fill: #ffffff"/>
  </g>
  <g id="axes_1">
   <g id="patch_2">
    <path d="M 77.87 509.56 
L 853.2 509.56 
L 853.2 38.4 
L 77.87 38.4 
z
" style="fill: #ffffff"/>
   </g>
   <g id="matplotlib.axis_1">
    <g id="xtick_1">
     <g id="line2d_1">
      <defs>
       <path id="mf3aa3c332f" d="M 0 0 
L 0 3.5 
" style="stroke: #000000; stroke-width: 0.8"/>
      </defs>
      <g>
       <use xlink:href="#mf3aa3c332f" x="179.249613" y="509.56" style="stroke: #000000; stroke-width: 0.8"/>
      </g>
     </g>
     <g id="text_1">
      <!-- −1 -->
      <g transform="translate(163.033207 533.276562) scale(0.22 -0.22)">
       <defs>
        <path id="DejaVuSans-2212" d="M 678 2272 
L 4684 2272 
L 4684 1741 
L 678 1741 
L 678 2272 
z
" transform="scale(0.015625)"/>
        <path id="DejaVuSans-31" d="M 794 531 
L 1825 531 
L 1825 4091 
L 703 3866 
L 703 4441 
L 1819 4666 
L 2450 4666 
L 2450 531 
L 3481 531 
L 3481 0 
L 794 0 
L 794 531 
z
" transform="scale(0.015625)"/>
       </defs>
       <use xlink:href="#DejaVuSans-2212"/>
       <use xlink:href="#DejaVuSans-31" transform="translate(83.789062 0)"/>
      </g>
     </g>
    </g>
    <g id="xtick_2">
     <g id="line2d_2">
      <g>
       <use xlink:href="#mf3aa3c332f" x="322.392307" y="509.56" style="stroke: #000000; stroke-width: 0.8"/>
      </g>
     </g>
     <g id="text_2">
      <!-- 0 -->
      <g transform="translate(315.393557 533.276562) scale(0.22 -0.22)">
       <defs>
        <path id="DejaVuSans-30" d="M 2034 4250 
Q 1547 4250 1301 3770 
Q 1056 3291 1056 2328 
Q 1056 1369 1301 889 
Q 1547 409 2034 409 
Q 2525 409 2770 889 
Q 3016 1369 3016 2328 
Q 3016 3291 2770 3770 
Q 2525 4250 2034 4250 
z
M 2034 4750 
Q 2819 4750 3233 4129 
Q 3647 3509 3647 2328 
Q 3647 1150 3233 529 
Q 2819 -91 2034 -91 
Q 1250 -91 836 529 
Q 422 1150 422 2328 
Q 422 3509 836 4129 
Q 1250 4750 2034 4750 
z
" transform="scale(0.015625)"/>
       </defs>
       <use xlink:href="#DejaVuSans-30"/>
      </g>
     </g>
    </g>
    <g id="xtick_3">
     <g id="line2d_3">
      <g>
       <use xlink:href="#mf3aa3c332f" x="465.535" y="509.56" style="stroke: #000000; stroke-width: 0.8"/>
      </g>
     </g>
     <g id="text_3">
      <!-- 1 -->
      <g transform="translate(458.53625 533.276562) scale(0.22 -0.22)">
       <use xlink:href="#DejaVuSans-31"/>
      </g>
     </g>
    </g>
    <g id="xtick_4">
     <g id="line2d_4">
      <g>
       <use xlink:href="#mf3aa3c332f" x="608.677693" y="509.56" style="stroke: #000000; stroke-width: 0.8"/>
      </g>
     </g>
     <g id="text_4">
      <!-- 2 -->
      <g transform="translate(601.678943 533.276562) scale(0.22 -0.22)">
       <defs>
        <path id="DejaVuSans-32" d="M 1228 531 
L 3431 531 
L 3431 0 
L 469 0 
L 469 531 
Q 828 903 1448 1529 
Q 2069 2156 2228 2338 
Q 2531 2678 2651 2914 
Q 2772 3150 2772 3378 
Q 2772 3750 2511 3984 
Q 2250 4219 1831 4219 
Q 1534 4219 1204 4116 
Q 875 4013 500 3803 
L 500 4441 
Q 881 4594 1212 4672 
Q 1544 4750 1819 4750 
Q 2544 4750 2975 4387 
Q 3406 4025 3406 3419 
Q 3406 3131 3298 2873 
Q 3191 2616 2906 2266 
Q 2828 2175 2409 1742 
Q 1991 1309 1228 531 
z
" transform="scale(0.015625)"/>
       </defs>
       <use xlink:href="#DejaVuSans-32"/>
      </g>
     </g>
    </g>
    <g id="xtick_5">
     <g id="line2d_5">
      <g>
       <use xlink:href="#mf3aa3c332f" x="751.820387" y="509.56" style="stroke: #000000; stroke-width: 0.8"/>
      </g>
     </g>
     <g id="text_5">
      <!-- 3 -->
      <g transform="translate(744.821637 533.276562) scale(0.22 -0.22)">
       <defs>
        <path id="DejaVuSans-33" d="M 2597 2516 
Q 3050 2419 3304 2112 
Q 3559 1806 3559 1356 
Q 3559 666 3084 287 
Q 2609 -91 1734 -91 
Q 1441 -91 1130 -33 
Q 819 25 488 141 
L 488 750 
Q 750 597 1062 519 
Q 1375 441 1716 441 
Q 2309 441 2620 675 
Q 2931 909 2931 1356 
Q 2931 1769 2642 2001 
Q 2353 2234 1838 2234 
L 1294 2234 
L 1294 2753 
L 1863 2753 
Q 2328 2753 2575 2939 
Q 2822 3125 2822 3475 
Q 2822 3834 2567 4026 
Q 2313 4219 1838 4219 
Q 1578 4219 1281 4162 
Q 984 4106 628 3988 
L 628 4550 
Q 988 4650 1302 4700 
Q 1616 4750 1894 4750 
Q 2613 4750 3031 4423 
Q 3450 4097 3450 3541 
Q 3450 3153 3228 2886 
Q 3006 2619 2597 2516 
z
" transform="scale(0.015625)"/>
       </defs>
       <use xlink:href="#DejaVuSans-33"/>
      </g>
     </g>
    </g>
    <g id="text_6">
     <!-- Theoretical Quantiles -->
     <g transform="translate(320.38375 560.088125) scale(0.24 -0.24)">
      <defs>
       <path id="DejaVuSans-Bold-54" d="M 31 4666 
L 4331 4666 
L 4331 3756 
L 2784 3756 
L 2784 0 
L 1581 0 
L 1581 3756 
L 31 3756 
L 31 4666 
z
" transform="scale(0.015625)"/>
       <path id="DejaVuSans-Bold-68" d="M 4056 2131 
L 4056 0 
L 2931 0 
L 2931 347 
L 2931 1625 
Q 2931 2084 2911 2256 
Q 2891 2428 2841 2509 
Q 2775 2619 2662 2680 
Q 2550 2741 2406 2741 
Q 2056 2741 1856 2470 
Q 1656 2200 1656 1722 
L 1656 0 
L 538 0 
L 538 4863 
L 1656 4863 
L 1656 2988 
Q 1909 3294 2193 3439 
Q 2478 3584 2822 3584 
Q 3428 3584 3742 3212 
Q 4056 2841 4056 2131 
z
" transform="scale(0.015625)"/>
       <path id="DejaVuSans-Bold-65" d="M 4031 1759 
L 4031 1441 
L 1416 1441 
Q 1456 1047 1700 850 
Q 1944 653 2381 653 
Q 2734 653 3104 758 
Q 3475 863 3866 1075 
L 3866 213 
Q 3469 63 3072 -14 
Q 2675 -91 2278 -91 
Q 1328 -91 801 392 
Q 275 875 275 1747 
Q 275 2603 792 3093 
Q 1309 3584 2216 3584 
Q 3041 3584 3536 3087 
Q 4031 2591 4031 1759 
z
M 2881 2131 
Q 2881 2450 2695 2645 
Q 2509 2841 2209 2841 
Q 1884 2841 1681 2658 
Q 1478 2475 1428 2131 
L 2881 2131 
z
" transform="scale(0.015625)"/>
       <path id="DejaVuSans-Bold-6f" d="M 2203 2784 
Q 1831 2784 1636 2517 
Q 1441 2250 1441 1747 
Q 1441 1244 1636 976 
Q 1831 709 2203 709 
Q 2569 709 2762 976 
Q 2956 1244 2956 1747 
Q 2956 2250 2762 2517 
Q 2569 2784 2203 2784 
z
M 2203 3584 
Q 3106 3584 3614 3096 
Q 4122 2609 4122 1747 
Q 4122 884 3614 396 
Q 3106 -91 2203 -91 
Q 1297 -91 786 396 
Q 275 884 275 1747 
Q 275 2609 786 3096 
Q 1297 3584 2203 3584 
z
" transform="scale(0.015625)"/>
       <path id="DejaVuSans-Bold-72" d="M 3138 2547 
Q 2991 2616 2845 2648 
Q 2700 2681 2553 2681 
Q 2122 2681 1889 2404 
Q 1656 2128 1656 1613 
L 1656 0 
L 538 0 
L 538 3500 
L 1656 3500 
L 1656 2925 
Q 1872 3269 2151 3426 
Q 2431 3584 2822 3584 
Q 2878 3584 2943 3579 
Q 3009 3575 3134 3559 
L 3138 2547 
z
" transform="scale(0.015625)"/>
       <path id="DejaVuSans-Bold-74" d="M 1759 4494 
L 1759 3500 
L 2913 3500 
L 2913 2700 
L 1759 2700 
L 1759 1216 
Q 1759 972 1856 886 
Q 1953 800 2241 800 
L 2816 800 
L 2816 0 
L 1856 0 
Q 1194 0 917 276 
Q 641 553 641 1216 
L 641 2700 
L 84 2700 
L 84 3500 
L 641 3500 
L 641 4494 
L 1759 4494 
z
" transform="scale(0.015625)"/>
       <path id="DejaVuSans-Bold-69" d="M 538 3500 
L 1656 3500 
L 1656 0 
L 538 0 
L 538 3500 
z
M 538 4863 
L 1656 4863 
L 1656 3950 
L 538 3950 
L 538 4863 
z
" transform="scale(0.015625)"/>
       <path id="DejaVuSans-Bold-63" d="M 3366 3391 
L 3366 2478 
Q 3138 2634 2908 2709 
Q 2678 2784 2431 2784 
Q 1963 2784 1702 2511 
Q 1441 2238 1441 1747 
Q 1441 1256 1702 982 
Q 1963 709 2431 709 
Q 2694 709 2930 787 
Q 3166 866 3366 1019 
L 3366 103 
Q 3103 6 2833 -42 
Q 2563 -91 2291 -91 
Q 1344 -91 809 395 
Q 275 881 275 1747 
Q 275 2613 809 3098 
Q 1344 3584 2291 3584 
Q 2566 3584 2833 3536 
Q 3100 3488 3366 3391 
z
" transform="scale(0.015625)"/>
       <path id="DejaVuSans-Bold-61" d="M 2106 1575 
Q 1756 1575 1579 1456 
Q 1403 1338 1403 1106 
Q 1403 894 1545 773 
Q 1688 653 1941 653 
Q 2256 653 2472 879 
Q 2688 1106 2688 1447 
L 2688 1575 
L 2106 1575 
z
M 3816 1997 
L 3816 0 
L 2688 0 
L 2688 519 
Q 2463 200 2181 54 
Q 1900 -91 1497 -91 
Q 953 -91 614 226 
Q 275 544 275 1050 
Q 275 1666 698 1953 
Q 1122 2241 2028 2241 
L 2688 2241 
L 2688 2328 
Q 2688 2594 2478 2717 
Q 2269 2841 1825 2841 
Q 1466 2841 1156 2769 
Q 847 2697 581 2553 
L 581 3406 
Q 941 3494 1303 3539 
Q 1666 3584 2028 3584 
Q 2975 3584 3395 3211 
Q 3816 2838 3816 1997 
z
" transform="scale(0.015625)"/>
       <path id="DejaVuSans-Bold-6c" d="M 538 4863 
L 1656 4863 
L 1656 0 
L 538 0 
L 538 4863 
z
" transform="scale(0.015625)"/>
       <path id="DejaVuSans-Bold-20" transform="scale(0.015625)"/>
       <path id="DejaVuSans-Bold-51" d="M 2847 -84 
L 2753 -84 
Q 1600 -84 959 553 
Q 319 1191 319 2328 
Q 319 3463 958 4106 
Q 1597 4750 2719 4750 
Q 3853 4750 4486 4112 
Q 5119 3475 5119 2328 
Q 5119 1541 4783 972 
Q 4447 403 3816 116 
L 4756 -934 
L 3609 -934 
L 2847 -84 
z
M 2719 3878 
Q 2169 3878 1866 3472 
Q 1563 3066 1563 2328 
Q 1563 1578 1859 1179 
Q 2156 781 2719 781 
Q 3272 781 3575 1187 
Q 3878 1594 3878 2328 
Q 3878 3066 3575 3472 
Q 3272 3878 2719 3878 
z
" transform="scale(0.015625)"/>
       <path id="DejaVuSans-Bold-75" d="M 500 1363 
L 500 3500 
L 1625 3500 
L 1625 3150 
Q 1625 2866 1622 2436 
Q 1619 2006 1619 1863 
Q 1619 1441 1641 1255 
Q 1663 1069 1716 984 
Q 1784 875 1895 815 
Q 2006 756 2150 756 
Q 2500 756 2700 1025 
Q 2900 1294 2900 1772 
L 2900 3500 
L 4019 3500 
L 4019 0 
L 2900 0 
L 2900 506 
Q 2647 200 2364 54 
Q 2081 -91 1741 -91 
Q 1134 -91 817 281 
Q 500 653 500 1363 
z
" transform="scale(0.015625)"/>
       <path id="DejaVuSans-Bold-6e" d="M 4056 2131 
L 4056 0 
L 2931 0 
L 2931 347 
L 2931 1631 
Q 2931 2084 2911 2256 
Q 2891 2428 2841 2509 
Q 2775 2619 2662 2680 
Q 2550 2741 2406 2741 
Q 2056 2741 1856 2470 
Q 1656 2200 1656 1722 
L 1656 0 
L 538 0 
L 538 3500 
L 1656 3500 
L 1656 2988 
Q 1909 3294 2193 3439 
Q 2478 3584 2822 3584 
Q 3428 3584 3742 3212 
Q 4056 2841 4056 2131 
z
" transform="scale(0.015625)"/>
       <path id="DejaVuSans-Bold-73" d="M 3272 3391 
L 3272 2541 
Q 2913 2691 2578 2766 
Q 2244 2841 1947 2841 
Q 1628 2841 1473 2761 
Q 1319 2681 1319 2516 
Q 1319 2381 1436 2309 
Q 1553 2238 1856 2203 
L 2053 2175 
Q 2913 2066 3209 1816 
Q 3506 1566 3506 1031 
Q 3506 472 3093 190 
Q 2681 -91 1863 -91 
Q 1516 -91 1145 -36 
Q 775 19 384 128 
L 384 978 
Q 719 816 1070 734 
Q 1422 653 1784 653 
Q 2113 653 2278 743 
Q 2444 834 2444 1013 
Q 2444 1163 2330 1236 
Q 2216 1309 1875 1350 
L 1678 1375 
Q 931 1469 631 1722 
Q 331 1975 331 2491 
Q 331 3047 712 3315 
Q 1094 3584 1881 3584 
Q 2191 3584 2531 3537 
Q 2872 3491 3272 3391 
z
" transform="scale(0.015625)"/>
      </defs>
      <use xlink:href="#DejaVuSans-Bold-54"/>
      <use xlink:href="#DejaVuSans-Bold-68" transform="translate(68.212891 0)"/>
      <use xlink:href="#DejaVuSans-Bold-65" transform="translate(139.404297 0)"/>
      <use xlink:href="#DejaVuSans-Bold-6f" transform="translate(207.226562 0)"/>
      <use xlink:href="#DejaVuSans-Bold-72" transform="translate(275.927734 0)"/>
      <use xlink:href="#DejaVuSans-Bold-65" transform="translate(325.244141 0)"/>
      <use xlink:href="#DejaVuSans-Bold-74" transform="translate(393.066406 0)"/>
      <use xlink:href="#DejaVuSans-Bold-69" transform="translate(440.869141 0)"/>
      <use xlink:href="#DejaVuSans-Bold-63" transform="translate(475.146484 0)"/>
      <use xlink:href="#DejaVuSans-Bold-61" transform="translate(534.423828 0)"/>
      <use xlink:href="#DejaVuSans-Bold-6c" transform="translate(601.904297 0)"/>
      <use xlink:href="#DejaVuSans-Bold-20" transform="translate(636.181641 0)"/>
      <use xlink:href="#DejaVuSans-Bold-51" transform="translate(670.996094 0)"/>
      <use xlink:href="#DejaVuSans-Bold-75" transform="translate(756.005859 0)"/>
      <use xlink:href="#DejaVuSans-Bold-61" transform="translate(827.197266 0)"/>
      <use xlink:href="#DejaVuSans-Bold-6e" transform="translate(894.677734 0)"/>
      <use xlink:href="#DejaVuSans-Bold-74" transform="translate(965.869141 0)"/>
      <use xlink:href="#DejaVuSans-Bold-69" transform="translate(1013.671875 0)"/>
      <use xlink:href="#DejaVuSans-Bold-6c" transform="translate(1047.949219 0)"/>
      <use xlink:href="#DejaVuSans-Bold-65" transform="translate(1082.226562 0)"/>
      <use xlink:href="#DejaVuSans-Bold-73" transform="translate(1150.048828 0)"/>
     </g>
    </g>
   </g>
   <g id="matplotlib.axis_2">
    <g id="ytick_1">
     <g id="line2d_6">
      <defs>
       <path id="m8762a852a2" d="M 0 0 
L -3.5 0 
" style="stroke: #000000; stroke-width: 0.8"/>
      </defs>
      <g>
       <use xlink:href="#m8762a852a2" x="77.87" y="445.684141" style="stroke: #000000; stroke-width: 0.8"/>
      </g>
     </g>
     <g id="text_7">
      <!-- −1 -->
      <g transform="translate(38.437188 454.042423) scale(0.22 -0.22)">
       <use xlink:href="#DejaVuSans-2212"/>
       <use xlink:href="#DejaVuSans-31" transform="translate(83.789062 0)"/>
      </g>
     </g>
    </g>
    <g id="ytick_2">
     <g id="line2d_7">
      <g>
       <use xlink:href="#m8762a852a2" x="77.87" y="359.832091" style="stroke: #000000; stroke-width: 0.8"/>
      </g>
     </g>
     <g id="text_8">
      <!-- 0 -->
      <g transform="translate(56.8725 368.190372) scale(0.22 -0.22)">
       <use xlink:href="#DejaVuSans-30"/>
      </g>
     </g>
    </g>
    <g id="ytick_3">
     <g id="line2d_8">
      <g>
       <use xlink:href="#m8762a852a2" x="77.87" y="273.980041" style="stroke: #000000; stroke-width: 0.8"/>
      </g>
     </g>
     <g id="text_9">
      <!-- 1 -->
      <g transform="translate(56.8725 282.338322) scale(0.22 -0.22)">
       <use xlink:href="#DejaVuSans-31"/>
      </g>
     </g>
    </g>
    <g id="ytick_4">
     <g id="line2d_9">
      <g>
       <use xlink:href="#m8762a852a2" x="77.87" y="188.127991" style="stroke: #000000; stroke-width: 0.8"/>
      </g>
     </g>
     <g id="text_10">
      <!-- 2 -->
      <g transform="translate(56.8725 196.486272) scale(0.22 -0.22)">
       <use xlink:href="#DejaVuSans-32"/>
      </g>
     </g>
    </g>
    <g id="ytick_5">
     <g id="line2d_10">
      <g>
       <use xlink:href="#m8762a852a2" x="77.87" y="102.275941" style="stroke: #000000; stroke-width: 0.8"/>
      </g>
     </g>
     <g id="text_11">
      <!-- 3 -->
      <g transform="translate(56.8725 110.634222) scale(0.22 -0.22)">
       <use xlink:href="#DejaVuSans-33"/>
      </g>
     </g>
    </g>
    <g id="text_12">
     <!-- Sample Quantiles -->
     <g transform="translate(29.445937 392.87375) rotate(-90) scale(0.24 -0.24)">
      <defs>
       <path id="DejaVuSans-Bold-53" d="M 3834 4519 
L 3834 3531 
Q 3450 3703 3084 3790 
Q 2719 3878 2394 3878 
Q 1963 3878 1756 3759 
Q 1550 3641 1550 3391 
Q 1550 3203 1689 3098 
Q 1828 2994 2194 2919 
L 2706 2816 
Q 3484 2659 3812 2340 
Q 4141 2022 4141 1434 
Q 4141 663 3683 286 
Q 3225 -91 2284 -91 
Q 1841 -91 1394 -6 
Q 947 78 500 244 
L 500 1259 
Q 947 1022 1364 901 
Q 1781 781 2169 781 
Q 2563 781 2772 912 
Q 2981 1044 2981 1288 
Q 2981 1506 2839 1625 
Q 2697 1744 2272 1838 
L 1806 1941 
Q 1106 2091 782 2419 
Q 459 2747 459 3303 
Q 459 4000 909 4375 
Q 1359 4750 2203 4750 
Q 2588 4750 2994 4692 
Q 3400 4634 3834 4519 
z
" transform="scale(0.015625)"/>
       <path id="DejaVuSans-Bold-6d" d="M 3781 2919 
Q 3994 3244 4286 3414 
Q 4578 3584 4928 3584 
Q 5531 3584 5847 3212 
Q 6163 2841 6163 2131 
L 6163 0 
L 5038 0 
L 5038 1825 
Q 5041 1866 5042 1909 
Q 5044 1953 5044 2034 
Q 5044 2406 4934 2573 
Q 4825 2741 4581 2741 
Q 4263 2741 4089 2478 
Q 3916 2216 3909 1719 
L 3909 0 
L 2784 0 
L 2784 1825 
Q 2784 2406 2684 2573 
Q 2584 2741 2328 2741 
Q 2006 2741 1831 2477 
Q 1656 2213 1656 1722 
L 1656 0 
L 531 0 
L 531 3500 
L 1656 3500 
L 1656 2988 
Q 1863 3284 2130 3434 
Q 2397 3584 2719 3584 
Q 3081 3584 3359 3409 
Q 3638 3234 3781 2919 
z
" transform="scale(0.015625)"/>
       <path id="DejaVuSans-Bold-70" d="M 1656 506 
L 1656 -1331 
L 538 -1331 
L 538 3500 
L 1656 3500 
L 1656 2988 
Q 1888 3294 2169 3439 
Q 2450 3584 2816 3584 
Q 3463 3584 3878 3070 
Q 4294 2556 4294 1747 
Q 4294 938 3878 423 
Q 3463 -91 2816 -91 
Q 2450 -91 2169 54 
Q 1888 200 1656 506 
z
M 2400 2772 
Q 2041 2772 1848 2508 
Q 1656 2244 1656 1747 
Q 1656 1250 1848 986 
Q 2041 722 2400 722 
Q 2759 722 2948 984 
Q 3138 1247 3138 1747 
Q 3138 2247 2948 2509 
Q 2759 2772 2400 2772 
z
" transform="scale(0.015625)"/>
      </defs>
      <use xlink:href="#DejaVuSans-Bold-53"/>
      <use xlink:href="#DejaVuSans-Bold-61" transform="translate(72.021484 0)"/>
      <use xlink:href="#DejaVuSans-Bold-6d" transform="translate(139.501953 0)"/>
      <use xlink:href="#DejaVuSans-Bold-70" transform="translate(243.701172 0)"/>
      <use xlink:href="#DejaVuSans-Bold-6c" transform="translate(315.283203 0)"/>
      <use xlink:href="#DejaVuSans-Bold-65" transform="translate(349.560547 0)"/>
      <use xlink:href="#DejaVuSans-Bold-20" transform="translate(417.382812 0)"/>
      <use xlink:href="#DejaVuSans-Bold-51" transform="translate(452.197266 0)"/>
      <use xlink:href="#DejaVuSans-Bold-75" transform="translate(537.207031 0)"/>
      <use xlink:href="#DejaVuSans-Bold-61" transform="translate(608.398438 0)"/>
      <use xlink:href="#DejaVuSans-Bold-6e" transform="translate(675.878906 0)"/>
      <use xlink:href="#DejaVuSans-Bold-74" transform="translate(747.070312 0)"/>
      <use xlink:href="#DejaVuSans-Bold-69" transform="translate(794.873047 0)"/>
      <use xlink:href="#DejaVuSans-Bold-6c" transform="translate(829.150391 0)"/>
      <use xlink:href="#DejaVuSans-Bold-65" transform="translate(863.427734 0)"/>
      <use xlink:href="#DejaVuSans-Bold-73" transform="translate(931.25 0)"/>
     </g>
    </g>
   </g>
   <g id="line2d_11">
    <defs>
     <path id="md6e16535ff" d="M 0 3 
C 0.795609 3 1.55874 2.683901 2.12132 2.12132 
C 2.683901 1.55874 3 0.795609 3 0 
C 3 -0.795609 2.683901 -1.55874 2.12132 -2.12132 
C 1.55874 -2.683901 0.795609 -3 0 -3 
C -0.795609 -3 -1.55874 -2.683901 -2.12132 -2.12132 
C -2.683901 -1.55874 -3 -0.795609 -3 0 
C -3 0.795609 -2.683901 1.55874 -2.12132 2.12132 
C -1.55874 2.683901 -0.795609 3 0 3 
z
" style="stroke: #0000ff"/>
    </defs>
    <g clip-path="url(#pfed1e43943)">
     <use xlink:href="#md6e16535ff" x="113.112273" y="444.457226" style="fill: #0000ff; stroke: #0000ff"/>
     <use xlink:href="#md6e16535ff" x="161.255507" y="441.283478" style="fill: #0000ff; stroke: #0000ff"/>
     <use xlink:href="#md6e16535ff" x="189.093854" y="419.853277" style="fill: #0000ff; stroke: #0000ff"/>
     <use xlink:href="#md6e16535ff" x="209.245661" y="410.77244" style="fill: #0000ff; stroke: #0000ff"/>
     <use xlink:href="#md6e16535ff" x="225.313929" y="410.152627" style="fill: #0000ff; stroke: #0000ff"/>
     <use xlink:href="#md6e16535ff" x="238.823997" y="401.434404" style="fill: #0000ff; stroke: #0000ff"/>
     <use xlink:href="#md6e16535ff" x="250.571716" y="385.567847" style="fill: #0000ff; stroke: #0000ff"/>
     <use xlink:href="#md6e16535ff" x="261.027402" y="384.777499" style="fill: #0000ff; stroke: #0000ff"/>
     <use xlink:href="#md6e16535ff" x="270.493248" y="380.589086" style="fill: #0000ff; stroke: #0000ff"/>
     <use xlink:href="#md6e16535ff" x="279.175508" y="378.885996" style="fill: #0000ff; stroke: #0000ff"/>
     <use xlink:href="#md6e16535ff" x="287.221547" y="378.857023" style="fill: #0000ff; stroke: #0000ff"/>
     <use xlink:href="#md6e16535ff" x="294.740511" y="378.264054" style="fill: #0000ff; stroke: #0000ff"/>
     <use xlink:href="#md6e16535ff" x="301.815618" y="376.480942" style="fill: #0000ff; stroke: #0000ff"/>
     <use xlink:href="#md6e16535ff" x="308.511859" y="374.836229" style="fill: #0000ff; stroke: #0000ff"/>
     <use xlink:href="#md6e16535ff" x="314.881019" y="373.788015" style="fill: #0000ff; stroke: #0000ff"/>
     <use xlink:href="#md6e16535ff" x="320.965078" y="373.324859" style="fill: #0000ff; stroke: #0000ff"/>
     <use xlink:href="#md6e16535ff" x="326.798575" y="366.294333" style="fill: #0000ff; stroke: #0000ff"/>
     <use xlink:href="#md6e16535ff" x="332.410301" y="358.604541" style="fill: #0000ff; stroke: #0000ff"/>
     <use xlink:href="#md6e16535ff" x="337.82453" y="357.551563" style="fill: #0000ff; stroke: #0000ff"/>
     <use xlink:href="#md6e16535ff" x="343.061939" y="356.152024" style="fill: #0000ff; stroke: #0000ff"/>
     <use xlink:href="#md6e16535ff" x="348.140304" y="350.533493" style="fill: #0000ff; stroke: #0000ff"/>
     <use xlink:href="#md6e16535ff" x="353.075033" y="349.960256" style="fill: #0000ff; stroke: #0000ff"/>
     <use xlink:href="#md6e16535ff" x="357.879588" y="347.135807" style="fill: #0000ff; stroke: #0000ff"/>
     <use xlink:href="#md6e16535ff" x="362.565808" y="345.779673" style="fill: #0000ff; stroke: #0000ff"/>
     <use xlink:href="#md6e16535ff" x="367.144173" y="344.580548" style="fill: #0000ff; stroke: #0000ff"/>
     <use xlink:href="#md6e16535ff" x="371.624021" y="341.123406" style="fill: #0000ff; stroke: #0000ff"/>
     <use xlink:href="#md6e16535ff" x="376.013712" y="339.386093" style="fill: #0000ff; stroke: #0000ff"/>
     <use xlink:href="#md6e16535ff" x="380.320778" y="338.845304" style="fill: #0000ff; stroke: #0000ff"/>
     <use xlink:href="#md6e16535ff" x="384.552032" y="336.566828" style="fill: #0000ff; stroke: #0000ff"/>
     <use xlink:href="#md6e16535ff" x="388.713673" y="331.58645" style="fill: #0000ff; stroke: #0000ff"/>
     <use xlink:href="#md6e16535ff" x="392.811364" y="331.553838" style="fill: #0000ff; stroke: #0000ff"/>
     <use xlink:href="#md6e16535ff" x="396.8503" y="321.940328" style="fill: #0000ff; stroke: #0000ff"/>
     <use xlink:href="#md6e16535ff" x="400.835272" y="317.982726" style="fill: #0000ff; stroke: #0000ff"/>
     <use xlink:href="#md6e16535ff" x="404.770714" y="317.945954" style="fill: #0000ff; stroke: #0000ff"/>
     <use xlink:href="#md6e16535ff" x="408.660746" y="317.611377" style="fill: #0000ff; stroke: #0000ff"/>
     <use xlink:href="#md6e16535ff" x="412.509216" y="317.202509" style="fill: #0000ff; stroke: #0000ff"/>
     <use xlink:href="#md6e16535ff" x="416.319728" y="316.312545" style="fill: #0000ff; stroke: #0000ff"/>
     <use xlink:href="#md6e16535ff" x="420.095674" y="313.786837" style="fill: #0000ff; stroke: #0000ff"/>
     <use xlink:href="#md6e16535ff" x="423.840259" y="313.622238" style="fill: #0000ff; stroke: #0000ff"/>
     <use xlink:href="#md6e16535ff" x="427.556521" y="312.97691" style="fill: #0000ff; stroke: #0000ff"/>
     <use xlink:href="#md6e16535ff" x="431.247355" y="307.08594" style="fill: #0000ff; stroke: #0000ff"/>
     <use xlink:href="#md6e16535ff" x="434.91553" y="302.322755" style="fill: #0000ff; stroke: #0000ff"/>
     <use xlink:href="#md6e16535ff" x="438.563704" y="302.086618" style="fill: #0000ff; stroke: #0000ff"/>
     <use xlink:href="#md6e16535ff" x="442.19444" y="301.420499" style="fill: #0000ff; stroke: #0000ff"/>
     <use xlink:href="#md6e16535ff" x="445.810219" y="299.571984" style="fill: #0000ff; stroke: #0000ff"/>
     <use xlink:href="#md6e16535ff" x="449.413453" y="293.809266" style="fill: #0000ff; stroke: #0000ff"/>
     <use xlink:href="#md6e16535ff" x="453.0065" y="285.568777" style="fill: #0000ff; stroke: #0000ff"/>
     <use xlink:href="#md6e16535ff" x="456.591669" y="285.217053" style="fill: #0000ff; stroke: #0000ff"/>
     <use xlink:href="#md6e16535ff" x="460.171235" y="284.370451" style="fill: #0000ff; stroke: #0000ff"/>
     <use xlink:href="#md6e16535ff" x="463.74745" y="284.146651" style="fill: #0000ff; stroke: #0000ff"/>
     <use xlink:href="#md6e16535ff" x="467.32255" y="282.614629" style="fill: #0000ff; stroke: #0000ff"/>
     <use xlink:href="#md6e16535ff" x="470.898765" y="278.508685" style="fill: #0000ff; stroke: #0000ff"/>
     <use xlink:href="#md6e16535ff" x="474.478331" y="271.937672" style="fill: #0000ff; stroke: #0000ff"/>
     <use xlink:href="#md6e16535ff" x="478.0635" y="265.319898" style="fill: #0000ff; stroke: #0000ff"/>
     <use xlink:href="#md6e16535ff" x="481.656547" y="261.228108" style="fill: #0000ff; stroke: #0000ff"/>
     <use xlink:href="#md6e16535ff" x="485.259781" y="256.265885" style="fill: #0000ff; stroke: #0000ff"/>
     <use xlink:href="#md6e16535ff" x="488.87556" y="252.794277" style="fill: #0000ff; stroke: #0000ff"/>
     <use xlink:href="#md6e16535ff" x="492.506296" y="248.541388" style="fill: #0000ff; stroke: #0000ff"/>
     <use xlink:href="#md6e16535ff" x="496.15447" y="244.207208" style="fill: #0000ff; stroke: #0000ff"/>
     <use xlink:href="#md6e16535ff" x="499.822645" y="240.856764" style="fill: #0000ff; stroke: #0000ff"/>
     <use xlink:href="#md6e16535ff" x="503.513479" y="240.213626" style="fill: #0000ff; stroke: #0000ff"/>
     <use xlink:href="#md6e16535ff" x="507.229741" y="240.117423" style="fill: #0000ff; stroke: #0000ff"/>
     <use xlink:href="#md6e16535ff" x="510.974326" y="239.555874" style="fill: #0000ff; stroke: #0000ff"/>
     <use xlink:href="#md6e16535ff" x="514.750272" y="239.460562" style="fill: #0000ff; stroke: #0000ff"/>
     <use xlink:href="#md6e16535ff" x="518.560784" y="239.412951" style="fill: #0000ff; stroke: #0000ff"/>
     <use xlink:href="#md6e16535ff" x="522.409254" y="238.825847" style="fill: #0000ff; stroke: #0000ff"/>
     <use xlink:href="#md6e16535ff" x="526.299286" y="238.135846" style="fill: #0000ff; stroke: #0000ff"/>
     <use xlink:href="#md6e16535ff" x="530.234728" y="233.050975" style="fill: #0000ff; stroke: #0000ff"/>
     <use xlink:href="#md6e16535ff" x="534.2197" y="233.018829" style="fill: #0000ff; stroke: #0000ff"/>
     <use xlink:href="#md6e16535ff" x="538.258636" y="231.98739" style="fill: #0000ff; stroke: #0000ff"/>
     <use xlink:href="#md6e16535ff" x="542.356327" y="231.941274" style="fill: #0000ff; stroke: #0000ff"/>
     <use xlink:href="#md6e16535ff" x="546.517968" y="231.830128" style="fill: #0000ff; stroke: #0000ff"/>
     <use xlink:href="#md6e16535ff" x="550.749222" y="227.763853" style="fill: #0000ff; stroke: #0000ff"/>
     <use xlink:href="#md6e16535ff" x="555.056288" y="210.871158" style="fill: #0000ff; stroke: #0000ff"/>
     <use xlink:href="#md6e16535ff" x="559.445979" y="210.864424" style="fill: #0000ff; stroke: #0000ff"/>
     <use xlink:href="#md6e16535ff" x="563.925827" y="208.456361" style="fill: #0000ff; stroke: #0000ff"/>
     <use xlink:href="#md6e16535ff" x="568.504192" y="202.375942" style="fill: #0000ff; stroke: #0000ff"/>
     <use xlink:href="#md6e16535ff" x="573.190412" y="199.214384" style="fill: #0000ff; stroke: #0000ff"/>
     <use xlink:href="#md6e16535ff" x="577.994967" y="197.504079" style="fill: #0000ff; stroke: #0000ff"/>
     <use xlink:href="#md6e16535ff" x="582.929696" y="196.89627" style="fill: #0000ff; stroke: #0000ff"/>
     <use xlink:href="#md6e16535ff" x="588.008061" y="195.854832" style="fill: #0000ff; stroke: #0000ff"/>
     <use xlink:href="#md6e16535ff" x="593.24547" y="190.56467" style="fill: #0000ff; stroke: #0000ff"/>
     <use xlink:href="#md6e16535ff" x="598.659699" y="189.854487" style="fill: #0000ff; stroke: #0000ff"/>
     <use xlink:href="#md6e16535ff" x="604.271425" y="187.319906" style="fill: #0000ff; stroke: #0000ff"/>
     <use xlink:href="#md6e16535ff" x="610.104922" y="181.311251" style="fill: #0000ff; stroke: #0000ff"/>
     <use xlink:href="#md6e16535ff" x="616.188981" y="180.923307" style="fill: #0000ff; stroke: #0000ff"/>
     <use xlink:href="#md6e16535ff" x="622.558141" y="178.207721" style="fill: #0000ff; stroke: #0000ff"/>
     <use xlink:href="#md6e16535ff" x="629.254382" y="172.810058" style="fill: #0000ff; stroke: #0000ff"/>
     <use xlink:href="#md6e16535ff" x="636.329489" y="172.188586" style="fill: #0000ff; stroke: #0000ff"/>
     <use xlink:href="#md6e16535ff" x="643.848453" y="169.513508" style="fill: #0000ff; stroke: #0000ff"/>
     <use xlink:href="#md6e16535ff" x="651.894492" y="152.113742" style="fill: #0000ff; stroke: #0000ff"/>
     <use xlink:href="#md6e16535ff" x="660.576752" y="151.211296" style="fill: #0000ff; stroke: #0000ff"/>
     <use xlink:href="#md6e16535ff" x="670.042598" y="142.607801" style="fill: #0000ff; stroke: #0000ff"/>
     <use xlink:href="#md6e16535ff" x="680.498284" y="141.523511" style="fill: #0000ff; stroke: #0000ff"/>
     <use xlink:href="#md6e16535ff" x="692.246003" y="126.7009" style="fill: #0000ff; stroke: #0000ff"/>
     <use xlink:href="#md6e16535ff" x="705.756071" y="126.65112" style="fill: #0000ff; stroke: #0000ff"/>
     <use xlink:href="#md6e16535ff" x="721.824339" y="99.41036" style="fill: #0000ff; stroke: #0000ff"/>
     <use xlink:href="#md6e16535ff" x="741.976146" y="87.435747" style="fill: #0000ff; stroke: #0000ff"/>
     <use xlink:href="#md6e16535ff" x="769.814493" y="82.398763" style="fill: #0000ff; stroke: #0000ff"/>
     <use xlink:href="#md6e16535ff" x="817.957727" y="71.666254" style="fill: #0000ff; stroke: #0000ff"/>
    </g>
   </g>
   <g id="line2d_12">
    <path d="M 113.112273 488.143636 
L 161.255507 458.887492 
L 189.093854 441.970418 
L 209.245661 429.724373 
L 225.313929 419.959854 
L 238.823997 411.749925 
L 250.571716 404.610958 
L 261.027402 398.257146 
L 270.493248 392.50485 
L 279.175508 387.228731 
L 287.221547 382.339236 
L 294.740511 377.77004 
L 301.815618 373.47057 
L 308.511859 369.401334 
L 314.881019 365.530862 
L 320.965078 361.833642 
L 326.798575 358.288687 
L 332.410301 354.878499 
L 337.82453 351.588328 
L 343.061939 348.405609 
L 348.140304 345.319539 
L 353.075033 342.320755 
L 357.879588 339.401077 
L 362.565808 336.55331 
L 367.144173 333.771085 
L 371.624021 331.048728 
L 376.013712 328.381158 
L 380.320778 325.763799 
L 384.552032 323.19251 
L 388.713673 320.663523 
L 392.811364 318.1734 
L 396.8503 315.71898 
L 400.835272 313.297354 
L 404.770714 310.905827 
L 408.660746 308.541894 
L 412.509216 306.203219 
L 416.319728 303.88761 
L 420.095674 301.593007 
L 423.840259 299.317462 
L 427.556521 297.059128 
L 431.247355 294.816246 
L 434.91553 292.587134 
L 438.563704 290.370177 
L 442.19444 288.163816 
L 445.810219 285.966545 
L 449.413453 283.776897 
L 453.0065 281.59344 
L 456.591669 279.41477 
L 460.171235 277.239504 
L 463.74745 275.066275 
L 467.32255 272.893725 
L 470.898765 270.720496 
L 474.478331 268.54523 
L 478.0635 266.36656 
L 481.656547 264.183103 
L 485.259781 261.993455 
L 488.87556 259.796184 
L 492.506296 257.589823 
L 496.15447 255.372866 
L 499.822645 253.143754 
L 503.513479 250.900872 
L 507.229741 248.642538 
L 510.974326 246.366993 
L 514.750272 244.07239 
L 518.560784 241.756781 
L 522.409254 239.418106 
L 526.299286 237.054173 
L 530.234728 234.662646 
L 534.2197 232.24102 
L 538.258636 229.7866 
L 542.356327 227.296477 
L 546.517968 224.76749 
L 550.749222 222.196201 
L 555.056288 219.578842 
L 559.445979 216.911272 
L 563.925827 214.188915 
L 568.504192 211.40669 
L 573.190412 208.558923 
L 577.994967 205.639245 
L 582.929696 202.640461 
L 588.008061 199.554391 
L 593.24547 196.371672 
L 598.659699 193.081501 
L 604.271425 189.671313 
L 610.104922 186.126358 
L 616.188981 182.429138 
L 622.558141 178.558666 
L 629.254382 174.48943 
L 636.329489 170.18996 
L 643.848453 165.620764 
L 651.894492 160.731269 
L 660.576752 155.45515 
L 670.042598 149.702854 
L 680.498284 143.349042 
L 692.246003 136.210075 
L 705.756071 128.000146 
L 721.824339 118.235627 
L 741.976146 105.989582 
L 769.814493 89.072508 
L 817.957727 59.816364 
" clip-path="url(#pfed1e43943)" style="fill: none; stroke: #ff0000; stroke-width: 1.5; stroke-linecap: square"/>
   </g>
   <g id="patch_3">
    <path d="M 77.87 509.56 
L 77.87 38.4 
" style="fill: none; stroke: #000000; stroke-width: 0.8; stroke-linejoin: miter; stroke-linecap: square"/>
   </g>
   <g id="patch_4">
    <path d="M 853.2 509.56 
L 853.2 38.4 
" style="fill: none; stroke: #000000; stroke-width: 0.8; stroke-linejoin: miter; stroke-linecap: square"/>
   </g>
   <g id="patch_5">
    <path d="M 77.87 509.56 
L 853.2 509.56 
" style="fill: none; stroke: #000000; stroke-width: 0.8; stroke-linejoin: miter; stroke-linecap: square"/>
   </g>
   <g id="patch_6">
    <path d="M 77.87 38.4 
L 853.2 38.4 
" style="fill: none; stroke: #000000; stroke-width: 0.8; stroke-linejoin: miter; stroke-linecap: square"/>
   </g>
   <g id="text_13">
    <!-- QQ Plot (BNN FC1 Index None, r=0.9929) -->
    <g transform="translate(142.14375 32.4) scale(0.28 -0.28)">
     <defs>
      <path id="DejaVuSans-Bold-50" d="M 588 4666 
L 2584 4666 
Q 3475 4666 3951 4270 
Q 4428 3875 4428 3144 
Q 4428 2409 3951 2014 
Q 3475 1619 2584 1619 
L 1791 1619 
L 1791 0 
L 588 0 
L 588 4666 
z
M 1791 3794 
L 1791 2491 
L 2456 2491 
Q 2806 2491 2997 2661 
Q 3188 2831 3188 3144 
Q 3188 3456 2997 3625 
Q 2806 3794 2456 3794 
L 1791 3794 
z
" transform="scale(0.015625)"/>
      <path id="DejaVuSans-Bold-28" d="M 2413 -844 
L 1484 -844 
Q 1006 -72 778 623 
Q 550 1319 550 2003 
Q 550 2688 779 3389 
Q 1009 4091 1484 4856 
L 2413 4856 
Q 2013 4116 1813 3408 
Q 1613 2700 1613 2009 
Q 1613 1319 1811 609 
Q 2009 -100 2413 -844 
z
" transform="scale(0.015625)"/>
      <path id="DejaVuSans-Bold-42" d="M 2456 2859 
Q 2741 2859 2887 2984 
Q 3034 3109 3034 3353 
Q 3034 3594 2887 3720 
Q 2741 3847 2456 3847 
L 1791 3847 
L 1791 2859 
L 2456 2859 
z
M 2497 819 
Q 2859 819 3042 972 
Q 3225 1125 3225 1434 
Q 3225 1738 3044 1889 
Q 2863 2041 2497 2041 
L 1791 2041 
L 1791 819 
L 2497 819 
z
M 3616 2497 
Q 4003 2384 4215 2081 
Q 4428 1778 4428 1338 
Q 4428 663 3972 331 
Q 3516 0 2584 0 
L 588 0 
L 588 4666 
L 2394 4666 
Q 3366 4666 3802 4372 
Q 4238 4078 4238 3431 
Q 4238 3091 4078 2852 
Q 3919 2613 3616 2497 
z
" transform="scale(0.015625)"/>
      <path id="DejaVuSans-Bold-4e" d="M 588 4666 
L 1931 4666 
L 3628 1466 
L 3628 4666 
L 4769 4666 
L 4769 0 
L 3425 0 
L 1728 3200 
L 1728 0 
L 588 0 
L 588 4666 
z
" transform="scale(0.015625)"/>
      <path id="DejaVuSans-Bold-46" d="M 588 4666 
L 3834 4666 
L 3834 3756 
L 1791 3756 
L 1791 2888 
L 3713 2888 
L 3713 1978 
L 1791 1978 
L 1791 0 
L 588 0 
L 588 4666 
z
" transform="scale(0.015625)"/>
      <path id="DejaVuSans-Bold-43" d="M 4288 256 
Q 3956 84 3597 -3 
Q 3238 -91 2847 -91 
Q 1681 -91 1000 561 
Q 319 1213 319 2328 
Q 319 3447 1000 4098 
Q 1681 4750 2847 4750 
Q 3238 4750 3597 4662 
Q 3956 4575 4288 4403 
L 4288 3438 
Q 3953 3666 3628 3772 
Q 3303 3878 2944 3878 
Q 2300 3878 1931 3465 
Q 1563 3053 1563 2328 
Q 1563 1606 1931 1193 
Q 2300 781 2944 781 
Q 3303 781 3628 887 
Q 3953 994 4288 1222 
L 4288 256 
z
" transform="scale(0.015625)"/>
      <path id="DejaVuSans-Bold-31" d="M 750 831 
L 1813 831 
L 1813 3847 
L 722 3622 
L 722 4441 
L 1806 4666 
L 2950 4666 
L 2950 831 
L 4013 831 
L 4013 0 
L 750 0 
L 750 831 
z
" transform="scale(0.015625)"/>
      <path id="DejaVuSans-Bold-49" d="M 588 4666 
L 1791 4666 
L 1791 0 
L 588 0 
L 588 4666 
z
" transform="scale(0.015625)"/>
      <path id="DejaVuSans-Bold-64" d="M 2919 2988 
L 2919 4863 
L 4044 4863 
L 4044 0 
L 2919 0 
L 2919 506 
Q 2688 197 2409 53 
Q 2131 -91 1766 -91 
Q 1119 -91 703 423 
Q 288 938 288 1747 
Q 288 2556 703 3070 
Q 1119 3584 1766 3584 
Q 2128 3584 2408 3439 
Q 2688 3294 2919 2988 
z
M 2181 722 
Q 2541 722 2730 984 
Q 2919 1247 2919 1747 
Q 2919 2247 2730 2509 
Q 2541 2772 2181 2772 
Q 1825 2772 1636 2509 
Q 1447 2247 1447 1747 
Q 1447 1247 1636 984 
Q 1825 722 2181 722 
z
" transform="scale(0.015625)"/>
      <path id="DejaVuSans-Bold-78" d="M 1422 1791 
L 159 3500 
L 1344 3500 
L 2059 2463 
L 2784 3500 
L 3969 3500 
L 2706 1797 
L 4031 0 
L 2847 0 
L 2059 1106 
L 1281 0 
L 97 0 
L 1422 1791 
z
" transform="scale(0.015625)"/>
      <path id="DejaVuSans-Bold-2c" d="M 653 1209 
L 1778 1209 
L 1778 256 
L 1006 -909 
L 341 -909 
L 653 256 
L 653 1209 
z
" transform="scale(0.015625)"/>
      <path id="DejaVuSans-Bold-3d" d="M 678 3084 
L 4684 3084 
L 4684 2350 
L 678 2350 
L 678 3084 
z
M 678 1663 
L 4684 1663 
L 4684 922 
L 678 922 
L 678 1663 
z
" transform="scale(0.015625)"/>
      <path id="DejaVuSans-Bold-30" d="M 2944 2338 
Q 2944 3213 2780 3570 
Q 2616 3928 2228 3928 
Q 1841 3928 1675 3570 
Q 1509 3213 1509 2338 
Q 1509 1453 1675 1090 
Q 1841 728 2228 728 
Q 2613 728 2778 1090 
Q 2944 1453 2944 2338 
z
M 4147 2328 
Q 4147 1169 3647 539 
Q 3147 -91 2228 -91 
Q 1306 -91 806 539 
Q 306 1169 306 2328 
Q 306 3491 806 4120 
Q 1306 4750 2228 4750 
Q 3147 4750 3647 4120 
Q 4147 3491 4147 2328 
z
" transform="scale(0.015625)"/>
      <path id="DejaVuSans-Bold-2e" d="M 653 1209 
L 1778 1209 
L 1778 0 
L 653 0 
L 653 1209 
z
" transform="scale(0.015625)"/>
      <path id="DejaVuSans-Bold-39" d="M 641 103 
L 641 966 
Q 928 831 1190 764 
Q 1453 697 1709 697 
Q 2247 697 2547 995 
Q 2847 1294 2900 1881 
Q 2688 1725 2447 1647 
Q 2206 1569 1925 1569 
Q 1209 1569 770 1986 
Q 331 2403 331 3084 
Q 331 3838 820 4291 
Q 1309 4744 2131 4744 
Q 3044 4744 3544 4128 
Q 4044 3513 4044 2388 
Q 4044 1231 3459 570 
Q 2875 -91 1856 -91 
Q 1528 -91 1228 -42 
Q 928 6 641 103 
z
M 2125 2350 
Q 2441 2350 2600 2554 
Q 2759 2759 2759 3169 
Q 2759 3575 2600 3781 
Q 2441 3988 2125 3988 
Q 1809 3988 1650 3781 
Q 1491 3575 1491 3169 
Q 1491 2759 1650 2554 
Q 1809 2350 2125 2350 
z
" transform="scale(0.015625)"/>
      <path id="DejaVuSans-Bold-32" d="M 1844 884 
L 3897 884 
L 3897 0 
L 506 0 
L 506 884 
L 2209 2388 
Q 2438 2594 2547 2791 
Q 2656 2988 2656 3200 
Q 2656 3528 2436 3728 
Q 2216 3928 1850 3928 
Q 1569 3928 1234 3808 
Q 900 3688 519 3450 
L 519 4475 
Q 925 4609 1322 4679 
Q 1719 4750 2100 4750 
Q 2938 4750 3402 4381 
Q 3866 4013 3866 3353 
Q 3866 2972 3669 2642 
Q 3472 2313 2841 1759 
L 1844 884 
z
" transform="scale(0.015625)"/>
      <path id="DejaVuSans-Bold-29" d="M 513 -844 
Q 913 -100 1113 609 
Q 1313 1319 1313 2009 
Q 1313 2700 1113 3408 
Q 913 4116 513 4856 
L 1441 4856 
Q 1916 4091 2145 3389 
Q 2375 2688 2375 2003 
Q 2375 1319 2147 623 
Q 1919 -72 1441 -844 
L 513 -844 
z
" transform="scale(0.015625)"/>
     </defs>
     <use xlink:href="#DejaVuSans-Bold-51"/>
     <use xlink:href="#DejaVuSans-Bold-51" transform="translate(85.009766 0)"/>
     <use xlink:href="#DejaVuSans-Bold-20" transform="translate(170.019531 0)"/>
     <use xlink:href="#DejaVuSans-Bold-50" transform="translate(204.833984 0)"/>
     <use xlink:href="#DejaVuSans-Bold-6c" transform="translate(278.125 0)"/>
     <use xlink:href="#DejaVuSans-Bold-6f" transform="translate(312.402344 0)"/>
     <use xlink:href="#DejaVuSans-Bold-74" transform="translate(381.103516 0)"/>
     <use xlink:href="#DejaVuSans-Bold-20" transform="translate(428.90625 0)"/>
     <use xlink:href="#DejaVuSans-Bold-28" transform="translate(463.720703 0)"/>
     <use xlink:href="#DejaVuSans-Bold-42" transform="translate(509.423828 0)"/>
     <use xlink:href="#DejaVuSans-Bold-4e" transform="translate(585.644531 0)"/>
     <use xlink:href="#DejaVuSans-Bold-4e" transform="translate(669.335938 0)"/>
     <use xlink:href="#DejaVuSans-Bold-20" transform="translate(753.027344 0)"/>
     <use xlink:href="#DejaVuSans-Bold-46" transform="translate(787.841797 0)"/>
     <use xlink:href="#DejaVuSans-Bold-43" transform="translate(856.152344 0)"/>
     <use xlink:href="#DejaVuSans-Bold-31" transform="translate(929.541016 0)"/>
     <use xlink:href="#DejaVuSans-Bold-20" transform="translate(999.121094 0)"/>
     <use xlink:href="#DejaVuSans-Bold-49" transform="translate(1033.935547 0)"/>
     <use xlink:href="#DejaVuSans-Bold-6e" transform="translate(1071.142578 0)"/>
     <use xlink:href="#DejaVuSans-Bold-64" transform="translate(1142.333984 0)"/>
     <use xlink:href="#DejaVuSans-Bold-65" transform="translate(1213.916016 0)"/>
     <use xlink:href="#DejaVuSans-Bold-78" transform="translate(1281.738281 0)"/>
     <use xlink:href="#DejaVuSans-Bold-20" transform="translate(1346.240234 0)"/>
     <use xlink:href="#DejaVuSans-Bold-4e" transform="translate(1381.054688 0)"/>
     <use xlink:href="#DejaVuSans-Bold-6f" transform="translate(1464.746094 0)"/>
     <use xlink:href="#DejaVuSans-Bold-6e" transform="translate(1533.447266 0)"/>
     <use xlink:href="#DejaVuSans-Bold-65" transform="translate(1604.638672 0)"/>
     <use xlink:href="#DejaVuSans-Bold-2c" transform="translate(1672.460938 0)"/>
     <use xlink:href="#DejaVuSans-Bold-20" transform="translate(1710.449219 0)"/>
     <use xlink:href="#DejaVuSans-Bold-72" transform="translate(1745.263672 0)"/>
     <use xlink:href="#DejaVuSans-Bold-3d" transform="translate(1794.580078 0)"/>
     <use xlink:href="#DejaVuSans-Bold-30" transform="translate(1878.369141 0)"/>
     <use xlink:href="#DejaVuSans-Bold-2e" transform="translate(1947.949219 0)"/>
     <use xlink:href="#DejaVuSans-Bold-39" transform="translate(1985.9375 0)"/>
     <use xlink:href="#DejaVuSans-Bold-39" transform="translate(2055.517578 0)"/>
     <use xlink:href="#DejaVuSans-Bold-32" transform="translate(2125.097656 0)"/>
     <use xlink:href="#DejaVuSans-Bold-39" transform="translate(2194.677734 0)"/>
     <use xlink:href="#DejaVuSans-Bold-29" transform="translate(2264.257812 0)"/>
    </g>
   </g>
  </g>
 </g>
 <defs>
  <clipPath id="pfed1e43943">
   <rect x="77.87" y="38.4" width="775.33" height="471.16"/>
  </clipPath>
 </defs>
</svg>
