<?xml version="1.0" encoding="utf-8" standalone="no"?>
<!DOCTYPE svg PUBLIC "-//W3C//DTD SVG 1.1//EN"
  "http://www.w3.org/Graphics/SVG/1.1/DTD/svg11.dtd">
<svg xmlns:xlink="http://www.w3.org/1999/xlink" width="864pt" height="576pt" viewBox="0 0 864 576" xmlns="http://www.w3.org/2000/svg" version="1.1">
 <metadata>
  <rdf:RDF xmlns:dc="http://purl.org/dc/elements/1.1/" xmlns:cc="http://creativecommons.org/ns#" xmlns:rdf="http://www.w3.org/1999/02/22-rdf-syntax-ns#">
   <cc:Work>
    <dc:type rdf:resource="http://purl.org/dc/dcmitype/StillImage"/>
    <dc:date>2025-07-13T20:04:16.407739</dc:date>
    <dc:format>image/svg+xml</dc:format>
    <dc:creator>
     <cc:Agent>
      <dc:title>Matplotlib v3.9.2, https://matplotlib.org/</dc:title>
     </cc:Agent>
    </dc:creator>
   </cc:Work>
  </rdf:RDF>
 </metadata>
 <defs>
  <style type="text/css">*{stroke-linejoin: round; stroke-linecap: butt}</style>
 </defs>
 <g id="figure_1">
  <g id="patch_1">
   <path d="M 0 576 
L 864 576 
L 864 0 
L 0 0 
z
" style="fill: #ffffff"/>
  </g>
  <g id="axes_1">
   <g id="patch_2">
    <path d="M 73.55 509.56 
L 853.2 509.56 
L 853.2 70.08 
L 73.55 70.08 
z
" style="fill: #ffffff"/>
   </g>
   <g id="patch_3">
    <path d="M 108.988636 509.56 
L 123.164091 509.56 
L 123.164091 501.949957 
L 108.988636 501.949957 
z
" clip-path="url(#pcf15198b29)" style="fill: #1f77b4; fill-opacity: 0.5; stroke: #000000; stroke-width: 2; stroke-linejoin: miter"/>
   </g>
   <g id="patch_4">
    <path d="M 123.164091 509.56 
L 137.339545 509.56 
L 137.339545 494.339913 
L 123.164091 494.339913 
z
" clip-path="url(#pcf15198b29)" style="fill: #1f77b4; fill-opacity: 0.5; stroke: #000000; stroke-width: 2; stroke-linejoin: miter"/>
   </g>
   <g id="patch_5">
    <path d="M 137.339545 509.56 
L 151.515 509.56 
L 151.515 501.949957 
L 137.339545 501.949957 
z
" clip-path="url(#pcf15198b29)" style="fill: #1f77b4; fill-opacity: 0.5; stroke: #000000; stroke-width: 2; stroke-linejoin: miter"/>
   </g>
   <g id="patch_6">
    <path d="M 151.515 509.56 
L 165.690455 509.56 
L 165.690455 479.119827 
L 151.515 479.119827 
z
" clip-path="url(#pcf15198b29)" style="fill: #1f77b4; fill-opacity: 0.5; stroke: #000000; stroke-width: 2; stroke-linejoin: miter"/>
   </g>
   <g id="patch_7">
    <path d="M 165.690455 509.56 
L 179.865909 509.56 
L 179.865909 486.72987 
L 165.690455 486.72987 
z
" clip-path="url(#pcf15198b29)" style="fill: #1f77b4; fill-opacity: 0.5; stroke: #000000; stroke-width: 2; stroke-linejoin: miter"/>
   </g>
   <g id="patch_8">
    <path d="M 179.865909 509.56 
L 194.041364 509.56 
L 194.041364 471.509784 
L 179.865909 471.509784 
z
" clip-path="url(#pcf15198b29)" style="fill: #1f77b4; fill-opacity: 0.5; stroke: #000000; stroke-width: 2; stroke-linejoin: miter"/>
   </g>
   <g id="patch_9">
    <path d="M 194.041364 509.56 
L 208.216818 509.56 
L 208.216818 448.679654 
L 194.041364 448.679654 
z
" clip-path="url(#pcf15198b29)" style="fill: #1f77b4; fill-opacity: 0.5; stroke: #000000; stroke-width: 2; stroke-linejoin: miter"/>
   </g>
   <g id="patch_10">
    <path d="M 208.216818 509.56 
L 222.392273 509.56 
L 222.392273 463.89974 
L 208.216818 463.89974 
z
" clip-path="url(#pcf15198b29)" style="fill: #1f77b4; fill-opacity: 0.5; stroke: #000000; stroke-width: 2; stroke-linejoin: miter"/>
   </g>
   <g id="patch_11">
    <path d="M 222.392273 509.56 
L 236.567727 509.56 
L 236.567727 448.679654 
L 222.392273 448.679654 
z
" clip-path="url(#pcf15198b29)" style="fill: #1f77b4; fill-opacity: 0.5; stroke: #000000; stroke-width: 2; stroke-linejoin: miter"/>
   </g>
   <g id="patch_12">
    <path d="M 236.567727 509.56 
L 250.743182 509.56 
L 250.743182 418.239481 
L 236.567727 418.239481 
z
" clip-path="url(#pcf15198b29)" style="fill: #1f77b4; fill-opacity: 0.5; stroke: #000000; stroke-width: 2; stroke-linejoin: miter"/>
   </g>
   <g id="patch_13">
    <path d="M 250.743182 509.56 
L 264.918636 509.56 
L 264.918636 410.629437 
L 250.743182 410.629437 
z
" clip-path="url(#pcf15198b29)" style="fill: #1f77b4; fill-opacity: 0.5; stroke: #000000; stroke-width: 2; stroke-linejoin: miter"/>
   </g>
   <g id="patch_14">
    <path d="M 264.918636 509.56 
L 279.094091 509.56 
L 279.094091 448.679654 
L 264.918636 448.679654 
z
" clip-path="url(#pcf15198b29)" style="fill: #1f77b4; fill-opacity: 0.5; stroke: #000000; stroke-width: 2; stroke-linejoin: miter"/>
   </g>
   <g id="patch_15">
    <path d="M 279.094091 509.56 
L 293.269545 509.56 
L 293.269545 380.189264 
L 279.094091 380.189264 
z
" clip-path="url(#pcf15198b29)" style="fill: #1f77b4; fill-opacity: 0.5; stroke: #000000; stroke-width: 2; stroke-linejoin: miter"/>
   </g>
   <g id="patch_16">
    <path d="M 293.269545 509.56 
L 307.445 509.56 
L 307.445 387.799307 
L 293.269545 387.799307 
z
" clip-path="url(#pcf15198b29)" style="fill: #1f77b4; fill-opacity: 0.5; stroke: #000000; stroke-width: 2; stroke-linejoin: miter"/>
   </g>
   <g id="patch_17">
    <path d="M 307.445 509.56 
L 321.620455 509.56 
L 321.620455 296.478788 
L 307.445 296.478788 
z
" clip-path="url(#pcf15198b29)" style="fill: #1f77b4; fill-opacity: 0.5; stroke: #000000; stroke-width: 2; stroke-linejoin: miter"/>
   </g>
   <g id="patch_18">
    <path d="M 321.620455 509.56 
L 335.795909 509.56 
L 335.795909 273.648658 
L 321.620455 273.648658 
z
" clip-path="url(#pcf15198b29)" style="fill: #1f77b4; fill-opacity: 0.5; stroke: #000000; stroke-width: 2; stroke-linejoin: miter"/>
   </g>
   <g id="patch_19">
    <path d="M 335.795909 509.56 
L 349.971364 509.56 
L 349.971364 258.428571 
L 335.795909 258.428571 
z
" clip-path="url(#pcf15198b29)" style="fill: #1f77b4; fill-opacity: 0.5; stroke: #000000; stroke-width: 2; stroke-linejoin: miter"/>
   </g>
   <g id="patch_20">
    <path d="M 349.971364 509.56 
L 364.146818 509.56 
L 364.146818 288.868745 
L 349.971364 288.868745 
z
" clip-path="url(#pcf15198b29)" style="fill: #1f77b4; fill-opacity: 0.5; stroke: #000000; stroke-width: 2; stroke-linejoin: miter"/>
   </g>
   <g id="patch_21">
    <path d="M 364.146818 509.56 
L 378.322273 509.56 
L 378.322273 281.258701 
L 364.146818 281.258701 
z
" clip-path="url(#pcf15198b29)" style="fill: #1f77b4; fill-opacity: 0.5; stroke: #000000; stroke-width: 2; stroke-linejoin: miter"/>
   </g>
   <g id="patch_22">
    <path d="M 378.322273 509.56 
L 392.497727 509.56 
L 392.497727 189.938182 
L 378.322273 189.938182 
z
" clip-path="url(#pcf15198b29)" style="fill: #1f77b4; fill-opacity: 0.5; stroke: #000000; stroke-width: 2; stroke-linejoin: miter"/>
   </g>
   <g id="patch_23">
    <path d="M 392.497727 509.56 
L 406.673182 509.56 
L 406.673182 91.007619 
L 392.497727 91.007619 
z
" clip-path="url(#pcf15198b29)" style="fill: #1f77b4; fill-opacity: 0.5; stroke: #000000; stroke-width: 2; stroke-linejoin: miter"/>
   </g>
   <g id="patch_24">
    <path d="M 406.673182 509.56 
L 420.848636 509.56 
L 420.848636 189.938182 
L 406.673182 189.938182 
z
" clip-path="url(#pcf15198b29)" style="fill: #1f77b4; fill-opacity: 0.5; stroke: #000000; stroke-width: 2; stroke-linejoin: miter"/>
   </g>
   <g id="patch_25">
    <path d="M 420.848636 509.56 
L 435.024091 509.56 
L 435.024091 189.938182 
L 420.848636 189.938182 
z
" clip-path="url(#pcf15198b29)" style="fill: #1f77b4; fill-opacity: 0.5; stroke: #000000; stroke-width: 2; stroke-linejoin: miter"/>
   </g>
   <g id="patch_26">
    <path d="M 435.024091 509.56 
L 449.199545 509.56 
L 449.199545 144.277922 
L 435.024091 144.277922 
z
" clip-path="url(#pcf15198b29)" style="fill: #1f77b4; fill-opacity: 0.5; stroke: #000000; stroke-width: 2; stroke-linejoin: miter"/>
   </g>
   <g id="patch_27">
    <path d="M 449.199545 509.56 
L 463.375 509.56 
L 463.375 182.328139 
L 449.199545 182.328139 
z
" clip-path="url(#pcf15198b29)" style="fill: #1f77b4; fill-opacity: 0.5; stroke: #000000; stroke-width: 2; stroke-linejoin: miter"/>
   </g>
   <g id="patch_28">
    <path d="M 463.375 509.56 
L 477.550455 509.56 
L 477.550455 174.718095 
L 463.375 174.718095 
z
" clip-path="url(#pcf15198b29)" style="fill: #1f77b4; fill-opacity: 0.5; stroke: #000000; stroke-width: 2; stroke-linejoin: miter"/>
   </g>
   <g id="patch_29">
    <path d="M 477.550455 509.56 
L 491.725909 509.56 
L 491.725909 121.447792 
L 477.550455 121.447792 
z
" clip-path="url(#pcf15198b29)" style="fill: #1f77b4; fill-opacity: 0.5; stroke: #000000; stroke-width: 2; stroke-linejoin: miter"/>
   </g>
   <g id="patch_30">
    <path d="M 491.725909 509.56 
L 505.901364 509.56 
L 505.901364 144.277922 
L 491.725909 144.277922 
z
" clip-path="url(#pcf15198b29)" style="fill: #1f77b4; fill-opacity: 0.5; stroke: #000000; stroke-width: 2; stroke-linejoin: miter"/>
   </g>
   <g id="patch_31">
    <path d="M 505.901364 509.56 
L 520.076818 509.56 
L 520.076818 227.988398 
L 505.901364 227.988398 
z
" clip-path="url(#pcf15198b29)" style="fill: #1f77b4; fill-opacity: 0.5; stroke: #000000; stroke-width: 2; stroke-linejoin: miter"/>
   </g>
   <g id="patch_32">
    <path d="M 520.076818 509.56 
L 534.252273 509.56 
L 534.252273 205.158268 
L 520.076818 205.158268 
z
" clip-path="url(#pcf15198b29)" style="fill: #1f77b4; fill-opacity: 0.5; stroke: #000000; stroke-width: 2; stroke-linejoin: miter"/>
   </g>
   <g id="patch_33">
    <path d="M 534.252273 509.56 
L 548.427727 509.56 
L 548.427727 212.768312 
L 534.252273 212.768312 
z
" clip-path="url(#pcf15198b29)" style="fill: #1f77b4; fill-opacity: 0.5; stroke: #000000; stroke-width: 2; stroke-linejoin: miter"/>
   </g>
   <g id="patch_34">
    <path d="M 548.427727 509.56 
L 562.603182 509.56 
L 562.603182 288.868745 
L 548.427727 288.868745 
z
" clip-path="url(#pcf15198b29)" style="fill: #1f77b4; fill-opacity: 0.5; stroke: #000000; stroke-width: 2; stroke-linejoin: miter"/>
   </g>
   <g id="patch_35">
    <path d="M 562.603182 509.56 
L 576.778636 509.56 
L 576.778636 311.698874 
L 562.603182 311.698874 
z
" clip-path="url(#pcf15198b29)" style="fill: #1f77b4; fill-opacity: 0.5; stroke: #000000; stroke-width: 2; stroke-linejoin: miter"/>
   </g>
   <g id="patch_36">
    <path d="M 576.778636 509.56 
L 590.954091 509.56 
L 590.954091 266.038615 
L 576.778636 266.038615 
z
" clip-path="url(#pcf15198b29)" style="fill: #1f77b4; fill-opacity: 0.5; stroke: #000000; stroke-width: 2; stroke-linejoin: miter"/>
   </g>
   <g id="patch_37">
    <path d="M 590.954091 509.56 
L 605.129545 509.56 
L 605.129545 342.139048 
L 590.954091 342.139048 
z
" clip-path="url(#pcf15198b29)" style="fill: #1f77b4; fill-opacity: 0.5; stroke: #000000; stroke-width: 2; stroke-linejoin: miter"/>
   </g>
   <g id="patch_38">
    <path d="M 605.129545 509.56 
L 619.305 509.56 
L 619.305 326.918961 
L 605.129545 326.918961 
z
" clip-path="url(#pcf15198b29)" style="fill: #1f77b4; fill-opacity: 0.5; stroke: #000000; stroke-width: 2; stroke-linejoin: miter"/>
   </g>
   <g id="patch_39">
    <path d="M 619.305 509.56 
L 633.480455 509.56 
L 633.480455 395.409351 
L 619.305 395.409351 
z
" clip-path="url(#pcf15198b29)" style="fill: #1f77b4; fill-opacity: 0.5; stroke: #000000; stroke-width: 2; stroke-linejoin: miter"/>
   </g>
   <g id="patch_40">
    <path d="M 633.480455 509.56 
L 647.655909 509.56 
L 647.655909 387.799307 
L 633.480455 387.799307 
z
" clip-path="url(#pcf15198b29)" style="fill: #1f77b4; fill-opacity: 0.5; stroke: #000000; stroke-width: 2; stroke-linejoin: miter"/>
   </g>
   <g id="patch_41">
    <path d="M 647.655909 509.56 
L 661.831364 509.56 
L 661.831364 425.849524 
L 647.655909 425.849524 
z
" clip-path="url(#pcf15198b29)" style="fill: #1f77b4; fill-opacity: 0.5; stroke: #000000; stroke-width: 2; stroke-linejoin: miter"/>
   </g>
   <g id="patch_42">
    <path d="M 661.831364 509.56 
L 676.006818 509.56 
L 676.006818 433.459567 
L 661.831364 433.459567 
z
" clip-path="url(#pcf15198b29)" style="fill: #1f77b4; fill-opacity: 0.5; stroke: #000000; stroke-width: 2; stroke-linejoin: miter"/>
   </g>
   <g id="patch_43">
    <path d="M 676.006818 509.56 
L 690.182273 509.56 
L 690.182273 425.849524 
L 676.006818 425.849524 
z
" clip-path="url(#pcf15198b29)" style="fill: #1f77b4; fill-opacity: 0.5; stroke: #000000; stroke-width: 2; stroke-linejoin: miter"/>
   </g>
   <g id="patch_44">
    <path d="M 690.182273 509.56 
L 704.357727 509.56 
L 704.357727 456.289697 
L 690.182273 456.289697 
z
" clip-path="url(#pcf15198b29)" style="fill: #1f77b4; fill-opacity: 0.5; stroke: #000000; stroke-width: 2; stroke-linejoin: miter"/>
   </g>
   <g id="patch_45">
    <path d="M 704.357727 509.56 
L 718.533182 509.56 
L 718.533182 494.339913 
L 704.357727 494.339913 
z
" clip-path="url(#pcf15198b29)" style="fill: #1f77b4; fill-opacity: 0.5; stroke: #000000; stroke-width: 2; stroke-linejoin: miter"/>
   </g>
   <g id="patch_46">
    <path d="M 718.533182 509.56 
L 732.708636 509.56 
L 732.708636 501.949957 
L 718.533182 501.949957 
z
" clip-path="url(#pcf15198b29)" style="fill: #1f77b4; fill-opacity: 0.5; stroke: #000000; stroke-width: 2; stroke-linejoin: miter"/>
   </g>
   <g id="patch_47">
    <path d="M 732.708636 509.56 
L 746.884091 509.56 
L 746.884091 479.119827 
L 732.708636 479.119827 
z
" clip-path="url(#pcf15198b29)" style="fill: #1f77b4; fill-opacity: 0.5; stroke: #000000; stroke-width: 2; stroke-linejoin: miter"/>
   </g>
   <g id="patch_48">
    <path d="M 746.884091 509.56 
L 761.059545 509.56 
L 761.059545 501.949957 
L 746.884091 501.949957 
z
" clip-path="url(#pcf15198b29)" style="fill: #1f77b4; fill-opacity: 0.5; stroke: #000000; stroke-width: 2; stroke-linejoin: miter"/>
   </g>
   <g id="patch_49">
    <path d="M 761.059545 509.56 
L 775.235 509.56 
L 775.235 494.339913 
L 761.059545 494.339913 
z
" clip-path="url(#pcf15198b29)" style="fill: #1f77b4; fill-opacity: 0.5; stroke: #000000; stroke-width: 2; stroke-linejoin: miter"/>
   </g>
   <g id="patch_50">
    <path d="M 775.235 509.56 
L 789.410455 509.56 
L 789.410455 509.56 
L 775.235 509.56 
z
" clip-path="url(#pcf15198b29)" style="fill: #1f77b4; fill-opacity: 0.5; stroke: #000000; stroke-width: 2; stroke-linejoin: miter"/>
   </g>
   <g id="patch_51">
    <path d="M 789.410455 509.56 
L 803.585909 509.56 
L 803.585909 509.56 
L 789.410455 509.56 
z
" clip-path="url(#pcf15198b29)" style="fill: #1f77b4; fill-opacity: 0.5; stroke: #000000; stroke-width: 2; stroke-linejoin: miter"/>
   </g>
   <g id="patch_52">
    <path d="M 803.585909 509.56 
L 817.761364 509.56 
L 817.761364 501.949957 
L 803.585909 501.949957 
z
" clip-path="url(#pcf15198b29)" style="fill: #1f77b4; fill-opacity: 0.5; stroke: #000000; stroke-width: 2; stroke-linejoin: miter"/>
   </g>
   <g id="matplotlib.axis_1">
    <g id="xtick_1">
     <g id="line2d_1">
      <defs>
       <path id="mabcc4db4d2" d="M 0 0 
L 0 3.5 
" style="stroke: #000000; stroke-width: 0.8"/>
      </defs>
      <g>
       <use xlink:href="#mabcc4db4d2" x="94.112311" y="509.56" style="stroke: #000000; stroke-width: 0.8"/>
      </g>
     </g>
     <g id="text_1">
      <!-- 2 -->
      <g transform="translate(87.113561 533.276562) scale(0.22 -0.22)">
       <defs>
        <path id="DejaVuSans-32" d="M 1228 531 
L 3431 531 
L 3431 0 
L 469 0 
L 469 531 
Q 828 903 1448 1529 
Q 2069 2156 2228 2338 
Q 2531 2678 2651 2914 
Q 2772 3150 2772 3378 
Q 2772 3750 2511 3984 
Q 2250 4219 1831 4219 
Q 1534 4219 1204 4116 
Q 875 4013 500 3803 
L 500 4441 
Q 881 4594 1212 4672 
Q 1544 4750 1819 4750 
Q 2544 4750 2975 4387 
Q 3406 4025 3406 3419 
Q 3406 3131 3298 2873 
Q 3191 2616 2906 2266 
Q 2828 2175 2409 1742 
Q 1991 1309 1228 531 
z
" transform="scale(0.015625)"/>
       </defs>
       <use xlink:href="#DejaVuSans-32"/>
      </g>
     </g>
    </g>
    <g id="xtick_2">
     <g id="line2d_2">
      <g>
       <use xlink:href="#mabcc4db4d2" x="212.505135" y="509.56" style="stroke: #000000; stroke-width: 0.8"/>
      </g>
     </g>
     <g id="text_2">
      <!-- 3 -->
      <g transform="translate(205.506385 533.276562) scale(0.22 -0.22)">
       <defs>
        <path id="DejaVuSans-33" d="M 2597 2516 
Q 3050 2419 3304 2112 
Q 3559 1806 3559 1356 
Q 3559 666 3084 287 
Q 2609 -91 1734 -91 
Q 1441 -91 1130 -33 
Q 819 25 488 141 
L 488 750 
Q 750 597 1062 519 
Q 1375 441 1716 441 
Q 2309 441 2620 675 
Q 2931 909 2931 1356 
Q 2931 1769 2642 2001 
Q 2353 2234 1838 2234 
L 1294 2234 
L 1294 2753 
L 1863 2753 
Q 2328 2753 2575 2939 
Q 2822 3125 2822 3475 
Q 2822 3834 2567 4026 
Q 2313 4219 1838 4219 
Q 1578 4219 1281 4162 
Q 984 4106 628 3988 
L 628 4550 
Q 988 4650 1302 4700 
Q 1616 4750 1894 4750 
Q 2613 4750 3031 4423 
Q 3450 4097 3450 3541 
Q 3450 3153 3228 2886 
Q 3006 2619 2597 2516 
z
" transform="scale(0.015625)"/>
       </defs>
       <use xlink:href="#DejaVuSans-33"/>
      </g>
     </g>
    </g>
    <g id="xtick_3">
     <g id="line2d_3">
      <g>
       <use xlink:href="#mabcc4db4d2" x="330.897959" y="509.56" style="stroke: #000000; stroke-width: 0.8"/>
      </g>
     </g>
     <g id="text_3">
      <!-- 4 -->
      <g transform="translate(323.899209 533.276562) scale(0.22 -0.22)">
       <defs>
        <path id="DejaVuSans-34" d="M 2419 4116 
L 825 1625 
L 2419 1625 
L 2419 4116 
z
M 2253 4666 
L 3047 4666 
L 3047 1625 
L 3713 1625 
L 3713 1100 
L 3047 1100 
L 3047 0 
L 2419 0 
L 2419 1100 
L 313 1100 
L 313 1709 
L 2253 4666 
z
" transform="scale(0.015625)"/>
       </defs>
       <use xlink:href="#DejaVuSans-34"/>
      </g>
     </g>
    </g>
    <g id="xtick_4">
     <g id="line2d_4">
      <g>
       <use xlink:href="#mabcc4db4d2" x="449.290783" y="509.56" style="stroke: #000000; stroke-width: 0.8"/>
      </g>
     </g>
     <g id="text_4">
      <!-- 5 -->
      <g transform="translate(442.292033 533.276562) scale(0.22 -0.22)">
       <defs>
        <path id="DejaVuSans-35" d="M 691 4666 
L 3169 4666 
L 3169 4134 
L 1269 4134 
L 1269 2991 
Q 1406 3038 1543 3061 
Q 1681 3084 1819 3084 
Q 2600 3084 3056 2656 
Q 3513 2228 3513 1497 
Q 3513 744 3044 326 
Q 2575 -91 1722 -91 
Q 1428 -91 1123 -41 
Q 819 9 494 109 
L 494 744 
Q 775 591 1075 516 
Q 1375 441 1709 441 
Q 2250 441 2565 725 
Q 2881 1009 2881 1497 
Q 2881 1984 2565 2268 
Q 2250 2553 1709 2553 
Q 1456 2553 1204 2497 
Q 953 2441 691 2322 
L 691 4666 
z
" transform="scale(0.015625)"/>
       </defs>
       <use xlink:href="#DejaVuSans-35"/>
      </g>
     </g>
    </g>
    <g id="xtick_5">
     <g id="line2d_5">
      <g>
       <use xlink:href="#mabcc4db4d2" x="567.683607" y="509.56" style="stroke: #000000; stroke-width: 0.8"/>
      </g>
     </g>
     <g id="text_5">
      <!-- 6 -->
      <g transform="translate(560.684857 533.276562) scale(0.22 -0.22)">
       <defs>
        <path id="DejaVuSans-36" d="M 2113 2584 
Q 1688 2584 1439 2293 
Q 1191 2003 1191 1497 
Q 1191 994 1439 701 
Q 1688 409 2113 409 
Q 2538 409 2786 701 
Q 3034 994 3034 1497 
Q 3034 2003 2786 2293 
Q 2538 2584 2113 2584 
z
M 3366 4563 
L 3366 3988 
Q 3128 4100 2886 4159 
Q 2644 4219 2406 4219 
Q 1781 4219 1451 3797 
Q 1122 3375 1075 2522 
Q 1259 2794 1537 2939 
Q 1816 3084 2150 3084 
Q 2853 3084 3261 2657 
Q 3669 2231 3669 1497 
Q 3669 778 3244 343 
Q 2819 -91 2113 -91 
Q 1303 -91 875 529 
Q 447 1150 447 2328 
Q 447 3434 972 4092 
Q 1497 4750 2381 4750 
Q 2619 4750 2861 4703 
Q 3103 4656 3366 4563 
z
" transform="scale(0.015625)"/>
       </defs>
       <use xlink:href="#DejaVuSans-36"/>
      </g>
     </g>
    </g>
    <g id="xtick_6">
     <g id="line2d_6">
      <g>
       <use xlink:href="#mabcc4db4d2" x="686.076432" y="509.56" style="stroke: #000000; stroke-width: 0.8"/>
      </g>
     </g>
     <g id="text_6">
      <!-- 7 -->
      <g transform="translate(679.077682 533.276562) scale(0.22 -0.22)">
       <defs>
        <path id="DejaVuSans-37" d="M 525 4666 
L 3525 4666 
L 3525 4397 
L 1831 0 
L 1172 0 
L 2766 4134 
L 525 4134 
L 525 4666 
z
" transform="scale(0.015625)"/>
       </defs>
       <use xlink:href="#DejaVuSans-37"/>
      </g>
     </g>
    </g>
    <g id="xtick_7">
     <g id="line2d_7">
      <g>
       <use xlink:href="#mabcc4db4d2" x="804.469256" y="509.56" style="stroke: #000000; stroke-width: 0.8"/>
      </g>
     </g>
     <g id="text_7">
      <!-- 8 -->
      <g transform="translate(797.470506 533.276562) scale(0.22 -0.22)">
       <defs>
        <path id="DejaVuSans-38" d="M 2034 2216 
Q 1584 2216 1326 1975 
Q 1069 1734 1069 1313 
Q 1069 891 1326 650 
Q 1584 409 2034 409 
Q 2484 409 2743 651 
Q 3003 894 3003 1313 
Q 3003 1734 2745 1975 
Q 2488 2216 2034 2216 
z
M 1403 2484 
Q 997 2584 770 2862 
Q 544 3141 544 3541 
Q 544 4100 942 4425 
Q 1341 4750 2034 4750 
Q 2731 4750 3128 4425 
Q 3525 4100 3525 3541 
Q 3525 3141 3298 2862 
Q 3072 2584 2669 2484 
Q 3125 2378 3379 2068 
Q 3634 1759 3634 1313 
Q 3634 634 3220 271 
Q 2806 -91 2034 -91 
Q 1263 -91 848 271 
Q 434 634 434 1313 
Q 434 1759 690 2068 
Q 947 2378 1403 2484 
z
M 1172 3481 
Q 1172 3119 1398 2916 
Q 1625 2713 2034 2713 
Q 2441 2713 2670 2916 
Q 2900 3119 2900 3481 
Q 2900 3844 2670 4047 
Q 2441 4250 2034 4250 
Q 1625 4250 1398 4047 
Q 1172 3844 1172 3481 
z
" transform="scale(0.015625)"/>
       </defs>
       <use xlink:href="#DejaVuSans-38"/>
      </g>
     </g>
    </g>
    <g id="text_8">
     <!-- Value -->
     <g transform="translate(425.854375 560.088125) scale(0.24 -0.24)">
      <defs>
       <path id="DejaVuSans-Bold-56" d="M 31 4666 
L 1241 4666 
L 2478 1222 
L 3713 4666 
L 4922 4666 
L 3194 0 
L 1759 0 
L 31 4666 
z
" transform="scale(0.015625)"/>
       <path id="DejaVuSans-Bold-61" d="M 2106 1575 
Q 1756 1575 1579 1456 
Q 1403 1338 1403 1106 
Q 1403 894 1545 773 
Q 1688 653 1941 653 
Q 2256 653 2472 879 
Q 2688 1106 2688 1447 
L 2688 1575 
L 2106 1575 
z
M 3816 1997 
L 3816 0 
L 2688 0 
L 2688 519 
Q 2463 200 2181 54 
Q 1900 -91 1497 -91 
Q 953 -91 614 226 
Q 275 544 275 1050 
Q 275 1666 698 1953 
Q 1122 2241 2028 2241 
L 2688 2241 
L 2688 2328 
Q 2688 2594 2478 2717 
Q 2269 2841 1825 2841 
Q 1466 2841 1156 2769 
Q 847 2697 581 2553 
L 581 3406 
Q 941 3494 1303 3539 
Q 1666 3584 2028 3584 
Q 2975 3584 3395 3211 
Q 3816 2838 3816 1997 
z
" transform="scale(0.015625)"/>
       <path id="DejaVuSans-Bold-6c" d="M 538 4863 
L 1656 4863 
L 1656 0 
L 538 0 
L 538 4863 
z
" transform="scale(0.015625)"/>
       <path id="DejaVuSans-Bold-75" d="M 500 1363 
L 500 3500 
L 1625 3500 
L 1625 3150 
Q 1625 2866 1622 2436 
Q 1619 2006 1619 1863 
Q 1619 1441 1641 1255 
Q 1663 1069 1716 984 
Q 1784 875 1895 815 
Q 2006 756 2150 756 
Q 2500 756 2700 1025 
Q 2900 1294 2900 1772 
L 2900 3500 
L 4019 3500 
L 4019 0 
L 2900 0 
L 2900 506 
Q 2647 200 2364 54 
Q 2081 -91 1741 -91 
Q 1134 -91 817 281 
Q 500 653 500 1363 
z
" transform="scale(0.015625)"/>
       <path id="DejaVuSans-Bold-65" d="M 4031 1759 
L 4031 1441 
L 1416 1441 
Q 1456 1047 1700 850 
Q 1944 653 2381 653 
Q 2734 653 3104 758 
Q 3475 863 3866 1075 
L 3866 213 
Q 3469 63 3072 -14 
Q 2675 -91 2278 -91 
Q 1328 -91 801 392 
Q 275 875 275 1747 
Q 275 2603 792 3093 
Q 1309 3584 2216 3584 
Q 3041 3584 3536 3087 
Q 4031 2591 4031 1759 
z
M 2881 2131 
Q 2881 2450 2695 2645 
Q 2509 2841 2209 2841 
Q 1884 2841 1681 2658 
Q 1478 2475 1428 2131 
L 2881 2131 
z
" transform="scale(0.015625)"/>
      </defs>
      <use xlink:href="#DejaVuSans-Bold-56"/>
      <use xlink:href="#DejaVuSans-Bold-61" x="71.892578"/>
      <use xlink:href="#DejaVuSans-Bold-6c" x="139.373047"/>
      <use xlink:href="#DejaVuSans-Bold-75" x="173.650391"/>
      <use xlink:href="#DejaVuSans-Bold-65" x="244.841797"/>
     </g>
    </g>
   </g>
   <g id="matplotlib.axis_2">
    <g id="ytick_1">
     <g id="line2d_8">
      <defs>
       <path id="md30c755a51" d="M 0 0 
L -3.5 0 
" style="stroke: #000000; stroke-width: 0.8"/>
      </defs>
      <g>
       <use xlink:href="#md30c755a51" x="73.55" y="509.56" style="stroke: #000000; stroke-width: 0.8"/>
      </g>
     </g>
     <g id="text_9">
      <!-- 0 -->
      <g transform="translate(52.5525 517.918281) scale(0.22 -0.22)">
       <defs>
        <path id="DejaVuSans-30" d="M 2034 4250 
Q 1547 4250 1301 3770 
Q 1056 3291 1056 2328 
Q 1056 1369 1301 889 
Q 1547 409 2034 409 
Q 2525 409 2770 889 
Q 3016 1369 3016 2328 
Q 3016 3291 2770 3770 
Q 2525 4250 2034 4250 
z
M 2034 4750 
Q 2819 4750 3233 4129 
Q 3647 3509 3647 2328 
Q 3647 1150 3233 529 
Q 2819 -91 2034 -91 
Q 1250 -91 836 529 
Q 422 1150 422 2328 
Q 422 3509 836 4129 
Q 1250 4750 2034 4750 
z
" transform="scale(0.015625)"/>
       </defs>
       <use xlink:href="#DejaVuSans-30"/>
      </g>
     </g>
    </g>
    <g id="ytick_2">
     <g id="line2d_9">
      <g>
       <use xlink:href="#md30c755a51" x="73.55" y="433.459567" style="stroke: #000000; stroke-width: 0.8"/>
      </g>
     </g>
     <g id="text_10">
      <!-- 10 -->
      <g transform="translate(38.555 441.817848) scale(0.22 -0.22)">
       <defs>
        <path id="DejaVuSans-31" d="M 794 531 
L 1825 531 
L 1825 4091 
L 703 3866 
L 703 4441 
L 1819 4666 
L 2450 4666 
L 2450 531 
L 3481 531 
L 3481 0 
L 794 0 
L 794 531 
z
" transform="scale(0.015625)"/>
       </defs>
       <use xlink:href="#DejaVuSans-31"/>
       <use xlink:href="#DejaVuSans-30" x="63.623047"/>
      </g>
     </g>
    </g>
    <g id="ytick_3">
     <g id="line2d_10">
      <g>
       <use xlink:href="#md30c755a51" x="73.55" y="357.359134" style="stroke: #000000; stroke-width: 0.8"/>
      </g>
     </g>
     <g id="text_11">
      <!-- 20 -->
      <g transform="translate(38.555 365.717415) scale(0.22 -0.22)">
       <use xlink:href="#DejaVuSans-32"/>
       <use xlink:href="#DejaVuSans-30" x="63.623047"/>
      </g>
     </g>
    </g>
    <g id="ytick_4">
     <g id="line2d_11">
      <g>
       <use xlink:href="#md30c755a51" x="73.55" y="281.258701" style="stroke: #000000; stroke-width: 0.8"/>
      </g>
     </g>
     <g id="text_12">
      <!-- 30 -->
      <g transform="translate(38.555 289.616983) scale(0.22 -0.22)">
       <use xlink:href="#DejaVuSans-33"/>
       <use xlink:href="#DejaVuSans-30" x="63.623047"/>
      </g>
     </g>
    </g>
    <g id="ytick_5">
     <g id="line2d_12">
      <g>
       <use xlink:href="#md30c755a51" x="73.55" y="205.158268" style="stroke: #000000; stroke-width: 0.8"/>
      </g>
     </g>
     <g id="text_13">
      <!-- 40 -->
      <g transform="translate(38.555 213.51655) scale(0.22 -0.22)">
       <use xlink:href="#DejaVuSans-34"/>
       <use xlink:href="#DejaVuSans-30" x="63.623047"/>
      </g>
     </g>
    </g>
    <g id="ytick_6">
     <g id="line2d_13">
      <g>
       <use xlink:href="#md30c755a51" x="73.55" y="129.057835" style="stroke: #000000; stroke-width: 0.8"/>
      </g>
     </g>
     <g id="text_14">
      <!-- 50 -->
      <g transform="translate(38.555 137.416117) scale(0.22 -0.22)">
       <use xlink:href="#DejaVuSans-35"/>
       <use xlink:href="#DejaVuSans-30" x="63.623047"/>
      </g>
     </g>
    </g>
    <g id="text_15">
     <!-- Count -->
     <g transform="translate(29.56375 329.691875) rotate(-90) scale(0.24 -0.24)">
      <defs>
       <path id="DejaVuSans-Bold-43" d="M 4288 256 
Q 3956 84 3597 -3 
Q 3238 -91 2847 -91 
Q 1681 -91 1000 561 
Q 319 1213 319 2328 
Q 319 3447 1000 4098 
Q 1681 4750 2847 4750 
Q 3238 4750 3597 4662 
Q 3956 4575 4288 4403 
L 4288 3438 
Q 3953 3666 3628 3772 
Q 3303 3878 2944 3878 
Q 2300 3878 1931 3465 
Q 1563 3053 1563 2328 
Q 1563 1606 1931 1193 
Q 2300 781 2944 781 
Q 3303 781 3628 887 
Q 3953 994 4288 1222 
L 4288 256 
z
" transform="scale(0.015625)"/>
       <path id="DejaVuSans-Bold-6f" d="M 2203 2784 
Q 1831 2784 1636 2517 
Q 1441 2250 1441 1747 
Q 1441 1244 1636 976 
Q 1831 709 2203 709 
Q 2569 709 2762 976 
Q 2956 1244 2956 1747 
Q 2956 2250 2762 2517 
Q 2569 2784 2203 2784 
z
M 2203 3584 
Q 3106 3584 3614 3096 
Q 4122 2609 4122 1747 
Q 4122 884 3614 396 
Q 3106 -91 2203 -91 
Q 1297 -91 786 396 
Q 275 884 275 1747 
Q 275 2609 786 3096 
Q 1297 3584 2203 3584 
z
" transform="scale(0.015625)"/>
       <path id="DejaVuSans-Bold-6e" d="M 4056 2131 
L 4056 0 
L 2931 0 
L 2931 347 
L 2931 1631 
Q 2931 2084 2911 2256 
Q 2891 2428 2841 2509 
Q 2775 2619 2662 2680 
Q 2550 2741 2406 2741 
Q 2056 2741 1856 2470 
Q 1656 2200 1656 1722 
L 1656 0 
L 538 0 
L 538 3500 
L 1656 3500 
L 1656 2988 
Q 1909 3294 2193 3439 
Q 2478 3584 2822 3584 
Q 3428 3584 3742 3212 
Q 4056 2841 4056 2131 
z
" transform="scale(0.015625)"/>
       <path id="DejaVuSans-Bold-74" d="M 1759 4494 
L 1759 3500 
L 2913 3500 
L 2913 2700 
L 1759 2700 
L 1759 1216 
Q 1759 972 1856 886 
Q 1953 800 2241 800 
L 2816 800 
L 2816 0 
L 1856 0 
Q 1194 0 917 276 
Q 641 553 641 1216 
L 641 2700 
L 84 2700 
L 84 3500 
L 641 3500 
L 641 4494 
L 1759 4494 
z
" transform="scale(0.015625)"/>
      </defs>
      <use xlink:href="#DejaVuSans-Bold-43"/>
      <use xlink:href="#DejaVuSans-Bold-6f" x="73.388672"/>
      <use xlink:href="#DejaVuSans-Bold-75" x="142.089844"/>
      <use xlink:href="#DejaVuSans-Bold-6e" x="213.28125"/>
      <use xlink:href="#DejaVuSans-Bold-74" x="284.472656"/>
     </g>
    </g>
   </g>
   <g id="line2d_14">
    <path d="M 108.988636 503.057692 
L 116.11198 501.330992 
L 123.235324 499.320291 
L 130.358668 497.007054 
L 137.482012 494.382554 
L 144.605356 491.45385 
L 151.7287 488.246852 
L 158.852044 484.804096 
L 169.53706 479.308154 
L 180.222076 473.531064 
L 190.907092 467.489948 
L 198.030436 463.258315 
L 205.15378 458.799115 
L 212.277124 454.064077 
L 219.400468 449.029096 
L 226.523812 443.697374 
L 233.647156 438.08481 
L 240.7705 432.190847 
L 247.893844 425.966 
L 255.017188 419.291313 
L 258.57886 415.72957 
L 262.140532 411.982745 
L 265.702204 408.023258 
L 269.263876 403.825075 
L 272.825548 399.365799 
L 276.38722 394.628709 
L 279.948892 389.604559 
L 283.510564 384.292982 
L 287.072236 378.703347 
L 290.633908 372.854976 
L 297.757252 360.505392 
L 304.880596 347.561786 
L 319.127284 321.375566 
L 326.250628 308.71363 
L 333.373972 296.474771 
L 358.305676 254.499645 
L 368.990692 235.696399 
L 376.114036 223.174552 
L 383.23738 211.195033 
L 386.799052 205.574414 
L 390.360724 200.281008 
L 393.922396 195.363315 
L 397.484068 190.855912 
L 401.04574 186.777516 
L 404.607412 183.130478 
L 408.169084 179.901726 
L 411.730756 177.064982 
L 415.292428 174.584009 
L 418.8541 172.416496 
L 422.415772 170.518194 
L 425.977444 168.846891 
L 429.539116 167.365878 
L 433.100788 166.046637 
L 436.66246 164.870593 
L 440.224132 163.829865 
L 443.785804 162.927077 
L 447.347476 162.174343 
L 450.909148 161.591618 
L 454.47082 161.204633 
L 458.032492 161.042616 
L 461.594164 161.136011 
L 465.155836 161.51435 
L 468.717508 162.204411 
L 472.27918 163.228737 
L 475.840852 164.604569 
L 479.402524 166.343192 
L 482.964196 168.449685 
L 486.525868 170.923017 
L 490.08754 173.756442 
L 493.649212 176.938105 
L 497.210884 180.451791 
L 500.772556 184.277714 
L 504.334228 188.393298 
L 507.8959 192.773859 
L 511.457572 197.393164 
L 518.580916 207.237722 
L 525.70426 217.699191 
L 536.389276 234.035439 
L 550.635964 255.876385 
L 557.759308 266.472988 
L 568.444324 281.882302 
L 586.252684 307.298647 
L 593.376028 317.855373 
L 600.499372 328.782303 
L 611.184388 345.776129 
L 628.992748 374.398966 
L 636.116092 385.367206 
L 643.239436 395.806727 
L 650.36278 405.630074 
L 657.486124 414.826974 
L 664.609468 423.459262 
L 671.732812 431.637282 
L 678.856156 439.480355 
L 685.9795 447.071528 
L 693.102844 454.422309 
L 700.226188 461.462101 
L 707.349532 468.058456 
L 710.911204 471.142774 
L 714.472876 474.061654 
L 718.034548 476.80223 
L 721.59622 479.356436 
L 725.157892 481.721628 
L 728.719564 483.900692 
L 732.281236 485.901653 
L 735.842908 487.736846 
L 739.40458 489.421759 
L 746.527924 492.410309 
L 753.651268 495.002852 
L 760.774612 497.305484 
L 767.897956 499.37575 
L 775.0213 501.224743 
L 782.144644 502.835344 
L 789.267988 504.186481 
L 796.391332 505.27309 
L 803.514676 506.115284 
L 810.63802 506.755633 
L 817.761364 507.248128 
L 817.761364 507.248128 
" clip-path="url(#pcf15198b29)" style="fill: none; stroke: #1f77b4; stroke-width: 1.5; stroke-linecap: square"/>
   </g>
   <g id="patch_53">
    <path d="M 73.55 509.56 
L 73.55 70.08 
" style="fill: none; stroke: #000000; stroke-width: 0.8; stroke-linejoin: miter; stroke-linecap: square"/>
   </g>
   <g id="patch_54">
    <path d="M 853.2 509.56 
L 853.2 70.08 
" style="fill: none; stroke: #000000; stroke-width: 0.8; stroke-linejoin: miter; stroke-linecap: square"/>
   </g>
   <g id="patch_55">
    <path d="M 73.55 509.56 
L 853.2 509.56 
" style="fill: none; stroke: #000000; stroke-width: 0.8; stroke-linejoin: miter; stroke-linecap: square"/>
   </g>
   <g id="patch_56">
    <path d="M 73.55 70.08 
L 853.2 70.08 
" style="fill: none; stroke: #000000; stroke-width: 0.8; stroke-linejoin: miter; stroke-linecap: square"/>
   </g>
   <g id="text_16">
    <!-- Demo (ideal) Histogram #2 -->
    <g transform="translate(248.477188 32.507375) scale(0.28 -0.28)">
     <defs>
      <path id="DejaVuSans-Bold-44" d="M 1791 3756 
L 1791 909 
L 2222 909 
Q 2959 909 3348 1275 
Q 3738 1641 3738 2338 
Q 3738 3031 3350 3393 
Q 2963 3756 2222 3756 
L 1791 3756 
z
M 588 4666 
L 1856 4666 
Q 2919 4666 3439 4514 
Q 3959 4363 4331 4000 
Q 4659 3684 4818 3271 
Q 4978 2859 4978 2338 
Q 4978 1809 4818 1395 
Q 4659 981 4331 666 
Q 3956 303 3431 151 
Q 2906 0 1856 0 
L 588 0 
L 588 4666 
z
" transform="scale(0.015625)"/>
      <path id="DejaVuSans-Bold-6d" d="M 3781 2919 
Q 3994 3244 4286 3414 
Q 4578 3584 4928 3584 
Q 5531 3584 5847 3212 
Q 6163 2841 6163 2131 
L 6163 0 
L 5038 0 
L 5038 1825 
Q 5041 1866 5042 1909 
Q 5044 1953 5044 2034 
Q 5044 2406 4934 2573 
Q 4825 2741 4581 2741 
Q 4263 2741 4089 2478 
Q 3916 2216 3909 1719 
L 3909 0 
L 2784 0 
L 2784 1825 
Q 2784 2406 2684 2573 
Q 2584 2741 2328 2741 
Q 2006 2741 1831 2477 
Q 1656 2213 1656 1722 
L 1656 0 
L 531 0 
L 531 3500 
L 1656 3500 
L 1656 2988 
Q 1863 3284 2130 3434 
Q 2397 3584 2719 3584 
Q 3081 3584 3359 3409 
Q 3638 3234 3781 2919 
z
" transform="scale(0.015625)"/>
      <path id="DejaVuSans-Bold-20" transform="scale(0.015625)"/>
      <path id="DejaVuSans-Bold-28" d="M 2413 -844 
L 1484 -844 
Q 1006 -72 778 623 
Q 550 1319 550 2003 
Q 550 2688 779 3389 
Q 1009 4091 1484 4856 
L 2413 4856 
Q 2013 4116 1813 3408 
Q 1613 2700 1613 2009 
Q 1613 1319 1811 609 
Q 2009 -100 2413 -844 
z
" transform="scale(0.015625)"/>
      <path id="DejaVuSans-Bold-69" d="M 538 3500 
L 1656 3500 
L 1656 0 
L 538 0 
L 538 3500 
z
M 538 4863 
L 1656 4863 
L 1656 3950 
L 538 3950 
L 538 4863 
z
" transform="scale(0.015625)"/>
      <path id="DejaVuSans-Bold-64" d="M 2919 2988 
L 2919 4863 
L 4044 4863 
L 4044 0 
L 2919 0 
L 2919 506 
Q 2688 197 2409 53 
Q 2131 -91 1766 -91 
Q 1119 -91 703 423 
Q 288 938 288 1747 
Q 288 2556 703 3070 
Q 1119 3584 1766 3584 
Q 2128 3584 2408 3439 
Q 2688 3294 2919 2988 
z
M 2181 722 
Q 2541 722 2730 984 
Q 2919 1247 2919 1747 
Q 2919 2247 2730 2509 
Q 2541 2772 2181 2772 
Q 1825 2772 1636 2509 
Q 1447 2247 1447 1747 
Q 1447 1247 1636 984 
Q 1825 722 2181 722 
z
" transform="scale(0.015625)"/>
      <path id="DejaVuSans-Bold-29" d="M 513 -844 
Q 913 -100 1113 609 
Q 1313 1319 1313 2009 
Q 1313 2700 1113 3408 
Q 913 4116 513 4856 
L 1441 4856 
Q 1916 4091 2145 3389 
Q 2375 2688 2375 2003 
Q 2375 1319 2147 623 
Q 1919 -72 1441 -844 
L 513 -844 
z
" transform="scale(0.015625)"/>
      <path id="DejaVuSans-Bold-48" d="M 588 4666 
L 1791 4666 
L 1791 2888 
L 3566 2888 
L 3566 4666 
L 4769 4666 
L 4769 0 
L 3566 0 
L 3566 1978 
L 1791 1978 
L 1791 0 
L 588 0 
L 588 4666 
z
" transform="scale(0.015625)"/>
      <path id="DejaVuSans-Bold-73" d="M 3272 3391 
L 3272 2541 
Q 2913 2691 2578 2766 
Q 2244 2841 1947 2841 
Q 1628 2841 1473 2761 
Q 1319 2681 1319 2516 
Q 1319 2381 1436 2309 
Q 1553 2238 1856 2203 
L 2053 2175 
Q 2913 2066 3209 1816 
Q 3506 1566 3506 1031 
Q 3506 472 3093 190 
Q 2681 -91 1863 -91 
Q 1516 -91 1145 -36 
Q 775 19 384 128 
L 384 978 
Q 719 816 1070 734 
Q 1422 653 1784 653 
Q 2113 653 2278 743 
Q 2444 834 2444 1013 
Q 2444 1163 2330 1236 
Q 2216 1309 1875 1350 
L 1678 1375 
Q 931 1469 631 1722 
Q 331 1975 331 2491 
Q 331 3047 712 3315 
Q 1094 3584 1881 3584 
Q 2191 3584 2531 3537 
Q 2872 3491 3272 3391 
z
" transform="scale(0.015625)"/>
      <path id="DejaVuSans-Bold-67" d="M 2919 594 
Q 2688 288 2409 144 
Q 2131 0 1766 0 
Q 1125 0 706 504 
Q 288 1009 288 1791 
Q 288 2575 706 3076 
Q 1125 3578 1766 3578 
Q 2131 3578 2409 3434 
Q 2688 3291 2919 2981 
L 2919 3500 
L 4044 3500 
L 4044 353 
Q 4044 -491 3511 -936 
Q 2978 -1381 1966 -1381 
Q 1638 -1381 1331 -1331 
Q 1025 -1281 716 -1178 
L 716 -306 
Q 1009 -475 1290 -558 
Q 1572 -641 1856 -641 
Q 2406 -641 2662 -400 
Q 2919 -159 2919 353 
L 2919 594 
z
M 2181 2772 
Q 1834 2772 1640 2515 
Q 1447 2259 1447 1791 
Q 1447 1309 1634 1061 
Q 1822 813 2181 813 
Q 2531 813 2725 1069 
Q 2919 1325 2919 1791 
Q 2919 2259 2725 2515 
Q 2531 2772 2181 2772 
z
" transform="scale(0.015625)"/>
      <path id="DejaVuSans-Bold-72" d="M 3138 2547 
Q 2991 2616 2845 2648 
Q 2700 2681 2553 2681 
Q 2122 2681 1889 2404 
Q 1656 2128 1656 1613 
L 1656 0 
L 538 0 
L 538 3500 
L 1656 3500 
L 1656 2925 
Q 1872 3269 2151 3426 
Q 2431 3584 2822 3584 
Q 2878 3584 2943 3579 
Q 3009 3575 3134 3559 
L 3138 2547 
z
" transform="scale(0.015625)"/>
      <path id="DejaVuSans-Bold-23" d="M 2847 4594 
L 2547 3391 
L 3372 3391 
L 3675 4594 
L 4366 4594 
L 4063 3391 
L 4928 3391 
L 4928 2725 
L 3897 2725 
L 3681 1869 
L 4569 1869 
L 4569 1197 
L 3519 1197 
L 3219 0 
L 2528 0 
L 2828 1197 
L 2003 1197 
L 1703 0 
L 1006 0 
L 1306 1197 
L 434 1197 
L 434 1869 
L 1459 1869 
L 1678 2725 
L 794 2725 
L 794 3391 
L 1850 3391 
L 2150 4594 
L 2847 4594 
z
M 3200 2725 
L 2375 2725 
L 2156 1869 
L 2981 1869 
L 3200 2725 
z
" transform="scale(0.015625)"/>
      <path id="DejaVuSans-Bold-32" d="M 1844 884 
L 3897 884 
L 3897 0 
L 506 0 
L 506 884 
L 2209 2388 
Q 2438 2594 2547 2791 
Q 2656 2988 2656 3200 
Q 2656 3528 2436 3728 
Q 2216 3928 1850 3928 
Q 1569 3928 1234 3808 
Q 900 3688 519 3450 
L 519 4475 
Q 925 4609 1322 4679 
Q 1719 4750 2100 4750 
Q 2938 4750 3402 4381 
Q 3866 4013 3866 3353 
Q 3866 2972 3669 2642 
Q 3472 2313 2841 1759 
L 1844 884 
z
" transform="scale(0.015625)"/>
     </defs>
     <use xlink:href="#DejaVuSans-Bold-44"/>
     <use xlink:href="#DejaVuSans-Bold-65" x="83.007812"/>
     <use xlink:href="#DejaVuSans-Bold-6d" x="150.830078"/>
     <use xlink:href="#DejaVuSans-Bold-6f" x="255.029297"/>
     <use xlink:href="#DejaVuSans-Bold-20" x="323.730469"/>
     <use xlink:href="#DejaVuSans-Bold-28" x="358.544922"/>
     <use xlink:href="#DejaVuSans-Bold-69" x="404.248047"/>
     <use xlink:href="#DejaVuSans-Bold-64" x="438.525391"/>
     <use xlink:href="#DejaVuSans-Bold-65" x="510.107422"/>
     <use xlink:href="#DejaVuSans-Bold-61" x="577.929688"/>
     <use xlink:href="#DejaVuSans-Bold-6c" x="645.410156"/>
     <use xlink:href="#DejaVuSans-Bold-29" x="679.6875"/>
     <use xlink:href="#DejaVuSans-Bold-20" x="725.390625"/>
     <use xlink:href="#DejaVuSans-Bold-48" x="760.205078"/>
     <use xlink:href="#DejaVuSans-Bold-69" x="843.896484"/>
     <use xlink:href="#DejaVuSans-Bold-73" x="878.173828"/>
     <use xlink:href="#DejaVuSans-Bold-74" x="937.695312"/>
     <use xlink:href="#DejaVuSans-Bold-6f" x="985.498047"/>
     <use xlink:href="#DejaVuSans-Bold-67" x="1054.199219"/>
     <use xlink:href="#DejaVuSans-Bold-72" x="1125.78125"/>
     <use xlink:href="#DejaVuSans-Bold-61" x="1175.097656"/>
     <use xlink:href="#DejaVuSans-Bold-6d" x="1242.578125"/>
     <use xlink:href="#DejaVuSans-Bold-20" x="1346.777344"/>
     <use xlink:href="#DejaVuSans-Bold-23" x="1381.591797"/>
     <use xlink:href="#DejaVuSans-Bold-32" x="1465.380859"/>
    </g>
    <!-- μ=5.00, σ=1.00 -->
    <g transform="translate(339.435625 64.08) scale(0.28 -0.28)">
     <defs>
      <path id="DejaVuSans-Bold-3bc" d="M 544 -1338 
L 544 3500 
L 1672 3500 
L 1672 1466 
Q 1672 1103 1828 926 
Q 1984 750 2303 750 
Q 2625 750 2781 926 
Q 2938 1103 2938 1466 
L 2938 3500 
L 4063 3500 
L 4063 1159 
Q 4063 938 4114 850 
Q 4166 763 4288 763 
Q 4344 763 4395 778 
Q 4447 794 4506 831 
L 4506 50 
Q 4341 -22 4195 -56 
Q 4050 -91 3909 -91 
Q 3631 -91 3454 26 
Q 3278 144 3169 403 
Q 3022 156 2811 32 
Q 2600 -91 2322 -91 
Q 2091 -91 1928 -17 
Q 1766 56 1672 206 
L 1672 -1338 
L 544 -1338 
z
" transform="scale(0.015625)"/>
      <path id="DejaVuSans-Bold-3d" d="M 678 3084 
L 4684 3084 
L 4684 2350 
L 678 2350 
L 678 3084 
z
M 678 1663 
L 4684 1663 
L 4684 922 
L 678 922 
L 678 1663 
z
" transform="scale(0.015625)"/>
      <path id="DejaVuSans-Bold-35" d="M 678 4666 
L 3669 4666 
L 3669 3781 
L 1638 3781 
L 1638 3059 
Q 1775 3097 1914 3117 
Q 2053 3138 2203 3138 
Q 3056 3138 3531 2711 
Q 4006 2284 4006 1522 
Q 4006 766 3489 337 
Q 2972 -91 2053 -91 
Q 1656 -91 1267 -14 
Q 878 63 494 219 
L 494 1166 
Q 875 947 1217 837 
Q 1559 728 1863 728 
Q 2300 728 2551 942 
Q 2803 1156 2803 1522 
Q 2803 1891 2551 2103 
Q 2300 2316 1863 2316 
Q 1603 2316 1309 2248 
Q 1016 2181 678 2041 
L 678 4666 
z
" transform="scale(0.015625)"/>
      <path id="DejaVuSans-Bold-2e" d="M 653 1209 
L 1778 1209 
L 1778 0 
L 653 0 
L 653 1209 
z
" transform="scale(0.015625)"/>
      <path id="DejaVuSans-Bold-30" d="M 2944 2338 
Q 2944 3213 2780 3570 
Q 2616 3928 2228 3928 
Q 1841 3928 1675 3570 
Q 1509 3213 1509 2338 
Q 1509 1453 1675 1090 
Q 1841 728 2228 728 
Q 2613 728 2778 1090 
Q 2944 1453 2944 2338 
z
M 4147 2328 
Q 4147 1169 3647 539 
Q 3147 -91 2228 -91 
Q 1306 -91 806 539 
Q 306 1169 306 2328 
Q 306 3491 806 4120 
Q 1306 4750 2228 4750 
Q 3147 4750 3647 4120 
Q 4147 3491 4147 2328 
z
" transform="scale(0.015625)"/>
      <path id="DejaVuSans-Bold-2c" d="M 653 1209 
L 1778 1209 
L 1778 256 
L 1006 -909 
L 341 -909 
L 653 256 
L 653 1209 
z
" transform="scale(0.015625)"/>
      <path id="DejaVuSans-Bold-3c3" d="M 2200 2784 
Q 1831 2784 1636 2517 
Q 1441 2250 1441 1747 
Q 1441 1244 1636 976 
Q 1831 709 2200 709 
Q 2569 709 2762 976 
Q 2956 1244 2956 1747 
Q 2956 2250 2762 2517 
Q 2569 2784 2200 2784 
z
M 4650 2700 
L 3916 2700 
Q 4122 2291 4122 1747 
Q 4122 884 3614 396 
Q 3106 -91 2203 -91 
Q 1297 -91 786 396 
Q 275 884 275 1747 
Q 275 2609 788 3097 
Q 1209 3500 2203 3500 
L 4650 3500 
L 4650 2700 
z
" transform="scale(0.015625)"/>
      <path id="DejaVuSans-Bold-31" d="M 750 831 
L 1813 831 
L 1813 3847 
L 722 3622 
L 722 4441 
L 1806 4666 
L 2950 4666 
L 2950 831 
L 4013 831 
L 4013 0 
L 750 0 
L 750 831 
z
" transform="scale(0.015625)"/>
     </defs>
     <use xlink:href="#DejaVuSans-Bold-3bc"/>
     <use xlink:href="#DejaVuSans-Bold-3d" x="73.583984"/>
     <use xlink:href="#DejaVuSans-Bold-35" x="157.373047"/>
     <use xlink:href="#DejaVuSans-Bold-2e" x="226.953125"/>
     <use xlink:href="#DejaVuSans-Bold-30" x="264.941406"/>
     <use xlink:href="#DejaVuSans-Bold-30" x="334.521484"/>
     <use xlink:href="#DejaVuSans-Bold-2c" x="404.101562"/>
     <use xlink:href="#DejaVuSans-Bold-20" x="442.089844"/>
     <use xlink:href="#DejaVuSans-Bold-3c3" x="476.904297"/>
     <use xlink:href="#DejaVuSans-Bold-3d" x="554.785156"/>
     <use xlink:href="#DejaVuSans-Bold-31" x="638.574219"/>
     <use xlink:href="#DejaVuSans-Bold-2e" x="708.154297"/>
     <use xlink:href="#DejaVuSans-Bold-30" x="746.142578"/>
     <use xlink:href="#DejaVuSans-Bold-30" x="815.722656"/>
    </g>
   </g>
  </g>
 </g>
 <defs>
  <clipPath id="pcf15198b29">
   <rect x="73.55" y="70.08" width="779.65" height="439.48"/>
  </clipPath>
 </defs>
</svg>
