<?xml version="1.0" encoding="utf-8" standalone="no"?>
<!DOCTYPE svg PUBLIC "-//W3C//DTD SVG 1.1//EN"
  "http://www.w3.org/Graphics/SVG/1.1/DTD/svg11.dtd">
<svg xmlns:xlink="http://www.w3.org/1999/xlink" width="864pt" height="576pt" viewBox="0 0 864 576" xmlns="http://www.w3.org/2000/svg" version="1.1">
 <metadata>
  <rdf:RDF xmlns:dc="http://purl.org/dc/elements/1.1/" xmlns:cc="http://creativecommons.org/ns#" xmlns:rdf="http://www.w3.org/1999/02/22-rdf-syntax-ns#">
   <cc:Work>
    <dc:type rdf:resource="http://purl.org/dc/dcmitype/StillImage"/>
    <dc:date>2025-07-05T20:34:31.516502</dc:date>
    <dc:format>image/svg+xml</dc:format>
    <dc:creator>
     <cc:Agent>
      <dc:title>Matplotlib v3.9.2, https://matplotlib.org/</dc:title>
     </cc:Agent>
    </dc:creator>
   </cc:Work>
  </rdf:RDF>
 </metadata>
 <defs>
  <style type="text/css">*{stroke-linejoin: round; stroke-linecap: butt}</style>
 </defs>
 <g id="figure_1">
  <g id="patch_1">
   <path d="M 0 576 
L 864 576 
L 864 0 
L 0 0 
z
" style="fill: #ffffff"/>
  </g>
  <g id="axes_1">
   <g id="patch_2">
    <path d="M 59.6 509.56 
L 853.2 509.56 
L 853.2 70.08 
L 59.6 70.08 
z
" style="fill: #ffffff"/>
   </g>
   <g id="patch_3">
    <path d="M 95.672727 509.56 
L 110.101818 509.56 
L 110.101818 416.54836 
L 95.672727 416.54836 
z
" clip-path="url(#p6fb9776d7a)" style="fill: #1f77b4; fill-opacity: 0.5; stroke: #000000; stroke-width: 2; stroke-linejoin: miter"/>
   </g>
   <g id="patch_4">
    <path d="M 110.101818 509.56 
L 124.530909 509.56 
L 124.530909 509.56 
L 110.101818 509.56 
z
" clip-path="url(#p6fb9776d7a)" style="fill: #1f77b4; fill-opacity: 0.5; stroke: #000000; stroke-width: 2; stroke-linejoin: miter"/>
   </g>
   <g id="patch_5">
    <path d="M 124.530909 509.56 
L 138.96 509.56 
L 138.96 416.54836 
L 124.530909 416.54836 
z
" clip-path="url(#p6fb9776d7a)" style="fill: #1f77b4; fill-opacity: 0.5; stroke: #000000; stroke-width: 2; stroke-linejoin: miter"/>
   </g>
   <g id="patch_6">
    <path d="M 138.96 509.56 
L 153.389091 509.56 
L 153.389091 463.05418 
L 138.96 463.05418 
z
" clip-path="url(#p6fb9776d7a)" style="fill: #1f77b4; fill-opacity: 0.5; stroke: #000000; stroke-width: 2; stroke-linejoin: miter"/>
   </g>
   <g id="patch_7">
    <path d="M 153.389091 509.56 
L 167.818182 509.56 
L 167.818182 509.56 
L 153.389091 509.56 
z
" clip-path="url(#p6fb9776d7a)" style="fill: #1f77b4; fill-opacity: 0.5; stroke: #000000; stroke-width: 2; stroke-linejoin: miter"/>
   </g>
   <g id="patch_8">
    <path d="M 167.818182 509.56 
L 182.247273 509.56 
L 182.247273 509.56 
L 167.818182 509.56 
z
" clip-path="url(#p6fb9776d7a)" style="fill: #1f77b4; fill-opacity: 0.5; stroke: #000000; stroke-width: 2; stroke-linejoin: miter"/>
   </g>
   <g id="patch_9">
    <path d="M 182.247273 509.56 
L 196.676364 509.56 
L 196.676364 463.05418 
L 182.247273 463.05418 
z
" clip-path="url(#p6fb9776d7a)" style="fill: #1f77b4; fill-opacity: 0.5; stroke: #000000; stroke-width: 2; stroke-linejoin: miter"/>
   </g>
   <g id="patch_10">
    <path d="M 196.676364 509.56 
L 211.105455 509.56 
L 211.105455 463.05418 
L 196.676364 463.05418 
z
" clip-path="url(#p6fb9776d7a)" style="fill: #1f77b4; fill-opacity: 0.5; stroke: #000000; stroke-width: 2; stroke-linejoin: miter"/>
   </g>
   <g id="patch_11">
    <path d="M 211.105455 509.56 
L 225.534545 509.56 
L 225.534545 416.54836 
L 211.105455 416.54836 
z
" clip-path="url(#p6fb9776d7a)" style="fill: #1f77b4; fill-opacity: 0.5; stroke: #000000; stroke-width: 2; stroke-linejoin: miter"/>
   </g>
   <g id="patch_12">
    <path d="M 225.534545 509.56 
L 239.963636 509.56 
L 239.963636 416.54836 
L 225.534545 416.54836 
z
" clip-path="url(#p6fb9776d7a)" style="fill: #1f77b4; fill-opacity: 0.5; stroke: #000000; stroke-width: 2; stroke-linejoin: miter"/>
   </g>
   <g id="patch_13">
    <path d="M 239.963636 509.56 
L 254.392727 509.56 
L 254.392727 463.05418 
L 239.963636 463.05418 
z
" clip-path="url(#p6fb9776d7a)" style="fill: #1f77b4; fill-opacity: 0.5; stroke: #000000; stroke-width: 2; stroke-linejoin: miter"/>
   </g>
   <g id="patch_14">
    <path d="M 254.392727 509.56 
L 268.821818 509.56 
L 268.821818 370.04254 
L 254.392727 370.04254 
z
" clip-path="url(#p6fb9776d7a)" style="fill: #1f77b4; fill-opacity: 0.5; stroke: #000000; stroke-width: 2; stroke-linejoin: miter"/>
   </g>
   <g id="patch_15">
    <path d="M 268.821818 509.56 
L 283.250909 509.56 
L 283.250909 416.54836 
L 268.821818 416.54836 
z
" clip-path="url(#p6fb9776d7a)" style="fill: #1f77b4; fill-opacity: 0.5; stroke: #000000; stroke-width: 2; stroke-linejoin: miter"/>
   </g>
   <g id="patch_16">
    <path d="M 283.250909 509.56 
L 297.68 509.56 
L 297.68 416.54836 
L 283.250909 416.54836 
z
" clip-path="url(#p6fb9776d7a)" style="fill: #1f77b4; fill-opacity: 0.5; stroke: #000000; stroke-width: 2; stroke-linejoin: miter"/>
   </g>
   <g id="patch_17">
    <path d="M 297.68 509.56 
L 312.109091 509.56 
L 312.109091 416.54836 
L 297.68 416.54836 
z
" clip-path="url(#p6fb9776d7a)" style="fill: #1f77b4; fill-opacity: 0.5; stroke: #000000; stroke-width: 2; stroke-linejoin: miter"/>
   </g>
   <g id="patch_18">
    <path d="M 312.109091 509.56 
L 326.538182 509.56 
L 326.538182 370.04254 
L 312.109091 370.04254 
z
" clip-path="url(#p6fb9776d7a)" style="fill: #1f77b4; fill-opacity: 0.5; stroke: #000000; stroke-width: 2; stroke-linejoin: miter"/>
   </g>
   <g id="patch_19">
    <path d="M 326.538182 509.56 
L 340.967273 509.56 
L 340.967273 370.04254 
L 326.538182 370.04254 
z
" clip-path="url(#p6fb9776d7a)" style="fill: #1f77b4; fill-opacity: 0.5; stroke: #000000; stroke-width: 2; stroke-linejoin: miter"/>
   </g>
   <g id="patch_20">
    <path d="M 340.967273 509.56 
L 355.396364 509.56 
L 355.396364 277.030899 
L 340.967273 277.030899 
z
" clip-path="url(#p6fb9776d7a)" style="fill: #1f77b4; fill-opacity: 0.5; stroke: #000000; stroke-width: 2; stroke-linejoin: miter"/>
   </g>
   <g id="patch_21">
    <path d="M 355.396364 509.56 
L 369.825455 509.56 
L 369.825455 184.019259 
L 355.396364 184.019259 
z
" clip-path="url(#p6fb9776d7a)" style="fill: #1f77b4; fill-opacity: 0.5; stroke: #000000; stroke-width: 2; stroke-linejoin: miter"/>
   </g>
   <g id="patch_22">
    <path d="M 369.825455 509.56 
L 384.254545 509.56 
L 384.254545 416.54836 
L 369.825455 416.54836 
z
" clip-path="url(#p6fb9776d7a)" style="fill: #1f77b4; fill-opacity: 0.5; stroke: #000000; stroke-width: 2; stroke-linejoin: miter"/>
   </g>
   <g id="patch_23">
    <path d="M 384.254545 509.56 
L 398.683636 509.56 
L 398.683636 370.04254 
L 384.254545 370.04254 
z
" clip-path="url(#p6fb9776d7a)" style="fill: #1f77b4; fill-opacity: 0.5; stroke: #000000; stroke-width: 2; stroke-linejoin: miter"/>
   </g>
   <g id="patch_24">
    <path d="M 398.683636 509.56 
L 413.112727 509.56 
L 413.112727 184.019259 
L 398.683636 184.019259 
z
" clip-path="url(#p6fb9776d7a)" style="fill: #1f77b4; fill-opacity: 0.5; stroke: #000000; stroke-width: 2; stroke-linejoin: miter"/>
   </g>
   <g id="patch_25">
    <path d="M 413.112727 509.56 
L 427.541818 509.56 
L 427.541818 416.54836 
L 413.112727 416.54836 
z
" clip-path="url(#p6fb9776d7a)" style="fill: #1f77b4; fill-opacity: 0.5; stroke: #000000; stroke-width: 2; stroke-linejoin: miter"/>
   </g>
   <g id="patch_26">
    <path d="M 427.541818 509.56 
L 441.970909 509.56 
L 441.970909 91.007619 
L 427.541818 91.007619 
z
" clip-path="url(#p6fb9776d7a)" style="fill: #1f77b4; fill-opacity: 0.5; stroke: #000000; stroke-width: 2; stroke-linejoin: miter"/>
   </g>
   <g id="patch_27">
    <path d="M 441.970909 509.56 
L 456.4 509.56 
L 456.4 184.019259 
L 441.970909 184.019259 
z
" clip-path="url(#p6fb9776d7a)" style="fill: #1f77b4; fill-opacity: 0.5; stroke: #000000; stroke-width: 2; stroke-linejoin: miter"/>
   </g>
   <g id="patch_28">
    <path d="M 456.4 509.56 
L 470.829091 509.56 
L 470.829091 416.54836 
L 456.4 416.54836 
z
" clip-path="url(#p6fb9776d7a)" style="fill: #1f77b4; fill-opacity: 0.5; stroke: #000000; stroke-width: 2; stroke-linejoin: miter"/>
   </g>
   <g id="patch_29">
    <path d="M 470.829091 509.56 
L 485.258182 509.56 
L 485.258182 323.53672 
L 470.829091 323.53672 
z
" clip-path="url(#p6fb9776d7a)" style="fill: #1f77b4; fill-opacity: 0.5; stroke: #000000; stroke-width: 2; stroke-linejoin: miter"/>
   </g>
   <g id="patch_30">
    <path d="M 485.258182 509.56 
L 499.687273 509.56 
L 499.687273 416.54836 
L 485.258182 416.54836 
z
" clip-path="url(#p6fb9776d7a)" style="fill: #1f77b4; fill-opacity: 0.5; stroke: #000000; stroke-width: 2; stroke-linejoin: miter"/>
   </g>
   <g id="patch_31">
    <path d="M 499.687273 509.56 
L 514.116364 509.56 
L 514.116364 277.030899 
L 499.687273 277.030899 
z
" clip-path="url(#p6fb9776d7a)" style="fill: #1f77b4; fill-opacity: 0.5; stroke: #000000; stroke-width: 2; stroke-linejoin: miter"/>
   </g>
   <g id="patch_32">
    <path d="M 514.116364 509.56 
L 528.545455 509.56 
L 528.545455 509.56 
L 514.116364 509.56 
z
" clip-path="url(#p6fb9776d7a)" style="fill: #1f77b4; fill-opacity: 0.5; stroke: #000000; stroke-width: 2; stroke-linejoin: miter"/>
   </g>
   <g id="patch_33">
    <path d="M 528.545455 509.56 
L 542.974545 509.56 
L 542.974545 463.05418 
L 528.545455 463.05418 
z
" clip-path="url(#p6fb9776d7a)" style="fill: #1f77b4; fill-opacity: 0.5; stroke: #000000; stroke-width: 2; stroke-linejoin: miter"/>
   </g>
   <g id="patch_34">
    <path d="M 542.974545 509.56 
L 557.403636 509.56 
L 557.403636 416.54836 
L 542.974545 416.54836 
z
" clip-path="url(#p6fb9776d7a)" style="fill: #1f77b4; fill-opacity: 0.5; stroke: #000000; stroke-width: 2; stroke-linejoin: miter"/>
   </g>
   <g id="patch_35">
    <path d="M 557.403636 509.56 
L 571.832727 509.56 
L 571.832727 416.54836 
L 557.403636 416.54836 
z
" clip-path="url(#p6fb9776d7a)" style="fill: #1f77b4; fill-opacity: 0.5; stroke: #000000; stroke-width: 2; stroke-linejoin: miter"/>
   </g>
   <g id="patch_36">
    <path d="M 571.832727 509.56 
L 586.261818 509.56 
L 586.261818 463.05418 
L 571.832727 463.05418 
z
" clip-path="url(#p6fb9776d7a)" style="fill: #1f77b4; fill-opacity: 0.5; stroke: #000000; stroke-width: 2; stroke-linejoin: miter"/>
   </g>
   <g id="patch_37">
    <path d="M 586.261818 509.56 
L 600.690909 509.56 
L 600.690909 509.56 
L 586.261818 509.56 
z
" clip-path="url(#p6fb9776d7a)" style="fill: #1f77b4; fill-opacity: 0.5; stroke: #000000; stroke-width: 2; stroke-linejoin: miter"/>
   </g>
   <g id="patch_38">
    <path d="M 600.690909 509.56 
L 615.12 509.56 
L 615.12 509.56 
L 600.690909 509.56 
z
" clip-path="url(#p6fb9776d7a)" style="fill: #1f77b4; fill-opacity: 0.5; stroke: #000000; stroke-width: 2; stroke-linejoin: miter"/>
   </g>
   <g id="patch_39">
    <path d="M 615.12 509.56 
L 629.549091 509.56 
L 629.549091 509.56 
L 615.12 509.56 
z
" clip-path="url(#p6fb9776d7a)" style="fill: #1f77b4; fill-opacity: 0.5; stroke: #000000; stroke-width: 2; stroke-linejoin: miter"/>
   </g>
   <g id="patch_40">
    <path d="M 629.549091 509.56 
L 643.978182 509.56 
L 643.978182 416.54836 
L 629.549091 416.54836 
z
" clip-path="url(#p6fb9776d7a)" style="fill: #1f77b4; fill-opacity: 0.5; stroke: #000000; stroke-width: 2; stroke-linejoin: miter"/>
   </g>
   <g id="patch_41">
    <path d="M 643.978182 509.56 
L 658.407273 509.56 
L 658.407273 370.04254 
L 643.978182 370.04254 
z
" clip-path="url(#p6fb9776d7a)" style="fill: #1f77b4; fill-opacity: 0.5; stroke: #000000; stroke-width: 2; stroke-linejoin: miter"/>
   </g>
   <g id="patch_42">
    <path d="M 658.407273 509.56 
L 672.836364 509.56 
L 672.836364 463.05418 
L 658.407273 463.05418 
z
" clip-path="url(#p6fb9776d7a)" style="fill: #1f77b4; fill-opacity: 0.5; stroke: #000000; stroke-width: 2; stroke-linejoin: miter"/>
   </g>
   <g id="patch_43">
    <path d="M 672.836364 509.56 
L 687.265455 509.56 
L 687.265455 416.54836 
L 672.836364 416.54836 
z
" clip-path="url(#p6fb9776d7a)" style="fill: #1f77b4; fill-opacity: 0.5; stroke: #000000; stroke-width: 2; stroke-linejoin: miter"/>
   </g>
   <g id="patch_44">
    <path d="M 687.265455 509.56 
L 701.694545 509.56 
L 701.694545 463.05418 
L 687.265455 463.05418 
z
" clip-path="url(#p6fb9776d7a)" style="fill: #1f77b4; fill-opacity: 0.5; stroke: #000000; stroke-width: 2; stroke-linejoin: miter"/>
   </g>
   <g id="patch_45">
    <path d="M 701.694545 509.56 
L 716.123636 509.56 
L 716.123636 509.56 
L 701.694545 509.56 
z
" clip-path="url(#p6fb9776d7a)" style="fill: #1f77b4; fill-opacity: 0.5; stroke: #000000; stroke-width: 2; stroke-linejoin: miter"/>
   </g>
   <g id="patch_46">
    <path d="M 716.123636 509.56 
L 730.552727 509.56 
L 730.552727 509.56 
L 716.123636 509.56 
z
" clip-path="url(#p6fb9776d7a)" style="fill: #1f77b4; fill-opacity: 0.5; stroke: #000000; stroke-width: 2; stroke-linejoin: miter"/>
   </g>
   <g id="patch_47">
    <path d="M 730.552727 509.56 
L 744.981818 509.56 
L 744.981818 509.56 
L 730.552727 509.56 
z
" clip-path="url(#p6fb9776d7a)" style="fill: #1f77b4; fill-opacity: 0.5; stroke: #000000; stroke-width: 2; stroke-linejoin: miter"/>
   </g>
   <g id="patch_48">
    <path d="M 744.981818 509.56 
L 759.410909 509.56 
L 759.410909 463.05418 
L 744.981818 463.05418 
z
" clip-path="url(#p6fb9776d7a)" style="fill: #1f77b4; fill-opacity: 0.5; stroke: #000000; stroke-width: 2; stroke-linejoin: miter"/>
   </g>
   <g id="patch_49">
    <path d="M 759.410909 509.56 
L 773.84 509.56 
L 773.84 509.56 
L 759.410909 509.56 
z
" clip-path="url(#p6fb9776d7a)" style="fill: #1f77b4; fill-opacity: 0.5; stroke: #000000; stroke-width: 2; stroke-linejoin: miter"/>
   </g>
   <g id="patch_50">
    <path d="M 773.84 509.56 
L 788.269091 509.56 
L 788.269091 509.56 
L 773.84 509.56 
z
" clip-path="url(#p6fb9776d7a)" style="fill: #1f77b4; fill-opacity: 0.5; stroke: #000000; stroke-width: 2; stroke-linejoin: miter"/>
   </g>
   <g id="patch_51">
    <path d="M 788.269091 509.56 
L 802.698182 509.56 
L 802.698182 463.05418 
L 788.269091 463.05418 
z
" clip-path="url(#p6fb9776d7a)" style="fill: #1f77b4; fill-opacity: 0.5; stroke: #000000; stroke-width: 2; stroke-linejoin: miter"/>
   </g>
   <g id="patch_52">
    <path d="M 802.698182 509.56 
L 817.127273 509.56 
L 817.127273 463.05418 
L 802.698182 463.05418 
z
" clip-path="url(#p6fb9776d7a)" style="fill: #1f77b4; fill-opacity: 0.5; stroke: #000000; stroke-width: 2; stroke-linejoin: miter"/>
   </g>
   <g id="matplotlib.axis_1">
    <g id="xtick_1">
     <g id="line2d_1">
      <defs>
       <path id="m2625a8998e" d="M 0 0 
L 0 3.5 
" style="stroke: #000000; stroke-width: 0.8"/>
      </defs>
      <g>
       <use xlink:href="#m2625a8998e" x="127.232955" y="509.56" style="stroke: #000000; stroke-width: 0.8"/>
      </g>
     </g>
     <g id="text_1">
      <!-- −1 -->
      <g transform="translate(111.016548 533.276562) scale(0.22 -0.22)">
       <defs>
        <path id="DejaVuSans-2212" d="M 678 2272 
L 4684 2272 
L 4684 1741 
L 678 1741 
L 678 2272 
z
" transform="scale(0.015625)"/>
        <path id="DejaVuSans-31" d="M 794 531 
L 1825 531 
L 1825 4091 
L 703 3866 
L 703 4441 
L 1819 4666 
L 2450 4666 
L 2450 531 
L 3481 531 
L 3481 0 
L 794 0 
L 794 531 
z
" transform="scale(0.015625)"/>
       </defs>
       <use xlink:href="#DejaVuSans-2212"/>
       <use xlink:href="#DejaVuSans-31" x="83.789062"/>
      </g>
     </g>
    </g>
    <g id="xtick_2">
     <g id="line2d_2">
      <g>
       <use xlink:href="#m2625a8998e" x="266.461512" y="509.56" style="stroke: #000000; stroke-width: 0.8"/>
      </g>
     </g>
     <g id="text_2">
      <!-- 0 -->
      <g transform="translate(259.462762 533.276562) scale(0.22 -0.22)">
       <defs>
        <path id="DejaVuSans-30" d="M 2034 4250 
Q 1547 4250 1301 3770 
Q 1056 3291 1056 2328 
Q 1056 1369 1301 889 
Q 1547 409 2034 409 
Q 2525 409 2770 889 
Q 3016 1369 3016 2328 
Q 3016 3291 2770 3770 
Q 2525 4250 2034 4250 
z
M 2034 4750 
Q 2819 4750 3233 4129 
Q 3647 3509 3647 2328 
Q 3647 1150 3233 529 
Q 2819 -91 2034 -91 
Q 1250 -91 836 529 
Q 422 1150 422 2328 
Q 422 3509 836 4129 
Q 1250 4750 2034 4750 
z
" transform="scale(0.015625)"/>
       </defs>
       <use xlink:href="#DejaVuSans-30"/>
      </g>
     </g>
    </g>
    <g id="xtick_3">
     <g id="line2d_3">
      <g>
       <use xlink:href="#m2625a8998e" x="405.690069" y="509.56" style="stroke: #000000; stroke-width: 0.8"/>
      </g>
     </g>
     <g id="text_3">
      <!-- 1 -->
      <g transform="translate(398.691319 533.276562) scale(0.22 -0.22)">
       <use xlink:href="#DejaVuSans-31"/>
      </g>
     </g>
    </g>
    <g id="xtick_4">
     <g id="line2d_4">
      <g>
       <use xlink:href="#m2625a8998e" x="544.918626" y="509.56" style="stroke: #000000; stroke-width: 0.8"/>
      </g>
     </g>
     <g id="text_4">
      <!-- 2 -->
      <g transform="translate(537.919876 533.276562) scale(0.22 -0.22)">
       <defs>
        <path id="DejaVuSans-32" d="M 1228 531 
L 3431 531 
L 3431 0 
L 469 0 
L 469 531 
Q 828 903 1448 1529 
Q 2069 2156 2228 2338 
Q 2531 2678 2651 2914 
Q 2772 3150 2772 3378 
Q 2772 3750 2511 3984 
Q 2250 4219 1831 4219 
Q 1534 4219 1204 4116 
Q 875 4013 500 3803 
L 500 4441 
Q 881 4594 1212 4672 
Q 1544 4750 1819 4750 
Q 2544 4750 2975 4387 
Q 3406 4025 3406 3419 
Q 3406 3131 3298 2873 
Q 3191 2616 2906 2266 
Q 2828 2175 2409 1742 
Q 1991 1309 1228 531 
z
" transform="scale(0.015625)"/>
       </defs>
       <use xlink:href="#DejaVuSans-32"/>
      </g>
     </g>
    </g>
    <g id="xtick_5">
     <g id="line2d_5">
      <g>
       <use xlink:href="#m2625a8998e" x="684.147183" y="509.56" style="stroke: #000000; stroke-width: 0.8"/>
      </g>
     </g>
     <g id="text_5">
      <!-- 3 -->
      <g transform="translate(677.148433 533.276562) scale(0.22 -0.22)">
       <defs>
        <path id="DejaVuSans-33" d="M 2597 2516 
Q 3050 2419 3304 2112 
Q 3559 1806 3559 1356 
Q 3559 666 3084 287 
Q 2609 -91 1734 -91 
Q 1441 -91 1130 -33 
Q 819 25 488 141 
L 488 750 
Q 750 597 1062 519 
Q 1375 441 1716 441 
Q 2309 441 2620 675 
Q 2931 909 2931 1356 
Q 2931 1769 2642 2001 
Q 2353 2234 1838 2234 
L 1294 2234 
L 1294 2753 
L 1863 2753 
Q 2328 2753 2575 2939 
Q 2822 3125 2822 3475 
Q 2822 3834 2567 4026 
Q 2313 4219 1838 4219 
Q 1578 4219 1281 4162 
Q 984 4106 628 3988 
L 628 4550 
Q 988 4650 1302 4700 
Q 1616 4750 1894 4750 
Q 2613 4750 3031 4423 
Q 3450 4097 3450 3541 
Q 3450 3153 3228 2886 
Q 3006 2619 2597 2516 
z
" transform="scale(0.015625)"/>
       </defs>
       <use xlink:href="#DejaVuSans-33"/>
      </g>
     </g>
    </g>
    <g id="xtick_6">
     <g id="line2d_6">
      <g>
       <use xlink:href="#m2625a8998e" x="823.37574" y="509.56" style="stroke: #000000; stroke-width: 0.8"/>
      </g>
     </g>
     <g id="text_6">
      <!-- 4 -->
      <g transform="translate(816.37699 533.276562) scale(0.22 -0.22)">
       <defs>
        <path id="DejaVuSans-34" d="M 2419 4116 
L 825 1625 
L 2419 1625 
L 2419 4116 
z
M 2253 4666 
L 3047 4666 
L 3047 1625 
L 3713 1625 
L 3713 1100 
L 3047 1100 
L 3047 0 
L 2419 0 
L 2419 1100 
L 313 1100 
L 313 1709 
L 2253 4666 
z
" transform="scale(0.015625)"/>
       </defs>
       <use xlink:href="#DejaVuSans-34"/>
      </g>
     </g>
    </g>
    <g id="text_7">
     <!-- Value -->
     <g transform="translate(418.879375 560.088125) scale(0.24 -0.24)">
      <defs>
       <path id="DejaVuSans-Bold-56" d="M 31 4666 
L 1241 4666 
L 2478 1222 
L 3713 4666 
L 4922 4666 
L 3194 0 
L 1759 0 
L 31 4666 
z
" transform="scale(0.015625)"/>
       <path id="DejaVuSans-Bold-61" d="M 2106 1575 
Q 1756 1575 1579 1456 
Q 1403 1338 1403 1106 
Q 1403 894 1545 773 
Q 1688 653 1941 653 
Q 2256 653 2472 879 
Q 2688 1106 2688 1447 
L 2688 1575 
L 2106 1575 
z
M 3816 1997 
L 3816 0 
L 2688 0 
L 2688 519 
Q 2463 200 2181 54 
Q 1900 -91 1497 -91 
Q 953 -91 614 226 
Q 275 544 275 1050 
Q 275 1666 698 1953 
Q 1122 2241 2028 2241 
L 2688 2241 
L 2688 2328 
Q 2688 2594 2478 2717 
Q 2269 2841 1825 2841 
Q 1466 2841 1156 2769 
Q 847 2697 581 2553 
L 581 3406 
Q 941 3494 1303 3539 
Q 1666 3584 2028 3584 
Q 2975 3584 3395 3211 
Q 3816 2838 3816 1997 
z
" transform="scale(0.015625)"/>
       <path id="DejaVuSans-Bold-6c" d="M 538 4863 
L 1656 4863 
L 1656 0 
L 538 0 
L 538 4863 
z
" transform="scale(0.015625)"/>
       <path id="DejaVuSans-Bold-75" d="M 500 1363 
L 500 3500 
L 1625 3500 
L 1625 3150 
Q 1625 2866 1622 2436 
Q 1619 2006 1619 1863 
Q 1619 1441 1641 1255 
Q 1663 1069 1716 984 
Q 1784 875 1895 815 
Q 2006 756 2150 756 
Q 2500 756 2700 1025 
Q 2900 1294 2900 1772 
L 2900 3500 
L 4019 3500 
L 4019 0 
L 2900 0 
L 2900 506 
Q 2647 200 2364 54 
Q 2081 -91 1741 -91 
Q 1134 -91 817 281 
Q 500 653 500 1363 
z
" transform="scale(0.015625)"/>
       <path id="DejaVuSans-Bold-65" d="M 4031 1759 
L 4031 1441 
L 1416 1441 
Q 1456 1047 1700 850 
Q 1944 653 2381 653 
Q 2734 653 3104 758 
Q 3475 863 3866 1075 
L 3866 213 
Q 3469 63 3072 -14 
Q 2675 -91 2278 -91 
Q 1328 -91 801 392 
Q 275 875 275 1747 
Q 275 2603 792 3093 
Q 1309 3584 2216 3584 
Q 3041 3584 3536 3087 
Q 4031 2591 4031 1759 
z
M 2881 2131 
Q 2881 2450 2695 2645 
Q 2509 2841 2209 2841 
Q 1884 2841 1681 2658 
Q 1478 2475 1428 2131 
L 2881 2131 
z
" transform="scale(0.015625)"/>
      </defs>
      <use xlink:href="#DejaVuSans-Bold-56"/>
      <use xlink:href="#DejaVuSans-Bold-61" x="71.892578"/>
      <use xlink:href="#DejaVuSans-Bold-6c" x="139.373047"/>
      <use xlink:href="#DejaVuSans-Bold-75" x="173.650391"/>
      <use xlink:href="#DejaVuSans-Bold-65" x="244.841797"/>
     </g>
    </g>
   </g>
   <g id="matplotlib.axis_2">
    <g id="ytick_1">
     <g id="line2d_7">
      <defs>
       <path id="m2521237bab" d="M 0 0 
L -3.5 0 
" style="stroke: #000000; stroke-width: 0.8"/>
      </defs>
      <g>
       <use xlink:href="#m2521237bab" x="59.6" y="509.56" style="stroke: #000000; stroke-width: 0.8"/>
      </g>
     </g>
     <g id="text_8">
      <!-- 0 -->
      <g transform="translate(38.6025 517.918281) scale(0.22 -0.22)">
       <use xlink:href="#DejaVuSans-30"/>
      </g>
     </g>
    </g>
    <g id="ytick_2">
     <g id="line2d_8">
      <g>
       <use xlink:href="#m2521237bab" x="59.6" y="416.54836" style="stroke: #000000; stroke-width: 0.8"/>
      </g>
     </g>
     <g id="text_9">
      <!-- 2 -->
      <g transform="translate(38.6025 424.906641) scale(0.22 -0.22)">
       <use xlink:href="#DejaVuSans-32"/>
      </g>
     </g>
    </g>
    <g id="ytick_3">
     <g id="line2d_9">
      <g>
       <use xlink:href="#m2521237bab" x="59.6" y="323.53672" style="stroke: #000000; stroke-width: 0.8"/>
      </g>
     </g>
     <g id="text_10">
      <!-- 4 -->
      <g transform="translate(38.6025 331.895001) scale(0.22 -0.22)">
       <use xlink:href="#DejaVuSans-34"/>
      </g>
     </g>
    </g>
    <g id="ytick_4">
     <g id="line2d_10">
      <g>
       <use xlink:href="#m2521237bab" x="59.6" y="230.525079" style="stroke: #000000; stroke-width: 0.8"/>
      </g>
     </g>
     <g id="text_11">
      <!-- 6 -->
      <g transform="translate(38.6025 238.883361) scale(0.22 -0.22)">
       <defs>
        <path id="DejaVuSans-36" d="M 2113 2584 
Q 1688 2584 1439 2293 
Q 1191 2003 1191 1497 
Q 1191 994 1439 701 
Q 1688 409 2113 409 
Q 2538 409 2786 701 
Q 3034 994 3034 1497 
Q 3034 2003 2786 2293 
Q 2538 2584 2113 2584 
z
M 3366 4563 
L 3366 3988 
Q 3128 4100 2886 4159 
Q 2644 4219 2406 4219 
Q 1781 4219 1451 3797 
Q 1122 3375 1075 2522 
Q 1259 2794 1537 2939 
Q 1816 3084 2150 3084 
Q 2853 3084 3261 2657 
Q 3669 2231 3669 1497 
Q 3669 778 3244 343 
Q 2819 -91 2113 -91 
Q 1303 -91 875 529 
Q 447 1150 447 2328 
Q 447 3434 972 4092 
Q 1497 4750 2381 4750 
Q 2619 4750 2861 4703 
Q 3103 4656 3366 4563 
z
" transform="scale(0.015625)"/>
       </defs>
       <use xlink:href="#DejaVuSans-36"/>
      </g>
     </g>
    </g>
    <g id="ytick_5">
     <g id="line2d_11">
      <g>
       <use xlink:href="#m2521237bab" x="59.6" y="137.513439" style="stroke: #000000; stroke-width: 0.8"/>
      </g>
     </g>
     <g id="text_12">
      <!-- 8 -->
      <g transform="translate(38.6025 145.87172) scale(0.22 -0.22)">
       <defs>
        <path id="DejaVuSans-38" d="M 2034 2216 
Q 1584 2216 1326 1975 
Q 1069 1734 1069 1313 
Q 1069 891 1326 650 
Q 1584 409 2034 409 
Q 2484 409 2743 651 
Q 3003 894 3003 1313 
Q 3003 1734 2745 1975 
Q 2488 2216 2034 2216 
z
M 1403 2484 
Q 997 2584 770 2862 
Q 544 3141 544 3541 
Q 544 4100 942 4425 
Q 1341 4750 2034 4750 
Q 2731 4750 3128 4425 
Q 3525 4100 3525 3541 
Q 3525 3141 3298 2862 
Q 3072 2584 2669 2484 
Q 3125 2378 3379 2068 
Q 3634 1759 3634 1313 
Q 3634 634 3220 271 
Q 2806 -91 2034 -91 
Q 1263 -91 848 271 
Q 434 634 434 1313 
Q 434 1759 690 2068 
Q 947 2378 1403 2484 
z
M 1172 3481 
Q 1172 3119 1398 2916 
Q 1625 2713 2034 2713 
Q 2441 2713 2670 2916 
Q 2900 3119 2900 3481 
Q 2900 3844 2670 4047 
Q 2441 4250 2034 4250 
Q 1625 4250 1398 4047 
Q 1172 3844 1172 3481 
z
" transform="scale(0.015625)"/>
       </defs>
       <use xlink:href="#DejaVuSans-38"/>
      </g>
     </g>
    </g>
    <g id="text_13">
     <!-- Count -->
     <g transform="translate(29.61125 329.691875) rotate(-90) scale(0.24 -0.24)">
      <defs>
       <path id="DejaVuSans-Bold-43" d="M 4288 256 
Q 3956 84 3597 -3 
Q 3238 -91 2847 -91 
Q 1681 -91 1000 561 
Q 319 1213 319 2328 
Q 319 3447 1000 4098 
Q 1681 4750 2847 4750 
Q 3238 4750 3597 4662 
Q 3956 4575 4288 4403 
L 4288 3438 
Q 3953 3666 3628 3772 
Q 3303 3878 2944 3878 
Q 2300 3878 1931 3465 
Q 1563 3053 1563 2328 
Q 1563 1606 1931 1193 
Q 2300 781 2944 781 
Q 3303 781 3628 887 
Q 3953 994 4288 1222 
L 4288 256 
z
" transform="scale(0.015625)"/>
       <path id="DejaVuSans-Bold-6f" d="M 2203 2784 
Q 1831 2784 1636 2517 
Q 1441 2250 1441 1747 
Q 1441 1244 1636 976 
Q 1831 709 2203 709 
Q 2569 709 2762 976 
Q 2956 1244 2956 1747 
Q 2956 2250 2762 2517 
Q 2569 2784 2203 2784 
z
M 2203 3584 
Q 3106 3584 3614 3096 
Q 4122 2609 4122 1747 
Q 4122 884 3614 396 
Q 3106 -91 2203 -91 
Q 1297 -91 786 396 
Q 275 884 275 1747 
Q 275 2609 786 3096 
Q 1297 3584 2203 3584 
z
" transform="scale(0.015625)"/>
       <path id="DejaVuSans-Bold-6e" d="M 4056 2131 
L 4056 0 
L 2931 0 
L 2931 347 
L 2931 1631 
Q 2931 2084 2911 2256 
Q 2891 2428 2841 2509 
Q 2775 2619 2662 2680 
Q 2550 2741 2406 2741 
Q 2056 2741 1856 2470 
Q 1656 2200 1656 1722 
L 1656 0 
L 538 0 
L 538 3500 
L 1656 3500 
L 1656 2988 
Q 1909 3294 2193 3439 
Q 2478 3584 2822 3584 
Q 3428 3584 3742 3212 
Q 4056 2841 4056 2131 
z
" transform="scale(0.015625)"/>
       <path id="DejaVuSans-Bold-74" d="M 1759 4494 
L 1759 3500 
L 2913 3500 
L 2913 2700 
L 1759 2700 
L 1759 1216 
Q 1759 972 1856 886 
Q 1953 800 2241 800 
L 2816 800 
L 2816 0 
L 1856 0 
Q 1194 0 917 276 
Q 641 553 641 1216 
L 641 2700 
L 84 2700 
L 84 3500 
L 641 3500 
L 641 4494 
L 1759 4494 
z
" transform="scale(0.015625)"/>
      </defs>
      <use xlink:href="#DejaVuSans-Bold-43"/>
      <use xlink:href="#DejaVuSans-Bold-6f" x="73.388672"/>
      <use xlink:href="#DejaVuSans-Bold-75" x="142.089844"/>
      <use xlink:href="#DejaVuSans-Bold-6e" x="213.28125"/>
      <use xlink:href="#DejaVuSans-Bold-74" x="284.472656"/>
     </g>
    </g>
   </g>
   <g id="line2d_12">
    <path d="M 95.672727 485.72419 
L 146.428323 471.497802 
L 157.304523 468.086904 
L 164.555322 465.629564 
L 171.806122 462.993325 
L 179.056921 460.155866 
L 186.30772 457.100613 
L 193.55852 453.816943 
L 200.809319 450.299716 
L 208.060119 446.54823 
L 215.310918 442.564807 
L 222.561718 438.353248 
L 229.812517 433.917416 
L 237.063317 429.260186 
L 244.314116 424.382936 
L 251.564915 419.285702 
L 258.815715 413.967969 
L 266.066514 408.430041 
L 273.317314 402.674804 
L 280.568113 396.709654 
L 291.444312 387.400614 
L 302.320512 377.733269 
L 320.44751 361.193669 
L 334.949109 348.091276 
L 342.199909 341.776022 
L 349.450708 335.723153 
L 356.701508 330.015581 
L 363.952307 324.737918 
L 367.577707 322.286902 
L 371.203106 319.975223 
L 374.828506 317.813368 
L 378.453906 315.811674 
L 382.079306 313.980282 
L 385.704705 312.329072 
L 389.330105 310.867602 
L 392.955505 309.605036 
L 396.580905 308.550069 
L 400.206304 307.710841 
L 403.831704 307.094855 
L 407.457104 306.708882 
L 411.082503 306.558869 
L 414.707903 306.649851 
L 418.333303 306.985854 
L 421.958703 307.569813 
L 425.584102 308.40349 
L 429.209502 309.487403 
L 432.834902 310.820764 
L 436.460302 312.40143 
L 440.085701 314.225875 
L 443.711101 316.289166 
L 447.336501 318.584964 
L 450.9619 321.105545 
L 454.5873 323.841829 
L 458.2127 326.783439 
L 461.8381 329.918765 
L 465.463499 333.235054 
L 472.714299 340.354391 
L 479.965098 348.02063 
L 487.215898 356.102178 
L 498.092097 368.700891 
L 516.219095 389.822025 
L 523.469895 397.938501 
L 530.720694 405.696501 
L 537.971494 413.003204 
L 545.222293 419.782457 
L 548.847693 422.955349 
L 552.473093 425.975961 
L 556.098492 428.839929 
L 559.723892 431.544085 
L 563.349292 434.086468 
L 566.974692 436.466325 
L 570.600091 438.684104 
L 574.225491 440.741446 
L 577.850891 442.641169 
L 581.476291 444.387237 
L 585.10169 445.984729 
L 588.72709 447.439793 
L 592.35249 448.759587 
L 595.977889 449.952215 
L 603.228689 451.992601 
L 610.479488 453.641265 
L 617.730288 454.987189 
L 628.606487 456.642865 
L 650.358885 459.739797 
L 657.609685 460.972726 
L 664.860484 462.383832 
L 672.111284 463.991553 
L 679.362083 465.795137 
L 686.612883 467.77632 
L 697.489082 471.006188 
L 730.117679 481.055182 
L 740.993878 484.023233 
L 748.244678 485.813539 
L 755.495477 487.445428 
L 766.371677 489.609997 
L 777.247876 491.48321 
L 791.749475 493.661173 
L 813.501873 496.615906 
L 817.127273 497.099359 
L 817.127273 497.099359 
" clip-path="url(#p6fb9776d7a)" style="fill: none; stroke: #1f77b4; stroke-width: 1.5; stroke-linecap: square"/>
   </g>
   <g id="patch_53">
    <path d="M 59.6 509.56 
L 59.6 70.08 
" style="fill: none; stroke: #000000; stroke-width: 0.8; stroke-linejoin: miter; stroke-linecap: square"/>
   </g>
   <g id="patch_54">
    <path d="M 853.2 509.56 
L 853.2 70.08 
" style="fill: none; stroke: #000000; stroke-width: 0.8; stroke-linejoin: miter; stroke-linecap: square"/>
   </g>
   <g id="patch_55">
    <path d="M 59.6 509.56 
L 853.2 509.56 
" style="fill: none; stroke: #000000; stroke-width: 0.8; stroke-linejoin: miter; stroke-linecap: square"/>
   </g>
   <g id="patch_56">
    <path d="M 59.6 70.08 
L 853.2 70.08 
" style="fill: none; stroke: #000000; stroke-width: 0.8; stroke-linejoin: miter; stroke-linecap: square"/>
   </g>
   <g id="text_14">
    <!-- Demo (ideal) Histogram #1 -->
    <g transform="translate(241.502187 32.507375) scale(0.28 -0.28)">
     <defs>
      <path id="DejaVuSans-Bold-44" d="M 1791 3756 
L 1791 909 
L 2222 909 
Q 2959 909 3348 1275 
Q 3738 1641 3738 2338 
Q 3738 3031 3350 3393 
Q 2963 3756 2222 3756 
L 1791 3756 
z
M 588 4666 
L 1856 4666 
Q 2919 4666 3439 4514 
Q 3959 4363 4331 4000 
Q 4659 3684 4818 3271 
Q 4978 2859 4978 2338 
Q 4978 1809 4818 1395 
Q 4659 981 4331 666 
Q 3956 303 3431 151 
Q 2906 0 1856 0 
L 588 0 
L 588 4666 
z
" transform="scale(0.015625)"/>
      <path id="DejaVuSans-Bold-6d" d="M 3781 2919 
Q 3994 3244 4286 3414 
Q 4578 3584 4928 3584 
Q 5531 3584 5847 3212 
Q 6163 2841 6163 2131 
L 6163 0 
L 5038 0 
L 5038 1825 
Q 5041 1866 5042 1909 
Q 5044 1953 5044 2034 
Q 5044 2406 4934 2573 
Q 4825 2741 4581 2741 
Q 4263 2741 4089 2478 
Q 3916 2216 3909 1719 
L 3909 0 
L 2784 0 
L 2784 1825 
Q 2784 2406 2684 2573 
Q 2584 2741 2328 2741 
Q 2006 2741 1831 2477 
Q 1656 2213 1656 1722 
L 1656 0 
L 531 0 
L 531 3500 
L 1656 3500 
L 1656 2988 
Q 1863 3284 2130 3434 
Q 2397 3584 2719 3584 
Q 3081 3584 3359 3409 
Q 3638 3234 3781 2919 
z
" transform="scale(0.015625)"/>
      <path id="DejaVuSans-Bold-20" transform="scale(0.015625)"/>
      <path id="DejaVuSans-Bold-28" d="M 2413 -844 
L 1484 -844 
Q 1006 -72 778 623 
Q 550 1319 550 2003 
Q 550 2688 779 3389 
Q 1009 4091 1484 4856 
L 2413 4856 
Q 2013 4116 1813 3408 
Q 1613 2700 1613 2009 
Q 1613 1319 1811 609 
Q 2009 -100 2413 -844 
z
" transform="scale(0.015625)"/>
      <path id="DejaVuSans-Bold-69" d="M 538 3500 
L 1656 3500 
L 1656 0 
L 538 0 
L 538 3500 
z
M 538 4863 
L 1656 4863 
L 1656 3950 
L 538 3950 
L 538 4863 
z
" transform="scale(0.015625)"/>
      <path id="DejaVuSans-Bold-64" d="M 2919 2988 
L 2919 4863 
L 4044 4863 
L 4044 0 
L 2919 0 
L 2919 506 
Q 2688 197 2409 53 
Q 2131 -91 1766 -91 
Q 1119 -91 703 423 
Q 288 938 288 1747 
Q 288 2556 703 3070 
Q 1119 3584 1766 3584 
Q 2128 3584 2408 3439 
Q 2688 3294 2919 2988 
z
M 2181 722 
Q 2541 722 2730 984 
Q 2919 1247 2919 1747 
Q 2919 2247 2730 2509 
Q 2541 2772 2181 2772 
Q 1825 2772 1636 2509 
Q 1447 2247 1447 1747 
Q 1447 1247 1636 984 
Q 1825 722 2181 722 
z
" transform="scale(0.015625)"/>
      <path id="DejaVuSans-Bold-29" d="M 513 -844 
Q 913 -100 1113 609 
Q 1313 1319 1313 2009 
Q 1313 2700 1113 3408 
Q 913 4116 513 4856 
L 1441 4856 
Q 1916 4091 2145 3389 
Q 2375 2688 2375 2003 
Q 2375 1319 2147 623 
Q 1919 -72 1441 -844 
L 513 -844 
z
" transform="scale(0.015625)"/>
      <path id="DejaVuSans-Bold-48" d="M 588 4666 
L 1791 4666 
L 1791 2888 
L 3566 2888 
L 3566 4666 
L 4769 4666 
L 4769 0 
L 3566 0 
L 3566 1978 
L 1791 1978 
L 1791 0 
L 588 0 
L 588 4666 
z
" transform="scale(0.015625)"/>
      <path id="DejaVuSans-Bold-73" d="M 3272 3391 
L 3272 2541 
Q 2913 2691 2578 2766 
Q 2244 2841 1947 2841 
Q 1628 2841 1473 2761 
Q 1319 2681 1319 2516 
Q 1319 2381 1436 2309 
Q 1553 2238 1856 2203 
L 2053 2175 
Q 2913 2066 3209 1816 
Q 3506 1566 3506 1031 
Q 3506 472 3093 190 
Q 2681 -91 1863 -91 
Q 1516 -91 1145 -36 
Q 775 19 384 128 
L 384 978 
Q 719 816 1070 734 
Q 1422 653 1784 653 
Q 2113 653 2278 743 
Q 2444 834 2444 1013 
Q 2444 1163 2330 1236 
Q 2216 1309 1875 1350 
L 1678 1375 
Q 931 1469 631 1722 
Q 331 1975 331 2491 
Q 331 3047 712 3315 
Q 1094 3584 1881 3584 
Q 2191 3584 2531 3537 
Q 2872 3491 3272 3391 
z
" transform="scale(0.015625)"/>
      <path id="DejaVuSans-Bold-67" d="M 2919 594 
Q 2688 288 2409 144 
Q 2131 0 1766 0 
Q 1125 0 706 504 
Q 288 1009 288 1791 
Q 288 2575 706 3076 
Q 1125 3578 1766 3578 
Q 2131 3578 2409 3434 
Q 2688 3291 2919 2981 
L 2919 3500 
L 4044 3500 
L 4044 353 
Q 4044 -491 3511 -936 
Q 2978 -1381 1966 -1381 
Q 1638 -1381 1331 -1331 
Q 1025 -1281 716 -1178 
L 716 -306 
Q 1009 -475 1290 -558 
Q 1572 -641 1856 -641 
Q 2406 -641 2662 -400 
Q 2919 -159 2919 353 
L 2919 594 
z
M 2181 2772 
Q 1834 2772 1640 2515 
Q 1447 2259 1447 1791 
Q 1447 1309 1634 1061 
Q 1822 813 2181 813 
Q 2531 813 2725 1069 
Q 2919 1325 2919 1791 
Q 2919 2259 2725 2515 
Q 2531 2772 2181 2772 
z
" transform="scale(0.015625)"/>
      <path id="DejaVuSans-Bold-72" d="M 3138 2547 
Q 2991 2616 2845 2648 
Q 2700 2681 2553 2681 
Q 2122 2681 1889 2404 
Q 1656 2128 1656 1613 
L 1656 0 
L 538 0 
L 538 3500 
L 1656 3500 
L 1656 2925 
Q 1872 3269 2151 3426 
Q 2431 3584 2822 3584 
Q 2878 3584 2943 3579 
Q 3009 3575 3134 3559 
L 3138 2547 
z
" transform="scale(0.015625)"/>
      <path id="DejaVuSans-Bold-23" d="M 2847 4594 
L 2547 3391 
L 3372 3391 
L 3675 4594 
L 4366 4594 
L 4063 3391 
L 4928 3391 
L 4928 2725 
L 3897 2725 
L 3681 1869 
L 4569 1869 
L 4569 1197 
L 3519 1197 
L 3219 0 
L 2528 0 
L 2828 1197 
L 2003 1197 
L 1703 0 
L 1006 0 
L 1306 1197 
L 434 1197 
L 434 1869 
L 1459 1869 
L 1678 2725 
L 794 2725 
L 794 3391 
L 1850 3391 
L 2150 4594 
L 2847 4594 
z
M 3200 2725 
L 2375 2725 
L 2156 1869 
L 2981 1869 
L 3200 2725 
z
" transform="scale(0.015625)"/>
      <path id="DejaVuSans-Bold-31" d="M 750 831 
L 1813 831 
L 1813 3847 
L 722 3622 
L 722 4441 
L 1806 4666 
L 2950 4666 
L 2950 831 
L 4013 831 
L 4013 0 
L 750 0 
L 750 831 
z
" transform="scale(0.015625)"/>
     </defs>
     <use xlink:href="#DejaVuSans-Bold-44"/>
     <use xlink:href="#DejaVuSans-Bold-65" x="83.007812"/>
     <use xlink:href="#DejaVuSans-Bold-6d" x="150.830078"/>
     <use xlink:href="#DejaVuSans-Bold-6f" x="255.029297"/>
     <use xlink:href="#DejaVuSans-Bold-20" x="323.730469"/>
     <use xlink:href="#DejaVuSans-Bold-28" x="358.544922"/>
     <use xlink:href="#DejaVuSans-Bold-69" x="404.248047"/>
     <use xlink:href="#DejaVuSans-Bold-64" x="438.525391"/>
     <use xlink:href="#DejaVuSans-Bold-65" x="510.107422"/>
     <use xlink:href="#DejaVuSans-Bold-61" x="577.929688"/>
     <use xlink:href="#DejaVuSans-Bold-6c" x="645.410156"/>
     <use xlink:href="#DejaVuSans-Bold-29" x="679.6875"/>
     <use xlink:href="#DejaVuSans-Bold-20" x="725.390625"/>
     <use xlink:href="#DejaVuSans-Bold-48" x="760.205078"/>
     <use xlink:href="#DejaVuSans-Bold-69" x="843.896484"/>
     <use xlink:href="#DejaVuSans-Bold-73" x="878.173828"/>
     <use xlink:href="#DejaVuSans-Bold-74" x="937.695312"/>
     <use xlink:href="#DejaVuSans-Bold-6f" x="985.498047"/>
     <use xlink:href="#DejaVuSans-Bold-67" x="1054.199219"/>
     <use xlink:href="#DejaVuSans-Bold-72" x="1125.78125"/>
     <use xlink:href="#DejaVuSans-Bold-61" x="1175.097656"/>
     <use xlink:href="#DejaVuSans-Bold-6d" x="1242.578125"/>
     <use xlink:href="#DejaVuSans-Bold-20" x="1346.777344"/>
     <use xlink:href="#DejaVuSans-Bold-23" x="1381.591797"/>
     <use xlink:href="#DejaVuSans-Bold-31" x="1465.380859"/>
    </g>
    <!-- μ=1.00, σ=1.00 -->
    <g transform="translate(332.460625 64.08) scale(0.28 -0.28)">
     <defs>
      <path id="DejaVuSans-Bold-3bc" d="M 544 -1338 
L 544 3500 
L 1672 3500 
L 1672 1466 
Q 1672 1103 1828 926 
Q 1984 750 2303 750 
Q 2625 750 2781 926 
Q 2938 1103 2938 1466 
L 2938 3500 
L 4063 3500 
L 4063 1159 
Q 4063 938 4114 850 
Q 4166 763 4288 763 
Q 4344 763 4395 778 
Q 4447 794 4506 831 
L 4506 50 
Q 4341 -22 4195 -56 
Q 4050 -91 3909 -91 
Q 3631 -91 3454 26 
Q 3278 144 3169 403 
Q 3022 156 2811 32 
Q 2600 -91 2322 -91 
Q 2091 -91 1928 -17 
Q 1766 56 1672 206 
L 1672 -1338 
L 544 -1338 
z
" transform="scale(0.015625)"/>
      <path id="DejaVuSans-Bold-3d" d="M 678 3084 
L 4684 3084 
L 4684 2350 
L 678 2350 
L 678 3084 
z
M 678 1663 
L 4684 1663 
L 4684 922 
L 678 922 
L 678 1663 
z
" transform="scale(0.015625)"/>
      <path id="DejaVuSans-Bold-2e" d="M 653 1209 
L 1778 1209 
L 1778 0 
L 653 0 
L 653 1209 
z
" transform="scale(0.015625)"/>
      <path id="DejaVuSans-Bold-30" d="M 2944 2338 
Q 2944 3213 2780 3570 
Q 2616 3928 2228 3928 
Q 1841 3928 1675 3570 
Q 1509 3213 1509 2338 
Q 1509 1453 1675 1090 
Q 1841 728 2228 728 
Q 2613 728 2778 1090 
Q 2944 1453 2944 2338 
z
M 4147 2328 
Q 4147 1169 3647 539 
Q 3147 -91 2228 -91 
Q 1306 -91 806 539 
Q 306 1169 306 2328 
Q 306 3491 806 4120 
Q 1306 4750 2228 4750 
Q 3147 4750 3647 4120 
Q 4147 3491 4147 2328 
z
" transform="scale(0.015625)"/>
      <path id="DejaVuSans-Bold-2c" d="M 653 1209 
L 1778 1209 
L 1778 256 
L 1006 -909 
L 341 -909 
L 653 256 
L 653 1209 
z
" transform="scale(0.015625)"/>
      <path id="DejaVuSans-Bold-3c3" d="M 2200 2784 
Q 1831 2784 1636 2517 
Q 1441 2250 1441 1747 
Q 1441 1244 1636 976 
Q 1831 709 2200 709 
Q 2569 709 2762 976 
Q 2956 1244 2956 1747 
Q 2956 2250 2762 2517 
Q 2569 2784 2200 2784 
z
M 4650 2700 
L 3916 2700 
Q 4122 2291 4122 1747 
Q 4122 884 3614 396 
Q 3106 -91 2203 -91 
Q 1297 -91 786 396 
Q 275 884 275 1747 
Q 275 2609 788 3097 
Q 1209 3500 2203 3500 
L 4650 3500 
L 4650 2700 
z
" transform="scale(0.015625)"/>
     </defs>
     <use xlink:href="#DejaVuSans-Bold-3bc"/>
     <use xlink:href="#DejaVuSans-Bold-3d" x="73.583984"/>
     <use xlink:href="#DejaVuSans-Bold-31" x="157.373047"/>
     <use xlink:href="#DejaVuSans-Bold-2e" x="226.953125"/>
     <use xlink:href="#DejaVuSans-Bold-30" x="264.941406"/>
     <use xlink:href="#DejaVuSans-Bold-30" x="334.521484"/>
     <use xlink:href="#DejaVuSans-Bold-2c" x="404.101562"/>
     <use xlink:href="#DejaVuSans-Bold-20" x="442.089844"/>
     <use xlink:href="#DejaVuSans-Bold-3c3" x="476.904297"/>
     <use xlink:href="#DejaVuSans-Bold-3d" x="554.785156"/>
     <use xlink:href="#DejaVuSans-Bold-31" x="638.574219"/>
     <use xlink:href="#DejaVuSans-Bold-2e" x="708.154297"/>
     <use xlink:href="#DejaVuSans-Bold-30" x="746.142578"/>
     <use xlink:href="#DejaVuSans-Bold-30" x="815.722656"/>
    </g>
   </g>
  </g>
 </g>
 <defs>
  <clipPath id="p6fb9776d7a">
   <rect x="59.6" y="70.08" width="793.6" height="439.48"/>
  </clipPath>
 </defs>
</svg>
