<?xml version="1.0" encoding="utf-8" standalone="no"?>
<!DOCTYPE svg PUBLIC "-//W3C//DTD SVG 1.1//EN"
  "http://www.w3.org/Graphics/SVG/1.1/DTD/svg11.dtd">
<svg xmlns:xlink="http://www.w3.org/1999/xlink" width="864pt" height="576pt" viewBox="0 0 864 576" xmlns="http://www.w3.org/2000/svg" version="1.1">
 <metadata>
  <rdf:RDF xmlns:dc="http://purl.org/dc/elements/1.1/" xmlns:cc="http://creativecommons.org/ns#" xmlns:rdf="http://www.w3.org/1999/02/22-rdf-syntax-ns#">
   <cc:Work>
    <dc:type rdf:resource="http://purl.org/dc/dcmitype/StillImage"/>
    <dc:date>2025-07-05T17:38:55.951074</dc:date>
    <dc:format>image/svg+xml</dc:format>
    <dc:creator>
     <cc:Agent>
      <dc:title>Matplotlib v3.10.3, https://matplotlib.org/</dc:title>
     </cc:Agent>
    </dc:creator>
   </cc:Work>
  </rdf:RDF>
 </metadata>
 <defs>
  <style type="text/css">*{stroke-linejoin: round; stroke-linecap: butt}</style>
 </defs>
 <g id="figure_1">
  <g id="patch_1">
   <path d="M 0 576 
L 864 576 
L 864 0 
L 0 0 
z
" style="fill: #ffffff"/>
  </g>
  <g id="axes_1">
   <g id="patch_2">
    <path d="M 73.55 509.56 
L 853.2 509.56 
L 853.2 38.4 
L 73.55 38.4 
z
" style="fill: #ffffff"/>
   </g>
   <g id="patch_3">
    <path d="M 108.988636 509.56 
L 123.164091 509.56 
L 123.164091 410.491107 
L 108.988636 410.491107 
z
" clip-path="url(#p4a09749ae4)" style="fill: #1f77b4; fill-opacity: 0.5; stroke: #000000; stroke-width: 2; stroke-linejoin: miter"/>
   </g>
   <g id="patch_4">
    <path d="M 123.164091 509.56 
L 137.339545 509.56 
L 137.339545 323.077378 
L 123.164091 323.077378 
z
" clip-path="url(#p4a09749ae4)" style="fill: #1f77b4; fill-opacity: 0.5; stroke: #000000; stroke-width: 2; stroke-linejoin: miter"/>
   </g>
   <g id="patch_5">
    <path d="M 137.339545 509.56 
L 151.515 509.56 
L 151.515 247.318813 
L 137.339545 247.318813 
z
" clip-path="url(#p4a09749ae4)" style="fill: #1f77b4; fill-opacity: 0.5; stroke: #000000; stroke-width: 2; stroke-linejoin: miter"/>
   </g>
   <g id="patch_6">
    <path d="M 151.515 509.56 
L 165.690455 509.56 
L 165.690455 95.801682 
L 151.515 95.801682 
z
" clip-path="url(#p4a09749ae4)" style="fill: #1f77b4; fill-opacity: 0.5; stroke: #000000; stroke-width: 2; stroke-linejoin: miter"/>
   </g>
   <g id="patch_7">
    <path d="M 165.690455 509.56 
L 179.865909 509.56 
L 179.865909 171.560247 
L 165.690455 171.560247 
z
" clip-path="url(#p4a09749ae4)" style="fill: #1f77b4; fill-opacity: 0.5; stroke: #000000; stroke-width: 2; stroke-linejoin: miter"/>
   </g>
   <g id="patch_8">
    <path d="M 179.865909 509.56 
L 194.041364 509.56 
L 194.041364 247.318813 
L 179.865909 247.318813 
z
" clip-path="url(#p4a09749ae4)" style="fill: #1f77b4; fill-opacity: 0.5; stroke: #000000; stroke-width: 2; stroke-linejoin: miter"/>
   </g>
   <g id="patch_9">
    <path d="M 194.041364 509.56 
L 208.216818 509.56 
L 208.216818 387.180779 
L 194.041364 387.180779 
z
" clip-path="url(#p4a09749ae4)" style="fill: #1f77b4; fill-opacity: 0.5; stroke: #000000; stroke-width: 2; stroke-linejoin: miter"/>
   </g>
   <g id="patch_10">
    <path d="M 208.216818 509.56 
L 222.392273 509.56 
L 222.392273 422.146271 
L 208.216818 422.146271 
z
" clip-path="url(#p4a09749ae4)" style="fill: #1f77b4; fill-opacity: 0.5; stroke: #000000; stroke-width: 2; stroke-linejoin: miter"/>
   </g>
   <g id="patch_11">
    <path d="M 222.392273 509.56 
L 236.567727 509.56 
L 236.567727 486.249672 
L 222.392273 486.249672 
z
" clip-path="url(#p4a09749ae4)" style="fill: #1f77b4; fill-opacity: 0.5; stroke: #000000; stroke-width: 2; stroke-linejoin: miter"/>
   </g>
   <g id="patch_12">
    <path d="M 236.567727 509.56 
L 250.743182 509.56 
L 250.743182 509.56 
L 236.567727 509.56 
z
" clip-path="url(#p4a09749ae4)" style="fill: #1f77b4; fill-opacity: 0.5; stroke: #000000; stroke-width: 2; stroke-linejoin: miter"/>
   </g>
   <g id="patch_13">
    <path d="M 250.743182 509.56 
L 264.918636 509.56 
L 264.918636 509.56 
L 250.743182 509.56 
z
" clip-path="url(#p4a09749ae4)" style="fill: #1f77b4; fill-opacity: 0.5; stroke: #000000; stroke-width: 2; stroke-linejoin: miter"/>
   </g>
   <g id="patch_14">
    <path d="M 264.918636 509.56 
L 279.094091 509.56 
L 279.094091 509.56 
L 264.918636 509.56 
z
" clip-path="url(#p4a09749ae4)" style="fill: #1f77b4; fill-opacity: 0.5; stroke: #000000; stroke-width: 2; stroke-linejoin: miter"/>
   </g>
   <g id="patch_15">
    <path d="M 279.094091 509.56 
L 293.269545 509.56 
L 293.269545 509.56 
L 279.094091 509.56 
z
" clip-path="url(#p4a09749ae4)" style="fill: #1f77b4; fill-opacity: 0.5; stroke: #000000; stroke-width: 2; stroke-linejoin: miter"/>
   </g>
   <g id="patch_16">
    <path d="M 293.269545 509.56 
L 307.445 509.56 
L 307.445 503.732418 
L 293.269545 503.732418 
z
" clip-path="url(#p4a09749ae4)" style="fill: #1f77b4; fill-opacity: 0.5; stroke: #000000; stroke-width: 2; stroke-linejoin: miter"/>
   </g>
   <g id="patch_17">
    <path d="M 307.445 509.56 
L 321.620455 509.56 
L 321.620455 503.732418 
L 307.445 503.732418 
z
" clip-path="url(#p4a09749ae4)" style="fill: #1f77b4; fill-opacity: 0.5; stroke: #000000; stroke-width: 2; stroke-linejoin: miter"/>
   </g>
   <g id="patch_18">
    <path d="M 321.620455 509.56 
L 335.795909 509.56 
L 335.795909 497.904836 
L 321.620455 497.904836 
z
" clip-path="url(#p4a09749ae4)" style="fill: #1f77b4; fill-opacity: 0.5; stroke: #000000; stroke-width: 2; stroke-linejoin: miter"/>
   </g>
   <g id="patch_19">
    <path d="M 335.795909 509.56 
L 349.971364 509.56 
L 349.971364 427.973853 
L 335.795909 427.973853 
z
" clip-path="url(#p4a09749ae4)" style="fill: #1f77b4; fill-opacity: 0.5; stroke: #000000; stroke-width: 2; stroke-linejoin: miter"/>
   </g>
   <g id="patch_20">
    <path d="M 349.971364 509.56 
L 364.146818 509.56 
L 364.146818 299.76705 
L 349.971364 299.76705 
z
" clip-path="url(#p4a09749ae4)" style="fill: #1f77b4; fill-opacity: 0.5; stroke: #000000; stroke-width: 2; stroke-linejoin: miter"/>
   </g>
   <g id="patch_21">
    <path d="M 364.146818 509.56 
L 378.322273 509.56 
L 378.322273 200.698157 
L 364.146818 200.698157 
z
" clip-path="url(#p4a09749ae4)" style="fill: #1f77b4; fill-opacity: 0.5; stroke: #000000; stroke-width: 2; stroke-linejoin: miter"/>
   </g>
   <g id="patch_22">
    <path d="M 378.322273 509.56 
L 392.497727 509.56 
L 392.497727 60.83619 
L 378.322273 60.83619 
z
" clip-path="url(#p4a09749ae4)" style="fill: #1f77b4; fill-opacity: 0.5; stroke: #000000; stroke-width: 2; stroke-linejoin: miter"/>
   </g>
   <g id="patch_23">
    <path d="M 392.497727 509.56 
L 406.673182 509.56 
L 406.673182 148.24992 
L 392.497727 148.24992 
z
" clip-path="url(#p4a09749ae4)" style="fill: #1f77b4; fill-opacity: 0.5; stroke: #000000; stroke-width: 2; stroke-linejoin: miter"/>
   </g>
   <g id="patch_24">
    <path d="M 406.673182 509.56 
L 420.848636 509.56 
L 420.848636 224.008485 
L 406.673182 224.008485 
z
" clip-path="url(#p4a09749ae4)" style="fill: #1f77b4; fill-opacity: 0.5; stroke: #000000; stroke-width: 2; stroke-linejoin: miter"/>
   </g>
   <g id="patch_25">
    <path d="M 420.848636 509.56 
L 435.024091 509.56 
L 435.024091 439.629017 
L 420.848636 439.629017 
z
" clip-path="url(#p4a09749ae4)" style="fill: #1f77b4; fill-opacity: 0.5; stroke: #000000; stroke-width: 2; stroke-linejoin: miter"/>
   </g>
   <g id="patch_26">
    <path d="M 435.024091 509.56 
L 449.199545 509.56 
L 449.199545 433.801435 
L 435.024091 433.801435 
z
" clip-path="url(#p4a09749ae4)" style="fill: #1f77b4; fill-opacity: 0.5; stroke: #000000; stroke-width: 2; stroke-linejoin: miter"/>
   </g>
   <g id="patch_27">
    <path d="M 449.199545 509.56 
L 463.375 509.56 
L 463.375 492.077254 
L 449.199545 492.077254 
z
" clip-path="url(#p4a09749ae4)" style="fill: #1f77b4; fill-opacity: 0.5; stroke: #000000; stroke-width: 2; stroke-linejoin: miter"/>
   </g>
   <g id="patch_28">
    <path d="M 463.375 509.56 
L 477.550455 509.56 
L 477.550455 509.56 
L 463.375 509.56 
z
" clip-path="url(#p4a09749ae4)" style="fill: #1f77b4; fill-opacity: 0.5; stroke: #000000; stroke-width: 2; stroke-linejoin: miter"/>
   </g>
   <g id="patch_29">
    <path d="M 477.550455 509.56 
L 491.725909 509.56 
L 491.725909 509.56 
L 477.550455 509.56 
z
" clip-path="url(#p4a09749ae4)" style="fill: #1f77b4; fill-opacity: 0.5; stroke: #000000; stroke-width: 2; stroke-linejoin: miter"/>
   </g>
   <g id="patch_30">
    <path d="M 491.725909 509.56 
L 505.901364 509.56 
L 505.901364 509.56 
L 491.725909 509.56 
z
" clip-path="url(#p4a09749ae4)" style="fill: #1f77b4; fill-opacity: 0.5; stroke: #000000; stroke-width: 2; stroke-linejoin: miter"/>
   </g>
   <g id="patch_31">
    <path d="M 505.901364 509.56 
L 520.076818 509.56 
L 520.076818 509.56 
L 505.901364 509.56 
z
" clip-path="url(#p4a09749ae4)" style="fill: #1f77b4; fill-opacity: 0.5; stroke: #000000; stroke-width: 2; stroke-linejoin: miter"/>
   </g>
   <g id="patch_32">
    <path d="M 520.076818 509.56 
L 534.252273 509.56 
L 534.252273 509.56 
L 520.076818 509.56 
z
" clip-path="url(#p4a09749ae4)" style="fill: #1f77b4; fill-opacity: 0.5; stroke: #000000; stroke-width: 2; stroke-linejoin: miter"/>
   </g>
   <g id="patch_33">
    <path d="M 534.252273 509.56 
L 548.427727 509.56 
L 548.427727 509.56 
L 534.252273 509.56 
z
" clip-path="url(#p4a09749ae4)" style="fill: #1f77b4; fill-opacity: 0.5; stroke: #000000; stroke-width: 2; stroke-linejoin: miter"/>
   </g>
   <g id="patch_34">
    <path d="M 548.427727 509.56 
L 562.603182 509.56 
L 562.603182 509.56 
L 548.427727 509.56 
z
" clip-path="url(#p4a09749ae4)" style="fill: #1f77b4; fill-opacity: 0.5; stroke: #000000; stroke-width: 2; stroke-linejoin: miter"/>
   </g>
   <g id="patch_35">
    <path d="M 562.603182 509.56 
L 576.778636 509.56 
L 576.778636 509.56 
L 562.603182 509.56 
z
" clip-path="url(#p4a09749ae4)" style="fill: #1f77b4; fill-opacity: 0.5; stroke: #000000; stroke-width: 2; stroke-linejoin: miter"/>
   </g>
   <g id="patch_36">
    <path d="M 576.778636 509.56 
L 590.954091 509.56 
L 590.954091 509.56 
L 576.778636 509.56 
z
" clip-path="url(#p4a09749ae4)" style="fill: #1f77b4; fill-opacity: 0.5; stroke: #000000; stroke-width: 2; stroke-linejoin: miter"/>
   </g>
   <g id="patch_37">
    <path d="M 590.954091 509.56 
L 605.129545 509.56 
L 605.129545 509.56 
L 590.954091 509.56 
z
" clip-path="url(#p4a09749ae4)" style="fill: #1f77b4; fill-opacity: 0.5; stroke: #000000; stroke-width: 2; stroke-linejoin: miter"/>
   </g>
   <g id="patch_38">
    <path d="M 605.129545 509.56 
L 619.305 509.56 
L 619.305 509.56 
L 605.129545 509.56 
z
" clip-path="url(#p4a09749ae4)" style="fill: #1f77b4; fill-opacity: 0.5; stroke: #000000; stroke-width: 2; stroke-linejoin: miter"/>
   </g>
   <g id="patch_39">
    <path d="M 619.305 509.56 
L 633.480455 509.56 
L 633.480455 509.56 
L 619.305 509.56 
z
" clip-path="url(#p4a09749ae4)" style="fill: #1f77b4; fill-opacity: 0.5; stroke: #000000; stroke-width: 2; stroke-linejoin: miter"/>
   </g>
   <g id="patch_40">
    <path d="M 633.480455 509.56 
L 647.655909 509.56 
L 647.655909 509.56 
L 633.480455 509.56 
z
" clip-path="url(#p4a09749ae4)" style="fill: #1f77b4; fill-opacity: 0.5; stroke: #000000; stroke-width: 2; stroke-linejoin: miter"/>
   </g>
   <g id="patch_41">
    <path d="M 647.655909 509.56 
L 661.831364 509.56 
L 661.831364 509.56 
L 647.655909 509.56 
z
" clip-path="url(#p4a09749ae4)" style="fill: #1f77b4; fill-opacity: 0.5; stroke: #000000; stroke-width: 2; stroke-linejoin: miter"/>
   </g>
   <g id="patch_42">
    <path d="M 661.831364 509.56 
L 676.006818 509.56 
L 676.006818 497.904836 
L 661.831364 497.904836 
z
" clip-path="url(#p4a09749ae4)" style="fill: #1f77b4; fill-opacity: 0.5; stroke: #000000; stroke-width: 2; stroke-linejoin: miter"/>
   </g>
   <g id="patch_43">
    <path d="M 676.006818 509.56 
L 690.182273 509.56 
L 690.182273 503.732418 
L 676.006818 503.732418 
z
" clip-path="url(#p4a09749ae4)" style="fill: #1f77b4; fill-opacity: 0.5; stroke: #000000; stroke-width: 2; stroke-linejoin: miter"/>
   </g>
   <g id="patch_44">
    <path d="M 690.182273 509.56 
L 704.357727 509.56 
L 704.357727 503.732418 
L 690.182273 503.732418 
z
" clip-path="url(#p4a09749ae4)" style="fill: #1f77b4; fill-opacity: 0.5; stroke: #000000; stroke-width: 2; stroke-linejoin: miter"/>
   </g>
   <g id="patch_45">
    <path d="M 704.357727 509.56 
L 718.533182 509.56 
L 718.533182 416.318689 
L 704.357727 416.318689 
z
" clip-path="url(#p4a09749ae4)" style="fill: #1f77b4; fill-opacity: 0.5; stroke: #000000; stroke-width: 2; stroke-linejoin: miter"/>
   </g>
   <g id="patch_46">
    <path d="M 718.533182 509.56 
L 732.708636 509.56 
L 732.708636 224.008485 
L 718.533182 224.008485 
z
" clip-path="url(#p4a09749ae4)" style="fill: #1f77b4; fill-opacity: 0.5; stroke: #000000; stroke-width: 2; stroke-linejoin: miter"/>
   </g>
   <g id="patch_47">
    <path d="M 732.708636 509.56 
L 746.884091 509.56 
L 746.884091 142.422338 
L 732.708636 142.422338 
z
" clip-path="url(#p4a09749ae4)" style="fill: #1f77b4; fill-opacity: 0.5; stroke: #000000; stroke-width: 2; stroke-linejoin: miter"/>
   </g>
   <g id="patch_48">
    <path d="M 746.884091 509.56 
L 761.059545 509.56 
L 761.059545 113.284428 
L 746.884091 113.284428 
z
" clip-path="url(#p4a09749ae4)" style="fill: #1f77b4; fill-opacity: 0.5; stroke: #000000; stroke-width: 2; stroke-linejoin: miter"/>
   </g>
   <g id="patch_49">
    <path d="M 761.059545 509.56 
L 775.235 509.56 
L 775.235 124.939592 
L 761.059545 124.939592 
z
" clip-path="url(#p4a09749ae4)" style="fill: #1f77b4; fill-opacity: 0.5; stroke: #000000; stroke-width: 2; stroke-linejoin: miter"/>
   </g>
   <g id="patch_50">
    <path d="M 775.235 509.56 
L 789.410455 509.56 
L 789.410455 124.939592 
L 775.235 124.939592 
z
" clip-path="url(#p4a09749ae4)" style="fill: #1f77b4; fill-opacity: 0.5; stroke: #000000; stroke-width: 2; stroke-linejoin: miter"/>
   </g>
   <g id="patch_51">
    <path d="M 789.410455 509.56 
L 803.585909 509.56 
L 803.585909 358.04287 
L 789.410455 358.04287 
z
" clip-path="url(#p4a09749ae4)" style="fill: #1f77b4; fill-opacity: 0.5; stroke: #000000; stroke-width: 2; stroke-linejoin: miter"/>
   </g>
   <g id="patch_52">
    <path d="M 803.585909 509.56 
L 817.761364 509.56 
L 817.761364 445.456599 
L 803.585909 445.456599 
z
" clip-path="url(#p4a09749ae4)" style="fill: #1f77b4; fill-opacity: 0.5; stroke: #000000; stroke-width: 2; stroke-linejoin: miter"/>
   </g>
   <g id="matplotlib.axis_1">
    <g id="xtick_1">
     <g id="line2d_1">
      <defs>
       <path id="mca367c1207" d="M 0 0 
L 0 3.5 
" style="stroke: #000000; stroke-width: 0.8"/>
      </defs>
      <g>
       <use xlink:href="#mca367c1207" x="139.838156" y="509.56" style="stroke: #000000; stroke-width: 0.8"/>
      </g>
     </g>
     <g id="text_1">
      <!-- 0 -->
      <g transform="translate(132.839406 533.276562) scale(0.22 -0.22)">
       <defs>
        <path id="DejaVuSans-30" d="M 2034 4250 
Q 1547 4250 1301 3770 
Q 1056 3291 1056 2328 
Q 1056 1369 1301 889 
Q 1547 409 2034 409 
Q 2525 409 2770 889 
Q 3016 1369 3016 2328 
Q 3016 3291 2770 3770 
Q 2525 4250 2034 4250 
z
M 2034 4750 
Q 2819 4750 3233 4129 
Q 3647 3509 3647 2328 
Q 3647 1150 3233 529 
Q 2819 -91 2034 -91 
Q 1250 -91 836 529 
Q 422 1150 422 2328 
Q 422 3509 836 4129 
Q 1250 4750 2034 4750 
z
" transform="scale(0.015625)"/>
       </defs>
       <use xlink:href="#DejaVuSans-30"/>
      </g>
     </g>
    </g>
    <g id="xtick_2">
     <g id="line2d_2">
      <g>
       <use xlink:href="#mca367c1207" x="263.818337" y="509.56" style="stroke: #000000; stroke-width: 0.8"/>
      </g>
     </g>
     <g id="text_2">
      <!-- 5 -->
      <g transform="translate(256.819587 533.276562) scale(0.22 -0.22)">
       <defs>
        <path id="DejaVuSans-35" d="M 691 4666 
L 3169 4666 
L 3169 4134 
L 1269 4134 
L 1269 2991 
Q 1406 3038 1543 3061 
Q 1681 3084 1819 3084 
Q 2600 3084 3056 2656 
Q 3513 2228 3513 1497 
Q 3513 744 3044 326 
Q 2575 -91 1722 -91 
Q 1428 -91 1123 -41 
Q 819 9 494 109 
L 494 744 
Q 775 591 1075 516 
Q 1375 441 1709 441 
Q 2250 441 2565 725 
Q 2881 1009 2881 1497 
Q 2881 1984 2565 2268 
Q 2250 2553 1709 2553 
Q 1456 2553 1204 2497 
Q 953 2441 691 2322 
L 691 4666 
z
" transform="scale(0.015625)"/>
       </defs>
       <use xlink:href="#DejaVuSans-35"/>
      </g>
     </g>
    </g>
    <g id="xtick_3">
     <g id="line2d_3">
      <g>
       <use xlink:href="#mca367c1207" x="387.798518" y="509.56" style="stroke: #000000; stroke-width: 0.8"/>
      </g>
     </g>
     <g id="text_3">
      <!-- 10 -->
      <g transform="translate(373.801018 533.276562) scale(0.22 -0.22)">
       <defs>
        <path id="DejaVuSans-31" d="M 794 531 
L 1825 531 
L 1825 4091 
L 703 3866 
L 703 4441 
L 1819 4666 
L 2450 4666 
L 2450 531 
L 3481 531 
L 3481 0 
L 794 0 
L 794 531 
z
" transform="scale(0.015625)"/>
       </defs>
       <use xlink:href="#DejaVuSans-31"/>
       <use xlink:href="#DejaVuSans-30" transform="translate(63.623047 0)"/>
      </g>
     </g>
    </g>
    <g id="xtick_4">
     <g id="line2d_4">
      <g>
       <use xlink:href="#mca367c1207" x="511.778699" y="509.56" style="stroke: #000000; stroke-width: 0.8"/>
      </g>
     </g>
     <g id="text_4">
      <!-- 15 -->
      <g transform="translate(497.781199 533.276562) scale(0.22 -0.22)">
       <use xlink:href="#DejaVuSans-31"/>
       <use xlink:href="#DejaVuSans-35" transform="translate(63.623047 0)"/>
      </g>
     </g>
    </g>
    <g id="xtick_5">
     <g id="line2d_5">
      <g>
       <use xlink:href="#mca367c1207" x="635.75888" y="509.56" style="stroke: #000000; stroke-width: 0.8"/>
      </g>
     </g>
     <g id="text_5">
      <!-- 20 -->
      <g transform="translate(621.76138 533.276562) scale(0.22 -0.22)">
       <defs>
        <path id="DejaVuSans-32" d="M 1228 531 
L 3431 531 
L 3431 0 
L 469 0 
L 469 531 
Q 828 903 1448 1529 
Q 2069 2156 2228 2338 
Q 2531 2678 2651 2914 
Q 2772 3150 2772 3378 
Q 2772 3750 2511 3984 
Q 2250 4219 1831 4219 
Q 1534 4219 1204 4116 
Q 875 4013 500 3803 
L 500 4441 
Q 881 4594 1212 4672 
Q 1544 4750 1819 4750 
Q 2544 4750 2975 4387 
Q 3406 4025 3406 3419 
Q 3406 3131 3298 2873 
Q 3191 2616 2906 2266 
Q 2828 2175 2409 1742 
Q 1991 1309 1228 531 
z
" transform="scale(0.015625)"/>
       </defs>
       <use xlink:href="#DejaVuSans-32"/>
       <use xlink:href="#DejaVuSans-30" transform="translate(63.623047 0)"/>
      </g>
     </g>
    </g>
    <g id="xtick_6">
     <g id="line2d_6">
      <g>
       <use xlink:href="#mca367c1207" x="759.739061" y="509.56" style="stroke: #000000; stroke-width: 0.8"/>
      </g>
     </g>
     <g id="text_6">
      <!-- 25 -->
      <g transform="translate(745.741561 533.276562) scale(0.22 -0.22)">
       <use xlink:href="#DejaVuSans-32"/>
       <use xlink:href="#DejaVuSans-35" transform="translate(63.623047 0)"/>
      </g>
     </g>
    </g>
    <g id="text_7">
     <!-- Value -->
     <g transform="translate(425.854375 560.088125) scale(0.24 -0.24)">
      <defs>
       <path id="DejaVuSans-Bold-56" d="M 31 4666 
L 1241 4666 
L 2478 1222 
L 3713 4666 
L 4922 4666 
L 3194 0 
L 1759 0 
L 31 4666 
z
" transform="scale(0.015625)"/>
       <path id="DejaVuSans-Bold-61" d="M 2106 1575 
Q 1756 1575 1579 1456 
Q 1403 1338 1403 1106 
Q 1403 894 1545 773 
Q 1688 653 1941 653 
Q 2256 653 2472 879 
Q 2688 1106 2688 1447 
L 2688 1575 
L 2106 1575 
z
M 3816 1997 
L 3816 0 
L 2688 0 
L 2688 519 
Q 2463 200 2181 54 
Q 1900 -91 1497 -91 
Q 953 -91 614 226 
Q 275 544 275 1050 
Q 275 1666 698 1953 
Q 1122 2241 2028 2241 
L 2688 2241 
L 2688 2328 
Q 2688 2594 2478 2717 
Q 2269 2841 1825 2841 
Q 1466 2841 1156 2769 
Q 847 2697 581 2553 
L 581 3406 
Q 941 3494 1303 3539 
Q 1666 3584 2028 3584 
Q 2975 3584 3395 3211 
Q 3816 2838 3816 1997 
z
" transform="scale(0.015625)"/>
       <path id="DejaVuSans-Bold-6c" d="M 538 4863 
L 1656 4863 
L 1656 0 
L 538 0 
L 538 4863 
z
" transform="scale(0.015625)"/>
       <path id="DejaVuSans-Bold-75" d="M 500 1363 
L 500 3500 
L 1625 3500 
L 1625 3150 
Q 1625 2866 1622 2436 
Q 1619 2006 1619 1863 
Q 1619 1441 1641 1255 
Q 1663 1069 1716 984 
Q 1784 875 1895 815 
Q 2006 756 2150 756 
Q 2500 756 2700 1025 
Q 2900 1294 2900 1772 
L 2900 3500 
L 4019 3500 
L 4019 0 
L 2900 0 
L 2900 506 
Q 2647 200 2364 54 
Q 2081 -91 1741 -91 
Q 1134 -91 817 281 
Q 500 653 500 1363 
z
" transform="scale(0.015625)"/>
       <path id="DejaVuSans-Bold-65" d="M 4031 1759 
L 4031 1441 
L 1416 1441 
Q 1456 1047 1700 850 
Q 1944 653 2381 653 
Q 2734 653 3104 758 
Q 3475 863 3866 1075 
L 3866 213 
Q 3469 63 3072 -14 
Q 2675 -91 2278 -91 
Q 1328 -91 801 392 
Q 275 875 275 1747 
Q 275 2603 792 3093 
Q 1309 3584 2216 3584 
Q 3041 3584 3536 3087 
Q 4031 2591 4031 1759 
z
M 2881 2131 
Q 2881 2450 2695 2645 
Q 2509 2841 2209 2841 
Q 1884 2841 1681 2658 
Q 1478 2475 1428 2131 
L 2881 2131 
z
" transform="scale(0.015625)"/>
      </defs>
      <use xlink:href="#DejaVuSans-Bold-56"/>
      <use xlink:href="#DejaVuSans-Bold-61" transform="translate(71.892578 0)"/>
      <use xlink:href="#DejaVuSans-Bold-6c" transform="translate(139.373047 0)"/>
      <use xlink:href="#DejaVuSans-Bold-75" transform="translate(173.650391 0)"/>
      <use xlink:href="#DejaVuSans-Bold-65" transform="translate(244.841797 0)"/>
     </g>
    </g>
   </g>
   <g id="matplotlib.axis_2">
    <g id="ytick_1">
     <g id="line2d_7">
      <defs>
       <path id="m55b0a50bd7" d="M 0 0 
L -3.5 0 
" style="stroke: #000000; stroke-width: 0.8"/>
      </defs>
      <g>
       <use xlink:href="#m55b0a50bd7" x="73.55" y="509.56" style="stroke: #000000; stroke-width: 0.8"/>
      </g>
     </g>
     <g id="text_8">
      <!-- 0 -->
      <g transform="translate(52.5525 517.918281) scale(0.22 -0.22)">
       <use xlink:href="#DejaVuSans-30"/>
      </g>
     </g>
    </g>
    <g id="ytick_2">
     <g id="line2d_8">
      <g>
       <use xlink:href="#m55b0a50bd7" x="73.55" y="451.284181" style="stroke: #000000; stroke-width: 0.8"/>
      </g>
     </g>
     <g id="text_9">
      <!-- 10 -->
      <g transform="translate(38.555 459.642462) scale(0.22 -0.22)">
       <use xlink:href="#DejaVuSans-31"/>
       <use xlink:href="#DejaVuSans-30" transform="translate(63.623047 0)"/>
      </g>
     </g>
    </g>
    <g id="ytick_3">
     <g id="line2d_9">
      <g>
       <use xlink:href="#m55b0a50bd7" x="73.55" y="393.008361" style="stroke: #000000; stroke-width: 0.8"/>
      </g>
     </g>
     <g id="text_10">
      <!-- 20 -->
      <g transform="translate(38.555 401.366642) scale(0.22 -0.22)">
       <use xlink:href="#DejaVuSans-32"/>
       <use xlink:href="#DejaVuSans-30" transform="translate(63.623047 0)"/>
      </g>
     </g>
    </g>
    <g id="ytick_4">
     <g id="line2d_10">
      <g>
       <use xlink:href="#m55b0a50bd7" x="73.55" y="334.732542" style="stroke: #000000; stroke-width: 0.8"/>
      </g>
     </g>
     <g id="text_11">
      <!-- 30 -->
      <g transform="translate(38.555 343.090823) scale(0.22 -0.22)">
       <defs>
        <path id="DejaVuSans-33" d="M 2597 2516 
Q 3050 2419 3304 2112 
Q 3559 1806 3559 1356 
Q 3559 666 3084 287 
Q 2609 -91 1734 -91 
Q 1441 -91 1130 -33 
Q 819 25 488 141 
L 488 750 
Q 750 597 1062 519 
Q 1375 441 1716 441 
Q 2309 441 2620 675 
Q 2931 909 2931 1356 
Q 2931 1769 2642 2001 
Q 2353 2234 1838 2234 
L 1294 2234 
L 1294 2753 
L 1863 2753 
Q 2328 2753 2575 2939 
Q 2822 3125 2822 3475 
Q 2822 3834 2567 4026 
Q 2313 4219 1838 4219 
Q 1578 4219 1281 4162 
Q 984 4106 628 3988 
L 628 4550 
Q 988 4650 1302 4700 
Q 1616 4750 1894 4750 
Q 2613 4750 3031 4423 
Q 3450 4097 3450 3541 
Q 3450 3153 3228 2886 
Q 3006 2619 2597 2516 
z
" transform="scale(0.015625)"/>
       </defs>
       <use xlink:href="#DejaVuSans-33"/>
       <use xlink:href="#DejaVuSans-30" transform="translate(63.623047 0)"/>
      </g>
     </g>
    </g>
    <g id="ytick_5">
     <g id="line2d_11">
      <g>
       <use xlink:href="#m55b0a50bd7" x="73.55" y="276.456722" style="stroke: #000000; stroke-width: 0.8"/>
      </g>
     </g>
     <g id="text_12">
      <!-- 40 -->
      <g transform="translate(38.555 284.815004) scale(0.22 -0.22)">
       <defs>
        <path id="DejaVuSans-34" d="M 2419 4116 
L 825 1625 
L 2419 1625 
L 2419 4116 
z
M 2253 4666 
L 3047 4666 
L 3047 1625 
L 3713 1625 
L 3713 1100 
L 3047 1100 
L 3047 0 
L 2419 0 
L 2419 1100 
L 313 1100 
L 313 1709 
L 2253 4666 
z
" transform="scale(0.015625)"/>
       </defs>
       <use xlink:href="#DejaVuSans-34"/>
       <use xlink:href="#DejaVuSans-30" transform="translate(63.623047 0)"/>
      </g>
     </g>
    </g>
    <g id="ytick_6">
     <g id="line2d_12">
      <g>
       <use xlink:href="#m55b0a50bd7" x="73.55" y="218.180903" style="stroke: #000000; stroke-width: 0.8"/>
      </g>
     </g>
     <g id="text_13">
      <!-- 50 -->
      <g transform="translate(38.555 226.539184) scale(0.22 -0.22)">
       <use xlink:href="#DejaVuSans-35"/>
       <use xlink:href="#DejaVuSans-30" transform="translate(63.623047 0)"/>
      </g>
     </g>
    </g>
    <g id="ytick_7">
     <g id="line2d_13">
      <g>
       <use xlink:href="#m55b0a50bd7" x="73.55" y="159.905083" style="stroke: #000000; stroke-width: 0.8"/>
      </g>
     </g>
     <g id="text_14">
      <!-- 60 -->
      <g transform="translate(38.555 168.263365) scale(0.22 -0.22)">
       <defs>
        <path id="DejaVuSans-36" d="M 2113 2584 
Q 1688 2584 1439 2293 
Q 1191 2003 1191 1497 
Q 1191 994 1439 701 
Q 1688 409 2113 409 
Q 2538 409 2786 701 
Q 3034 994 3034 1497 
Q 3034 2003 2786 2293 
Q 2538 2584 2113 2584 
z
M 3366 4563 
L 3366 3988 
Q 3128 4100 2886 4159 
Q 2644 4219 2406 4219 
Q 1781 4219 1451 3797 
Q 1122 3375 1075 2522 
Q 1259 2794 1537 2939 
Q 1816 3084 2150 3084 
Q 2853 3084 3261 2657 
Q 3669 2231 3669 1497 
Q 3669 778 3244 343 
Q 2819 -91 2113 -91 
Q 1303 -91 875 529 
Q 447 1150 447 2328 
Q 447 3434 972 4092 
Q 1497 4750 2381 4750 
Q 2619 4750 2861 4703 
Q 3103 4656 3366 4563 
z
" transform="scale(0.015625)"/>
       </defs>
       <use xlink:href="#DejaVuSans-36"/>
       <use xlink:href="#DejaVuSans-30" transform="translate(63.623047 0)"/>
      </g>
     </g>
    </g>
    <g id="ytick_8">
     <g id="line2d_14">
      <g>
       <use xlink:href="#m55b0a50bd7" x="73.55" y="101.629264" style="stroke: #000000; stroke-width: 0.8"/>
      </g>
     </g>
     <g id="text_15">
      <!-- 70 -->
      <g transform="translate(38.555 109.987545) scale(0.22 -0.22)">
       <defs>
        <path id="DejaVuSans-37" d="M 525 4666 
L 3525 4666 
L 3525 4397 
L 1831 0 
L 1172 0 
L 2766 4134 
L 525 4134 
L 525 4666 
z
" transform="scale(0.015625)"/>
       </defs>
       <use xlink:href="#DejaVuSans-37"/>
       <use xlink:href="#DejaVuSans-30" transform="translate(63.623047 0)"/>
      </g>
     </g>
    </g>
    <g id="ytick_9">
     <g id="line2d_15">
      <g>
       <use xlink:href="#m55b0a50bd7" x="73.55" y="43.353445" style="stroke: #000000; stroke-width: 0.8"/>
      </g>
     </g>
     <g id="text_16">
      <!-- 80 -->
      <g transform="translate(38.555 51.711726) scale(0.22 -0.22)">
       <defs>
        <path id="DejaVuSans-38" d="M 2034 2216 
Q 1584 2216 1326 1975 
Q 1069 1734 1069 1313 
Q 1069 891 1326 650 
Q 1584 409 2034 409 
Q 2484 409 2743 651 
Q 3003 894 3003 1313 
Q 3003 1734 2745 1975 
Q 2488 2216 2034 2216 
z
M 1403 2484 
Q 997 2584 770 2862 
Q 544 3141 544 3541 
Q 544 4100 942 4425 
Q 1341 4750 2034 4750 
Q 2731 4750 3128 4425 
Q 3525 4100 3525 3541 
Q 3525 3141 3298 2862 
Q 3072 2584 2669 2484 
Q 3125 2378 3379 2068 
Q 3634 1759 3634 1313 
Q 3634 634 3220 271 
Q 2806 -91 2034 -91 
Q 1263 -91 848 271 
Q 434 634 434 1313 
Q 434 1759 690 2068 
Q 947 2378 1403 2484 
z
M 1172 3481 
Q 1172 3119 1398 2916 
Q 1625 2713 2034 2713 
Q 2441 2713 2670 2916 
Q 2900 3119 2900 3481 
Q 2900 3844 2670 4047 
Q 2441 4250 2034 4250 
Q 1625 4250 1398 4047 
Q 1172 3844 1172 3481 
z
" transform="scale(0.015625)"/>
       </defs>
       <use xlink:href="#DejaVuSans-38"/>
       <use xlink:href="#DejaVuSans-30" transform="translate(63.623047 0)"/>
      </g>
     </g>
    </g>
    <g id="text_17">
     <!-- Count -->
     <g transform="translate(29.56375 313.851875) rotate(-90) scale(0.24 -0.24)">
      <defs>
       <path id="DejaVuSans-Bold-43" d="M 4288 256 
Q 3956 84 3597 -3 
Q 3238 -91 2847 -91 
Q 1681 -91 1000 561 
Q 319 1213 319 2328 
Q 319 3447 1000 4098 
Q 1681 4750 2847 4750 
Q 3238 4750 3597 4662 
Q 3956 4575 4288 4403 
L 4288 3438 
Q 3953 3666 3628 3772 
Q 3303 3878 2944 3878 
Q 2300 3878 1931 3465 
Q 1563 3053 1563 2328 
Q 1563 1606 1931 1193 
Q 2300 781 2944 781 
Q 3303 781 3628 887 
Q 3953 994 4288 1222 
L 4288 256 
z
" transform="scale(0.015625)"/>
       <path id="DejaVuSans-Bold-6f" d="M 2203 2784 
Q 1831 2784 1636 2517 
Q 1441 2250 1441 1747 
Q 1441 1244 1636 976 
Q 1831 709 2203 709 
Q 2569 709 2762 976 
Q 2956 1244 2956 1747 
Q 2956 2250 2762 2517 
Q 2569 2784 2203 2784 
z
M 2203 3584 
Q 3106 3584 3614 3096 
Q 4122 2609 4122 1747 
Q 4122 884 3614 396 
Q 3106 -91 2203 -91 
Q 1297 -91 786 396 
Q 275 884 275 1747 
Q 275 2609 786 3096 
Q 1297 3584 2203 3584 
z
" transform="scale(0.015625)"/>
       <path id="DejaVuSans-Bold-6e" d="M 4056 2131 
L 4056 0 
L 2931 0 
L 2931 347 
L 2931 1631 
Q 2931 2084 2911 2256 
Q 2891 2428 2841 2509 
Q 2775 2619 2662 2680 
Q 2550 2741 2406 2741 
Q 2056 2741 1856 2470 
Q 1656 2200 1656 1722 
L 1656 0 
L 538 0 
L 538 3500 
L 1656 3500 
L 1656 2988 
Q 1909 3294 2193 3439 
Q 2478 3584 2822 3584 
Q 3428 3584 3742 3212 
Q 4056 2841 4056 2131 
z
" transform="scale(0.015625)"/>
       <path id="DejaVuSans-Bold-74" d="M 1759 4494 
L 1759 3500 
L 2913 3500 
L 2913 2700 
L 1759 2700 
L 1759 1216 
Q 1759 972 1856 886 
Q 1953 800 2241 800 
L 2816 800 
L 2816 0 
L 1856 0 
Q 1194 0 917 276 
Q 641 553 641 1216 
L 641 2700 
L 84 2700 
L 84 3500 
L 641 3500 
L 641 4494 
L 1759 4494 
z
" transform="scale(0.015625)"/>
      </defs>
      <use xlink:href="#DejaVuSans-Bold-43"/>
      <use xlink:href="#DejaVuSans-Bold-6f" transform="translate(73.388672 0)"/>
      <use xlink:href="#DejaVuSans-Bold-75" transform="translate(142.089844 0)"/>
      <use xlink:href="#DejaVuSans-Bold-6e" transform="translate(213.28125 0)"/>
      <use xlink:href="#DejaVuSans-Bold-74" transform="translate(284.472656 0)"/>
     </g>
    </g>
   </g>
   <g id="line2d_16">
    <path d="M 108.988636 402.774591 
L 116.11198 393.676404 
L 119.673652 389.344225 
L 123.235324 385.196432 
L 126.796996 381.262199 
L 130.358668 377.569735 
L 133.92034 374.145931 
L 137.482012 371.016002 
L 141.043684 368.203145 
L 144.605356 365.728212 
L 148.167028 363.609415 
L 151.7287 361.862048 
L 155.290372 360.49825 
L 158.852044 359.526799 
L 162.413716 358.952959 
L 165.975388 358.778355 
L 169.53706 359.000903 
L 173.098732 359.61479 
L 176.660404 360.61049 
L 180.222076 361.974838 
L 183.783748 363.69114 
L 187.34542 365.739336 
L 190.907092 368.096195 
L 194.468764 370.735551 
L 198.030436 373.628575 
L 201.592108 376.744068 
L 205.15378 380.048787 
L 212.277124 387.084773 
L 233.647156 408.915476 
L 237.208828 412.266561 
L 240.7705 415.440884 
L 244.332172 418.406311 
L 247.893844 421.132796 
L 251.455516 423.592646 
L 255.017188 425.760754 
L 258.57886 427.614816 
L 262.140532 429.135515 
L 265.702204 430.306689 
L 269.263876 431.115472 
L 272.825548 431.552399 
L 276.38722 431.611504 
L 279.948892 431.290374 
L 283.510564 430.590187 
L 287.072236 429.515717 
L 290.633908 428.075319 
L 294.19558 426.280875 
L 297.757252 424.147721 
L 301.318924 421.694539 
L 304.880596 418.943223 
L 308.442268 415.918707 
L 312.00394 412.648779 
L 315.565612 409.163842 
L 322.688956 401.682114 
L 329.8123 393.758784 
L 340.497316 381.722972 
L 347.62066 374.063992 
L 351.182332 370.462054 
L 354.744004 367.061952 
L 358.305676 363.899221 
L 361.867348 361.007277 
L 365.42902 358.417057 
L 368.990692 356.156679 
L 372.552364 354.25114 
L 376.114036 352.72205 
L 379.675708 351.587403 
L 383.23738 350.861405 
L 386.799052 350.554337 
L 390.360724 350.67248 
L 393.922396 351.218084 
L 397.484068 352.189398 
L 401.04574 353.580749 
L 404.607412 355.382666 
L 408.169084 357.582063 
L 411.730756 360.162459 
L 415.292428 363.104243 
L 418.8541 366.384973 
L 422.415772 369.979706 
L 425.977444 373.861352 
L 429.539116 378.001051 
L 433.100788 382.368553 
L 440.224132 391.661368 
L 447.347476 401.484798 
L 472.27918 436.534124 
L 479.402524 445.876569 
L 486.525868 454.627577 
L 490.08754 458.747602 
L 493.649212 462.683711 
L 497.210884 466.42832 
L 500.772556 469.975815 
L 504.334228 473.322424 
L 507.8959 476.466072 
L 511.457572 479.406217 
L 515.019244 482.143685 
L 518.580916 484.680483 
L 522.142588 487.01962 
L 525.70426 489.164922 
L 529.265932 491.12084 
L 532.827604 492.892277 
L 536.389276 494.484405 
L 539.950948 495.902504 
L 543.51262 497.151799 
L 547.074292 498.237315 
L 550.635964 499.163742 
L 554.197636 499.935311 
L 557.759308 500.555691 
L 561.32098 501.027894 
L 564.882652 501.354199 
L 568.444324 501.536089 
L 572.005996 501.574211 
L 575.567668 501.468342 
L 579.12934 501.217383 
L 582.691012 500.819364 
L 586.252684 500.271463 
L 589.814356 499.570052 
L 593.376028 498.71075 
L 596.9377 497.6885 
L 600.499372 496.497658 
L 604.061044 495.132105 
L 607.622716 493.585365 
L 611.184388 491.850748 
L 614.74606 489.921501 
L 618.307732 487.790976 
L 621.869404 485.452808 
L 625.431076 482.901102 
L 628.992748 480.130629 
L 632.55442 477.13703 
L 636.116092 473.917013 
L 639.677764 470.468568 
L 643.239436 466.791158 
L 646.801108 462.885917 
L 650.36278 458.755835 
L 653.924452 454.405923 
L 657.486124 449.843368 
L 661.047796 445.07766 
L 668.17114 434.986843 
L 675.294484 424.258615 
L 682.417828 413.058256 
L 703.78786 378.82599 
L 710.911204 368.079892 
L 714.472876 362.991951 
L 718.034548 358.142264 
L 721.59622 353.566102 
L 725.157892 349.297543 
L 728.719564 345.369053 
L 732.281236 341.811078 
L 735.842908 338.651657 
L 739.40458 335.916058 
L 742.966252 333.626439 
L 746.527924 331.801559 
L 750.089596 330.456515 
L 753.651268 329.602546 
L 757.21294 329.246868 
L 760.774612 329.392581 
L 764.336284 330.038622 
L 767.897956 331.179778 
L 771.459628 332.806755 
L 775.0213 334.906308 
L 778.582972 337.461414 
L 782.144644 340.451507 
L 785.706316 343.85275 
L 789.267988 347.638349 
L 792.82966 351.778905 
L 796.391332 356.242794 
L 799.953004 360.996562 
L 803.514676 366.005346 
L 810.63802 376.643975 
L 817.761364 387.867517 
L 817.761364 387.867517 
" clip-path="url(#p4a09749ae4)" style="fill: none; stroke: #1f77b4; stroke-width: 1.5; stroke-linecap: square"/>
   </g>
   <g id="patch_53">
    <path d="M 73.55 509.56 
L 73.55 38.4 
" style="fill: none; stroke: #000000; stroke-width: 0.8; stroke-linejoin: miter; stroke-linecap: square"/>
   </g>
   <g id="patch_54">
    <path d="M 853.2 509.56 
L 853.2 38.4 
" style="fill: none; stroke: #000000; stroke-width: 0.8; stroke-linejoin: miter; stroke-linecap: square"/>
   </g>
   <g id="patch_55">
    <path d="M 73.55 509.56 
L 853.2 509.56 
" style="fill: none; stroke: #000000; stroke-width: 0.8; stroke-linejoin: miter; stroke-linecap: square"/>
   </g>
   <g id="patch_56">
    <path d="M 73.55 38.4 
L 853.2 38.4 
" style="fill: none; stroke: #000000; stroke-width: 0.8; stroke-linejoin: miter; stroke-linecap: square"/>
   </g>
   <g id="text_18">
    <!-- Gaussian Mixture Model Histogram (α = [0.3, 0.3, 0.4]) -->
    <g transform="translate(29.819063 32.358125) scale(0.28 -0.28)">
     <defs>
      <path id="DejaVuSans-Bold-47" d="M 4781 347 
Q 4331 128 3847 18 
Q 3363 -91 2847 -91 
Q 1681 -91 1000 561 
Q 319 1213 319 2328 
Q 319 3456 1012 4103 
Q 1706 4750 2913 4750 
Q 3378 4750 3804 4662 
Q 4231 4575 4609 4403 
L 4609 3438 
Q 4219 3659 3833 3768 
Q 3447 3878 3059 3878 
Q 2341 3878 1952 3476 
Q 1563 3075 1563 2328 
Q 1563 1588 1938 1184 
Q 2313 781 3003 781 
Q 3191 781 3352 804 
Q 3513 828 3641 878 
L 3641 1784 
L 2906 1784 
L 2906 2591 
L 4781 2591 
L 4781 347 
z
" transform="scale(0.015625)"/>
      <path id="DejaVuSans-Bold-73" d="M 3272 3391 
L 3272 2541 
Q 2913 2691 2578 2766 
Q 2244 2841 1947 2841 
Q 1628 2841 1473 2761 
Q 1319 2681 1319 2516 
Q 1319 2381 1436 2309 
Q 1553 2238 1856 2203 
L 2053 2175 
Q 2913 2066 3209 1816 
Q 3506 1566 3506 1031 
Q 3506 472 3093 190 
Q 2681 -91 1863 -91 
Q 1516 -91 1145 -36 
Q 775 19 384 128 
L 384 978 
Q 719 816 1070 734 
Q 1422 653 1784 653 
Q 2113 653 2278 743 
Q 2444 834 2444 1013 
Q 2444 1163 2330 1236 
Q 2216 1309 1875 1350 
L 1678 1375 
Q 931 1469 631 1722 
Q 331 1975 331 2491 
Q 331 3047 712 3315 
Q 1094 3584 1881 3584 
Q 2191 3584 2531 3537 
Q 2872 3491 3272 3391 
z
" transform="scale(0.015625)"/>
      <path id="DejaVuSans-Bold-69" d="M 538 3500 
L 1656 3500 
L 1656 0 
L 538 0 
L 538 3500 
z
M 538 4863 
L 1656 4863 
L 1656 3950 
L 538 3950 
L 538 4863 
z
" transform="scale(0.015625)"/>
      <path id="DejaVuSans-Bold-20" transform="scale(0.015625)"/>
      <path id="DejaVuSans-Bold-4d" d="M 588 4666 
L 2119 4666 
L 3181 2169 
L 4250 4666 
L 5778 4666 
L 5778 0 
L 4641 0 
L 4641 3413 
L 3566 897 
L 2803 897 
L 1728 3413 
L 1728 0 
L 588 0 
L 588 4666 
z
" transform="scale(0.015625)"/>
      <path id="DejaVuSans-Bold-78" d="M 1422 1791 
L 159 3500 
L 1344 3500 
L 2059 2463 
L 2784 3500 
L 3969 3500 
L 2706 1797 
L 4031 0 
L 2847 0 
L 2059 1106 
L 1281 0 
L 97 0 
L 1422 1791 
z
" transform="scale(0.015625)"/>
      <path id="DejaVuSans-Bold-72" d="M 3138 2547 
Q 2991 2616 2845 2648 
Q 2700 2681 2553 2681 
Q 2122 2681 1889 2404 
Q 1656 2128 1656 1613 
L 1656 0 
L 538 0 
L 538 3500 
L 1656 3500 
L 1656 2925 
Q 1872 3269 2151 3426 
Q 2431 3584 2822 3584 
Q 2878 3584 2943 3579 
Q 3009 3575 3134 3559 
L 3138 2547 
z
" transform="scale(0.015625)"/>
      <path id="DejaVuSans-Bold-64" d="M 2919 2988 
L 2919 4863 
L 4044 4863 
L 4044 0 
L 2919 0 
L 2919 506 
Q 2688 197 2409 53 
Q 2131 -91 1766 -91 
Q 1119 -91 703 423 
Q 288 938 288 1747 
Q 288 2556 703 3070 
Q 1119 3584 1766 3584 
Q 2128 3584 2408 3439 
Q 2688 3294 2919 2988 
z
M 2181 722 
Q 2541 722 2730 984 
Q 2919 1247 2919 1747 
Q 2919 2247 2730 2509 
Q 2541 2772 2181 2772 
Q 1825 2772 1636 2509 
Q 1447 2247 1447 1747 
Q 1447 1247 1636 984 
Q 1825 722 2181 722 
z
" transform="scale(0.015625)"/>
      <path id="DejaVuSans-Bold-48" d="M 588 4666 
L 1791 4666 
L 1791 2888 
L 3566 2888 
L 3566 4666 
L 4769 4666 
L 4769 0 
L 3566 0 
L 3566 1978 
L 1791 1978 
L 1791 0 
L 588 0 
L 588 4666 
z
" transform="scale(0.015625)"/>
      <path id="DejaVuSans-Bold-67" d="M 2919 594 
Q 2688 288 2409 144 
Q 2131 0 1766 0 
Q 1125 0 706 504 
Q 288 1009 288 1791 
Q 288 2575 706 3076 
Q 1125 3578 1766 3578 
Q 2131 3578 2409 3434 
Q 2688 3291 2919 2981 
L 2919 3500 
L 4044 3500 
L 4044 353 
Q 4044 -491 3511 -936 
Q 2978 -1381 1966 -1381 
Q 1638 -1381 1331 -1331 
Q 1025 -1281 716 -1178 
L 716 -306 
Q 1009 -475 1290 -558 
Q 1572 -641 1856 -641 
Q 2406 -641 2662 -400 
Q 2919 -159 2919 353 
L 2919 594 
z
M 2181 2772 
Q 1834 2772 1640 2515 
Q 1447 2259 1447 1791 
Q 1447 1309 1634 1061 
Q 1822 813 2181 813 
Q 2531 813 2725 1069 
Q 2919 1325 2919 1791 
Q 2919 2259 2725 2515 
Q 2531 2772 2181 2772 
z
" transform="scale(0.015625)"/>
      <path id="DejaVuSans-Bold-6d" d="M 3781 2919 
Q 3994 3244 4286 3414 
Q 4578 3584 4928 3584 
Q 5531 3584 5847 3212 
Q 6163 2841 6163 2131 
L 6163 0 
L 5038 0 
L 5038 1825 
Q 5041 1866 5042 1909 
Q 5044 1953 5044 2034 
Q 5044 2406 4934 2573 
Q 4825 2741 4581 2741 
Q 4263 2741 4089 2478 
Q 3916 2216 3909 1719 
L 3909 0 
L 2784 0 
L 2784 1825 
Q 2784 2406 2684 2573 
Q 2584 2741 2328 2741 
Q 2006 2741 1831 2477 
Q 1656 2213 1656 1722 
L 1656 0 
L 531 0 
L 531 3500 
L 1656 3500 
L 1656 2988 
Q 1863 3284 2130 3434 
Q 2397 3584 2719 3584 
Q 3081 3584 3359 3409 
Q 3638 3234 3781 2919 
z
" transform="scale(0.015625)"/>
      <path id="DejaVuSans-Bold-28" d="M 2413 -844 
L 1484 -844 
Q 1006 -72 778 623 
Q 550 1319 550 2003 
Q 550 2688 779 3389 
Q 1009 4091 1484 4856 
L 2413 4856 
Q 2013 4116 1813 3408 
Q 1613 2700 1613 2009 
Q 1613 1319 1811 609 
Q 2009 -100 2413 -844 
z
" transform="scale(0.015625)"/>
      <path id="DejaVuSans-Bold-3b1" d="M 3006 3163 
L 3119 3500 
L 4088 3500 
L 3484 1697 
L 3569 1219 
Q 3659 703 3872 703 
L 4128 703 
L 4128 0 
L 3809 0 
Q 3313 0 3059 263 
Q 3003 322 2988 353 
Q 2838 163 2689 39 
Q 2541 -84 1763 -78 
Q 988 -72 648 400 
Q 309 872 309 1794 
Q 309 2713 663 3088 
Q 1109 3569 1966 3578 
Q 2688 3588 3006 3163 
z
M 2575 1841 
L 2481 2350 
Q 2394 2825 1981 2828 
Q 1772 2828 1598 2558 
Q 1425 2288 1425 1741 
Q 1425 1191 1581 944 
Q 1738 697 1969 691 
Q 2213 684 2363 1163 
L 2575 1841 
z
" transform="scale(0.015625)"/>
      <path id="DejaVuSans-Bold-3d" d="M 678 3084 
L 4684 3084 
L 4684 2350 
L 678 2350 
L 678 3084 
z
M 678 1663 
L 4684 1663 
L 4684 922 
L 678 922 
L 678 1663 
z
" transform="scale(0.015625)"/>
      <path id="DejaVuSans-Bold-5b" d="M 550 4863 
L 2491 4863 
L 2491 4159 
L 1613 4159 
L 1613 -141 
L 2491 -141 
L 2491 -844 
L 550 -844 
L 550 4863 
z
" transform="scale(0.015625)"/>
      <path id="DejaVuSans-Bold-30" d="M 2944 2338 
Q 2944 3213 2780 3570 
Q 2616 3928 2228 3928 
Q 1841 3928 1675 3570 
Q 1509 3213 1509 2338 
Q 1509 1453 1675 1090 
Q 1841 728 2228 728 
Q 2613 728 2778 1090 
Q 2944 1453 2944 2338 
z
M 4147 2328 
Q 4147 1169 3647 539 
Q 3147 -91 2228 -91 
Q 1306 -91 806 539 
Q 306 1169 306 2328 
Q 306 3491 806 4120 
Q 1306 4750 2228 4750 
Q 3147 4750 3647 4120 
Q 4147 3491 4147 2328 
z
" transform="scale(0.015625)"/>
      <path id="DejaVuSans-Bold-2e" d="M 653 1209 
L 1778 1209 
L 1778 0 
L 653 0 
L 653 1209 
z
" transform="scale(0.015625)"/>
      <path id="DejaVuSans-Bold-33" d="M 2981 2516 
Q 3453 2394 3698 2092 
Q 3944 1791 3944 1325 
Q 3944 631 3412 270 
Q 2881 -91 1863 -91 
Q 1503 -91 1142 -33 
Q 781 25 428 141 
L 428 1069 
Q 766 900 1098 814 
Q 1431 728 1753 728 
Q 2231 728 2486 893 
Q 2741 1059 2741 1369 
Q 2741 1688 2480 1852 
Q 2219 2016 1709 2016 
L 1228 2016 
L 1228 2791 
L 1734 2791 
Q 2188 2791 2409 2933 
Q 2631 3075 2631 3366 
Q 2631 3634 2415 3781 
Q 2200 3928 1806 3928 
Q 1516 3928 1219 3862 
Q 922 3797 628 3669 
L 628 4550 
Q 984 4650 1334 4700 
Q 1684 4750 2022 4750 
Q 2931 4750 3382 4451 
Q 3834 4153 3834 3553 
Q 3834 3144 3618 2883 
Q 3403 2622 2981 2516 
z
" transform="scale(0.015625)"/>
      <path id="DejaVuSans-Bold-2c" d="M 653 1209 
L 1778 1209 
L 1778 256 
L 1006 -909 
L 341 -909 
L 653 256 
L 653 1209 
z
" transform="scale(0.015625)"/>
      <path id="DejaVuSans-Bold-34" d="M 2356 3675 
L 1038 1722 
L 2356 1722 
L 2356 3675 
z
M 2156 4666 
L 3494 4666 
L 3494 1722 
L 4159 1722 
L 4159 850 
L 3494 850 
L 3494 0 
L 2356 0 
L 2356 850 
L 288 850 
L 288 1881 
L 2156 4666 
z
" transform="scale(0.015625)"/>
      <path id="DejaVuSans-Bold-5d" d="M 2375 -844 
L 434 -844 
L 434 -141 
L 1313 -141 
L 1313 4159 
L 434 4159 
L 434 4863 
L 2375 4863 
L 2375 -844 
z
" transform="scale(0.015625)"/>
      <path id="DejaVuSans-Bold-29" d="M 513 -844 
Q 913 -100 1113 609 
Q 1313 1319 1313 2009 
Q 1313 2700 1113 3408 
Q 913 4116 513 4856 
L 1441 4856 
Q 1916 4091 2145 3389 
Q 2375 2688 2375 2003 
Q 2375 1319 2147 623 
Q 1919 -72 1441 -844 
L 513 -844 
z
" transform="scale(0.015625)"/>
     </defs>
     <use xlink:href="#DejaVuSans-Bold-47"/>
     <use xlink:href="#DejaVuSans-Bold-61" transform="translate(82.080078 0)"/>
     <use xlink:href="#DejaVuSans-Bold-75" transform="translate(149.560547 0)"/>
     <use xlink:href="#DejaVuSans-Bold-73" transform="translate(220.751953 0)"/>
     <use xlink:href="#DejaVuSans-Bold-73" transform="translate(280.273438 0)"/>
     <use xlink:href="#DejaVuSans-Bold-69" transform="translate(339.794922 0)"/>
     <use xlink:href="#DejaVuSans-Bold-61" transform="translate(374.072266 0)"/>
     <use xlink:href="#DejaVuSans-Bold-6e" transform="translate(441.552734 0)"/>
     <use xlink:href="#DejaVuSans-Bold-20" transform="translate(512.744141 0)"/>
     <use xlink:href="#DejaVuSans-Bold-4d" transform="translate(547.558594 0)"/>
     <use xlink:href="#DejaVuSans-Bold-69" transform="translate(647.070312 0)"/>
     <use xlink:href="#DejaVuSans-Bold-78" transform="translate(681.347656 0)"/>
     <use xlink:href="#DejaVuSans-Bold-74" transform="translate(745.849609 0)"/>
     <use xlink:href="#DejaVuSans-Bold-75" transform="translate(793.652344 0)"/>
     <use xlink:href="#DejaVuSans-Bold-72" transform="translate(864.84375 0)"/>
     <use xlink:href="#DejaVuSans-Bold-65" transform="translate(914.160156 0)"/>
     <use xlink:href="#DejaVuSans-Bold-20" transform="translate(981.982422 0)"/>
     <use xlink:href="#DejaVuSans-Bold-4d" transform="translate(1016.796875 0)"/>
     <use xlink:href="#DejaVuSans-Bold-6f" transform="translate(1116.308594 0)"/>
     <use xlink:href="#DejaVuSans-Bold-64" transform="translate(1185.009766 0)"/>
     <use xlink:href="#DejaVuSans-Bold-65" transform="translate(1256.591797 0)"/>
     <use xlink:href="#DejaVuSans-Bold-6c" transform="translate(1324.414062 0)"/>
     <use xlink:href="#DejaVuSans-Bold-20" transform="translate(1358.691406 0)"/>
     <use xlink:href="#DejaVuSans-Bold-48" transform="translate(1393.505859 0)"/>
     <use xlink:href="#DejaVuSans-Bold-69" transform="translate(1477.197266 0)"/>
     <use xlink:href="#DejaVuSans-Bold-73" transform="translate(1511.474609 0)"/>
     <use xlink:href="#DejaVuSans-Bold-74" transform="translate(1570.996094 0)"/>
     <use xlink:href="#DejaVuSans-Bold-6f" transform="translate(1618.798828 0)"/>
     <use xlink:href="#DejaVuSans-Bold-67" transform="translate(1687.5 0)"/>
     <use xlink:href="#DejaVuSans-Bold-72" transform="translate(1759.082031 0)"/>
     <use xlink:href="#DejaVuSans-Bold-61" transform="translate(1808.398438 0)"/>
     <use xlink:href="#DejaVuSans-Bold-6d" transform="translate(1875.878906 0)"/>
     <use xlink:href="#DejaVuSans-Bold-20" transform="translate(1980.078125 0)"/>
     <use xlink:href="#DejaVuSans-Bold-28" transform="translate(2014.892578 0)"/>
     <use xlink:href="#DejaVuSans-Bold-3b1" transform="translate(2060.595703 0)"/>
     <use xlink:href="#DejaVuSans-Bold-20" transform="translate(2129.296875 0)"/>
     <use xlink:href="#DejaVuSans-Bold-3d" transform="translate(2164.111328 0)"/>
     <use xlink:href="#DejaVuSans-Bold-20" transform="translate(2247.900391 0)"/>
     <use xlink:href="#DejaVuSans-Bold-5b" transform="translate(2282.714844 0)"/>
     <use xlink:href="#DejaVuSans-Bold-30" transform="translate(2328.417969 0)"/>
     <use xlink:href="#DejaVuSans-Bold-2e" transform="translate(2397.998047 0)"/>
     <use xlink:href="#DejaVuSans-Bold-33" transform="translate(2435.986328 0)"/>
     <use xlink:href="#DejaVuSans-Bold-2c" transform="translate(2505.566406 0)"/>
     <use xlink:href="#DejaVuSans-Bold-20" transform="translate(2543.554688 0)"/>
     <use xlink:href="#DejaVuSans-Bold-30" transform="translate(2578.369141 0)"/>
     <use xlink:href="#DejaVuSans-Bold-2e" transform="translate(2647.949219 0)"/>
     <use xlink:href="#DejaVuSans-Bold-33" transform="translate(2685.9375 0)"/>
     <use xlink:href="#DejaVuSans-Bold-2c" transform="translate(2755.517578 0)"/>
     <use xlink:href="#DejaVuSans-Bold-20" transform="translate(2793.505859 0)"/>
     <use xlink:href="#DejaVuSans-Bold-30" transform="translate(2828.320312 0)"/>
     <use xlink:href="#DejaVuSans-Bold-2e" transform="translate(2897.900391 0)"/>
     <use xlink:href="#DejaVuSans-Bold-34" transform="translate(2935.888672 0)"/>
     <use xlink:href="#DejaVuSans-Bold-5d" transform="translate(3005.46875 0)"/>
     <use xlink:href="#DejaVuSans-Bold-29" transform="translate(3051.171875 0)"/>
    </g>
   </g>
  </g>
 </g>
 <defs>
  <clipPath id="p4a09749ae4">
   <rect x="73.55" y="38.4" width="779.65" height="471.16"/>
  </clipPath>
 </defs>
</svg>
