<?xml version="1.0" encoding="utf-8" standalone="no"?>
<!DOCTYPE svg PUBLIC "-//W3C//DTD SVG 1.1//EN"
  "http://www.w3.org/Graphics/SVG/1.1/DTD/svg11.dtd">
<svg xmlns:xlink="http://www.w3.org/1999/xlink" width="864pt" height="576pt" viewBox="0 0 864 576" xmlns="http://www.w3.org/2000/svg" version="1.1">
 <metadata>
  <rdf:RDF xmlns:dc="http://purl.org/dc/elements/1.1/" xmlns:cc="http://creativecommons.org/ns#" xmlns:rdf="http://www.w3.org/1999/02/22-rdf-syntax-ns#">
   <cc:Work>
    <dc:type rdf:resource="http://purl.org/dc/dcmitype/StillImage"/>
    <dc:date>2025-07-05T20:34:31.601670</dc:date>
    <dc:format>image/svg+xml</dc:format>
    <dc:creator>
     <cc:Agent>
      <dc:title>Matplotlib v3.9.2, https://matplotlib.org/</dc:title>
     </cc:Agent>
    </dc:creator>
   </cc:Work>
  </rdf:RDF>
 </metadata>
 <defs>
  <style type="text/css">*{stroke-linejoin: round; stroke-linecap: butt}</style>
 </defs>
 <g id="figure_1">
  <g id="patch_1">
   <path d="M 0 576 
L 864 576 
L 864 0 
L 0 0 
z
" style="fill: #ffffff"/>
  </g>
  <g id="axes_1">
   <g id="patch_2">
    <path d="M 78.05 509.56 
L 853.2 509.56 
L 853.2 38.4 
L 78.05 38.4 
z
" style="fill: #ffffff"/>
   </g>
   <g id="matplotlib.axis_1">
    <g id="xtick_1">
     <g id="line2d_1">
      <defs>
       <path id="m16a4bb696e" d="M 0 0 
L 0 3.5 
" style="stroke: #000000; stroke-width: 0.8"/>
      </defs>
      <g>
       <use xlink:href="#m16a4bb696e" x="179.406077" y="509.56" style="stroke: #000000; stroke-width: 0.8"/>
      </g>
     </g>
     <g id="text_1">
      <!-- −1 -->
      <g transform="translate(163.189671 533.276562) scale(0.22 -0.22)">
       <defs>
        <path id="DejaVuSans-2212" d="M 678 2272 
L 4684 2272 
L 4684 1741 
L 678 1741 
L 678 2272 
z
" transform="scale(0.015625)"/>
        <path id="DejaVuSans-31" d="M 794 531 
L 1825 531 
L 1825 4091 
L 703 3866 
L 703 4441 
L 1819 4666 
L 2450 4666 
L 2450 531 
L 3481 531 
L 3481 0 
L 794 0 
L 794 531 
z
" transform="scale(0.015625)"/>
       </defs>
       <use xlink:href="#DejaVuSans-2212"/>
       <use xlink:href="#DejaVuSans-31" x="83.789062"/>
      </g>
     </g>
    </g>
    <g id="xtick_2">
     <g id="line2d_2">
      <g>
       <use xlink:href="#m16a4bb696e" x="322.515539" y="509.56" style="stroke: #000000; stroke-width: 0.8"/>
      </g>
     </g>
     <g id="text_2">
      <!-- 0 -->
      <g transform="translate(315.516789 533.276562) scale(0.22 -0.22)">
       <defs>
        <path id="DejaVuSans-30" d="M 2034 4250 
Q 1547 4250 1301 3770 
Q 1056 3291 1056 2328 
Q 1056 1369 1301 889 
Q 1547 409 2034 409 
Q 2525 409 2770 889 
Q 3016 1369 3016 2328 
Q 3016 3291 2770 3770 
Q 2525 4250 2034 4250 
z
M 2034 4750 
Q 2819 4750 3233 4129 
Q 3647 3509 3647 2328 
Q 3647 1150 3233 529 
Q 2819 -91 2034 -91 
Q 1250 -91 836 529 
Q 422 1150 422 2328 
Q 422 3509 836 4129 
Q 1250 4750 2034 4750 
z
" transform="scale(0.015625)"/>
       </defs>
       <use xlink:href="#DejaVuSans-30"/>
      </g>
     </g>
    </g>
    <g id="xtick_3">
     <g id="line2d_3">
      <g>
       <use xlink:href="#m16a4bb696e" x="465.625" y="509.56" style="stroke: #000000; stroke-width: 0.8"/>
      </g>
     </g>
     <g id="text_3">
      <!-- 1 -->
      <g transform="translate(458.62625 533.276562) scale(0.22 -0.22)">
       <use xlink:href="#DejaVuSans-31"/>
      </g>
     </g>
    </g>
    <g id="xtick_4">
     <g id="line2d_4">
      <g>
       <use xlink:href="#m16a4bb696e" x="608.734461" y="509.56" style="stroke: #000000; stroke-width: 0.8"/>
      </g>
     </g>
     <g id="text_4">
      <!-- 2 -->
      <g transform="translate(601.735711 533.276562) scale(0.22 -0.22)">
       <defs>
        <path id="DejaVuSans-32" d="M 1228 531 
L 3431 531 
L 3431 0 
L 469 0 
L 469 531 
Q 828 903 1448 1529 
Q 2069 2156 2228 2338 
Q 2531 2678 2651 2914 
Q 2772 3150 2772 3378 
Q 2772 3750 2511 3984 
Q 2250 4219 1831 4219 
Q 1534 4219 1204 4116 
Q 875 4013 500 3803 
L 500 4441 
Q 881 4594 1212 4672 
Q 1544 4750 1819 4750 
Q 2544 4750 2975 4387 
Q 3406 4025 3406 3419 
Q 3406 3131 3298 2873 
Q 3191 2616 2906 2266 
Q 2828 2175 2409 1742 
Q 1991 1309 1228 531 
z
" transform="scale(0.015625)"/>
       </defs>
       <use xlink:href="#DejaVuSans-32"/>
      </g>
     </g>
    </g>
    <g id="xtick_5">
     <g id="line2d_5">
      <g>
       <use xlink:href="#m16a4bb696e" x="751.843923" y="509.56" style="stroke: #000000; stroke-width: 0.8"/>
      </g>
     </g>
     <g id="text_5">
      <!-- 3 -->
      <g transform="translate(744.845173 533.276562) scale(0.22 -0.22)">
       <defs>
        <path id="DejaVuSans-33" d="M 2597 2516 
Q 3050 2419 3304 2112 
Q 3559 1806 3559 1356 
Q 3559 666 3084 287 
Q 2609 -91 1734 -91 
Q 1441 -91 1130 -33 
Q 819 25 488 141 
L 488 750 
Q 750 597 1062 519 
Q 1375 441 1716 441 
Q 2309 441 2620 675 
Q 2931 909 2931 1356 
Q 2931 1769 2642 2001 
Q 2353 2234 1838 2234 
L 1294 2234 
L 1294 2753 
L 1863 2753 
Q 2328 2753 2575 2939 
Q 2822 3125 2822 3475 
Q 2822 3834 2567 4026 
Q 2313 4219 1838 4219 
Q 1578 4219 1281 4162 
Q 984 4106 628 3988 
L 628 4550 
Q 988 4650 1302 4700 
Q 1616 4750 1894 4750 
Q 2613 4750 3031 4423 
Q 3450 4097 3450 3541 
Q 3450 3153 3228 2886 
Q 3006 2619 2597 2516 
z
" transform="scale(0.015625)"/>
       </defs>
       <use xlink:href="#DejaVuSans-33"/>
      </g>
     </g>
    </g>
    <g id="text_6">
     <!-- Theoretical Quantiles -->
     <g transform="translate(320.47375 560.088125) scale(0.24 -0.24)">
      <defs>
       <path id="DejaVuSans-Bold-54" d="M 31 4666 
L 4331 4666 
L 4331 3756 
L 2784 3756 
L 2784 0 
L 1581 0 
L 1581 3756 
L 31 3756 
L 31 4666 
z
" transform="scale(0.015625)"/>
       <path id="DejaVuSans-Bold-68" d="M 4056 2131 
L 4056 0 
L 2931 0 
L 2931 347 
L 2931 1625 
Q 2931 2084 2911 2256 
Q 2891 2428 2841 2509 
Q 2775 2619 2662 2680 
Q 2550 2741 2406 2741 
Q 2056 2741 1856 2470 
Q 1656 2200 1656 1722 
L 1656 0 
L 538 0 
L 538 4863 
L 1656 4863 
L 1656 2988 
Q 1909 3294 2193 3439 
Q 2478 3584 2822 3584 
Q 3428 3584 3742 3212 
Q 4056 2841 4056 2131 
z
" transform="scale(0.015625)"/>
       <path id="DejaVuSans-Bold-65" d="M 4031 1759 
L 4031 1441 
L 1416 1441 
Q 1456 1047 1700 850 
Q 1944 653 2381 653 
Q 2734 653 3104 758 
Q 3475 863 3866 1075 
L 3866 213 
Q 3469 63 3072 -14 
Q 2675 -91 2278 -91 
Q 1328 -91 801 392 
Q 275 875 275 1747 
Q 275 2603 792 3093 
Q 1309 3584 2216 3584 
Q 3041 3584 3536 3087 
Q 4031 2591 4031 1759 
z
M 2881 2131 
Q 2881 2450 2695 2645 
Q 2509 2841 2209 2841 
Q 1884 2841 1681 2658 
Q 1478 2475 1428 2131 
L 2881 2131 
z
" transform="scale(0.015625)"/>
       <path id="DejaVuSans-Bold-6f" d="M 2203 2784 
Q 1831 2784 1636 2517 
Q 1441 2250 1441 1747 
Q 1441 1244 1636 976 
Q 1831 709 2203 709 
Q 2569 709 2762 976 
Q 2956 1244 2956 1747 
Q 2956 2250 2762 2517 
Q 2569 2784 2203 2784 
z
M 2203 3584 
Q 3106 3584 3614 3096 
Q 4122 2609 4122 1747 
Q 4122 884 3614 396 
Q 3106 -91 2203 -91 
Q 1297 -91 786 396 
Q 275 884 275 1747 
Q 275 2609 786 3096 
Q 1297 3584 2203 3584 
z
" transform="scale(0.015625)"/>
       <path id="DejaVuSans-Bold-72" d="M 3138 2547 
Q 2991 2616 2845 2648 
Q 2700 2681 2553 2681 
Q 2122 2681 1889 2404 
Q 1656 2128 1656 1613 
L 1656 0 
L 538 0 
L 538 3500 
L 1656 3500 
L 1656 2925 
Q 1872 3269 2151 3426 
Q 2431 3584 2822 3584 
Q 2878 3584 2943 3579 
Q 3009 3575 3134 3559 
L 3138 2547 
z
" transform="scale(0.015625)"/>
       <path id="DejaVuSans-Bold-74" d="M 1759 4494 
L 1759 3500 
L 2913 3500 
L 2913 2700 
L 1759 2700 
L 1759 1216 
Q 1759 972 1856 886 
Q 1953 800 2241 800 
L 2816 800 
L 2816 0 
L 1856 0 
Q 1194 0 917 276 
Q 641 553 641 1216 
L 641 2700 
L 84 2700 
L 84 3500 
L 641 3500 
L 641 4494 
L 1759 4494 
z
" transform="scale(0.015625)"/>
       <path id="DejaVuSans-Bold-69" d="M 538 3500 
L 1656 3500 
L 1656 0 
L 538 0 
L 538 3500 
z
M 538 4863 
L 1656 4863 
L 1656 3950 
L 538 3950 
L 538 4863 
z
" transform="scale(0.015625)"/>
       <path id="DejaVuSans-Bold-63" d="M 3366 3391 
L 3366 2478 
Q 3138 2634 2908 2709 
Q 2678 2784 2431 2784 
Q 1963 2784 1702 2511 
Q 1441 2238 1441 1747 
Q 1441 1256 1702 982 
Q 1963 709 2431 709 
Q 2694 709 2930 787 
Q 3166 866 3366 1019 
L 3366 103 
Q 3103 6 2833 -42 
Q 2563 -91 2291 -91 
Q 1344 -91 809 395 
Q 275 881 275 1747 
Q 275 2613 809 3098 
Q 1344 3584 2291 3584 
Q 2566 3584 2833 3536 
Q 3100 3488 3366 3391 
z
" transform="scale(0.015625)"/>
       <path id="DejaVuSans-Bold-61" d="M 2106 1575 
Q 1756 1575 1579 1456 
Q 1403 1338 1403 1106 
Q 1403 894 1545 773 
Q 1688 653 1941 653 
Q 2256 653 2472 879 
Q 2688 1106 2688 1447 
L 2688 1575 
L 2106 1575 
z
M 3816 1997 
L 3816 0 
L 2688 0 
L 2688 519 
Q 2463 200 2181 54 
Q 1900 -91 1497 -91 
Q 953 -91 614 226 
Q 275 544 275 1050 
Q 275 1666 698 1953 
Q 1122 2241 2028 2241 
L 2688 2241 
L 2688 2328 
Q 2688 2594 2478 2717 
Q 2269 2841 1825 2841 
Q 1466 2841 1156 2769 
Q 847 2697 581 2553 
L 581 3406 
Q 941 3494 1303 3539 
Q 1666 3584 2028 3584 
Q 2975 3584 3395 3211 
Q 3816 2838 3816 1997 
z
" transform="scale(0.015625)"/>
       <path id="DejaVuSans-Bold-6c" d="M 538 4863 
L 1656 4863 
L 1656 0 
L 538 0 
L 538 4863 
z
" transform="scale(0.015625)"/>
       <path id="DejaVuSans-Bold-20" transform="scale(0.015625)"/>
       <path id="DejaVuSans-Bold-51" d="M 2847 -84 
L 2753 -84 
Q 1600 -84 959 553 
Q 319 1191 319 2328 
Q 319 3463 958 4106 
Q 1597 4750 2719 4750 
Q 3853 4750 4486 4112 
Q 5119 3475 5119 2328 
Q 5119 1541 4783 972 
Q 4447 403 3816 116 
L 4756 -934 
L 3609 -934 
L 2847 -84 
z
M 2719 3878 
Q 2169 3878 1866 3472 
Q 1563 3066 1563 2328 
Q 1563 1578 1859 1179 
Q 2156 781 2719 781 
Q 3272 781 3575 1187 
Q 3878 1594 3878 2328 
Q 3878 3066 3575 3472 
Q 3272 3878 2719 3878 
z
" transform="scale(0.015625)"/>
       <path id="DejaVuSans-Bold-75" d="M 500 1363 
L 500 3500 
L 1625 3500 
L 1625 3150 
Q 1625 2866 1622 2436 
Q 1619 2006 1619 1863 
Q 1619 1441 1641 1255 
Q 1663 1069 1716 984 
Q 1784 875 1895 815 
Q 2006 756 2150 756 
Q 2500 756 2700 1025 
Q 2900 1294 2900 1772 
L 2900 3500 
L 4019 3500 
L 4019 0 
L 2900 0 
L 2900 506 
Q 2647 200 2364 54 
Q 2081 -91 1741 -91 
Q 1134 -91 817 281 
Q 500 653 500 1363 
z
" transform="scale(0.015625)"/>
       <path id="DejaVuSans-Bold-6e" d="M 4056 2131 
L 4056 0 
L 2931 0 
L 2931 347 
L 2931 1631 
Q 2931 2084 2911 2256 
Q 2891 2428 2841 2509 
Q 2775 2619 2662 2680 
Q 2550 2741 2406 2741 
Q 2056 2741 1856 2470 
Q 1656 2200 1656 1722 
L 1656 0 
L 538 0 
L 538 3500 
L 1656 3500 
L 1656 2988 
Q 1909 3294 2193 3439 
Q 2478 3584 2822 3584 
Q 3428 3584 3742 3212 
Q 4056 2841 4056 2131 
z
" transform="scale(0.015625)"/>
       <path id="DejaVuSans-Bold-73" d="M 3272 3391 
L 3272 2541 
Q 2913 2691 2578 2766 
Q 2244 2841 1947 2841 
Q 1628 2841 1473 2761 
Q 1319 2681 1319 2516 
Q 1319 2381 1436 2309 
Q 1553 2238 1856 2203 
L 2053 2175 
Q 2913 2066 3209 1816 
Q 3506 1566 3506 1031 
Q 3506 472 3093 190 
Q 2681 -91 1863 -91 
Q 1516 -91 1145 -36 
Q 775 19 384 128 
L 384 978 
Q 719 816 1070 734 
Q 1422 653 1784 653 
Q 2113 653 2278 743 
Q 2444 834 2444 1013 
Q 2444 1163 2330 1236 
Q 2216 1309 1875 1350 
L 1678 1375 
Q 931 1469 631 1722 
Q 331 1975 331 2491 
Q 331 3047 712 3315 
Q 1094 3584 1881 3584 
Q 2191 3584 2531 3537 
Q 2872 3491 3272 3391 
z
" transform="scale(0.015625)"/>
      </defs>
      <use xlink:href="#DejaVuSans-Bold-54"/>
      <use xlink:href="#DejaVuSans-Bold-68" x="68.212891"/>
      <use xlink:href="#DejaVuSans-Bold-65" x="139.404297"/>
      <use xlink:href="#DejaVuSans-Bold-6f" x="207.226562"/>
      <use xlink:href="#DejaVuSans-Bold-72" x="275.927734"/>
      <use xlink:href="#DejaVuSans-Bold-65" x="325.244141"/>
      <use xlink:href="#DejaVuSans-Bold-74" x="393.066406"/>
      <use xlink:href="#DejaVuSans-Bold-69" x="440.869141"/>
      <use xlink:href="#DejaVuSans-Bold-63" x="475.146484"/>
      <use xlink:href="#DejaVuSans-Bold-61" x="534.423828"/>
      <use xlink:href="#DejaVuSans-Bold-6c" x="601.904297"/>
      <use xlink:href="#DejaVuSans-Bold-20" x="636.181641"/>
      <use xlink:href="#DejaVuSans-Bold-51" x="670.996094"/>
      <use xlink:href="#DejaVuSans-Bold-75" x="756.005859"/>
      <use xlink:href="#DejaVuSans-Bold-61" x="827.197266"/>
      <use xlink:href="#DejaVuSans-Bold-6e" x="894.677734"/>
      <use xlink:href="#DejaVuSans-Bold-74" x="965.869141"/>
      <use xlink:href="#DejaVuSans-Bold-69" x="1013.671875"/>
      <use xlink:href="#DejaVuSans-Bold-6c" x="1047.949219"/>
      <use xlink:href="#DejaVuSans-Bold-65" x="1082.226562"/>
      <use xlink:href="#DejaVuSans-Bold-73" x="1150.048828"/>
     </g>
    </g>
   </g>
   <g id="matplotlib.axis_2">
    <g id="ytick_1">
     <g id="line2d_6">
      <defs>
       <path id="m014923c6bf" d="M 0 0 
L -3.5 0 
" style="stroke: #000000; stroke-width: 0.8"/>
      </defs>
      <g>
       <use xlink:href="#m014923c6bf" x="78.05" y="447.407434" style="stroke: #000000; stroke-width: 0.8"/>
      </g>
     </g>
     <g id="text_7">
      <!-- −1 -->
      <g transform="translate(38.617188 455.765715) scale(0.22 -0.22)">
       <use xlink:href="#DejaVuSans-2212"/>
       <use xlink:href="#DejaVuSans-31" x="83.789062"/>
      </g>
     </g>
    </g>
    <g id="ytick_2">
     <g id="line2d_7">
      <g>
       <use xlink:href="#m014923c6bf" x="78.05" y="369.187127" style="stroke: #000000; stroke-width: 0.8"/>
      </g>
     </g>
     <g id="text_8">
      <!-- 0 -->
      <g transform="translate(57.0525 377.545408) scale(0.22 -0.22)">
       <use xlink:href="#DejaVuSans-30"/>
      </g>
     </g>
    </g>
    <g id="ytick_3">
     <g id="line2d_8">
      <g>
       <use xlink:href="#m014923c6bf" x="78.05" y="290.966819" style="stroke: #000000; stroke-width: 0.8"/>
      </g>
     </g>
     <g id="text_9">
      <!-- 1 -->
      <g transform="translate(57.0525 299.325101) scale(0.22 -0.22)">
       <use xlink:href="#DejaVuSans-31"/>
      </g>
     </g>
    </g>
    <g id="ytick_4">
     <g id="line2d_9">
      <g>
       <use xlink:href="#m014923c6bf" x="78.05" y="212.746512" style="stroke: #000000; stroke-width: 0.8"/>
      </g>
     </g>
     <g id="text_10">
      <!-- 2 -->
      <g transform="translate(57.0525 221.104794) scale(0.22 -0.22)">
       <use xlink:href="#DejaVuSans-32"/>
      </g>
     </g>
    </g>
    <g id="ytick_5">
     <g id="line2d_10">
      <g>
       <use xlink:href="#m014923c6bf" x="78.05" y="134.526205" style="stroke: #000000; stroke-width: 0.8"/>
      </g>
     </g>
     <g id="text_11">
      <!-- 3 -->
      <g transform="translate(57.0525 142.884486) scale(0.22 -0.22)">
       <use xlink:href="#DejaVuSans-33"/>
      </g>
     </g>
    </g>
    <g id="ytick_6">
     <g id="line2d_11">
      <g>
       <use xlink:href="#m014923c6bf" x="78.05" y="56.305898" style="stroke: #000000; stroke-width: 0.8"/>
      </g>
     </g>
     <g id="text_12">
      <!-- 4 -->
      <g transform="translate(57.0525 64.664179) scale(0.22 -0.22)">
       <defs>
        <path id="DejaVuSans-34" d="M 2419 4116 
L 825 1625 
L 2419 1625 
L 2419 4116 
z
M 2253 4666 
L 3047 4666 
L 3047 1625 
L 3713 1625 
L 3713 1100 
L 3047 1100 
L 3047 0 
L 2419 0 
L 2419 1100 
L 313 1100 
L 313 1709 
L 2253 4666 
z
" transform="scale(0.015625)"/>
       </defs>
       <use xlink:href="#DejaVuSans-34"/>
      </g>
     </g>
    </g>
    <g id="text_13">
     <!-- Sample Quantiles -->
     <g transform="translate(29.625938 392.87375) rotate(-90) scale(0.24 -0.24)">
      <defs>
       <path id="DejaVuSans-Bold-53" d="M 3834 4519 
L 3834 3531 
Q 3450 3703 3084 3790 
Q 2719 3878 2394 3878 
Q 1963 3878 1756 3759 
Q 1550 3641 1550 3391 
Q 1550 3203 1689 3098 
Q 1828 2994 2194 2919 
L 2706 2816 
Q 3484 2659 3812 2340 
Q 4141 2022 4141 1434 
Q 4141 663 3683 286 
Q 3225 -91 2284 -91 
Q 1841 -91 1394 -6 
Q 947 78 500 244 
L 500 1259 
Q 947 1022 1364 901 
Q 1781 781 2169 781 
Q 2563 781 2772 912 
Q 2981 1044 2981 1288 
Q 2981 1506 2839 1625 
Q 2697 1744 2272 1838 
L 1806 1941 
Q 1106 2091 782 2419 
Q 459 2747 459 3303 
Q 459 4000 909 4375 
Q 1359 4750 2203 4750 
Q 2588 4750 2994 4692 
Q 3400 4634 3834 4519 
z
" transform="scale(0.015625)"/>
       <path id="DejaVuSans-Bold-6d" d="M 3781 2919 
Q 3994 3244 4286 3414 
Q 4578 3584 4928 3584 
Q 5531 3584 5847 3212 
Q 6163 2841 6163 2131 
L 6163 0 
L 5038 0 
L 5038 1825 
Q 5041 1866 5042 1909 
Q 5044 1953 5044 2034 
Q 5044 2406 4934 2573 
Q 4825 2741 4581 2741 
Q 4263 2741 4089 2478 
Q 3916 2216 3909 1719 
L 3909 0 
L 2784 0 
L 2784 1825 
Q 2784 2406 2684 2573 
Q 2584 2741 2328 2741 
Q 2006 2741 1831 2477 
Q 1656 2213 1656 1722 
L 1656 0 
L 531 0 
L 531 3500 
L 1656 3500 
L 1656 2988 
Q 1863 3284 2130 3434 
Q 2397 3584 2719 3584 
Q 3081 3584 3359 3409 
Q 3638 3234 3781 2919 
z
" transform="scale(0.015625)"/>
       <path id="DejaVuSans-Bold-70" d="M 1656 506 
L 1656 -1331 
L 538 -1331 
L 538 3500 
L 1656 3500 
L 1656 2988 
Q 1888 3294 2169 3439 
Q 2450 3584 2816 3584 
Q 3463 3584 3878 3070 
Q 4294 2556 4294 1747 
Q 4294 938 3878 423 
Q 3463 -91 2816 -91 
Q 2450 -91 2169 54 
Q 1888 200 1656 506 
z
M 2400 2772 
Q 2041 2772 1848 2508 
Q 1656 2244 1656 1747 
Q 1656 1250 1848 986 
Q 2041 722 2400 722 
Q 2759 722 2948 984 
Q 3138 1247 3138 1747 
Q 3138 2247 2948 2509 
Q 2759 2772 2400 2772 
z
" transform="scale(0.015625)"/>
      </defs>
      <use xlink:href="#DejaVuSans-Bold-53"/>
      <use xlink:href="#DejaVuSans-Bold-61" x="72.021484"/>
      <use xlink:href="#DejaVuSans-Bold-6d" x="139.501953"/>
      <use xlink:href="#DejaVuSans-Bold-70" x="243.701172"/>
      <use xlink:href="#DejaVuSans-Bold-6c" x="315.283203"/>
      <use xlink:href="#DejaVuSans-Bold-65" x="349.560547"/>
      <use xlink:href="#DejaVuSans-Bold-20" x="417.382812"/>
      <use xlink:href="#DejaVuSans-Bold-51" x="452.197266"/>
      <use xlink:href="#DejaVuSans-Bold-75" x="537.207031"/>
      <use xlink:href="#DejaVuSans-Bold-61" x="608.398438"/>
      <use xlink:href="#DejaVuSans-Bold-6e" x="675.878906"/>
      <use xlink:href="#DejaVuSans-Bold-74" x="747.070312"/>
      <use xlink:href="#DejaVuSans-Bold-69" x="794.873047"/>
      <use xlink:href="#DejaVuSans-Bold-6c" x="829.150391"/>
      <use xlink:href="#DejaVuSans-Bold-65" x="863.427734"/>
      <use xlink:href="#DejaVuSans-Bold-73" x="931.25"/>
     </g>
    </g>
   </g>
   <g id="line2d_12">
    <defs>
     <path id="m70428561a3" d="M 0 3 
C 0.795609 3 1.55874 2.683901 2.12132 2.12132 
C 2.683901 1.55874 3 0.795609 3 0 
C 3 -0.795609 2.683901 -1.55874 2.12132 -2.12132 
C 1.55874 -2.683901 0.795609 -3 0 -3 
C -0.795609 -3 -1.55874 -2.683901 -2.12132 -2.12132 
C -2.683901 -1.55874 -3 -0.795609 -3 0 
C -3 0.795609 -2.683901 1.55874 -2.12132 2.12132 
C -1.55874 2.683901 -0.795609 3 0 3 
z
" style="stroke: #0000ff"/>
    </defs>
    <g clip-path="url(#pad9d3aae3f)">
     <use xlink:href="#m70428561a3" x="113.284091" y="465.138356" style="fill: #0000ff; stroke: #0000ff"/>
     <use xlink:href="#m70428561a3" x="161.416148" y="461.410856" style="fill: #0000ff; stroke: #0000ff"/>
     <use xlink:href="#m70428561a3" x="189.248032" y="448.057916" style="fill: #0000ff; stroke: #0000ff"/>
     <use xlink:href="#m70428561a3" x="209.395161" y="443.069634" style="fill: #0000ff; stroke: #0000ff"/>
     <use xlink:href="#m70428561a3" x="225.459698" y="434.019374" style="fill: #0000ff; stroke: #0000ff"/>
     <use xlink:href="#m70428561a3" x="238.96663" y="411.381193" style="fill: #0000ff; stroke: #0000ff"/>
     <use xlink:href="#m70428561a3" x="250.711621" y="404.47215" style="fill: #0000ff; stroke: #0000ff"/>
     <use xlink:href="#m70428561a3" x="261.16488" y="398.55706" style="fill: #0000ff; stroke: #0000ff"/>
     <use xlink:href="#m70428561a3" x="270.628529" y="394.044384" style="fill: #0000ff; stroke: #0000ff"/>
     <use xlink:href="#m70428561a3" x="279.308773" y="387.528849" style="fill: #0000ff; stroke: #0000ff"/>
     <use xlink:href="#m70428561a3" x="287.352944" y="385.589577" style="fill: #0000ff; stroke: #0000ff"/>
     <use xlink:href="#m70428561a3" x="294.870162" y="380.234142" style="fill: #0000ff; stroke: #0000ff"/>
     <use xlink:href="#m70428561a3" x="301.943627" y="375.469233" style="fill: #0000ff; stroke: #0000ff"/>
     <use xlink:href="#m70428561a3" x="308.638313" y="370.450735" style="fill: #0000ff; stroke: #0000ff"/>
     <use xlink:href="#m70428561a3" x="315.005995" y="370.240808" style="fill: #0000ff; stroke: #0000ff"/>
     <use xlink:href="#m70428561a3" x="321.088641" y="363.794462" style="fill: #0000ff; stroke: #0000ff"/>
     <use xlink:href="#m70428561a3" x="326.920784" y="361.272399" style="fill: #0000ff; stroke: #0000ff"/>
     <use xlink:href="#m70428561a3" x="332.531207" y="355.117967" style="fill: #0000ff; stroke: #0000ff"/>
     <use xlink:href="#m70428561a3" x="337.944179" y="354.69332" style="fill: #0000ff; stroke: #0000ff"/>
     <use xlink:href="#m70428561a3" x="343.180372" y="345.78221" style="fill: #0000ff; stroke: #0000ff"/>
     <use xlink:href="#m70428561a3" x="348.257558" y="343.726734" style="fill: #0000ff; stroke: #0000ff"/>
     <use xlink:href="#m70428561a3" x="353.191142" y="342.488622" style="fill: #0000ff; stroke: #0000ff"/>
     <use xlink:href="#m70428561a3" x="357.994581" y="338.029844" style="fill: #0000ff; stroke: #0000ff"/>
     <use xlink:href="#m70428561a3" x="362.679713" y="336.134435" style="fill: #0000ff; stroke: #0000ff"/>
     <use xlink:href="#m70428561a3" x="367.257015" y="334.255282" style="fill: #0000ff; stroke: #0000ff"/>
     <use xlink:href="#m70428561a3" x="371.735823" y="332.216467" style="fill: #0000ff; stroke: #0000ff"/>
     <use xlink:href="#m70428561a3" x="376.124495" y="327.446305" style="fill: #0000ff; stroke: #0000ff"/>
     <use xlink:href="#m70428561a3" x="380.430561" y="326.92698" style="fill: #0000ff; stroke: #0000ff"/>
     <use xlink:href="#m70428561a3" x="384.660833" y="325.435502" style="fill: #0000ff; stroke: #0000ff"/>
     <use xlink:href="#m70428561a3" x="388.821508" y="321.436793" style="fill: #0000ff; stroke: #0000ff"/>
     <use xlink:href="#m70428561a3" x="392.918247" y="320.849181" style="fill: #0000ff; stroke: #0000ff"/>
     <use xlink:href="#m70428561a3" x="396.956246" y="319.580911" style="fill: #0000ff; stroke: #0000ff"/>
     <use xlink:href="#m70428561a3" x="400.940293" y="318.753094" style="fill: #0000ff; stroke: #0000ff"/>
     <use xlink:href="#m70428561a3" x="404.874821" y="318.313834" style="fill: #0000ff; stroke: #0000ff"/>
     <use xlink:href="#m70428561a3" x="408.76395" y="316.161591" style="fill: #0000ff; stroke: #0000ff"/>
     <use xlink:href="#m70428561a3" x="412.611526" y="315.987295" style="fill: #0000ff; stroke: #0000ff"/>
     <use xlink:href="#m70428561a3" x="416.421154" y="314.039987" style="fill: #0000ff; stroke: #0000ff"/>
     <use xlink:href="#m70428561a3" x="420.196223" y="313.512681" style="fill: #0000ff; stroke: #0000ff"/>
     <use xlink:href="#m70428561a3" x="423.939938" y="311.929571" style="fill: #0000ff; stroke: #0000ff"/>
     <use xlink:href="#m70428561a3" x="427.655338" y="305.028954" style="fill: #0000ff; stroke: #0000ff"/>
     <use xlink:href="#m70428561a3" x="431.345315" y="303.820338" style="fill: #0000ff; stroke: #0000ff"/>
     <use xlink:href="#m70428561a3" x="435.012639" y="298.275173" style="fill: #0000ff; stroke: #0000ff"/>
     <use xlink:href="#m70428561a3" x="438.659966" y="295.946357" style="fill: #0000ff; stroke: #0000ff"/>
     <use xlink:href="#m70428561a3" x="442.289859" y="295.172421" style="fill: #0000ff; stroke: #0000ff"/>
     <use xlink:href="#m70428561a3" x="445.904798" y="294.534175" style="fill: #0000ff; stroke: #0000ff"/>
     <use xlink:href="#m70428561a3" x="449.507196" y="294.504356" style="fill: #0000ff; stroke: #0000ff"/>
     <use xlink:href="#m70428561a3" x="453.099409" y="292.990108" style="fill: #0000ff; stroke: #0000ff"/>
     <use xlink:href="#m70428561a3" x="456.683745" y="291.255701" style="fill: #0000ff; stroke: #0000ff"/>
     <use xlink:href="#m70428561a3" x="460.262481" y="291.158614" style="fill: #0000ff; stroke: #0000ff"/>
     <use xlink:href="#m70428561a3" x="463.837865" y="289.414064" style="fill: #0000ff; stroke: #0000ff"/>
     <use xlink:href="#m70428561a3" x="467.412135" y="287.47698" style="fill: #0000ff; stroke: #0000ff"/>
     <use xlink:href="#m70428561a3" x="470.987519" y="286.283476" style="fill: #0000ff; stroke: #0000ff"/>
     <use xlink:href="#m70428561a3" x="474.566255" y="280.693368" style="fill: #0000ff; stroke: #0000ff"/>
     <use xlink:href="#m70428561a3" x="478.150591" y="278.385973" style="fill: #0000ff; stroke: #0000ff"/>
     <use xlink:href="#m70428561a3" x="481.742804" y="278.19886" style="fill: #0000ff; stroke: #0000ff"/>
     <use xlink:href="#m70428561a3" x="485.345202" y="278.003663" style="fill: #0000ff; stroke: #0000ff"/>
     <use xlink:href="#m70428561a3" x="488.960141" y="277.775059" style="fill: #0000ff; stroke: #0000ff"/>
     <use xlink:href="#m70428561a3" x="492.590034" y="276.963647" style="fill: #0000ff; stroke: #0000ff"/>
     <use xlink:href="#m70428561a3" x="496.237361" y="273.879625" style="fill: #0000ff; stroke: #0000ff"/>
     <use xlink:href="#m70428561a3" x="499.904685" y="272.417053" style="fill: #0000ff; stroke: #0000ff"/>
     <use xlink:href="#m70428561a3" x="503.594662" y="272.062071" style="fill: #0000ff; stroke: #0000ff"/>
     <use xlink:href="#m70428561a3" x="507.310062" y="271.252955" style="fill: #0000ff; stroke: #0000ff"/>
     <use xlink:href="#m70428561a3" x="511.053777" y="269.770623" style="fill: #0000ff; stroke: #0000ff"/>
     <use xlink:href="#m70428561a3" x="514.828846" y="269.482352" style="fill: #0000ff; stroke: #0000ff"/>
     <use xlink:href="#m70428561a3" x="518.638474" y="268.428869" style="fill: #0000ff; stroke: #0000ff"/>
     <use xlink:href="#m70428561a3" x="522.48605" y="265.810865" style="fill: #0000ff; stroke: #0000ff"/>
     <use xlink:href="#m70428561a3" x="526.375179" y="264.508404" style="fill: #0000ff; stroke: #0000ff"/>
     <use xlink:href="#m70428561a3" x="530.309707" y="263.597649" style="fill: #0000ff; stroke: #0000ff"/>
     <use xlink:href="#m70428561a3" x="534.293754" y="262.931078" style="fill: #0000ff; stroke: #0000ff"/>
     <use xlink:href="#m70428561a3" x="538.331753" y="254.646314" style="fill: #0000ff; stroke: #0000ff"/>
     <use xlink:href="#m70428561a3" x="542.428492" y="254.451308" style="fill: #0000ff; stroke: #0000ff"/>
     <use xlink:href="#m70428561a3" x="546.589167" y="253.810411" style="fill: #0000ff; stroke: #0000ff"/>
     <use xlink:href="#m70428561a3" x="550.819439" y="250.476108" style="fill: #0000ff; stroke: #0000ff"/>
     <use xlink:href="#m70428561a3" x="555.125505" y="248.006844" style="fill: #0000ff; stroke: #0000ff"/>
     <use xlink:href="#m70428561a3" x="559.514177" y="246.788291" style="fill: #0000ff; stroke: #0000ff"/>
     <use xlink:href="#m70428561a3" x="563.992985" y="246.131787" style="fill: #0000ff; stroke: #0000ff"/>
     <use xlink:href="#m70428561a3" x="568.570287" y="240.695264" style="fill: #0000ff; stroke: #0000ff"/>
     <use xlink:href="#m70428561a3" x="573.255419" y="236.466755" style="fill: #0000ff; stroke: #0000ff"/>
     <use xlink:href="#m70428561a3" x="578.058858" y="236.092805" style="fill: #0000ff; stroke: #0000ff"/>
     <use xlink:href="#m70428561a3" x="582.992442" y="236.005567" style="fill: #0000ff; stroke: #0000ff"/>
     <use xlink:href="#m70428561a3" x="588.069628" y="235.427726" style="fill: #0000ff; stroke: #0000ff"/>
     <use xlink:href="#m70428561a3" x="593.305821" y="233.524302" style="fill: #0000ff; stroke: #0000ff"/>
     <use xlink:href="#m70428561a3" x="598.718793" y="218.155656" style="fill: #0000ff; stroke: #0000ff"/>
     <use xlink:href="#m70428561a3" x="604.329216" y="213.669769" style="fill: #0000ff; stroke: #0000ff"/>
     <use xlink:href="#m70428561a3" x="610.161359" y="207.641363" style="fill: #0000ff; stroke: #0000ff"/>
     <use xlink:href="#m70428561a3" x="616.244005" y="204.164953" style="fill: #0000ff; stroke: #0000ff"/>
     <use xlink:href="#m70428561a3" x="622.611687" y="198.335445" style="fill: #0000ff; stroke: #0000ff"/>
     <use xlink:href="#m70428561a3" x="629.306373" y="197.098781" style="fill: #0000ff; stroke: #0000ff"/>
     <use xlink:href="#m70428561a3" x="636.379838" y="164.673011" style="fill: #0000ff; stroke: #0000ff"/>
     <use xlink:href="#m70428561a3" x="643.897056" y="161.191449" style="fill: #0000ff; stroke: #0000ff"/>
     <use xlink:href="#m70428561a3" x="651.941227" y="155.207988" style="fill: #0000ff; stroke: #0000ff"/>
     <use xlink:href="#m70428561a3" x="660.621471" y="154.53731" style="fill: #0000ff; stroke: #0000ff"/>
     <use xlink:href="#m70428561a3" x="670.08512" y="153.153626" style="fill: #0000ff; stroke: #0000ff"/>
     <use xlink:href="#m70428561a3" x="680.538379" y="146.765852" style="fill: #0000ff; stroke: #0000ff"/>
     <use xlink:href="#m70428561a3" x="692.28337" y="139.111489" style="fill: #0000ff; stroke: #0000ff"/>
     <use xlink:href="#m70428561a3" x="705.790302" y="137.363104" style="fill: #0000ff; stroke: #0000ff"/>
     <use xlink:href="#m70428561a3" x="721.854839" y="130.44634" style="fill: #0000ff; stroke: #0000ff"/>
     <use xlink:href="#m70428561a3" x="742.001968" y="99.11339" style="fill: #0000ff; stroke: #0000ff"/>
     <use xlink:href="#m70428561a3" x="769.833852" y="72.857432" style="fill: #0000ff; stroke: #0000ff"/>
     <use xlink:href="#m70428561a3" x="817.965909" y="59.816364" style="fill: #0000ff; stroke: #0000ff"/>
    </g>
   </g>
   <g id="line2d_13">
    <path d="M 113.284091 488.143636 
L 161.416148 460.424861 
L 189.248032 444.396754 
L 209.395161 432.794222 
L 225.459698 423.542814 
L 238.96663 415.764306 
L 250.711621 409.000482 
L 261.16488 402.980553 
L 270.628529 397.530532 
L 279.308773 392.531665 
L 287.352944 387.899107 
L 294.870162 383.570015 
L 301.943627 379.496476 
L 308.638313 375.641073 
L 315.005995 371.973988 
L 321.088641 368.471052 
L 326.920784 365.112379 
L 332.531207 361.881392 
L 337.944179 358.764115 
L 343.180372 355.748643 
L 348.257558 352.824742 
L 353.191142 349.98354 
L 357.994581 347.217287 
L 362.679713 344.519166 
L 367.257015 341.883143 
L 371.735823 339.303842 
L 376.124495 336.776449 
L 380.430561 334.296628 
L 384.660833 331.860456 
L 388.821508 329.464365 
L 392.918247 327.105093 
L 396.956246 324.77965 
L 400.940293 322.485277 
L 404.874821 320.219421 
L 408.76395 317.97971 
L 412.611526 315.763928 
L 416.421154 313.570002 
L 420.196223 311.395976 
L 423.939938 309.240008 
L 427.655338 307.100346 
L 431.345315 304.975325 
L 435.012639 302.863349 
L 438.659966 300.76289 
L 442.289859 298.672471 
L 445.904798 296.590663 
L 449.507196 294.516077 
L 453.099409 292.447358 
L 456.683745 290.383174 
L 460.262481 288.322216 
L 463.837865 286.263187 
L 467.412135 284.2048 
L 470.987519 282.145772 
L 474.566255 280.084813 
L 478.150591 278.020629 
L 481.742804 275.95191 
L 485.345202 273.877324 
L 488.960141 271.795517 
L 492.590034 269.705097 
L 496.237361 267.604638 
L 499.904685 265.492663 
L 503.594662 263.367641 
L 507.310062 261.227979 
L 511.053777 259.072011 
L 514.828846 256.897986 
L 518.638474 254.704059 
L 522.48605 252.488278 
L 526.375179 250.248566 
L 530.309707 247.982711 
L 534.293754 245.688338 
L 538.331753 243.362894 
L 542.428492 241.003623 
L 546.589167 238.607531 
L 550.819439 236.171359 
L 555.125505 233.691539 
L 559.514177 231.164146 
L 563.992985 228.584845 
L 568.570287 225.948822 
L 573.255419 223.250701 
L 578.058858 220.484448 
L 582.992442 217.643245 
L 588.069628 214.719344 
L 593.305821 211.703873 
L 598.718793 208.586596 
L 604.329216 205.355608 
L 610.161359 201.996935 
L 616.244005 198.493999 
L 622.611687 194.826914 
L 629.306373 190.971511 
L 636.379838 186.897972 
L 643.897056 182.568881 
L 651.941227 177.936322 
L 660.621471 172.937456 
L 670.08512 167.487434 
L 680.538379 161.467506 
L 692.28337 154.703681 
L 705.790302 146.925173 
L 721.854839 137.673765 
L 742.001968 126.071233 
L 769.833852 110.043126 
L 817.965909 82.324351 
" clip-path="url(#pad9d3aae3f)" style="fill: none; stroke: #ff0000; stroke-width: 1.5; stroke-linecap: square"/>
   </g>
   <g id="patch_3">
    <path d="M 78.05 509.56 
L 78.05 38.4 
" style="fill: none; stroke: #000000; stroke-width: 0.8; stroke-linejoin: miter; stroke-linecap: square"/>
   </g>
   <g id="patch_4">
    <path d="M 853.2 509.56 
L 853.2 38.4 
" style="fill: none; stroke: #000000; stroke-width: 0.8; stroke-linejoin: miter; stroke-linecap: square"/>
   </g>
   <g id="patch_5">
    <path d="M 78.05 509.56 
L 853.2 509.56 
" style="fill: none; stroke: #000000; stroke-width: 0.8; stroke-linejoin: miter; stroke-linecap: square"/>
   </g>
   <g id="patch_6">
    <path d="M 78.05 38.4 
L 853.2 38.4 
" style="fill: none; stroke: #000000; stroke-width: 0.8; stroke-linejoin: miter; stroke-linecap: square"/>
   </g>
   <g id="text_14">
    <!-- QQ Plot (BNN FC1 Index None, r=0.9905) -->
    <g transform="translate(142.23375 32.4) scale(0.28 -0.28)">
     <defs>
      <path id="DejaVuSans-Bold-50" d="M 588 4666 
L 2584 4666 
Q 3475 4666 3951 4270 
Q 4428 3875 4428 3144 
Q 4428 2409 3951 2014 
Q 3475 1619 2584 1619 
L 1791 1619 
L 1791 0 
L 588 0 
L 588 4666 
z
M 1791 3794 
L 1791 2491 
L 2456 2491 
Q 2806 2491 2997 2661 
Q 3188 2831 3188 3144 
Q 3188 3456 2997 3625 
Q 2806 3794 2456 3794 
L 1791 3794 
z
" transform="scale(0.015625)"/>
      <path id="DejaVuSans-Bold-28" d="M 2413 -844 
L 1484 -844 
Q 1006 -72 778 623 
Q 550 1319 550 2003 
Q 550 2688 779 3389 
Q 1009 4091 1484 4856 
L 2413 4856 
Q 2013 4116 1813 3408 
Q 1613 2700 1613 2009 
Q 1613 1319 1811 609 
Q 2009 -100 2413 -844 
z
" transform="scale(0.015625)"/>
      <path id="DejaVuSans-Bold-42" d="M 2456 2859 
Q 2741 2859 2887 2984 
Q 3034 3109 3034 3353 
Q 3034 3594 2887 3720 
Q 2741 3847 2456 3847 
L 1791 3847 
L 1791 2859 
L 2456 2859 
z
M 2497 819 
Q 2859 819 3042 972 
Q 3225 1125 3225 1434 
Q 3225 1738 3044 1889 
Q 2863 2041 2497 2041 
L 1791 2041 
L 1791 819 
L 2497 819 
z
M 3616 2497 
Q 4003 2384 4215 2081 
Q 4428 1778 4428 1338 
Q 4428 663 3972 331 
Q 3516 0 2584 0 
L 588 0 
L 588 4666 
L 2394 4666 
Q 3366 4666 3802 4372 
Q 4238 4078 4238 3431 
Q 4238 3091 4078 2852 
Q 3919 2613 3616 2497 
z
" transform="scale(0.015625)"/>
      <path id="DejaVuSans-Bold-4e" d="M 588 4666 
L 1931 4666 
L 3628 1466 
L 3628 4666 
L 4769 4666 
L 4769 0 
L 3425 0 
L 1728 3200 
L 1728 0 
L 588 0 
L 588 4666 
z
" transform="scale(0.015625)"/>
      <path id="DejaVuSans-Bold-46" d="M 588 4666 
L 3834 4666 
L 3834 3756 
L 1791 3756 
L 1791 2888 
L 3713 2888 
L 3713 1978 
L 1791 1978 
L 1791 0 
L 588 0 
L 588 4666 
z
" transform="scale(0.015625)"/>
      <path id="DejaVuSans-Bold-43" d="M 4288 256 
Q 3956 84 3597 -3 
Q 3238 -91 2847 -91 
Q 1681 -91 1000 561 
Q 319 1213 319 2328 
Q 319 3447 1000 4098 
Q 1681 4750 2847 4750 
Q 3238 4750 3597 4662 
Q 3956 4575 4288 4403 
L 4288 3438 
Q 3953 3666 3628 3772 
Q 3303 3878 2944 3878 
Q 2300 3878 1931 3465 
Q 1563 3053 1563 2328 
Q 1563 1606 1931 1193 
Q 2300 781 2944 781 
Q 3303 781 3628 887 
Q 3953 994 4288 1222 
L 4288 256 
z
" transform="scale(0.015625)"/>
      <path id="DejaVuSans-Bold-31" d="M 750 831 
L 1813 831 
L 1813 3847 
L 722 3622 
L 722 4441 
L 1806 4666 
L 2950 4666 
L 2950 831 
L 4013 831 
L 4013 0 
L 750 0 
L 750 831 
z
" transform="scale(0.015625)"/>
      <path id="DejaVuSans-Bold-49" d="M 588 4666 
L 1791 4666 
L 1791 0 
L 588 0 
L 588 4666 
z
" transform="scale(0.015625)"/>
      <path id="DejaVuSans-Bold-64" d="M 2919 2988 
L 2919 4863 
L 4044 4863 
L 4044 0 
L 2919 0 
L 2919 506 
Q 2688 197 2409 53 
Q 2131 -91 1766 -91 
Q 1119 -91 703 423 
Q 288 938 288 1747 
Q 288 2556 703 3070 
Q 1119 3584 1766 3584 
Q 2128 3584 2408 3439 
Q 2688 3294 2919 2988 
z
M 2181 722 
Q 2541 722 2730 984 
Q 2919 1247 2919 1747 
Q 2919 2247 2730 2509 
Q 2541 2772 2181 2772 
Q 1825 2772 1636 2509 
Q 1447 2247 1447 1747 
Q 1447 1247 1636 984 
Q 1825 722 2181 722 
z
" transform="scale(0.015625)"/>
      <path id="DejaVuSans-Bold-78" d="M 1422 1791 
L 159 3500 
L 1344 3500 
L 2059 2463 
L 2784 3500 
L 3969 3500 
L 2706 1797 
L 4031 0 
L 2847 0 
L 2059 1106 
L 1281 0 
L 97 0 
L 1422 1791 
z
" transform="scale(0.015625)"/>
      <path id="DejaVuSans-Bold-2c" d="M 653 1209 
L 1778 1209 
L 1778 256 
L 1006 -909 
L 341 -909 
L 653 256 
L 653 1209 
z
" transform="scale(0.015625)"/>
      <path id="DejaVuSans-Bold-3d" d="M 678 3084 
L 4684 3084 
L 4684 2350 
L 678 2350 
L 678 3084 
z
M 678 1663 
L 4684 1663 
L 4684 922 
L 678 922 
L 678 1663 
z
" transform="scale(0.015625)"/>
      <path id="DejaVuSans-Bold-30" d="M 2944 2338 
Q 2944 3213 2780 3570 
Q 2616 3928 2228 3928 
Q 1841 3928 1675 3570 
Q 1509 3213 1509 2338 
Q 1509 1453 1675 1090 
Q 1841 728 2228 728 
Q 2613 728 2778 1090 
Q 2944 1453 2944 2338 
z
M 4147 2328 
Q 4147 1169 3647 539 
Q 3147 -91 2228 -91 
Q 1306 -91 806 539 
Q 306 1169 306 2328 
Q 306 3491 806 4120 
Q 1306 4750 2228 4750 
Q 3147 4750 3647 4120 
Q 4147 3491 4147 2328 
z
" transform="scale(0.015625)"/>
      <path id="DejaVuSans-Bold-2e" d="M 653 1209 
L 1778 1209 
L 1778 0 
L 653 0 
L 653 1209 
z
" transform="scale(0.015625)"/>
      <path id="DejaVuSans-Bold-39" d="M 641 103 
L 641 966 
Q 928 831 1190 764 
Q 1453 697 1709 697 
Q 2247 697 2547 995 
Q 2847 1294 2900 1881 
Q 2688 1725 2447 1647 
Q 2206 1569 1925 1569 
Q 1209 1569 770 1986 
Q 331 2403 331 3084 
Q 331 3838 820 4291 
Q 1309 4744 2131 4744 
Q 3044 4744 3544 4128 
Q 4044 3513 4044 2388 
Q 4044 1231 3459 570 
Q 2875 -91 1856 -91 
Q 1528 -91 1228 -42 
Q 928 6 641 103 
z
M 2125 2350 
Q 2441 2350 2600 2554 
Q 2759 2759 2759 3169 
Q 2759 3575 2600 3781 
Q 2441 3988 2125 3988 
Q 1809 3988 1650 3781 
Q 1491 3575 1491 3169 
Q 1491 2759 1650 2554 
Q 1809 2350 2125 2350 
z
" transform="scale(0.015625)"/>
      <path id="DejaVuSans-Bold-35" d="M 678 4666 
L 3669 4666 
L 3669 3781 
L 1638 3781 
L 1638 3059 
Q 1775 3097 1914 3117 
Q 2053 3138 2203 3138 
Q 3056 3138 3531 2711 
Q 4006 2284 4006 1522 
Q 4006 766 3489 337 
Q 2972 -91 2053 -91 
Q 1656 -91 1267 -14 
Q 878 63 494 219 
L 494 1166 
Q 875 947 1217 837 
Q 1559 728 1863 728 
Q 2300 728 2551 942 
Q 2803 1156 2803 1522 
Q 2803 1891 2551 2103 
Q 2300 2316 1863 2316 
Q 1603 2316 1309 2248 
Q 1016 2181 678 2041 
L 678 4666 
z
" transform="scale(0.015625)"/>
      <path id="DejaVuSans-Bold-29" d="M 513 -844 
Q 913 -100 1113 609 
Q 1313 1319 1313 2009 
Q 1313 2700 1113 3408 
Q 913 4116 513 4856 
L 1441 4856 
Q 1916 4091 2145 3389 
Q 2375 2688 2375 2003 
Q 2375 1319 2147 623 
Q 1919 -72 1441 -844 
L 513 -844 
z
" transform="scale(0.015625)"/>
     </defs>
     <use xlink:href="#DejaVuSans-Bold-51"/>
     <use xlink:href="#DejaVuSans-Bold-51" x="85.009766"/>
     <use xlink:href="#DejaVuSans-Bold-20" x="170.019531"/>
     <use xlink:href="#DejaVuSans-Bold-50" x="204.833984"/>
     <use xlink:href="#DejaVuSans-Bold-6c" x="278.125"/>
     <use xlink:href="#DejaVuSans-Bold-6f" x="312.402344"/>
     <use xlink:href="#DejaVuSans-Bold-74" x="381.103516"/>
     <use xlink:href="#DejaVuSans-Bold-20" x="428.90625"/>
     <use xlink:href="#DejaVuSans-Bold-28" x="463.720703"/>
     <use xlink:href="#DejaVuSans-Bold-42" x="509.423828"/>
     <use xlink:href="#DejaVuSans-Bold-4e" x="585.644531"/>
     <use xlink:href="#DejaVuSans-Bold-4e" x="669.335938"/>
     <use xlink:href="#DejaVuSans-Bold-20" x="753.027344"/>
     <use xlink:href="#DejaVuSans-Bold-46" x="787.841797"/>
     <use xlink:href="#DejaVuSans-Bold-43" x="856.152344"/>
     <use xlink:href="#DejaVuSans-Bold-31" x="929.541016"/>
     <use xlink:href="#DejaVuSans-Bold-20" x="999.121094"/>
     <use xlink:href="#DejaVuSans-Bold-49" x="1033.935547"/>
     <use xlink:href="#DejaVuSans-Bold-6e" x="1071.142578"/>
     <use xlink:href="#DejaVuSans-Bold-64" x="1142.333984"/>
     <use xlink:href="#DejaVuSans-Bold-65" x="1213.916016"/>
     <use xlink:href="#DejaVuSans-Bold-78" x="1281.738281"/>
     <use xlink:href="#DejaVuSans-Bold-20" x="1346.240234"/>
     <use xlink:href="#DejaVuSans-Bold-4e" x="1381.054688"/>
     <use xlink:href="#DejaVuSans-Bold-6f" x="1464.746094"/>
     <use xlink:href="#DejaVuSans-Bold-6e" x="1533.447266"/>
     <use xlink:href="#DejaVuSans-Bold-65" x="1604.638672"/>
     <use xlink:href="#DejaVuSans-Bold-2c" x="1672.460938"/>
     <use xlink:href="#DejaVuSans-Bold-20" x="1710.449219"/>
     <use xlink:href="#DejaVuSans-Bold-72" x="1745.263672"/>
     <use xlink:href="#DejaVuSans-Bold-3d" x="1794.580078"/>
     <use xlink:href="#DejaVuSans-Bold-30" x="1878.369141"/>
     <use xlink:href="#DejaVuSans-Bold-2e" x="1947.949219"/>
     <use xlink:href="#DejaVuSans-Bold-39" x="1985.9375"/>
     <use xlink:href="#DejaVuSans-Bold-39" x="2055.517578"/>
     <use xlink:href="#DejaVuSans-Bold-30" x="2125.097656"/>
     <use xlink:href="#DejaVuSans-Bold-35" x="2194.677734"/>
     <use xlink:href="#DejaVuSans-Bold-29" x="2264.257812"/>
    </g>
   </g>
  </g>
 </g>
 <defs>
  <clipPath id="pad9d3aae3f">
   <rect x="78.05" y="38.4" width="775.15" height="471.16"/>
  </clipPath>
 </defs>
</svg>
