<?xml version="1.0" encoding="utf-8" standalone="no"?>
<!DOCTYPE svg PUBLIC "-//W3C//DTD SVG 1.1//EN"
  "http://www.w3.org/Graphics/SVG/1.1/DTD/svg11.dtd">
<svg xmlns:xlink="http://www.w3.org/1999/xlink" width="864pt" height="576pt" viewBox="0 0 864 576" xmlns="http://www.w3.org/2000/svg" version="1.1">
 <metadata>
  <rdf:RDF xmlns:dc="http://purl.org/dc/elements/1.1/" xmlns:cc="http://creativecommons.org/ns#" xmlns:rdf="http://www.w3.org/1999/02/22-rdf-syntax-ns#">
   <cc:Work>
    <dc:type rdf:resource="http://purl.org/dc/dcmitype/StillImage"/>
<<<<<<<< HEAD:python/interface/SimulatorTool/plots/demo_qqplot_2.svg
    <dc:date>2025-06-30T18:31:51.391542</dc:date>
========
    <dc:date>2025-06-28T17:23:08.156761</dc:date>
>>>>>>>> 5baa6be6f14571bc06693767a5c4a170f787ac65:python/interface/SimulatorTool/plots/demo_qqplot.svg
    <dc:format>image/svg+xml</dc:format>
    <dc:creator>
     <cc:Agent>
      <dc:title>Matplotlib v3.10.3, https://matplotlib.org/</dc:title>
     </cc:Agent>
    </dc:creator>
   </cc:Work>
  </rdf:RDF>
 </metadata>
 <defs>
  <style type="text/css">*{stroke-linejoin: round; stroke-linecap: butt}</style>
 </defs>
 <g id="figure_1">
  <g id="patch_1">
   <path d="M 0 576 
L 864 576 
L 864 0 
L 0 0 
z
" style="fill: #ffffff"/>
  </g>
  <g id="axes_1">
   <g id="patch_2">
    <path d="M 77.87 509.56 
L 853.2 509.56 
L 853.2 38.4 
L 77.87 38.4 
z
" style="fill: #ffffff"/>
   </g>
   <g id="matplotlib.axis_1">
    <g id="xtick_1">
     <g id="line2d_1">
      <defs>
<<<<<<<< HEAD:python/interface/SimulatorTool/plots/demo_qqplot_2.svg
       <path id="m985824a719" d="M 0 0 
========
       <path id="mf31d9fb63f" d="M 0 0 
>>>>>>>> 5baa6be6f14571bc06693767a5c4a170f787ac65:python/interface/SimulatorTool/plots/demo_qqplot.svg
L 0 3.5 
" style="stroke: #000000; stroke-width: 0.8"/>
      </defs>
      <g>
<<<<<<<< HEAD:python/interface/SimulatorTool/plots/demo_qqplot_2.svg
       <use xlink:href="#m985824a719" x="179.249613" y="509.56" style="stroke: #000000; stroke-width: 0.8"/>
========
       <use xlink:href="#mf31d9fb63f" x="179.406077" y="509.56" style="stroke: #000000; stroke-width: 0.8"/>
>>>>>>>> 5baa6be6f14571bc06693767a5c4a170f787ac65:python/interface/SimulatorTool/plots/demo_qqplot.svg
      </g>
     </g>
     <g id="text_1">
      <!-- −1 -->
<<<<<<<< HEAD:python/interface/SimulatorTool/plots/demo_qqplot_2.svg
      <g transform="translate(163.033207 533.276562) scale(0.22 -0.22)">
========
      <g transform="translate(163.189671 533.276562) scale(0.22 -0.22)">
>>>>>>>> 5baa6be6f14571bc06693767a5c4a170f787ac65:python/interface/SimulatorTool/plots/demo_qqplot.svg
       <defs>
        <path id="DejaVuSans-2212" d="M 678 2272 
L 4684 2272 
L 4684 1741 
L 678 1741 
L 678 2272 
z
" transform="scale(0.015625)"/>
        <path id="DejaVuSans-31" d="M 794 531 
L 1825 531 
L 1825 4091 
L 703 3866 
L 703 4441 
L 1819 4666 
L 2450 4666 
L 2450 531 
L 3481 531 
L 3481 0 
L 794 0 
L 794 531 
z
" transform="scale(0.015625)"/>
       </defs>
       <use xlink:href="#DejaVuSans-2212"/>
       <use xlink:href="#DejaVuSans-31" transform="translate(83.789062 0)"/>
      </g>
     </g>
    </g>
    <g id="xtick_2">
     <g id="line2d_2">
      <g>
<<<<<<<< HEAD:python/interface/SimulatorTool/plots/demo_qqplot_2.svg
       <use xlink:href="#m985824a719" x="322.392307" y="509.56" style="stroke: #000000; stroke-width: 0.8"/>
========
       <use xlink:href="#mf31d9fb63f" x="322.515539" y="509.56" style="stroke: #000000; stroke-width: 0.8"/>
>>>>>>>> 5baa6be6f14571bc06693767a5c4a170f787ac65:python/interface/SimulatorTool/plots/demo_qqplot.svg
      </g>
     </g>
     <g id="text_2">
      <!-- 0 -->
<<<<<<<< HEAD:python/interface/SimulatorTool/plots/demo_qqplot_2.svg
      <g transform="translate(315.393557 533.276562) scale(0.22 -0.22)">
========
      <g transform="translate(315.516789 533.276562) scale(0.22 -0.22)">
>>>>>>>> 5baa6be6f14571bc06693767a5c4a170f787ac65:python/interface/SimulatorTool/plots/demo_qqplot.svg
       <defs>
        <path id="DejaVuSans-30" d="M 2034 4250 
Q 1547 4250 1301 3770 
Q 1056 3291 1056 2328 
Q 1056 1369 1301 889 
Q 1547 409 2034 409 
Q 2525 409 2770 889 
Q 3016 1369 3016 2328 
Q 3016 3291 2770 3770 
Q 2525 4250 2034 4250 
z
M 2034 4750 
Q 2819 4750 3233 4129 
Q 3647 3509 3647 2328 
Q 3647 1150 3233 529 
Q 2819 -91 2034 -91 
Q 1250 -91 836 529 
Q 422 1150 422 2328 
Q 422 3509 836 4129 
Q 1250 4750 2034 4750 
z
" transform="scale(0.015625)"/>
       </defs>
       <use xlink:href="#DejaVuSans-30"/>
      </g>
     </g>
    </g>
    <g id="xtick_3">
     <g id="line2d_3">
      <g>
<<<<<<<< HEAD:python/interface/SimulatorTool/plots/demo_qqplot_2.svg
       <use xlink:href="#m985824a719" x="465.535" y="509.56" style="stroke: #000000; stroke-width: 0.8"/>
========
       <use xlink:href="#mf31d9fb63f" x="465.625" y="509.56" style="stroke: #000000; stroke-width: 0.8"/>
>>>>>>>> 5baa6be6f14571bc06693767a5c4a170f787ac65:python/interface/SimulatorTool/plots/demo_qqplot.svg
      </g>
     </g>
     <g id="text_3">
      <!-- 1 -->
<<<<<<<< HEAD:python/interface/SimulatorTool/plots/demo_qqplot_2.svg
      <g transform="translate(458.53625 533.276562) scale(0.22 -0.22)">
========
      <g transform="translate(458.62625 533.276562) scale(0.22 -0.22)">
>>>>>>>> 5baa6be6f14571bc06693767a5c4a170f787ac65:python/interface/SimulatorTool/plots/demo_qqplot.svg
       <use xlink:href="#DejaVuSans-31"/>
      </g>
     </g>
    </g>
    <g id="xtick_4">
     <g id="line2d_4">
      <g>
<<<<<<<< HEAD:python/interface/SimulatorTool/plots/demo_qqplot_2.svg
       <use xlink:href="#m985824a719" x="608.677693" y="509.56" style="stroke: #000000; stroke-width: 0.8"/>
========
       <use xlink:href="#mf31d9fb63f" x="608.734461" y="509.56" style="stroke: #000000; stroke-width: 0.8"/>
>>>>>>>> 5baa6be6f14571bc06693767a5c4a170f787ac65:python/interface/SimulatorTool/plots/demo_qqplot.svg
      </g>
     </g>
     <g id="text_4">
      <!-- 2 -->
<<<<<<<< HEAD:python/interface/SimulatorTool/plots/demo_qqplot_2.svg
      <g transform="translate(601.678943 533.276562) scale(0.22 -0.22)">
========
      <g transform="translate(601.735711 533.276562) scale(0.22 -0.22)">
>>>>>>>> 5baa6be6f14571bc06693767a5c4a170f787ac65:python/interface/SimulatorTool/plots/demo_qqplot.svg
       <defs>
        <path id="DejaVuSans-32" d="M 1228 531 
L 3431 531 
L 3431 0 
L 469 0 
L 469 531 
Q 828 903 1448 1529 
Q 2069 2156 2228 2338 
Q 2531 2678 2651 2914 
Q 2772 3150 2772 3378 
Q 2772 3750 2511 3984 
Q 2250 4219 1831 4219 
Q 1534 4219 1204 4116 
Q 875 4013 500 3803 
L 500 4441 
Q 881 4594 1212 4672 
Q 1544 4750 1819 4750 
Q 2544 4750 2975 4387 
Q 3406 4025 3406 3419 
Q 3406 3131 3298 2873 
Q 3191 2616 2906 2266 
Q 2828 2175 2409 1742 
Q 1991 1309 1228 531 
z
" transform="scale(0.015625)"/>
       </defs>
       <use xlink:href="#DejaVuSans-32"/>
      </g>
     </g>
    </g>
    <g id="xtick_5">
     <g id="line2d_5">
      <g>
<<<<<<<< HEAD:python/interface/SimulatorTool/plots/demo_qqplot_2.svg
       <use xlink:href="#m985824a719" x="751.820387" y="509.56" style="stroke: #000000; stroke-width: 0.8"/>
========
       <use xlink:href="#mf31d9fb63f" x="751.843923" y="509.56" style="stroke: #000000; stroke-width: 0.8"/>
>>>>>>>> 5baa6be6f14571bc06693767a5c4a170f787ac65:python/interface/SimulatorTool/plots/demo_qqplot.svg
      </g>
     </g>
     <g id="text_5">
      <!-- 3 -->
<<<<<<<< HEAD:python/interface/SimulatorTool/plots/demo_qqplot_2.svg
      <g transform="translate(744.821637 533.276562) scale(0.22 -0.22)">
========
      <g transform="translate(744.845173 533.276562) scale(0.22 -0.22)">
>>>>>>>> 5baa6be6f14571bc06693767a5c4a170f787ac65:python/interface/SimulatorTool/plots/demo_qqplot.svg
       <defs>
        <path id="DejaVuSans-33" d="M 2597 2516 
Q 3050 2419 3304 2112 
Q 3559 1806 3559 1356 
Q 3559 666 3084 287 
Q 2609 -91 1734 -91 
Q 1441 -91 1130 -33 
Q 819 25 488 141 
L 488 750 
Q 750 597 1062 519 
Q 1375 441 1716 441 
Q 2309 441 2620 675 
Q 2931 909 2931 1356 
Q 2931 1769 2642 2001 
Q 2353 2234 1838 2234 
L 1294 2234 
L 1294 2753 
L 1863 2753 
Q 2328 2753 2575 2939 
Q 2822 3125 2822 3475 
Q 2822 3834 2567 4026 
Q 2313 4219 1838 4219 
Q 1578 4219 1281 4162 
Q 984 4106 628 3988 
L 628 4550 
Q 988 4650 1302 4700 
Q 1616 4750 1894 4750 
Q 2613 4750 3031 4423 
Q 3450 4097 3450 3541 
Q 3450 3153 3228 2886 
Q 3006 2619 2597 2516 
z
" transform="scale(0.015625)"/>
       </defs>
       <use xlink:href="#DejaVuSans-33"/>
      </g>
     </g>
    </g>
    <g id="text_6">
     <!-- Theoretical Quantiles -->
     <g transform="translate(320.38375 560.088125) scale(0.24 -0.24)">
      <defs>
       <path id="DejaVuSans-Bold-54" d="M 31 4666 
L 4331 4666 
L 4331 3756 
L 2784 3756 
L 2784 0 
L 1581 0 
L 1581 3756 
L 31 3756 
L 31 4666 
z
" transform="scale(0.015625)"/>
       <path id="DejaVuSans-Bold-68" d="M 4056 2131 
L 4056 0 
L 2931 0 
L 2931 347 
L 2931 1625 
Q 2931 2084 2911 2256 
Q 2891 2428 2841 2509 
Q 2775 2619 2662 2680 
Q 2550 2741 2406 2741 
Q 2056 2741 1856 2470 
Q 1656 2200 1656 1722 
L 1656 0 
L 538 0 
L 538 4863 
L 1656 4863 
L 1656 2988 
Q 1909 3294 2193 3439 
Q 2478 3584 2822 3584 
Q 3428 3584 3742 3212 
Q 4056 2841 4056 2131 
z
" transform="scale(0.015625)"/>
       <path id="DejaVuSans-Bold-65" d="M 4031 1759 
L 4031 1441 
L 1416 1441 
Q 1456 1047 1700 850 
Q 1944 653 2381 653 
Q 2734 653 3104 758 
Q 3475 863 3866 1075 
L 3866 213 
Q 3469 63 3072 -14 
Q 2675 -91 2278 -91 
Q 1328 -91 801 392 
Q 275 875 275 1747 
Q 275 2603 792 3093 
Q 1309 3584 2216 3584 
Q 3041 3584 3536 3087 
Q 4031 2591 4031 1759 
z
M 2881 2131 
Q 2881 2450 2695 2645 
Q 2509 2841 2209 2841 
Q 1884 2841 1681 2658 
Q 1478 2475 1428 2131 
L 2881 2131 
z
" transform="scale(0.015625)"/>
       <path id="DejaVuSans-Bold-6f" d="M 2203 2784 
Q 1831 2784 1636 2517 
Q 1441 2250 1441 1747 
Q 1441 1244 1636 976 
Q 1831 709 2203 709 
Q 2569 709 2762 976 
Q 2956 1244 2956 1747 
Q 2956 2250 2762 2517 
Q 2569 2784 2203 2784 
z
M 2203 3584 
Q 3106 3584 3614 3096 
Q 4122 2609 4122 1747 
Q 4122 884 3614 396 
Q 3106 -91 2203 -91 
Q 1297 -91 786 396 
Q 275 884 275 1747 
Q 275 2609 786 3096 
Q 1297 3584 2203 3584 
z
" transform="scale(0.015625)"/>
       <path id="DejaVuSans-Bold-72" d="M 3138 2547 
Q 2991 2616 2845 2648 
Q 2700 2681 2553 2681 
Q 2122 2681 1889 2404 
Q 1656 2128 1656 1613 
L 1656 0 
L 538 0 
L 538 3500 
L 1656 3500 
L 1656 2925 
Q 1872 3269 2151 3426 
Q 2431 3584 2822 3584 
Q 2878 3584 2943 3579 
Q 3009 3575 3134 3559 
L 3138 2547 
z
" transform="scale(0.015625)"/>
       <path id="DejaVuSans-Bold-74" d="M 1759 4494 
L 1759 3500 
L 2913 3500 
L 2913 2700 
L 1759 2700 
L 1759 1216 
Q 1759 972 1856 886 
Q 1953 800 2241 800 
L 2816 800 
L 2816 0 
L 1856 0 
Q 1194 0 917 276 
Q 641 553 641 1216 
L 641 2700 
L 84 2700 
L 84 3500 
L 641 3500 
L 641 4494 
L 1759 4494 
z
" transform="scale(0.015625)"/>
       <path id="DejaVuSans-Bold-69" d="M 538 3500 
L 1656 3500 
L 1656 0 
L 538 0 
L 538 3500 
z
M 538 4863 
L 1656 4863 
L 1656 3950 
L 538 3950 
L 538 4863 
z
" transform="scale(0.015625)"/>
       <path id="DejaVuSans-Bold-63" d="M 3366 3391 
L 3366 2478 
Q 3138 2634 2908 2709 
Q 2678 2784 2431 2784 
Q 1963 2784 1702 2511 
Q 1441 2238 1441 1747 
Q 1441 1256 1702 982 
Q 1963 709 2431 709 
Q 2694 709 2930 787 
Q 3166 866 3366 1019 
L 3366 103 
Q 3103 6 2833 -42 
Q 2563 -91 2291 -91 
Q 1344 -91 809 395 
Q 275 881 275 1747 
Q 275 2613 809 3098 
Q 1344 3584 2291 3584 
Q 2566 3584 2833 3536 
Q 3100 3488 3366 3391 
z
" transform="scale(0.015625)"/>
       <path id="DejaVuSans-Bold-61" d="M 2106 1575 
Q 1756 1575 1579 1456 
Q 1403 1338 1403 1106 
Q 1403 894 1545 773 
Q 1688 653 1941 653 
Q 2256 653 2472 879 
Q 2688 1106 2688 1447 
L 2688 1575 
L 2106 1575 
z
M 3816 1997 
L 3816 0 
L 2688 0 
L 2688 519 
Q 2463 200 2181 54 
Q 1900 -91 1497 -91 
Q 953 -91 614 226 
Q 275 544 275 1050 
Q 275 1666 698 1953 
Q 1122 2241 2028 2241 
L 2688 2241 
L 2688 2328 
Q 2688 2594 2478 2717 
Q 2269 2841 1825 2841 
Q 1466 2841 1156 2769 
Q 847 2697 581 2553 
L 581 3406 
Q 941 3494 1303 3539 
Q 1666 3584 2028 3584 
Q 2975 3584 3395 3211 
Q 3816 2838 3816 1997 
z
" transform="scale(0.015625)"/>
       <path id="DejaVuSans-Bold-6c" d="M 538 4863 
L 1656 4863 
L 1656 0 
L 538 0 
L 538 4863 
z
" transform="scale(0.015625)"/>
       <path id="DejaVuSans-Bold-20" transform="scale(0.015625)"/>
       <path id="DejaVuSans-Bold-51" d="M 2847 -84 
L 2753 -84 
Q 1600 -84 959 553 
Q 319 1191 319 2328 
Q 319 3463 958 4106 
Q 1597 4750 2719 4750 
Q 3853 4750 4486 4112 
Q 5119 3475 5119 2328 
Q 5119 1541 4783 972 
Q 4447 403 3816 116 
L 4756 -934 
L 3609 -934 
L 2847 -84 
z
M 2719 3878 
Q 2169 3878 1866 3472 
Q 1563 3066 1563 2328 
Q 1563 1578 1859 1179 
Q 2156 781 2719 781 
Q 3272 781 3575 1187 
Q 3878 1594 3878 2328 
Q 3878 3066 3575 3472 
Q 3272 3878 2719 3878 
z
" transform="scale(0.015625)"/>
       <path id="DejaVuSans-Bold-75" d="M 500 1363 
L 500 3500 
L 1625 3500 
L 1625 3150 
Q 1625 2866 1622 2436 
Q 1619 2006 1619 1863 
Q 1619 1441 1641 1255 
Q 1663 1069 1716 984 
Q 1784 875 1895 815 
Q 2006 756 2150 756 
Q 2500 756 2700 1025 
Q 2900 1294 2900 1772 
L 2900 3500 
L 4019 3500 
L 4019 0 
L 2900 0 
L 2900 506 
Q 2647 200 2364 54 
Q 2081 -91 1741 -91 
Q 1134 -91 817 281 
Q 500 653 500 1363 
z
" transform="scale(0.015625)"/>
       <path id="DejaVuSans-Bold-6e" d="M 4056 2131 
L 4056 0 
L 2931 0 
L 2931 347 
L 2931 1631 
Q 2931 2084 2911 2256 
Q 2891 2428 2841 2509 
Q 2775 2619 2662 2680 
Q 2550 2741 2406 2741 
Q 2056 2741 1856 2470 
Q 1656 2200 1656 1722 
L 1656 0 
L 538 0 
L 538 3500 
L 1656 3500 
L 1656 2988 
Q 1909 3294 2193 3439 
Q 2478 3584 2822 3584 
Q 3428 3584 3742 3212 
Q 4056 2841 4056 2131 
z
" transform="scale(0.015625)"/>
       <path id="DejaVuSans-Bold-73" d="M 3272 3391 
L 3272 2541 
Q 2913 2691 2578 2766 
Q 2244 2841 1947 2841 
Q 1628 2841 1473 2761 
Q 1319 2681 1319 2516 
Q 1319 2381 1436 2309 
Q 1553 2238 1856 2203 
L 2053 2175 
Q 2913 2066 3209 1816 
Q 3506 1566 3506 1031 
Q 3506 472 3093 190 
Q 2681 -91 1863 -91 
Q 1516 -91 1145 -36 
Q 775 19 384 128 
L 384 978 
Q 719 816 1070 734 
Q 1422 653 1784 653 
Q 2113 653 2278 743 
Q 2444 834 2444 1013 
Q 2444 1163 2330 1236 
Q 2216 1309 1875 1350 
L 1678 1375 
Q 931 1469 631 1722 
Q 331 1975 331 2491 
Q 331 3047 712 3315 
Q 1094 3584 1881 3584 
Q 2191 3584 2531 3537 
Q 2872 3491 3272 3391 
z
" transform="scale(0.015625)"/>
      </defs>
      <use xlink:href="#DejaVuSans-Bold-54"/>
      <use xlink:href="#DejaVuSans-Bold-68" transform="translate(68.212891 0)"/>
      <use xlink:href="#DejaVuSans-Bold-65" transform="translate(139.404297 0)"/>
      <use xlink:href="#DejaVuSans-Bold-6f" transform="translate(207.226562 0)"/>
      <use xlink:href="#DejaVuSans-Bold-72" transform="translate(275.927734 0)"/>
      <use xlink:href="#DejaVuSans-Bold-65" transform="translate(325.244141 0)"/>
      <use xlink:href="#DejaVuSans-Bold-74" transform="translate(393.066406 0)"/>
      <use xlink:href="#DejaVuSans-Bold-69" transform="translate(440.869141 0)"/>
      <use xlink:href="#DejaVuSans-Bold-63" transform="translate(475.146484 0)"/>
      <use xlink:href="#DejaVuSans-Bold-61" transform="translate(534.423828 0)"/>
      <use xlink:href="#DejaVuSans-Bold-6c" transform="translate(601.904297 0)"/>
      <use xlink:href="#DejaVuSans-Bold-20" transform="translate(636.181641 0)"/>
      <use xlink:href="#DejaVuSans-Bold-51" transform="translate(670.996094 0)"/>
      <use xlink:href="#DejaVuSans-Bold-75" transform="translate(756.005859 0)"/>
      <use xlink:href="#DejaVuSans-Bold-61" transform="translate(827.197266 0)"/>
      <use xlink:href="#DejaVuSans-Bold-6e" transform="translate(894.677734 0)"/>
      <use xlink:href="#DejaVuSans-Bold-74" transform="translate(965.869141 0)"/>
      <use xlink:href="#DejaVuSans-Bold-69" transform="translate(1013.671875 0)"/>
      <use xlink:href="#DejaVuSans-Bold-6c" transform="translate(1047.949219 0)"/>
      <use xlink:href="#DejaVuSans-Bold-65" transform="translate(1082.226562 0)"/>
      <use xlink:href="#DejaVuSans-Bold-73" transform="translate(1150.048828 0)"/>
     </g>
    </g>
   </g>
   <g id="matplotlib.axis_2">
    <g id="ytick_1">
     <g id="line2d_6">
      <defs>
<<<<<<<< HEAD:python/interface/SimulatorTool/plots/demo_qqplot_2.svg
       <path id="m5ca9d558cf" d="M 0 0 
========
       <path id="mfa91c3fb8c" d="M 0 0 
>>>>>>>> 5baa6be6f14571bc06693767a5c4a170f787ac65:python/interface/SimulatorTool/plots/demo_qqplot.svg
L -3.5 0 
" style="stroke: #000000; stroke-width: 0.8"/>
      </defs>
      <g>
<<<<<<<< HEAD:python/interface/SimulatorTool/plots/demo_qqplot_2.svg
       <use xlink:href="#m5ca9d558cf" x="77.87" y="445.666988" style="stroke: #000000; stroke-width: 0.8"/>
========
       <use xlink:href="#mfa91c3fb8c" x="78.05" y="431.393253" style="stroke: #000000; stroke-width: 0.8"/>
>>>>>>>> 5baa6be6f14571bc06693767a5c4a170f787ac65:python/interface/SimulatorTool/plots/demo_qqplot.svg
      </g>
     </g>
     <g id="text_7">
      <!-- −1 -->
<<<<<<<< HEAD:python/interface/SimulatorTool/plots/demo_qqplot_2.svg
      <g transform="translate(38.437188 454.025269) scale(0.22 -0.22)">
       <use xlink:href="#DejaVuSans-2212"/>
       <use xlink:href="#DejaVuSans-31" transform="translate(83.789062 0)"/>
========
      <g transform="translate(38.617188 439.751534) scale(0.22 -0.22)">
       <use xlink:href="#DejaVuSans-2212"/>
       <use xlink:href="#DejaVuSans-31" x="83.789062"/>
>>>>>>>> 5baa6be6f14571bc06693767a5c4a170f787ac65:python/interface/SimulatorTool/plots/demo_qqplot.svg
      </g>
     </g>
    </g>
    <g id="ytick_2">
     <g id="line2d_7">
      <g>
<<<<<<<< HEAD:python/interface/SimulatorTool/plots/demo_qqplot_2.svg
       <use xlink:href="#m5ca9d558cf" x="77.87" y="359.823514" style="stroke: #000000; stroke-width: 0.8"/>
========
       <use xlink:href="#mfa91c3fb8c" x="78.05" y="348.78235" style="stroke: #000000; stroke-width: 0.8"/>
>>>>>>>> 5baa6be6f14571bc06693767a5c4a170f787ac65:python/interface/SimulatorTool/plots/demo_qqplot.svg
      </g>
     </g>
     <g id="text_8">
      <!-- 0 -->
<<<<<<<< HEAD:python/interface/SimulatorTool/plots/demo_qqplot_2.svg
      <g transform="translate(56.8725 368.181796) scale(0.22 -0.22)">
========
      <g transform="translate(57.0525 357.140632) scale(0.22 -0.22)">
>>>>>>>> 5baa6be6f14571bc06693767a5c4a170f787ac65:python/interface/SimulatorTool/plots/demo_qqplot.svg
       <use xlink:href="#DejaVuSans-30"/>
      </g>
     </g>
    </g>
    <g id="ytick_3">
     <g id="line2d_8">
      <g>
<<<<<<<< HEAD:python/interface/SimulatorTool/plots/demo_qqplot_2.svg
       <use xlink:href="#m5ca9d558cf" x="77.87" y="273.980041" style="stroke: #000000; stroke-width: 0.8"/>
========
       <use xlink:href="#mfa91c3fb8c" x="78.05" y="266.171448" style="stroke: #000000; stroke-width: 0.8"/>
>>>>>>>> 5baa6be6f14571bc06693767a5c4a170f787ac65:python/interface/SimulatorTool/plots/demo_qqplot.svg
      </g>
     </g>
     <g id="text_9">
      <!-- 1 -->
<<<<<<<< HEAD:python/interface/SimulatorTool/plots/demo_qqplot_2.svg
      <g transform="translate(56.8725 282.338322) scale(0.22 -0.22)">
========
      <g transform="translate(57.0525 274.52973) scale(0.22 -0.22)">
>>>>>>>> 5baa6be6f14571bc06693767a5c4a170f787ac65:python/interface/SimulatorTool/plots/demo_qqplot.svg
       <use xlink:href="#DejaVuSans-31"/>
      </g>
     </g>
    </g>
    <g id="ytick_4">
     <g id="line2d_9">
      <g>
<<<<<<<< HEAD:python/interface/SimulatorTool/plots/demo_qqplot_2.svg
       <use xlink:href="#m5ca9d558cf" x="77.87" y="188.136568" style="stroke: #000000; stroke-width: 0.8"/>
========
       <use xlink:href="#mfa91c3fb8c" x="78.05" y="183.560546" style="stroke: #000000; stroke-width: 0.8"/>
>>>>>>>> 5baa6be6f14571bc06693767a5c4a170f787ac65:python/interface/SimulatorTool/plots/demo_qqplot.svg
      </g>
     </g>
     <g id="text_10">
      <!-- 2 -->
<<<<<<<< HEAD:python/interface/SimulatorTool/plots/demo_qqplot_2.svg
      <g transform="translate(56.8725 196.494849) scale(0.22 -0.22)">
========
      <g transform="translate(57.0525 191.918828) scale(0.22 -0.22)">
>>>>>>>> 5baa6be6f14571bc06693767a5c4a170f787ac65:python/interface/SimulatorTool/plots/demo_qqplot.svg
       <use xlink:href="#DejaVuSans-32"/>
      </g>
     </g>
    </g>
    <g id="ytick_5">
     <g id="line2d_10">
      <g>
<<<<<<<< HEAD:python/interface/SimulatorTool/plots/demo_qqplot_2.svg
       <use xlink:href="#m5ca9d558cf" x="77.87" y="102.293094" style="stroke: #000000; stroke-width: 0.8"/>
========
       <use xlink:href="#mfa91c3fb8c" x="78.05" y="100.949644" style="stroke: #000000; stroke-width: 0.8"/>
>>>>>>>> 5baa6be6f14571bc06693767a5c4a170f787ac65:python/interface/SimulatorTool/plots/demo_qqplot.svg
      </g>
     </g>
     <g id="text_11">
      <!-- 3 -->
<<<<<<<< HEAD:python/interface/SimulatorTool/plots/demo_qqplot_2.svg
      <g transform="translate(56.8725 110.651376) scale(0.22 -0.22)">
========
      <g transform="translate(57.0525 109.307925) scale(0.22 -0.22)">
>>>>>>>> 5baa6be6f14571bc06693767a5c4a170f787ac65:python/interface/SimulatorTool/plots/demo_qqplot.svg
       <use xlink:href="#DejaVuSans-33"/>
      </g>
     </g>
    </g>
    <g id="text_12">
     <!-- Sample Quantiles -->
     <g transform="translate(29.445937 392.87375) rotate(-90) scale(0.24 -0.24)">
      <defs>
       <path id="DejaVuSans-Bold-53" d="M 3834 4519 
L 3834 3531 
Q 3450 3703 3084 3790 
Q 2719 3878 2394 3878 
Q 1963 3878 1756 3759 
Q 1550 3641 1550 3391 
Q 1550 3203 1689 3098 
Q 1828 2994 2194 2919 
L 2706 2816 
Q 3484 2659 3812 2340 
Q 4141 2022 4141 1434 
Q 4141 663 3683 286 
Q 3225 -91 2284 -91 
Q 1841 -91 1394 -6 
Q 947 78 500 244 
L 500 1259 
Q 947 1022 1364 901 
Q 1781 781 2169 781 
Q 2563 781 2772 912 
Q 2981 1044 2981 1288 
Q 2981 1506 2839 1625 
Q 2697 1744 2272 1838 
L 1806 1941 
Q 1106 2091 782 2419 
Q 459 2747 459 3303 
Q 459 4000 909 4375 
Q 1359 4750 2203 4750 
Q 2588 4750 2994 4692 
Q 3400 4634 3834 4519 
z
" transform="scale(0.015625)"/>
       <path id="DejaVuSans-Bold-6d" d="M 3781 2919 
Q 3994 3244 4286 3414 
Q 4578 3584 4928 3584 
Q 5531 3584 5847 3212 
Q 6163 2841 6163 2131 
L 6163 0 
L 5038 0 
L 5038 1825 
Q 5041 1866 5042 1909 
Q 5044 1953 5044 2034 
Q 5044 2406 4934 2573 
Q 4825 2741 4581 2741 
Q 4263 2741 4089 2478 
Q 3916 2216 3909 1719 
L 3909 0 
L 2784 0 
L 2784 1825 
Q 2784 2406 2684 2573 
Q 2584 2741 2328 2741 
Q 2006 2741 1831 2477 
Q 1656 2213 1656 1722 
L 1656 0 
L 531 0 
L 531 3500 
L 1656 3500 
L 1656 2988 
Q 1863 3284 2130 3434 
Q 2397 3584 2719 3584 
Q 3081 3584 3359 3409 
Q 3638 3234 3781 2919 
z
" transform="scale(0.015625)"/>
       <path id="DejaVuSans-Bold-70" d="M 1656 506 
L 1656 -1331 
L 538 -1331 
L 538 3500 
L 1656 3500 
L 1656 2988 
Q 1888 3294 2169 3439 
Q 2450 3584 2816 3584 
Q 3463 3584 3878 3070 
Q 4294 2556 4294 1747 
Q 4294 938 3878 423 
Q 3463 -91 2816 -91 
Q 2450 -91 2169 54 
Q 1888 200 1656 506 
z
M 2400 2772 
Q 2041 2772 1848 2508 
Q 1656 2244 1656 1747 
Q 1656 1250 1848 986 
Q 2041 722 2400 722 
Q 2759 722 2948 984 
Q 3138 1247 3138 1747 
Q 3138 2247 2948 2509 
Q 2759 2772 2400 2772 
z
" transform="scale(0.015625)"/>
      </defs>
      <use xlink:href="#DejaVuSans-Bold-53"/>
      <use xlink:href="#DejaVuSans-Bold-61" transform="translate(72.021484 0)"/>
      <use xlink:href="#DejaVuSans-Bold-6d" transform="translate(139.501953 0)"/>
      <use xlink:href="#DejaVuSans-Bold-70" transform="translate(243.701172 0)"/>
      <use xlink:href="#DejaVuSans-Bold-6c" transform="translate(315.283203 0)"/>
      <use xlink:href="#DejaVuSans-Bold-65" transform="translate(349.560547 0)"/>
      <use xlink:href="#DejaVuSans-Bold-20" transform="translate(417.382812 0)"/>
      <use xlink:href="#DejaVuSans-Bold-51" transform="translate(452.197266 0)"/>
      <use xlink:href="#DejaVuSans-Bold-75" transform="translate(537.207031 0)"/>
      <use xlink:href="#DejaVuSans-Bold-61" transform="translate(608.398438 0)"/>
      <use xlink:href="#DejaVuSans-Bold-6e" transform="translate(675.878906 0)"/>
      <use xlink:href="#DejaVuSans-Bold-74" transform="translate(747.070312 0)"/>
      <use xlink:href="#DejaVuSans-Bold-69" transform="translate(794.873047 0)"/>
      <use xlink:href="#DejaVuSans-Bold-6c" transform="translate(829.150391 0)"/>
      <use xlink:href="#DejaVuSans-Bold-65" transform="translate(863.427734 0)"/>
      <use xlink:href="#DejaVuSans-Bold-73" transform="translate(931.25 0)"/>
     </g>
    </g>
   </g>
   <g id="line2d_11">
    <defs>
<<<<<<<< HEAD:python/interface/SimulatorTool/plots/demo_qqplot_2.svg
     <path id="m3a8a244b35" d="M 0 3 
========
     <path id="m7a482b8d55" d="M 0 3 
>>>>>>>> 5baa6be6f14571bc06693767a5c4a170f787ac65:python/interface/SimulatorTool/plots/demo_qqplot.svg
C 0.795609 3 1.55874 2.683901 2.12132 2.12132 
C 2.683901 1.55874 3 0.795609 3 0 
C 3 -0.795609 2.683901 -1.55874 2.12132 -2.12132 
C 1.55874 -2.683901 0.795609 -3 0 -3 
C -0.795609 -3 -1.55874 -2.683901 -2.12132 -2.12132 
C -2.683901 -1.55874 -3 -0.795609 -3 0 
C -3 0.795609 -2.683901 1.55874 -2.12132 2.12132 
C -1.55874 2.683901 -0.795609 3 0 3 
z
" style="stroke: #0000ff"/>
    </defs>
<<<<<<<< HEAD:python/interface/SimulatorTool/plots/demo_qqplot_2.svg
    <g clip-path="url(#pa1840122fc)">
     <use xlink:href="#m3a8a244b35" x="113.112273" y="469.762163" style="fill: #0000ff; stroke: #0000ff"/>
     <use xlink:href="#m3a8a244b35" x="161.255507" y="459.80232" style="fill: #0000ff; stroke: #0000ff"/>
     <use xlink:href="#m3a8a244b35" x="189.093854" y="442.888575" style="fill: #0000ff; stroke: #0000ff"/>
     <use xlink:href="#m3a8a244b35" x="209.245661" y="434.948097" style="fill: #0000ff; stroke: #0000ff"/>
     <use xlink:href="#m3a8a244b35" x="225.313929" y="427.410024" style="fill: #0000ff; stroke: #0000ff"/>
     <use xlink:href="#m3a8a244b35" x="238.823997" y="419.962087" style="fill: #0000ff; stroke: #0000ff"/>
     <use xlink:href="#m3a8a244b35" x="250.571716" y="406.376531" style="fill: #0000ff; stroke: #0000ff"/>
     <use xlink:href="#m3a8a244b35" x="261.027402" y="399.950618" style="fill: #0000ff; stroke: #0000ff"/>
     <use xlink:href="#m3a8a244b35" x="270.493248" y="390.803292" style="fill: #0000ff; stroke: #0000ff"/>
     <use xlink:href="#m3a8a244b35" x="279.175508" y="385.266748" style="fill: #0000ff; stroke: #0000ff"/>
     <use xlink:href="#m3a8a244b35" x="287.221547" y="377.598753" style="fill: #0000ff; stroke: #0000ff"/>
     <use xlink:href="#m3a8a244b35" x="294.740511" y="376.965156" style="fill: #0000ff; stroke: #0000ff"/>
     <use xlink:href="#m3a8a244b35" x="301.815618" y="375.425622" style="fill: #0000ff; stroke: #0000ff"/>
     <use xlink:href="#m3a8a244b35" x="308.511859" y="374.580747" style="fill: #0000ff; stroke: #0000ff"/>
     <use xlink:href="#m3a8a244b35" x="314.881019" y="373.849053" style="fill: #0000ff; stroke: #0000ff"/>
     <use xlink:href="#m3a8a244b35" x="320.965078" y="369.627657" style="fill: #0000ff; stroke: #0000ff"/>
     <use xlink:href="#m3a8a244b35" x="326.798575" y="364.333695" style="fill: #0000ff; stroke: #0000ff"/>
     <use xlink:href="#m3a8a244b35" x="332.410301" y="363.114873" style="fill: #0000ff; stroke: #0000ff"/>
     <use xlink:href="#m3a8a244b35" x="337.82453" y="360.794433" style="fill: #0000ff; stroke: #0000ff"/>
     <use xlink:href="#m3a8a244b35" x="343.061939" y="360.701514" style="fill: #0000ff; stroke: #0000ff"/>
     <use xlink:href="#m3a8a244b35" x="348.140304" y="360.469903" style="fill: #0000ff; stroke: #0000ff"/>
     <use xlink:href="#m3a8a244b35" x="353.075033" y="359.126992" style="fill: #0000ff; stroke: #0000ff"/>
     <use xlink:href="#m3a8a244b35" x="357.879588" y="359.112865" style="fill: #0000ff; stroke: #0000ff"/>
     <use xlink:href="#m3a8a244b35" x="362.565808" y="353.908624" style="fill: #0000ff; stroke: #0000ff"/>
     <use xlink:href="#m3a8a244b35" x="367.144173" y="353.633623" style="fill: #0000ff; stroke: #0000ff"/>
     <use xlink:href="#m3a8a244b35" x="371.624021" y="342.71861" style="fill: #0000ff; stroke: #0000ff"/>
     <use xlink:href="#m3a8a244b35" x="376.013712" y="340.305021" style="fill: #0000ff; stroke: #0000ff"/>
     <use xlink:href="#m3a8a244b35" x="380.320778" y="339.408324" style="fill: #0000ff; stroke: #0000ff"/>
     <use xlink:href="#m3a8a244b35" x="384.552032" y="327.952408" style="fill: #0000ff; stroke: #0000ff"/>
     <use xlink:href="#m3a8a244b35" x="388.713673" y="327.940686" style="fill: #0000ff; stroke: #0000ff"/>
     <use xlink:href="#m3a8a244b35" x="392.811364" y="321.602641" style="fill: #0000ff; stroke: #0000ff"/>
     <use xlink:href="#m3a8a244b35" x="396.8503" y="319.974916" style="fill: #0000ff; stroke: #0000ff"/>
     <use xlink:href="#m3a8a244b35" x="400.835272" y="316.262337" style="fill: #0000ff; stroke: #0000ff"/>
     <use xlink:href="#m3a8a244b35" x="404.770714" y="315.359838" style="fill: #0000ff; stroke: #0000ff"/>
     <use xlink:href="#m3a8a244b35" x="408.660746" y="309.474062" style="fill: #0000ff; stroke: #0000ff"/>
     <use xlink:href="#m3a8a244b35" x="412.509216" y="308.349909" style="fill: #0000ff; stroke: #0000ff"/>
     <use xlink:href="#m3a8a244b35" x="416.319728" y="308.068441" style="fill: #0000ff; stroke: #0000ff"/>
     <use xlink:href="#m3a8a244b35" x="420.095674" y="304.738256" style="fill: #0000ff; stroke: #0000ff"/>
     <use xlink:href="#m3a8a244b35" x="423.840259" y="302.339817" style="fill: #0000ff; stroke: #0000ff"/>
     <use xlink:href="#m3a8a244b35" x="427.556521" y="294.970918" style="fill: #0000ff; stroke: #0000ff"/>
     <use xlink:href="#m3a8a244b35" x="431.247355" y="294.204067" style="fill: #0000ff; stroke: #0000ff"/>
     <use xlink:href="#m3a8a244b35" x="434.91553" y="289.459696" style="fill: #0000ff; stroke: #0000ff"/>
     <use xlink:href="#m3a8a244b35" x="438.563704" y="287.825064" style="fill: #0000ff; stroke: #0000ff"/>
     <use xlink:href="#m3a8a244b35" x="442.19444" y="282.441365" style="fill: #0000ff; stroke: #0000ff"/>
     <use xlink:href="#m3a8a244b35" x="445.810219" y="282.413612" style="fill: #0000ff; stroke: #0000ff"/>
     <use xlink:href="#m3a8a244b35" x="449.413453" y="281.559927" style="fill: #0000ff; stroke: #0000ff"/>
     <use xlink:href="#m3a8a244b35" x="453.0065" y="273.120215" style="fill: #0000ff; stroke: #0000ff"/>
     <use xlink:href="#m3a8a244b35" x="456.591669" y="272.802102" style="fill: #0000ff; stroke: #0000ff"/>
     <use xlink:href="#m3a8a244b35" x="460.171235" y="271.978042" style="fill: #0000ff; stroke: #0000ff"/>
     <use xlink:href="#m3a8a244b35" x="463.74745" y="271.956592" style="fill: #0000ff; stroke: #0000ff"/>
     <use xlink:href="#m3a8a244b35" x="467.32255" y="270.737863" style="fill: #0000ff; stroke: #0000ff"/>
     <use xlink:href="#m3a8a244b35" x="470.898765" y="262.636548" style="fill: #0000ff; stroke: #0000ff"/>
     <use xlink:href="#m3a8a244b35" x="474.478331" y="258.130972" style="fill: #0000ff; stroke: #0000ff"/>
     <use xlink:href="#m3a8a244b35" x="478.0635" y="254.248965" style="fill: #0000ff; stroke: #0000ff"/>
     <use xlink:href="#m3a8a244b35" x="481.656547" y="253.867343" style="fill: #0000ff; stroke: #0000ff"/>
     <use xlink:href="#m3a8a244b35" x="485.259781" y="248.921867" style="fill: #0000ff; stroke: #0000ff"/>
     <use xlink:href="#m3a8a244b35" x="488.87556" y="242.750314" style="fill: #0000ff; stroke: #0000ff"/>
     <use xlink:href="#m3a8a244b35" x="492.506296" y="242.664364" style="fill: #0000ff; stroke: #0000ff"/>
     <use xlink:href="#m3a8a244b35" x="496.15447" y="239.338713" style="fill: #0000ff; stroke: #0000ff"/>
     <use xlink:href="#m3a8a244b35" x="499.822645" y="238.581815" style="fill: #0000ff; stroke: #0000ff"/>
     <use xlink:href="#m3a8a244b35" x="503.513479" y="237.078353" style="fill: #0000ff; stroke: #0000ff"/>
     <use xlink:href="#m3a8a244b35" x="507.229741" y="237.007538" style="fill: #0000ff; stroke: #0000ff"/>
     <use xlink:href="#m3a8a244b35" x="510.974326" y="234.130353" style="fill: #0000ff; stroke: #0000ff"/>
     <use xlink:href="#m3a8a244b35" x="514.750272" y="232.477423" style="fill: #0000ff; stroke: #0000ff"/>
     <use xlink:href="#m3a8a244b35" x="518.560784" y="227.598289" style="fill: #0000ff; stroke: #0000ff"/>
     <use xlink:href="#m3a8a244b35" x="522.409254" y="224.311054" style="fill: #0000ff; stroke: #0000ff"/>
     <use xlink:href="#m3a8a244b35" x="526.299286" y="223.497381" style="fill: #0000ff; stroke: #0000ff"/>
     <use xlink:href="#m3a8a244b35" x="530.234728" y="221.991105" style="fill: #0000ff; stroke: #0000ff"/>
     <use xlink:href="#m3a8a244b35" x="534.2197" y="221.139742" style="fill: #0000ff; stroke: #0000ff"/>
     <use xlink:href="#m3a8a244b35" x="538.258636" y="216.590767" style="fill: #0000ff; stroke: #0000ff"/>
     <use xlink:href="#m3a8a244b35" x="542.356327" y="214.289217" style="fill: #0000ff; stroke: #0000ff"/>
     <use xlink:href="#m3a8a244b35" x="546.517968" y="213.708926" style="fill: #0000ff; stroke: #0000ff"/>
     <use xlink:href="#m3a8a244b35" x="550.749222" y="211.12338" style="fill: #0000ff; stroke: #0000ff"/>
     <use xlink:href="#m3a8a244b35" x="555.056288" y="209.719581" style="fill: #0000ff; stroke: #0000ff"/>
     <use xlink:href="#m3a8a244b35" x="559.445979" y="209.558283" style="fill: #0000ff; stroke: #0000ff"/>
     <use xlink:href="#m3a8a244b35" x="563.925827" y="208.932443" style="fill: #0000ff; stroke: #0000ff"/>
     <use xlink:href="#m3a8a244b35" x="568.504192" y="208.49946" style="fill: #0000ff; stroke: #0000ff"/>
     <use xlink:href="#m3a8a244b35" x="573.190412" y="205.69313" style="fill: #0000ff; stroke: #0000ff"/>
     <use xlink:href="#m3a8a244b35" x="577.994967" y="201.819034" style="fill: #0000ff; stroke: #0000ff"/>
     <use xlink:href="#m3a8a244b35" x="582.929696" y="200.022714" style="fill: #0000ff; stroke: #0000ff"/>
     <use xlink:href="#m3a8a244b35" x="588.008061" y="193.887643" style="fill: #0000ff; stroke: #0000ff"/>
     <use xlink:href="#m3a8a244b35" x="593.24547" y="190.628498" style="fill: #0000ff; stroke: #0000ff"/>
     <use xlink:href="#m3a8a244b35" x="598.659699" y="189.327953" style="fill: #0000ff; stroke: #0000ff"/>
     <use xlink:href="#m3a8a244b35" x="604.271425" y="189.263893" style="fill: #0000ff; stroke: #0000ff"/>
     <use xlink:href="#m3a8a244b35" x="610.104922" y="187.169578" style="fill: #0000ff; stroke: #0000ff"/>
     <use xlink:href="#m3a8a244b35" x="616.188981" y="186.910777" style="fill: #0000ff; stroke: #0000ff"/>
     <use xlink:href="#m3a8a244b35" x="622.558141" y="186.35523" style="fill: #0000ff; stroke: #0000ff"/>
     <use xlink:href="#m3a8a244b35" x="629.254382" y="178.35808" style="fill: #0000ff; stroke: #0000ff"/>
     <use xlink:href="#m3a8a244b35" x="636.329489" y="167.725845" style="fill: #0000ff; stroke: #0000ff"/>
     <use xlink:href="#m3a8a244b35" x="643.848453" y="165.666897" style="fill: #0000ff; stroke: #0000ff"/>
     <use xlink:href="#m3a8a244b35" x="651.894492" y="162.73701" style="fill: #0000ff; stroke: #0000ff"/>
     <use xlink:href="#m3a8a244b35" x="660.576752" y="159.940197" style="fill: #0000ff; stroke: #0000ff"/>
     <use xlink:href="#m3a8a244b35" x="670.042598" y="158.147869" style="fill: #0000ff; stroke: #0000ff"/>
     <use xlink:href="#m3a8a244b35" x="680.498284" y="157.159082" style="fill: #0000ff; stroke: #0000ff"/>
     <use xlink:href="#m3a8a244b35" x="692.246003" y="156.153329" style="fill: #0000ff; stroke: #0000ff"/>
     <use xlink:href="#m3a8a244b35" x="705.756071" y="154.13028" style="fill: #0000ff; stroke: #0000ff"/>
     <use xlink:href="#m3a8a244b35" x="721.824339" y="129.072434" style="fill: #0000ff; stroke: #0000ff"/>
     <use xlink:href="#m3a8a244b35" x="741.976146" y="113.715425" style="fill: #0000ff; stroke: #0000ff"/>
     <use xlink:href="#m3a8a244b35" x="769.814493" y="101.738038" style="fill: #0000ff; stroke: #0000ff"/>
     <use xlink:href="#m3a8a244b35" x="817.957727" y="91.202795" style="fill: #0000ff; stroke: #0000ff"/>
    </g>
   </g>
   <g id="line2d_12">
    <path d="M 113.112273 488.143636 
L 161.255507 458.887492 
L 189.093854 441.970418 
L 209.245661 429.724373 
L 225.313929 419.959854 
L 238.823997 411.749925 
L 250.571716 404.610958 
L 261.027402 398.257146 
L 270.493248 392.50485 
L 279.175508 387.228731 
L 287.221547 382.339236 
L 294.740511 377.77004 
L 301.815618 373.47057 
L 308.511859 369.401334 
L 314.881019 365.530862 
L 320.965078 361.833642 
L 326.798575 358.288687 
L 332.410301 354.878499 
L 337.82453 351.588328 
L 343.061939 348.405609 
L 348.140304 345.319539 
L 353.075033 342.320755 
L 357.879588 339.401077 
L 362.565808 336.55331 
L 367.144173 333.771085 
L 371.624021 331.048728 
L 376.013712 328.381158 
L 380.320778 325.763799 
L 384.552032 323.19251 
L 388.713673 320.663523 
L 392.811364 318.1734 
L 396.8503 315.71898 
L 400.835272 313.297354 
L 404.770714 310.905827 
L 408.660746 308.541894 
L 412.509216 306.203219 
L 416.319728 303.88761 
L 420.095674 301.593007 
L 423.840259 299.317462 
L 427.556521 297.059128 
L 431.247355 294.816246 
L 434.91553 292.587134 
L 438.563704 290.370177 
L 442.19444 288.163816 
L 445.810219 285.966545 
L 449.413453 283.776897 
L 453.0065 281.59344 
L 456.591669 279.41477 
L 460.171235 277.239504 
L 463.74745 275.066275 
L 467.32255 272.893725 
L 470.898765 270.720496 
L 474.478331 268.54523 
L 478.0635 266.36656 
L 481.656547 264.183103 
L 485.259781 261.993455 
L 488.87556 259.796184 
L 492.506296 257.589823 
L 496.15447 255.372866 
L 499.822645 253.143754 
L 503.513479 250.900872 
L 507.229741 248.642538 
L 510.974326 246.366993 
L 514.750272 244.07239 
L 518.560784 241.756781 
L 522.409254 239.418106 
L 526.299286 237.054173 
L 530.234728 234.662646 
L 534.2197 232.24102 
L 538.258636 229.7866 
L 542.356327 227.296477 
L 546.517968 224.76749 
L 550.749222 222.196201 
L 555.056288 219.578842 
L 559.445979 216.911272 
L 563.925827 214.188915 
L 568.504192 211.40669 
L 573.190412 208.558923 
L 577.994967 205.639245 
L 582.929696 202.640461 
L 588.008061 199.554391 
L 593.24547 196.371672 
L 598.659699 193.081501 
L 604.271425 189.671313 
L 610.104922 186.126358 
L 616.188981 182.429138 
L 622.558141 178.558666 
L 629.254382 174.48943 
L 636.329489 170.18996 
L 643.848453 165.620764 
L 651.894492 160.731269 
L 660.576752 155.45515 
L 670.042598 149.702854 
L 680.498284 143.349042 
L 692.246003 136.210075 
L 705.756071 128.000146 
L 721.824339 118.235627 
L 741.976146 105.989582 
L 769.814493 89.072508 
L 817.957727 59.816364 
" clip-path="url(#pa1840122fc)" style="fill: none; stroke: #ff0000; stroke-width: 1.5; stroke-linecap: square"/>
========
    <g clip-path="url(#pf3c9c57b06)">
     <use xlink:href="#m7a482b8d55" x="113.284091" y="488.143636" style="fill: #0000ff; stroke: #0000ff"/>
     <use xlink:href="#m7a482b8d55" x="161.416148" y="410.215679" style="fill: #0000ff; stroke: #0000ff"/>
     <use xlink:href="#m7a482b8d55" x="189.248032" y="398.230777" style="fill: #0000ff; stroke: #0000ff"/>
     <use xlink:href="#m7a482b8d55" x="209.395161" y="394.757353" style="fill: #0000ff; stroke: #0000ff"/>
     <use xlink:href="#m7a482b8d55" x="225.459698" y="392.931408" style="fill: #0000ff; stroke: #0000ff"/>
     <use xlink:href="#m7a482b8d55" x="238.96663" y="387.618291" style="fill: #0000ff; stroke: #0000ff"/>
     <use xlink:href="#m7a482b8d55" x="250.711621" y="386.147336" style="fill: #0000ff; stroke: #0000ff"/>
     <use xlink:href="#m7a482b8d55" x="261.16488" y="380.667572" style="fill: #0000ff; stroke: #0000ff"/>
     <use xlink:href="#m7a482b8d55" x="270.628529" y="374.35387" style="fill: #0000ff; stroke: #0000ff"/>
     <use xlink:href="#m7a482b8d55" x="279.308773" y="372.826319" style="fill: #0000ff; stroke: #0000ff"/>
     <use xlink:href="#m7a482b8d55" x="287.352944" y="371.248218" style="fill: #0000ff; stroke: #0000ff"/>
     <use xlink:href="#m7a482b8d55" x="294.870162" y="371.110297" style="fill: #0000ff; stroke: #0000ff"/>
     <use xlink:href="#m7a482b8d55" x="301.943627" y="367.025579" style="fill: #0000ff; stroke: #0000ff"/>
     <use xlink:href="#m7a482b8d55" x="308.638313" y="358.853513" style="fill: #0000ff; stroke: #0000ff"/>
     <use xlink:href="#m7a482b8d55" x="315.005995" y="357.706429" style="fill: #0000ff; stroke: #0000ff"/>
     <use xlink:href="#m7a482b8d55" x="321.088641" y="354.830285" style="fill: #0000ff; stroke: #0000ff"/>
     <use xlink:href="#m7a482b8d55" x="326.920784" y="352.689598" style="fill: #0000ff; stroke: #0000ff"/>
     <use xlink:href="#m7a482b8d55" x="332.531207" y="348.442373" style="fill: #0000ff; stroke: #0000ff"/>
     <use xlink:href="#m7a482b8d55" x="337.944179" y="347.248019" style="fill: #0000ff; stroke: #0000ff"/>
     <use xlink:href="#m7a482b8d55" x="343.180372" y="344.934845" style="fill: #0000ff; stroke: #0000ff"/>
     <use xlink:href="#m7a482b8d55" x="348.257558" y="344.157396" style="fill: #0000ff; stroke: #0000ff"/>
     <use xlink:href="#m7a482b8d55" x="353.191142" y="335.246534" style="fill: #0000ff; stroke: #0000ff"/>
     <use xlink:href="#m7a482b8d55" x="357.994581" y="335.187874" style="fill: #0000ff; stroke: #0000ff"/>
     <use xlink:href="#m7a482b8d55" x="362.679713" y="335.042941" style="fill: #0000ff; stroke: #0000ff"/>
     <use xlink:href="#m7a482b8d55" x="367.257015" y="329.413423" style="fill: #0000ff; stroke: #0000ff"/>
     <use xlink:href="#m7a482b8d55" x="371.735823" y="326.975436" style="fill: #0000ff; stroke: #0000ff"/>
     <use xlink:href="#m7a482b8d55" x="376.124495" y="322.682654" style="fill: #0000ff; stroke: #0000ff"/>
     <use xlink:href="#m7a482b8d55" x="380.430561" y="320.847127" style="fill: #0000ff; stroke: #0000ff"/>
     <use xlink:href="#m7a482b8d55" x="384.660833" y="317.142073" style="fill: #0000ff; stroke: #0000ff"/>
     <use xlink:href="#m7a482b8d55" x="388.821508" y="311.131177" style="fill: #0000ff; stroke: #0000ff"/>
     <use xlink:href="#m7a482b8d55" x="392.918247" y="306.898724" style="fill: #0000ff; stroke: #0000ff"/>
     <use xlink:href="#m7a482b8d55" x="396.956246" y="304.274797" style="fill: #0000ff; stroke: #0000ff"/>
     <use xlink:href="#m7a482b8d55" x="400.940293" y="304.182339" style="fill: #0000ff; stroke: #0000ff"/>
     <use xlink:href="#m7a482b8d55" x="404.874821" y="303.820647" style="fill: #0000ff; stroke: #0000ff"/>
     <use xlink:href="#m7a482b8d55" x="408.76395" y="302.144116" style="fill: #0000ff; stroke: #0000ff"/>
     <use xlink:href="#m7a482b8d55" x="412.611526" y="300.239939" style="fill: #0000ff; stroke: #0000ff"/>
     <use xlink:href="#m7a482b8d55" x="416.421154" y="299.492112" style="fill: #0000ff; stroke: #0000ff"/>
     <use xlink:href="#m7a482b8d55" x="420.196223" y="295.834255" style="fill: #0000ff; stroke: #0000ff"/>
     <use xlink:href="#m7a482b8d55" x="423.939938" y="294.781574" style="fill: #0000ff; stroke: #0000ff"/>
     <use xlink:href="#m7a482b8d55" x="427.655338" y="294.78056" style="fill: #0000ff; stroke: #0000ff"/>
     <use xlink:href="#m7a482b8d55" x="431.345315" y="293.052523" style="fill: #0000ff; stroke: #0000ff"/>
     <use xlink:href="#m7a482b8d55" x="435.012639" y="292.974399" style="fill: #0000ff; stroke: #0000ff"/>
     <use xlink:href="#m7a482b8d55" x="438.659966" y="292.64653" style="fill: #0000ff; stroke: #0000ff"/>
     <use xlink:href="#m7a482b8d55" x="442.289859" y="288.316021" style="fill: #0000ff; stroke: #0000ff"/>
     <use xlink:href="#m7a482b8d55" x="445.904798" y="287.341508" style="fill: #0000ff; stroke: #0000ff"/>
     <use xlink:href="#m7a482b8d55" x="449.507196" y="284.503486" style="fill: #0000ff; stroke: #0000ff"/>
     <use xlink:href="#m7a482b8d55" x="453.099409" y="283.688471" style="fill: #0000ff; stroke: #0000ff"/>
     <use xlink:href="#m7a482b8d55" x="456.683745" y="282.632255" style="fill: #0000ff; stroke: #0000ff"/>
     <use xlink:href="#m7a482b8d55" x="460.262481" y="278.379446" style="fill: #0000ff; stroke: #0000ff"/>
     <use xlink:href="#m7a482b8d55" x="463.837865" y="277.253521" style="fill: #0000ff; stroke: #0000ff"/>
     <use xlink:href="#m7a482b8d55" x="467.412135" y="276.746113" style="fill: #0000ff; stroke: #0000ff"/>
     <use xlink:href="#m7a482b8d55" x="470.987519" y="276.335487" style="fill: #0000ff; stroke: #0000ff"/>
     <use xlink:href="#m7a482b8d55" x="474.566255" y="267.561049" style="fill: #0000ff; stroke: #0000ff"/>
     <use xlink:href="#m7a482b8d55" x="478.150591" y="261.868459" style="fill: #0000ff; stroke: #0000ff"/>
     <use xlink:href="#m7a482b8d55" x="481.742804" y="260.302629" style="fill: #0000ff; stroke: #0000ff"/>
     <use xlink:href="#m7a482b8d55" x="485.345202" y="258.582954" style="fill: #0000ff; stroke: #0000ff"/>
     <use xlink:href="#m7a482b8d55" x="488.960141" y="256.500065" style="fill: #0000ff; stroke: #0000ff"/>
     <use xlink:href="#m7a482b8d55" x="492.590034" y="250.093566" style="fill: #0000ff; stroke: #0000ff"/>
     <use xlink:href="#m7a482b8d55" x="496.237361" y="249.526007" style="fill: #0000ff; stroke: #0000ff"/>
     <use xlink:href="#m7a482b8d55" x="499.904685" y="247.315006" style="fill: #0000ff; stroke: #0000ff"/>
     <use xlink:href="#m7a482b8d55" x="503.594662" y="247.092963" style="fill: #0000ff; stroke: #0000ff"/>
     <use xlink:href="#m7a482b8d55" x="507.310062" y="242.381371" style="fill: #0000ff; stroke: #0000ff"/>
     <use xlink:href="#m7a482b8d55" x="511.053777" y="241.873412" style="fill: #0000ff; stroke: #0000ff"/>
     <use xlink:href="#m7a482b8d55" x="514.828846" y="240.734984" style="fill: #0000ff; stroke: #0000ff"/>
     <use xlink:href="#m7a482b8d55" x="518.638474" y="237.895495" style="fill: #0000ff; stroke: #0000ff"/>
     <use xlink:href="#m7a482b8d55" x="522.48605" y="236.807745" style="fill: #0000ff; stroke: #0000ff"/>
     <use xlink:href="#m7a482b8d55" x="526.375179" y="233.643557" style="fill: #0000ff; stroke: #0000ff"/>
     <use xlink:href="#m7a482b8d55" x="530.309707" y="231.575234" style="fill: #0000ff; stroke: #0000ff"/>
     <use xlink:href="#m7a482b8d55" x="534.293754" y="229.599097" style="fill: #0000ff; stroke: #0000ff"/>
     <use xlink:href="#m7a482b8d55" x="538.331753" y="223.439536" style="fill: #0000ff; stroke: #0000ff"/>
     <use xlink:href="#m7a482b8d55" x="542.428492" y="221.018999" style="fill: #0000ff; stroke: #0000ff"/>
     <use xlink:href="#m7a482b8d55" x="546.589167" y="217.930257" style="fill: #0000ff; stroke: #0000ff"/>
     <use xlink:href="#m7a482b8d55" x="550.819439" y="216.059307" style="fill: #0000ff; stroke: #0000ff"/>
     <use xlink:href="#m7a482b8d55" x="555.125505" y="205.722072" style="fill: #0000ff; stroke: #0000ff"/>
     <use xlink:href="#m7a482b8d55" x="559.514177" y="196.726419" style="fill: #0000ff; stroke: #0000ff"/>
     <use xlink:href="#m7a482b8d55" x="563.992985" y="196.381414" style="fill: #0000ff; stroke: #0000ff"/>
     <use xlink:href="#m7a482b8d55" x="568.570287" y="195.909154" style="fill: #0000ff; stroke: #0000ff"/>
     <use xlink:href="#m7a482b8d55" x="573.255419" y="193.612406" style="fill: #0000ff; stroke: #0000ff"/>
     <use xlink:href="#m7a482b8d55" x="578.058858" y="192.179426" style="fill: #0000ff; stroke: #0000ff"/>
     <use xlink:href="#m7a482b8d55" x="582.992442" y="184.316458" style="fill: #0000ff; stroke: #0000ff"/>
     <use xlink:href="#m7a482b8d55" x="588.069628" y="182.808633" style="fill: #0000ff; stroke: #0000ff"/>
     <use xlink:href="#m7a482b8d55" x="593.305821" y="180.244985" style="fill: #0000ff; stroke: #0000ff"/>
     <use xlink:href="#m7a482b8d55" x="598.718793" y="175.820304" style="fill: #0000ff; stroke: #0000ff"/>
     <use xlink:href="#m7a482b8d55" x="604.329216" y="174.142956" style="fill: #0000ff; stroke: #0000ff"/>
     <use xlink:href="#m7a482b8d55" x="610.161359" y="172.134242" style="fill: #0000ff; stroke: #0000ff"/>
     <use xlink:href="#m7a482b8d55" x="616.244005" y="171.083029" style="fill: #0000ff; stroke: #0000ff"/>
     <use xlink:href="#m7a482b8d55" x="622.611687" y="165.061241" style="fill: #0000ff; stroke: #0000ff"/>
     <use xlink:href="#m7a482b8d55" x="629.306373" y="163.714647" style="fill: #0000ff; stroke: #0000ff"/>
     <use xlink:href="#m7a482b8d55" x="636.379838" y="155.380217" style="fill: #0000ff; stroke: #0000ff"/>
     <use xlink:href="#m7a482b8d55" x="643.897056" y="151.312919" style="fill: #0000ff; stroke: #0000ff"/>
     <use xlink:href="#m7a482b8d55" x="651.941227" y="149.489387" style="fill: #0000ff; stroke: #0000ff"/>
     <use xlink:href="#m7a482b8d55" x="660.621471" y="149.026453" style="fill: #0000ff; stroke: #0000ff"/>
     <use xlink:href="#m7a482b8d55" x="670.08512" y="142.241308" style="fill: #0000ff; stroke: #0000ff"/>
     <use xlink:href="#m7a482b8d55" x="680.538379" y="132.468363" style="fill: #0000ff; stroke: #0000ff"/>
     <use xlink:href="#m7a482b8d55" x="692.28337" y="131.86994" style="fill: #0000ff; stroke: #0000ff"/>
     <use xlink:href="#m7a482b8d55" x="705.790302" y="129.195089" style="fill: #0000ff; stroke: #0000ff"/>
     <use xlink:href="#m7a482b8d55" x="721.854839" y="115.061219" style="fill: #0000ff; stroke: #0000ff"/>
     <use xlink:href="#m7a482b8d55" x="742.001968" y="103.527434" style="fill: #0000ff; stroke: #0000ff"/>
     <use xlink:href="#m7a482b8d55" x="769.833852" y="95.381179" style="fill: #0000ff; stroke: #0000ff"/>
     <use xlink:href="#m7a482b8d55" x="817.965909" y="82.406594" style="fill: #0000ff; stroke: #0000ff"/>
    </g>
   </g>
   <g id="line2d_12">
    <path d="M 113.284091 472.526563 
L 161.416148 444.337115 
L 189.248032 428.036848 
L 209.395161 416.237302 
L 225.459698 406.828802 
L 238.96663 398.918213 
L 250.711621 392.039537 
L 261.16488 385.917389 
L 270.628529 380.374825 
L 279.308773 375.291076 
L 287.352944 370.579856 
L 294.870162 366.177255 
L 301.943627 362.034547 
L 308.638313 358.113677 
L 315.005995 354.384325 
L 321.088641 350.821908 
L 326.920784 347.406204 
L 332.531207 344.120353 
L 337.944179 340.950144 
L 343.180372 337.883469 
L 348.257558 334.909919 
L 353.191142 332.020473 
L 357.994581 329.207248 
L 362.679713 326.463312 
L 367.257015 323.782529 
L 371.735823 321.159431 
L 376.124495 318.589122 
L 380.430561 316.067193 
L 384.660833 313.589655 
L 388.821508 311.152877 
L 392.918247 308.753544 
L 396.956246 306.388614 
L 400.940293 304.055282 
L 404.874821 301.750952 
L 408.76395 299.47321 
L 412.611526 297.219804 
L 416.421154 294.988624 
L 420.196223 292.777683 
L 423.939938 290.585106 
L 427.655338 288.409112 
L 431.345315 286.248007 
L 435.012639 284.10017 
L 438.659966 281.964044 
L 442.289859 279.838129 
L 445.904798 277.720972 
L 449.507196 275.611159 
L 453.099409 273.507312 
L 456.683745 271.408078 
L 460.262481 269.312124 
L 463.837865 267.218132 
L 467.412135 265.124794 
L 470.987519 263.030803 
L 474.566255 260.934849 
L 478.150591 258.835614 
L 481.742804 256.731767 
L 485.345202 254.621955 
L 488.960141 252.504797 
L 492.590034 250.378882 
L 496.237361 248.242756 
L 499.904685 246.094919 
L 503.594662 243.933814 
L 507.310062 241.757821 
L 511.053777 239.565243 
L 514.828846 237.354303 
L 518.638474 235.123122 
L 522.48605 232.869717 
L 526.375179 230.591975 
L 530.309707 228.287644 
L 534.293754 225.954312 
L 538.331753 223.589382 
L 542.428492 221.190049 
L 546.589167 218.753272 
L 550.819439 216.275733 
L 555.125505 213.753804 
L 559.514177 211.183496 
L 563.992985 208.560397 
L 568.570287 205.879614 
L 573.255419 203.135678 
L 578.058858 200.322453 
L 582.992442 197.433007 
L 588.069628 194.459457 
L 593.305821 191.392782 
L 598.718793 188.222573 
L 604.329216 184.936723 
L 610.161359 181.521018 
L 616.244005 177.958602 
L 622.611687 174.229249 
L 629.306373 170.30838 
L 636.379838 166.165671 
L 643.897056 161.763071 
L 651.941227 157.05185 
L 660.621471 151.968102 
L 670.08512 146.425537 
L 680.538379 140.303389 
L 692.28337 133.424713 
L 705.790302 125.514124 
L 721.854839 116.105625 
L 742.001968 104.306079 
L 769.833852 88.005811 
L 817.965909 59.816364 
" clip-path="url(#pf3c9c57b06)" style="fill: none; stroke: #ff0000; stroke-width: 1.5; stroke-linecap: square"/>
>>>>>>>> 5baa6be6f14571bc06693767a5c4a170f787ac65:python/interface/SimulatorTool/plots/demo_qqplot.svg
   </g>
   <g id="patch_3">
    <path d="M 77.87 509.56 
L 77.87 38.4 
" style="fill: none; stroke: #000000; stroke-width: 0.8; stroke-linejoin: miter; stroke-linecap: square"/>
   </g>
   <g id="patch_4">
    <path d="M 853.2 509.56 
L 853.2 38.4 
" style="fill: none; stroke: #000000; stroke-width: 0.8; stroke-linejoin: miter; stroke-linecap: square"/>
   </g>
   <g id="patch_5">
    <path d="M 77.87 509.56 
L 853.2 509.56 
" style="fill: none; stroke: #000000; stroke-width: 0.8; stroke-linejoin: miter; stroke-linecap: square"/>
   </g>
   <g id="patch_6">
    <path d="M 77.87 38.4 
L 853.2 38.4 
" style="fill: none; stroke: #000000; stroke-width: 0.8; stroke-linejoin: miter; stroke-linecap: square"/>
   </g>
   <g id="text_13">
<<<<<<<< HEAD:python/interface/SimulatorTool/plots/demo_qqplot_2.svg
    <!-- QQ Plot (BNN FC1 Index None, r=0.9930) -->
    <g transform="translate(142.14375 32.4) scale(0.28 -0.28)">
========
    <!-- QQ Plot (BNN FC1 Index None, r=0.9943) -->
    <g transform="translate(142.23375 32.4) scale(0.28 -0.28)">
>>>>>>>> 5baa6be6f14571bc06693767a5c4a170f787ac65:python/interface/SimulatorTool/plots/demo_qqplot.svg
     <defs>
      <path id="DejaVuSans-Bold-50" d="M 588 4666 
L 2584 4666 
Q 3475 4666 3951 4270 
Q 4428 3875 4428 3144 
Q 4428 2409 3951 2014 
Q 3475 1619 2584 1619 
L 1791 1619 
L 1791 0 
L 588 0 
L 588 4666 
z
M 1791 3794 
L 1791 2491 
L 2456 2491 
Q 2806 2491 2997 2661 
Q 3188 2831 3188 3144 
Q 3188 3456 2997 3625 
Q 2806 3794 2456 3794 
L 1791 3794 
z
" transform="scale(0.015625)"/>
      <path id="DejaVuSans-Bold-28" d="M 2413 -844 
L 1484 -844 
Q 1006 -72 778 623 
Q 550 1319 550 2003 
Q 550 2688 779 3389 
Q 1009 4091 1484 4856 
L 2413 4856 
Q 2013 4116 1813 3408 
Q 1613 2700 1613 2009 
Q 1613 1319 1811 609 
Q 2009 -100 2413 -844 
z
" transform="scale(0.015625)"/>
      <path id="DejaVuSans-Bold-42" d="M 2456 2859 
Q 2741 2859 2887 2984 
Q 3034 3109 3034 3353 
Q 3034 3594 2887 3720 
Q 2741 3847 2456 3847 
L 1791 3847 
L 1791 2859 
L 2456 2859 
z
M 2497 819 
Q 2859 819 3042 972 
Q 3225 1125 3225 1434 
Q 3225 1738 3044 1889 
Q 2863 2041 2497 2041 
L 1791 2041 
L 1791 819 
L 2497 819 
z
M 3616 2497 
Q 4003 2384 4215 2081 
Q 4428 1778 4428 1338 
Q 4428 663 3972 331 
Q 3516 0 2584 0 
L 588 0 
L 588 4666 
L 2394 4666 
Q 3366 4666 3802 4372 
Q 4238 4078 4238 3431 
Q 4238 3091 4078 2852 
Q 3919 2613 3616 2497 
z
" transform="scale(0.015625)"/>
      <path id="DejaVuSans-Bold-4e" d="M 588 4666 
L 1931 4666 
L 3628 1466 
L 3628 4666 
L 4769 4666 
L 4769 0 
L 3425 0 
L 1728 3200 
L 1728 0 
L 588 0 
L 588 4666 
z
" transform="scale(0.015625)"/>
      <path id="DejaVuSans-Bold-46" d="M 588 4666 
L 3834 4666 
L 3834 3756 
L 1791 3756 
L 1791 2888 
L 3713 2888 
L 3713 1978 
L 1791 1978 
L 1791 0 
L 588 0 
L 588 4666 
z
" transform="scale(0.015625)"/>
      <path id="DejaVuSans-Bold-43" d="M 4288 256 
Q 3956 84 3597 -3 
Q 3238 -91 2847 -91 
Q 1681 -91 1000 561 
Q 319 1213 319 2328 
Q 319 3447 1000 4098 
Q 1681 4750 2847 4750 
Q 3238 4750 3597 4662 
Q 3956 4575 4288 4403 
L 4288 3438 
Q 3953 3666 3628 3772 
Q 3303 3878 2944 3878 
Q 2300 3878 1931 3465 
Q 1563 3053 1563 2328 
Q 1563 1606 1931 1193 
Q 2300 781 2944 781 
Q 3303 781 3628 887 
Q 3953 994 4288 1222 
L 4288 256 
z
" transform="scale(0.015625)"/>
      <path id="DejaVuSans-Bold-31" d="M 750 831 
L 1813 831 
L 1813 3847 
L 722 3622 
L 722 4441 
L 1806 4666 
L 2950 4666 
L 2950 831 
L 4013 831 
L 4013 0 
L 750 0 
L 750 831 
z
" transform="scale(0.015625)"/>
      <path id="DejaVuSans-Bold-49" d="M 588 4666 
L 1791 4666 
L 1791 0 
L 588 0 
L 588 4666 
z
" transform="scale(0.015625)"/>
      <path id="DejaVuSans-Bold-64" d="M 2919 2988 
L 2919 4863 
L 4044 4863 
L 4044 0 
L 2919 0 
L 2919 506 
Q 2688 197 2409 53 
Q 2131 -91 1766 -91 
Q 1119 -91 703 423 
Q 288 938 288 1747 
Q 288 2556 703 3070 
Q 1119 3584 1766 3584 
Q 2128 3584 2408 3439 
Q 2688 3294 2919 2988 
z
M 2181 722 
Q 2541 722 2730 984 
Q 2919 1247 2919 1747 
Q 2919 2247 2730 2509 
Q 2541 2772 2181 2772 
Q 1825 2772 1636 2509 
Q 1447 2247 1447 1747 
Q 1447 1247 1636 984 
Q 1825 722 2181 722 
z
" transform="scale(0.015625)"/>
      <path id="DejaVuSans-Bold-78" d="M 1422 1791 
L 159 3500 
L 1344 3500 
L 2059 2463 
L 2784 3500 
L 3969 3500 
L 2706 1797 
L 4031 0 
L 2847 0 
L 2059 1106 
L 1281 0 
L 97 0 
L 1422 1791 
z
" transform="scale(0.015625)"/>
      <path id="DejaVuSans-Bold-2c" d="M 653 1209 
L 1778 1209 
L 1778 256 
L 1006 -909 
L 341 -909 
L 653 256 
L 653 1209 
z
" transform="scale(0.015625)"/>
      <path id="DejaVuSans-Bold-3d" d="M 678 3084 
L 4684 3084 
L 4684 2350 
L 678 2350 
L 678 3084 
z
M 678 1663 
L 4684 1663 
L 4684 922 
L 678 922 
L 678 1663 
z
" transform="scale(0.015625)"/>
      <path id="DejaVuSans-Bold-30" d="M 2944 2338 
Q 2944 3213 2780 3570 
Q 2616 3928 2228 3928 
Q 1841 3928 1675 3570 
Q 1509 3213 1509 2338 
Q 1509 1453 1675 1090 
Q 1841 728 2228 728 
Q 2613 728 2778 1090 
Q 2944 1453 2944 2338 
z
M 4147 2328 
Q 4147 1169 3647 539 
Q 3147 -91 2228 -91 
Q 1306 -91 806 539 
Q 306 1169 306 2328 
Q 306 3491 806 4120 
Q 1306 4750 2228 4750 
Q 3147 4750 3647 4120 
Q 4147 3491 4147 2328 
z
" transform="scale(0.015625)"/>
      <path id="DejaVuSans-Bold-2e" d="M 653 1209 
L 1778 1209 
L 1778 0 
L 653 0 
L 653 1209 
z
" transform="scale(0.015625)"/>
      <path id="DejaVuSans-Bold-39" d="M 641 103 
L 641 966 
Q 928 831 1190 764 
Q 1453 697 1709 697 
Q 2247 697 2547 995 
Q 2847 1294 2900 1881 
Q 2688 1725 2447 1647 
Q 2206 1569 1925 1569 
Q 1209 1569 770 1986 
Q 331 2403 331 3084 
Q 331 3838 820 4291 
Q 1309 4744 2131 4744 
Q 3044 4744 3544 4128 
Q 4044 3513 4044 2388 
Q 4044 1231 3459 570 
Q 2875 -91 1856 -91 
Q 1528 -91 1228 -42 
Q 928 6 641 103 
z
M 2125 2350 
Q 2441 2350 2600 2554 
Q 2759 2759 2759 3169 
Q 2759 3575 2600 3781 
Q 2441 3988 2125 3988 
Q 1809 3988 1650 3781 
Q 1491 3575 1491 3169 
Q 1491 2759 1650 2554 
Q 1809 2350 2125 2350 
z
" transform="scale(0.015625)"/>
      <path id="DejaVuSans-Bold-34" d="M 2356 3675 
L 1038 1722 
L 2356 1722 
L 2356 3675 
z
M 2156 4666 
L 3494 4666 
L 3494 1722 
L 4159 1722 
L 4159 850 
L 3494 850 
L 3494 0 
L 2356 0 
L 2356 850 
L 288 850 
L 288 1881 
L 2156 4666 
z
" transform="scale(0.015625)"/>
      <path id="DejaVuSans-Bold-33" d="M 2981 2516 
Q 3453 2394 3698 2092 
Q 3944 1791 3944 1325 
Q 3944 631 3412 270 
Q 2881 -91 1863 -91 
Q 1503 -91 1142 -33 
Q 781 25 428 141 
L 428 1069 
Q 766 900 1098 814 
Q 1431 728 1753 728 
Q 2231 728 2486 893 
Q 2741 1059 2741 1369 
Q 2741 1688 2480 1852 
Q 2219 2016 1709 2016 
L 1228 2016 
L 1228 2791 
L 1734 2791 
Q 2188 2791 2409 2933 
Q 2631 3075 2631 3366 
Q 2631 3634 2415 3781 
Q 2200 3928 1806 3928 
Q 1516 3928 1219 3862 
Q 922 3797 628 3669 
L 628 4550 
Q 984 4650 1334 4700 
Q 1684 4750 2022 4750 
Q 2931 4750 3382 4451 
Q 3834 4153 3834 3553 
Q 3834 3144 3618 2883 
Q 3403 2622 2981 2516 
z
" transform="scale(0.015625)"/>
      <path id="DejaVuSans-Bold-29" d="M 513 -844 
Q 913 -100 1113 609 
Q 1313 1319 1313 2009 
Q 1313 2700 1113 3408 
Q 913 4116 513 4856 
L 1441 4856 
Q 1916 4091 2145 3389 
Q 2375 2688 2375 2003 
Q 2375 1319 2147 623 
Q 1919 -72 1441 -844 
L 513 -844 
z
" transform="scale(0.015625)"/>
     </defs>
     <use xlink:href="#DejaVuSans-Bold-51"/>
<<<<<<<< HEAD:python/interface/SimulatorTool/plots/demo_qqplot_2.svg
     <use xlink:href="#DejaVuSans-Bold-51" transform="translate(85.009766 0)"/>
     <use xlink:href="#DejaVuSans-Bold-20" transform="translate(170.019531 0)"/>
     <use xlink:href="#DejaVuSans-Bold-50" transform="translate(204.833984 0)"/>
     <use xlink:href="#DejaVuSans-Bold-6c" transform="translate(278.125 0)"/>
     <use xlink:href="#DejaVuSans-Bold-6f" transform="translate(312.402344 0)"/>
     <use xlink:href="#DejaVuSans-Bold-74" transform="translate(381.103516 0)"/>
     <use xlink:href="#DejaVuSans-Bold-20" transform="translate(428.90625 0)"/>
     <use xlink:href="#DejaVuSans-Bold-28" transform="translate(463.720703 0)"/>
     <use xlink:href="#DejaVuSans-Bold-42" transform="translate(509.423828 0)"/>
     <use xlink:href="#DejaVuSans-Bold-4e" transform="translate(585.644531 0)"/>
     <use xlink:href="#DejaVuSans-Bold-4e" transform="translate(669.335938 0)"/>
     <use xlink:href="#DejaVuSans-Bold-20" transform="translate(753.027344 0)"/>
     <use xlink:href="#DejaVuSans-Bold-46" transform="translate(787.841797 0)"/>
     <use xlink:href="#DejaVuSans-Bold-43" transform="translate(856.152344 0)"/>
     <use xlink:href="#DejaVuSans-Bold-31" transform="translate(929.541016 0)"/>
     <use xlink:href="#DejaVuSans-Bold-20" transform="translate(999.121094 0)"/>
     <use xlink:href="#DejaVuSans-Bold-49" transform="translate(1033.935547 0)"/>
     <use xlink:href="#DejaVuSans-Bold-6e" transform="translate(1071.142578 0)"/>
     <use xlink:href="#DejaVuSans-Bold-64" transform="translate(1142.333984 0)"/>
     <use xlink:href="#DejaVuSans-Bold-65" transform="translate(1213.916016 0)"/>
     <use xlink:href="#DejaVuSans-Bold-78" transform="translate(1281.738281 0)"/>
     <use xlink:href="#DejaVuSans-Bold-20" transform="translate(1346.240234 0)"/>
     <use xlink:href="#DejaVuSans-Bold-4e" transform="translate(1381.054688 0)"/>
     <use xlink:href="#DejaVuSans-Bold-6f" transform="translate(1464.746094 0)"/>
     <use xlink:href="#DejaVuSans-Bold-6e" transform="translate(1533.447266 0)"/>
     <use xlink:href="#DejaVuSans-Bold-65" transform="translate(1604.638672 0)"/>
     <use xlink:href="#DejaVuSans-Bold-2c" transform="translate(1672.460938 0)"/>
     <use xlink:href="#DejaVuSans-Bold-20" transform="translate(1710.449219 0)"/>
     <use xlink:href="#DejaVuSans-Bold-72" transform="translate(1745.263672 0)"/>
     <use xlink:href="#DejaVuSans-Bold-3d" transform="translate(1794.580078 0)"/>
     <use xlink:href="#DejaVuSans-Bold-30" transform="translate(1878.369141 0)"/>
     <use xlink:href="#DejaVuSans-Bold-2e" transform="translate(1947.949219 0)"/>
     <use xlink:href="#DejaVuSans-Bold-39" transform="translate(1985.9375 0)"/>
     <use xlink:href="#DejaVuSans-Bold-39" transform="translate(2055.517578 0)"/>
     <use xlink:href="#DejaVuSans-Bold-33" transform="translate(2125.097656 0)"/>
     <use xlink:href="#DejaVuSans-Bold-30" transform="translate(2194.677734 0)"/>
     <use xlink:href="#DejaVuSans-Bold-29" transform="translate(2264.257812 0)"/>
========
     <use xlink:href="#DejaVuSans-Bold-51" x="85.009766"/>
     <use xlink:href="#DejaVuSans-Bold-20" x="170.019531"/>
     <use xlink:href="#DejaVuSans-Bold-50" x="204.833984"/>
     <use xlink:href="#DejaVuSans-Bold-6c" x="278.125"/>
     <use xlink:href="#DejaVuSans-Bold-6f" x="312.402344"/>
     <use xlink:href="#DejaVuSans-Bold-74" x="381.103516"/>
     <use xlink:href="#DejaVuSans-Bold-20" x="428.90625"/>
     <use xlink:href="#DejaVuSans-Bold-28" x="463.720703"/>
     <use xlink:href="#DejaVuSans-Bold-42" x="509.423828"/>
     <use xlink:href="#DejaVuSans-Bold-4e" x="585.644531"/>
     <use xlink:href="#DejaVuSans-Bold-4e" x="669.335938"/>
     <use xlink:href="#DejaVuSans-Bold-20" x="753.027344"/>
     <use xlink:href="#DejaVuSans-Bold-46" x="787.841797"/>
     <use xlink:href="#DejaVuSans-Bold-43" x="856.152344"/>
     <use xlink:href="#DejaVuSans-Bold-31" x="929.541016"/>
     <use xlink:href="#DejaVuSans-Bold-20" x="999.121094"/>
     <use xlink:href="#DejaVuSans-Bold-49" x="1033.935547"/>
     <use xlink:href="#DejaVuSans-Bold-6e" x="1071.142578"/>
     <use xlink:href="#DejaVuSans-Bold-64" x="1142.333984"/>
     <use xlink:href="#DejaVuSans-Bold-65" x="1213.916016"/>
     <use xlink:href="#DejaVuSans-Bold-78" x="1281.738281"/>
     <use xlink:href="#DejaVuSans-Bold-20" x="1346.240234"/>
     <use xlink:href="#DejaVuSans-Bold-4e" x="1381.054688"/>
     <use xlink:href="#DejaVuSans-Bold-6f" x="1464.746094"/>
     <use xlink:href="#DejaVuSans-Bold-6e" x="1533.447266"/>
     <use xlink:href="#DejaVuSans-Bold-65" x="1604.638672"/>
     <use xlink:href="#DejaVuSans-Bold-2c" x="1672.460938"/>
     <use xlink:href="#DejaVuSans-Bold-20" x="1710.449219"/>
     <use xlink:href="#DejaVuSans-Bold-72" x="1745.263672"/>
     <use xlink:href="#DejaVuSans-Bold-3d" x="1794.580078"/>
     <use xlink:href="#DejaVuSans-Bold-30" x="1878.369141"/>
     <use xlink:href="#DejaVuSans-Bold-2e" x="1947.949219"/>
     <use xlink:href="#DejaVuSans-Bold-39" x="1985.9375"/>
     <use xlink:href="#DejaVuSans-Bold-39" x="2055.517578"/>
     <use xlink:href="#DejaVuSans-Bold-34" x="2125.097656"/>
     <use xlink:href="#DejaVuSans-Bold-33" x="2194.677734"/>
     <use xlink:href="#DejaVuSans-Bold-29" x="2264.257812"/>
>>>>>>>> 5baa6be6f14571bc06693767a5c4a170f787ac65:python/interface/SimulatorTool/plots/demo_qqplot.svg
    </g>
   </g>
  </g>
 </g>
 <defs>
<<<<<<<< HEAD:python/interface/SimulatorTool/plots/demo_qqplot_2.svg
  <clipPath id="pa1840122fc">
   <rect x="77.87" y="38.4" width="775.33" height="471.16"/>
========
  <clipPath id="pf3c9c57b06">
   <rect x="78.05" y="38.4" width="775.15" height="471.16"/>
>>>>>>>> 5baa6be6f14571bc06693767a5c4a170f787ac65:python/interface/SimulatorTool/plots/demo_qqplot.svg
  </clipPath>
 </defs>
</svg>
