<?xml version="1.0" encoding="utf-8" standalone="no"?>
<!DOCTYPE svg PUBLIC "-//W3C//DTD SVG 1.1//EN"
  "http://www.w3.org/Graphics/SVG/1.1/DTD/svg11.dtd">
<svg xmlns:xlink="http://www.w3.org/1999/xlink" width="864pt" height="576pt" viewBox="0 0 864 576" xmlns="http://www.w3.org/2000/svg" version="1.1">
 <metadata>
  <rdf:RDF xmlns:dc="http://purl.org/dc/elements/1.1/" xmlns:cc="http://creativecommons.org/ns#" xmlns:rdf="http://www.w3.org/1999/02/22-rdf-syntax-ns#">
   <cc:Work>
    <dc:type rdf:resource="http://purl.org/dc/dcmitype/StillImage"/>
    <dc:date>2025-06-30T18:31:51.681386</dc:date>
    <dc:format>image/svg+xml</dc:format>
    <dc:creator>
     <cc:Agent>
      <dc:title>Matplotlib v3.10.3, https://matplotlib.org/</dc:title>
     </cc:Agent>
    </dc:creator>
   </cc:Work>
  </rdf:RDF>
 </metadata>
 <defs>
  <style type="text/css">*{stroke-linejoin: round; stroke-linecap: butt}</style>
 </defs>
 <g id="figure_1">
  <g id="patch_1">
   <path d="M 0 576 
L 864 576 
L 864 0 
L 0 0 
z
" style="fill: #ffffff"/>
  </g>
  <g id="axes_1">
   <g id="patch_2">
    <path d="M 77.87 509.56 
L 853.2 509.56 
L 853.2 38.4 
L 77.87 38.4 
z
" style="fill: #ffffff"/>
   </g>
   <g id="matplotlib.axis_1">
    <g id="xtick_1">
     <g id="line2d_1">
      <defs>
       <path id="ma4d0bd57dc" d="M 0 0 
L 0 3.5 
" style="stroke: #000000; stroke-width: 0.8"/>
      </defs>
      <g>
       <use xlink:href="#ma4d0bd57dc" x="179.249613" y="509.56" style="stroke: #000000; stroke-width: 0.8"/>
      </g>
     </g>
     <g id="text_1">
      <!-- −1 -->
      <g transform="translate(163.033207 533.276562) scale(0.22 -0.22)">
       <defs>
        <path id="DejaVuSans-2212" d="M 678 2272 
L 4684 2272 
L 4684 1741 
L 678 1741 
L 678 2272 
z
" transform="scale(0.015625)"/>
        <path id="DejaVuSans-31" d="M 794 531 
L 1825 531 
L 1825 4091 
L 703 3866 
L 703 4441 
L 1819 4666 
L 2450 4666 
L 2450 531 
L 3481 531 
L 3481 0 
L 794 0 
L 794 531 
z
" transform="scale(0.015625)"/>
       </defs>
       <use xlink:href="#DejaVuSans-2212"/>
       <use xlink:href="#DejaVuSans-31" transform="translate(83.789062 0)"/>
      </g>
     </g>
    </g>
    <g id="xtick_2">
     <g id="line2d_2">
      <g>
       <use xlink:href="#ma4d0bd57dc" x="322.392307" y="509.56" style="stroke: #000000; stroke-width: 0.8"/>
      </g>
     </g>
     <g id="text_2">
      <!-- 0 -->
      <g transform="translate(315.393557 533.276562) scale(0.22 -0.22)">
       <defs>
        <path id="DejaVuSans-30" d="M 2034 4250 
Q 1547 4250 1301 3770 
Q 1056 3291 1056 2328 
Q 1056 1369 1301 889 
Q 1547 409 2034 409 
Q 2525 409 2770 889 
Q 3016 1369 3016 2328 
Q 3016 3291 2770 3770 
Q 2525 4250 2034 4250 
z
M 2034 4750 
Q 2819 4750 3233 4129 
Q 3647 3509 3647 2328 
Q 3647 1150 3233 529 
Q 2819 -91 2034 -91 
Q 1250 -91 836 529 
Q 422 1150 422 2328 
Q 422 3509 836 4129 
Q 1250 4750 2034 4750 
z
" transform="scale(0.015625)"/>
       </defs>
       <use xlink:href="#DejaVuSans-30"/>
      </g>
     </g>
    </g>
    <g id="xtick_3">
     <g id="line2d_3">
      <g>
       <use xlink:href="#ma4d0bd57dc" x="465.535" y="509.56" style="stroke: #000000; stroke-width: 0.8"/>
      </g>
     </g>
     <g id="text_3">
      <!-- 1 -->
      <g transform="translate(458.53625 533.276562) scale(0.22 -0.22)">
       <use xlink:href="#DejaVuSans-31"/>
      </g>
     </g>
    </g>
    <g id="xtick_4">
     <g id="line2d_4">
      <g>
       <use xlink:href="#ma4d0bd57dc" x="608.677693" y="509.56" style="stroke: #000000; stroke-width: 0.8"/>
      </g>
     </g>
     <g id="text_4">
      <!-- 2 -->
      <g transform="translate(601.678943 533.276562) scale(0.22 -0.22)">
       <defs>
        <path id="DejaVuSans-32" d="M 1228 531 
L 3431 531 
L 3431 0 
L 469 0 
L 469 531 
Q 828 903 1448 1529 
Q 2069 2156 2228 2338 
Q 2531 2678 2651 2914 
Q 2772 3150 2772 3378 
Q 2772 3750 2511 3984 
Q 2250 4219 1831 4219 
Q 1534 4219 1204 4116 
Q 875 4013 500 3803 
L 500 4441 
Q 881 4594 1212 4672 
Q 1544 4750 1819 4750 
Q 2544 4750 2975 4387 
Q 3406 4025 3406 3419 
Q 3406 3131 3298 2873 
Q 3191 2616 2906 2266 
Q 2828 2175 2409 1742 
Q 1991 1309 1228 531 
z
" transform="scale(0.015625)"/>
       </defs>
       <use xlink:href="#DejaVuSans-32"/>
      </g>
     </g>
    </g>
    <g id="xtick_5">
     <g id="line2d_5">
      <g>
       <use xlink:href="#ma4d0bd57dc" x="751.820387" y="509.56" style="stroke: #000000; stroke-width: 0.8"/>
      </g>
     </g>
     <g id="text_5">
      <!-- 3 -->
      <g transform="translate(744.821637 533.276562) scale(0.22 -0.22)">
       <defs>
        <path id="DejaVuSans-33" d="M 2597 2516 
Q 3050 2419 3304 2112 
Q 3559 1806 3559 1356 
Q 3559 666 3084 287 
Q 2609 -91 1734 -91 
Q 1441 -91 1130 -33 
Q 819 25 488 141 
L 488 750 
Q 750 597 1062 519 
Q 1375 441 1716 441 
Q 2309 441 2620 675 
Q 2931 909 2931 1356 
Q 2931 1769 2642 2001 
Q 2353 2234 1838 2234 
L 1294 2234 
L 1294 2753 
L 1863 2753 
Q 2328 2753 2575 2939 
Q 2822 3125 2822 3475 
Q 2822 3834 2567 4026 
Q 2313 4219 1838 4219 
Q 1578 4219 1281 4162 
Q 984 4106 628 3988 
L 628 4550 
Q 988 4650 1302 4700 
Q 1616 4750 1894 4750 
Q 2613 4750 3031 4423 
Q 3450 4097 3450 3541 
Q 3450 3153 3228 2886 
Q 3006 2619 2597 2516 
z
" transform="scale(0.015625)"/>
       </defs>
       <use xlink:href="#DejaVuSans-33"/>
      </g>
     </g>
    </g>
    <g id="text_6">
     <!-- Theoretical Quantiles -->
     <g transform="translate(320.38375 560.088125) scale(0.24 -0.24)">
      <defs>
       <path id="DejaVuSans-Bold-54" d="M 31 4666 
L 4331 4666 
L 4331 3756 
L 2784 3756 
L 2784 0 
L 1581 0 
L 1581 3756 
L 31 3756 
L 31 4666 
z
" transform="scale(0.015625)"/>
       <path id="DejaVuSans-Bold-68" d="M 4056 2131 
L 4056 0 
L 2931 0 
L 2931 347 
L 2931 1625 
Q 2931 2084 2911 2256 
Q 2891 2428 2841 2509 
Q 2775 2619 2662 2680 
Q 2550 2741 2406 2741 
Q 2056 2741 1856 2470 
Q 1656 2200 1656 1722 
L 1656 0 
L 538 0 
L 538 4863 
L 1656 4863 
L 1656 2988 
Q 1909 3294 2193 3439 
Q 2478 3584 2822 3584 
Q 3428 3584 3742 3212 
Q 4056 2841 4056 2131 
z
" transform="scale(0.015625)"/>
       <path id="DejaVuSans-Bold-65" d="M 4031 1759 
L 4031 1441 
L 1416 1441 
Q 1456 1047 1700 850 
Q 1944 653 2381 653 
Q 2734 653 3104 758 
Q 3475 863 3866 1075 
L 3866 213 
Q 3469 63 3072 -14 
Q 2675 -91 2278 -91 
Q 1328 -91 801 392 
Q 275 875 275 1747 
Q 275 2603 792 3093 
Q 1309 3584 2216 3584 
Q 3041 3584 3536 3087 
Q 4031 2591 4031 1759 
z
M 2881 2131 
Q 2881 2450 2695 2645 
Q 2509 2841 2209 2841 
Q 1884 2841 1681 2658 
Q 1478 2475 1428 2131 
L 2881 2131 
z
" transform="scale(0.015625)"/>
       <path id="DejaVuSans-Bold-6f" d="M 2203 2784 
Q 1831 2784 1636 2517 
Q 1441 2250 1441 1747 
Q 1441 1244 1636 976 
Q 1831 709 2203 709 
Q 2569 709 2762 976 
Q 2956 1244 2956 1747 
Q 2956 2250 2762 2517 
Q 2569 2784 2203 2784 
z
M 2203 3584 
Q 3106 3584 3614 3096 
Q 4122 2609 4122 1747 
Q 4122 884 3614 396 
Q 3106 -91 2203 -91 
Q 1297 -91 786 396 
Q 275 884 275 1747 
Q 275 2609 786 3096 
Q 1297 3584 2203 3584 
z
" transform="scale(0.015625)"/>
       <path id="DejaVuSans-Bold-72" d="M 3138 2547 
Q 2991 2616 2845 2648 
Q 2700 2681 2553 2681 
Q 2122 2681 1889 2404 
Q 1656 2128 1656 1613 
L 1656 0 
L 538 0 
L 538 3500 
L 1656 3500 
L 1656 2925 
Q 1872 3269 2151 3426 
Q 2431 3584 2822 3584 
Q 2878 3584 2943 3579 
Q 3009 3575 3134 3559 
L 3138 2547 
z
" transform="scale(0.015625)"/>
       <path id="DejaVuSans-Bold-74" d="M 1759 4494 
L 1759 3500 
L 2913 3500 
L 2913 2700 
L 1759 2700 
L 1759 1216 
Q 1759 972 1856 886 
Q 1953 800 2241 800 
L 2816 800 
L 2816 0 
L 1856 0 
Q 1194 0 917 276 
Q 641 553 641 1216 
L 641 2700 
L 84 2700 
L 84 3500 
L 641 3500 
L 641 4494 
L 1759 4494 
z
" transform="scale(0.015625)"/>
       <path id="DejaVuSans-Bold-69" d="M 538 3500 
L 1656 3500 
L 1656 0 
L 538 0 
L 538 3500 
z
M 538 4863 
L 1656 4863 
L 1656 3950 
L 538 3950 
L 538 4863 
z
" transform="scale(0.015625)"/>
       <path id="DejaVuSans-Bold-63" d="M 3366 3391 
L 3366 2478 
Q 3138 2634 2908 2709 
Q 2678 2784 2431 2784 
Q 1963 2784 1702 2511 
Q 1441 2238 1441 1747 
Q 1441 1256 1702 982 
Q 1963 709 2431 709 
Q 2694 709 2930 787 
Q 3166 866 3366 1019 
L 3366 103 
Q 3103 6 2833 -42 
Q 2563 -91 2291 -91 
Q 1344 -91 809 395 
Q 275 881 275 1747 
Q 275 2613 809 3098 
Q 1344 3584 2291 3584 
Q 2566 3584 2833 3536 
Q 3100 3488 3366 3391 
z
" transform="scale(0.015625)"/>
       <path id="DejaVuSans-Bold-61" d="M 2106 1575 
Q 1756 1575 1579 1456 
Q 1403 1338 1403 1106 
Q 1403 894 1545 773 
Q 1688 653 1941 653 
Q 2256 653 2472 879 
Q 2688 1106 2688 1447 
L 2688 1575 
L 2106 1575 
z
M 3816 1997 
L 3816 0 
L 2688 0 
L 2688 519 
Q 2463 200 2181 54 
Q 1900 -91 1497 -91 
Q 953 -91 614 226 
Q 275 544 275 1050 
Q 275 1666 698 1953 
Q 1122 2241 2028 2241 
L 2688 2241 
L 2688 2328 
Q 2688 2594 2478 2717 
Q 2269 2841 1825 2841 
Q 1466 2841 1156 2769 
Q 847 2697 581 2553 
L 581 3406 
Q 941 3494 1303 3539 
Q 1666 3584 2028 3584 
Q 2975 3584 3395 3211 
Q 3816 2838 3816 1997 
z
" transform="scale(0.015625)"/>
       <path id="DejaVuSans-Bold-6c" d="M 538 4863 
L 1656 4863 
L 1656 0 
L 538 0 
L 538 4863 
z
" transform="scale(0.015625)"/>
       <path id="DejaVuSans-Bold-20" transform="scale(0.015625)"/>
       <path id="DejaVuSans-Bold-51" d="M 2847 -84 
L 2753 -84 
Q 1600 -84 959 553 
Q 319 1191 319 2328 
Q 319 3463 958 4106 
Q 1597 4750 2719 4750 
Q 3853 4750 4486 4112 
Q 5119 3475 5119 2328 
Q 5119 1541 4783 972 
Q 4447 403 3816 116 
L 4756 -934 
L 3609 -934 
L 2847 -84 
z
M 2719 3878 
Q 2169 3878 1866 3472 
Q 1563 3066 1563 2328 
Q 1563 1578 1859 1179 
Q 2156 781 2719 781 
Q 3272 781 3575 1187 
Q 3878 1594 3878 2328 
Q 3878 3066 3575 3472 
Q 3272 3878 2719 3878 
z
" transform="scale(0.015625)"/>
       <path id="DejaVuSans-Bold-75" d="M 500 1363 
L 500 3500 
L 1625 3500 
L 1625 3150 
Q 1625 2866 1622 2436 
Q 1619 2006 1619 1863 
Q 1619 1441 1641 1255 
Q 1663 1069 1716 984 
Q 1784 875 1895 815 
Q 2006 756 2150 756 
Q 2500 756 2700 1025 
Q 2900 1294 2900 1772 
L 2900 3500 
L 4019 3500 
L 4019 0 
L 2900 0 
L 2900 506 
Q 2647 200 2364 54 
Q 2081 -91 1741 -91 
Q 1134 -91 817 281 
Q 500 653 500 1363 
z
" transform="scale(0.015625)"/>
       <path id="DejaVuSans-Bold-6e" d="M 4056 2131 
L 4056 0 
L 2931 0 
L 2931 347 
L 2931 1631 
Q 2931 2084 2911 2256 
Q 2891 2428 2841 2509 
Q 2775 2619 2662 2680 
Q 2550 2741 2406 2741 
Q 2056 2741 1856 2470 
Q 1656 2200 1656 1722 
L 1656 0 
L 538 0 
L 538 3500 
L 1656 3500 
L 1656 2988 
Q 1909 3294 2193 3439 
Q 2478 3584 2822 3584 
Q 3428 3584 3742 3212 
Q 4056 2841 4056 2131 
z
" transform="scale(0.015625)"/>
       <path id="DejaVuSans-Bold-73" d="M 3272 3391 
L 3272 2541 
Q 2913 2691 2578 2766 
Q 2244 2841 1947 2841 
Q 1628 2841 1473 2761 
Q 1319 2681 1319 2516 
Q 1319 2381 1436 2309 
Q 1553 2238 1856 2203 
L 2053 2175 
Q 2913 2066 3209 1816 
Q 3506 1566 3506 1031 
Q 3506 472 3093 190 
Q 2681 -91 1863 -91 
Q 1516 -91 1145 -36 
Q 775 19 384 128 
L 384 978 
Q 719 816 1070 734 
Q 1422 653 1784 653 
Q 2113 653 2278 743 
Q 2444 834 2444 1013 
Q 2444 1163 2330 1236 
Q 2216 1309 1875 1350 
L 1678 1375 
Q 931 1469 631 1722 
Q 331 1975 331 2491 
Q 331 3047 712 3315 
Q 1094 3584 1881 3584 
Q 2191 3584 2531 3537 
Q 2872 3491 3272 3391 
z
" transform="scale(0.015625)"/>
      </defs>
      <use xlink:href="#DejaVuSans-Bold-54"/>
      <use xlink:href="#DejaVuSans-Bold-68" transform="translate(68.212891 0)"/>
      <use xlink:href="#DejaVuSans-Bold-65" transform="translate(139.404297 0)"/>
      <use xlink:href="#DejaVuSans-Bold-6f" transform="translate(207.226562 0)"/>
      <use xlink:href="#DejaVuSans-Bold-72" transform="translate(275.927734 0)"/>
      <use xlink:href="#DejaVuSans-Bold-65" transform="translate(325.244141 0)"/>
      <use xlink:href="#DejaVuSans-Bold-74" transform="translate(393.066406 0)"/>
      <use xlink:href="#DejaVuSans-Bold-69" transform="translate(440.869141 0)"/>
      <use xlink:href="#DejaVuSans-Bold-63" transform="translate(475.146484 0)"/>
      <use xlink:href="#DejaVuSans-Bold-61" transform="translate(534.423828 0)"/>
      <use xlink:href="#DejaVuSans-Bold-6c" transform="translate(601.904297 0)"/>
      <use xlink:href="#DejaVuSans-Bold-20" transform="translate(636.181641 0)"/>
      <use xlink:href="#DejaVuSans-Bold-51" transform="translate(670.996094 0)"/>
      <use xlink:href="#DejaVuSans-Bold-75" transform="translate(756.005859 0)"/>
      <use xlink:href="#DejaVuSans-Bold-61" transform="translate(827.197266 0)"/>
      <use xlink:href="#DejaVuSans-Bold-6e" transform="translate(894.677734 0)"/>
      <use xlink:href="#DejaVuSans-Bold-74" transform="translate(965.869141 0)"/>
      <use xlink:href="#DejaVuSans-Bold-69" transform="translate(1013.671875 0)"/>
      <use xlink:href="#DejaVuSans-Bold-6c" transform="translate(1047.949219 0)"/>
      <use xlink:href="#DejaVuSans-Bold-65" transform="translate(1082.226562 0)"/>
      <use xlink:href="#DejaVuSans-Bold-73" transform="translate(1150.048828 0)"/>
     </g>
    </g>
   </g>
   <g id="matplotlib.axis_2">
    <g id="ytick_1">
     <g id="line2d_6">
      <defs>
       <path id="m1070b015c3" d="M 0 0 
L -3.5 0 
" style="stroke: #000000; stroke-width: 0.8"/>
      </defs>
      <g>
       <use xlink:href="#m1070b015c3" x="77.87" y="446.29481" style="stroke: #000000; stroke-width: 0.8"/>
      </g>
     </g>
     <g id="text_7">
      <!-- −1 -->
      <g transform="translate(38.437188 454.653091) scale(0.22 -0.22)">
       <use xlink:href="#DejaVuSans-2212"/>
       <use xlink:href="#DejaVuSans-31" transform="translate(83.789062 0)"/>
      </g>
     </g>
    </g>
    <g id="ytick_2">
     <g id="line2d_7">
      <g>
       <use xlink:href="#m1070b015c3" x="77.87" y="362.774342" style="stroke: #000000; stroke-width: 0.8"/>
      </g>
     </g>
     <g id="text_8">
      <!-- 0 -->
      <g transform="translate(56.8725 371.132623) scale(0.22 -0.22)">
       <use xlink:href="#DejaVuSans-30"/>
      </g>
     </g>
    </g>
    <g id="ytick_3">
     <g id="line2d_8">
      <g>
       <use xlink:href="#m1070b015c3" x="77.87" y="279.253874" style="stroke: #000000; stroke-width: 0.8"/>
      </g>
     </g>
     <g id="text_9">
      <!-- 1 -->
      <g transform="translate(56.8725 287.612155) scale(0.22 -0.22)">
       <use xlink:href="#DejaVuSans-31"/>
      </g>
     </g>
    </g>
    <g id="ytick_4">
     <g id="line2d_9">
      <g>
       <use xlink:href="#m1070b015c3" x="77.87" y="195.733405" style="stroke: #000000; stroke-width: 0.8"/>
      </g>
     </g>
     <g id="text_10">
      <!-- 2 -->
      <g transform="translate(56.8725 204.091687) scale(0.22 -0.22)">
       <use xlink:href="#DejaVuSans-32"/>
      </g>
     </g>
    </g>
    <g id="ytick_5">
     <g id="line2d_10">
      <g>
       <use xlink:href="#m1070b015c3" x="77.87" y="112.212937" style="stroke: #000000; stroke-width: 0.8"/>
      </g>
     </g>
     <g id="text_11">
      <!-- 3 -->
      <g transform="translate(56.8725 120.571218) scale(0.22 -0.22)">
       <use xlink:href="#DejaVuSans-33"/>
      </g>
     </g>
    </g>
    <g id="text_12">
     <!-- Sample Quantiles -->
     <g transform="translate(29.445937 392.87375) rotate(-90) scale(0.24 -0.24)">
      <defs>
       <path id="DejaVuSans-Bold-53" d="M 3834 4519 
L 3834 3531 
Q 3450 3703 3084 3790 
Q 2719 3878 2394 3878 
Q 1963 3878 1756 3759 
Q 1550 3641 1550 3391 
Q 1550 3203 1689 3098 
Q 1828 2994 2194 2919 
L 2706 2816 
Q 3484 2659 3812 2340 
Q 4141 2022 4141 1434 
Q 4141 663 3683 286 
Q 3225 -91 2284 -91 
Q 1841 -91 1394 -6 
Q 947 78 500 244 
L 500 1259 
Q 947 1022 1364 901 
Q 1781 781 2169 781 
Q 2563 781 2772 912 
Q 2981 1044 2981 1288 
Q 2981 1506 2839 1625 
Q 2697 1744 2272 1838 
L 1806 1941 
Q 1106 2091 782 2419 
Q 459 2747 459 3303 
Q 459 4000 909 4375 
Q 1359 4750 2203 4750 
Q 2588 4750 2994 4692 
Q 3400 4634 3834 4519 
z
" transform="scale(0.015625)"/>
       <path id="DejaVuSans-Bold-6d" d="M 3781 2919 
Q 3994 3244 4286 3414 
Q 4578 3584 4928 3584 
Q 5531 3584 5847 3212 
Q 6163 2841 6163 2131 
L 6163 0 
L 5038 0 
L 5038 1825 
Q 5041 1866 5042 1909 
Q 5044 1953 5044 2034 
Q 5044 2406 4934 2573 
Q 4825 2741 4581 2741 
Q 4263 2741 4089 2478 
Q 3916 2216 3909 1719 
L 3909 0 
L 2784 0 
L 2784 1825 
Q 2784 2406 2684 2573 
Q 2584 2741 2328 2741 
Q 2006 2741 1831 2477 
Q 1656 2213 1656 1722 
L 1656 0 
L 531 0 
L 531 3500 
L 1656 3500 
L 1656 2988 
Q 1863 3284 2130 3434 
Q 2397 3584 2719 3584 
Q 3081 3584 3359 3409 
Q 3638 3234 3781 2919 
z
" transform="scale(0.015625)"/>
       <path id="DejaVuSans-Bold-70" d="M 1656 506 
L 1656 -1331 
L 538 -1331 
L 538 3500 
L 1656 3500 
L 1656 2988 
Q 1888 3294 2169 3439 
Q 2450 3584 2816 3584 
Q 3463 3584 3878 3070 
Q 4294 2556 4294 1747 
Q 4294 938 3878 423 
Q 3463 -91 2816 -91 
Q 2450 -91 2169 54 
Q 1888 200 1656 506 
z
M 2400 2772 
Q 2041 2772 1848 2508 
Q 1656 2244 1656 1747 
Q 1656 1250 1848 986 
Q 2041 722 2400 722 
Q 2759 722 2948 984 
Q 3138 1247 3138 1747 
Q 3138 2247 2948 2509 
Q 2759 2772 2400 2772 
z
" transform="scale(0.015625)"/>
      </defs>
      <use xlink:href="#DejaVuSans-Bold-53"/>
      <use xlink:href="#DejaVuSans-Bold-61" transform="translate(72.021484 0)"/>
      <use xlink:href="#DejaVuSans-Bold-6d" transform="translate(139.501953 0)"/>
      <use xlink:href="#DejaVuSans-Bold-70" transform="translate(243.701172 0)"/>
      <use xlink:href="#DejaVuSans-Bold-6c" transform="translate(315.283203 0)"/>
      <use xlink:href="#DejaVuSans-Bold-65" transform="translate(349.560547 0)"/>
      <use xlink:href="#DejaVuSans-Bold-20" transform="translate(417.382812 0)"/>
      <use xlink:href="#DejaVuSans-Bold-51" transform="translate(452.197266 0)"/>
      <use xlink:href="#DejaVuSans-Bold-75" transform="translate(537.207031 0)"/>
      <use xlink:href="#DejaVuSans-Bold-61" transform="translate(608.398438 0)"/>
      <use xlink:href="#DejaVuSans-Bold-6e" transform="translate(675.878906 0)"/>
      <use xlink:href="#DejaVuSans-Bold-74" transform="translate(747.070312 0)"/>
      <use xlink:href="#DejaVuSans-Bold-69" transform="translate(794.873047 0)"/>
      <use xlink:href="#DejaVuSans-Bold-6c" transform="translate(829.150391 0)"/>
      <use xlink:href="#DejaVuSans-Bold-65" transform="translate(863.427734 0)"/>
      <use xlink:href="#DejaVuSans-Bold-73" transform="translate(931.25 0)"/>
     </g>
    </g>
   </g>
   <g id="line2d_11">
    <defs>
     <path id="meeabd75b74" d="M 0 3 
C 0.795609 3 1.55874 2.683901 2.12132 2.12132 
C 2.683901 1.55874 3 0.795609 3 0 
C 3 -0.795609 2.683901 -1.55874 2.12132 -2.12132 
C 1.55874 -2.683901 0.795609 -3 0 -3 
C -0.795609 -3 -1.55874 -2.683901 -2.12132 -2.12132 
C -2.683901 -1.55874 -3 -0.795609 -3 0 
C -3 0.795609 -2.683901 1.55874 -2.12132 2.12132 
C -1.55874 2.683901 -0.795609 3 0 3 
z
" style="stroke: #0000ff"/>
    </defs>
    <g clip-path="url(#p2a51b69b6d)">
     <use xlink:href="#meeabd75b74" x="113.112273" y="447.527673" style="fill: #0000ff; stroke: #0000ff"/>
     <use xlink:href="#meeabd75b74" x="161.255507" y="442.675673" style="fill: #0000ff; stroke: #0000ff"/>
     <use xlink:href="#meeabd75b74" x="189.093854" y="424.261979" style="fill: #0000ff; stroke: #0000ff"/>
     <use xlink:href="#meeabd75b74" x="209.245661" y="422.216075" style="fill: #0000ff; stroke: #0000ff"/>
     <use xlink:href="#meeabd75b74" x="225.313929" y="421.46556" style="fill: #0000ff; stroke: #0000ff"/>
     <use xlink:href="#meeabd75b74" x="238.823997" y="415.163219" style="fill: #0000ff; stroke: #0000ff"/>
     <use xlink:href="#meeabd75b74" x="250.571716" y="413.574932" style="fill: #0000ff; stroke: #0000ff"/>
     <use xlink:href="#meeabd75b74" x="261.027402" y="395.08759" style="fill: #0000ff; stroke: #0000ff"/>
     <use xlink:href="#meeabd75b74" x="270.493248" y="393.419014" style="fill: #0000ff; stroke: #0000ff"/>
     <use xlink:href="#meeabd75b74" x="279.175508" y="385.479978" style="fill: #0000ff; stroke: #0000ff"/>
     <use xlink:href="#meeabd75b74" x="287.221547" y="381.330074" style="fill: #0000ff; stroke: #0000ff"/>
     <use xlink:href="#meeabd75b74" x="294.740511" y="380.618588" style="fill: #0000ff; stroke: #0000ff"/>
     <use xlink:href="#meeabd75b74" x="301.815618" y="379.719763" style="fill: #0000ff; stroke: #0000ff"/>
     <use xlink:href="#meeabd75b74" x="308.511859" y="374.842752" style="fill: #0000ff; stroke: #0000ff"/>
     <use xlink:href="#meeabd75b74" x="314.881019" y="366.215329" style="fill: #0000ff; stroke: #0000ff"/>
     <use xlink:href="#meeabd75b74" x="320.965078" y="361.694852" style="fill: #0000ff; stroke: #0000ff"/>
     <use xlink:href="#meeabd75b74" x="326.798575" y="361.641934" style="fill: #0000ff; stroke: #0000ff"/>
     <use xlink:href="#meeabd75b74" x="332.410301" y="356.898653" style="fill: #0000ff; stroke: #0000ff"/>
     <use xlink:href="#meeabd75b74" x="337.82453" y="356.499147" style="fill: #0000ff; stroke: #0000ff"/>
     <use xlink:href="#meeabd75b74" x="343.061939" y="355.153567" style="fill: #0000ff; stroke: #0000ff"/>
     <use xlink:href="#meeabd75b74" x="348.140304" y="354.008798" style="fill: #0000ff; stroke: #0000ff"/>
     <use xlink:href="#meeabd75b74" x="353.075033" y="353.824251" style="fill: #0000ff; stroke: #0000ff"/>
     <use xlink:href="#meeabd75b74" x="357.879588" y="351.290328" style="fill: #0000ff; stroke: #0000ff"/>
     <use xlink:href="#meeabd75b74" x="362.565808" y="350.650519" style="fill: #0000ff; stroke: #0000ff"/>
     <use xlink:href="#meeabd75b74" x="367.144173" y="347.920704" style="fill: #0000ff; stroke: #0000ff"/>
     <use xlink:href="#meeabd75b74" x="371.624021" y="341.388454" style="fill: #0000ff; stroke: #0000ff"/>
     <use xlink:href="#meeabd75b74" x="376.013712" y="340.694273" style="fill: #0000ff; stroke: #0000ff"/>
     <use xlink:href="#meeabd75b74" x="380.320778" y="340.642833" style="fill: #0000ff; stroke: #0000ff"/>
     <use xlink:href="#meeabd75b74" x="384.552032" y="332.614138" style="fill: #0000ff; stroke: #0000ff"/>
     <use xlink:href="#meeabd75b74" x="388.713673" y="332.039384" style="fill: #0000ff; stroke: #0000ff"/>
     <use xlink:href="#meeabd75b74" x="392.811364" y="328.861336" style="fill: #0000ff; stroke: #0000ff"/>
     <use xlink:href="#meeabd75b74" x="396.8503" y="328.330674" style="fill: #0000ff; stroke: #0000ff"/>
     <use xlink:href="#meeabd75b74" x="400.835272" y="325.678713" style="fill: #0000ff; stroke: #0000ff"/>
     <use xlink:href="#meeabd75b74" x="404.770714" y="319.614335" style="fill: #0000ff; stroke: #0000ff"/>
     <use xlink:href="#meeabd75b74" x="408.660746" y="313.077411" style="fill: #0000ff; stroke: #0000ff"/>
     <use xlink:href="#meeabd75b74" x="412.509216" y="312.841095" style="fill: #0000ff; stroke: #0000ff"/>
     <use xlink:href="#meeabd75b74" x="416.319728" y="311.686285" style="fill: #0000ff; stroke: #0000ff"/>
     <use xlink:href="#meeabd75b74" x="420.095674" y="311.081777" style="fill: #0000ff; stroke: #0000ff"/>
     <use xlink:href="#meeabd75b74" x="423.840259" y="306.207105" style="fill: #0000ff; stroke: #0000ff"/>
     <use xlink:href="#meeabd75b74" x="427.556521" y="305.134491" style="fill: #0000ff; stroke: #0000ff"/>
     <use xlink:href="#meeabd75b74" x="431.247355" y="301.562706" style="fill: #0000ff; stroke: #0000ff"/>
     <use xlink:href="#meeabd75b74" x="434.91553" y="300.349826" style="fill: #0000ff; stroke: #0000ff"/>
     <use xlink:href="#meeabd75b74" x="438.563704" y="298.565815" style="fill: #0000ff; stroke: #0000ff"/>
     <use xlink:href="#meeabd75b74" x="442.19444" y="297.888894" style="fill: #0000ff; stroke: #0000ff"/>
     <use xlink:href="#meeabd75b74" x="445.810219" y="293.944819" style="fill: #0000ff; stroke: #0000ff"/>
     <use xlink:href="#meeabd75b74" x="449.413453" y="289.463127" style="fill: #0000ff; stroke: #0000ff"/>
     <use xlink:href="#meeabd75b74" x="453.0065" y="288.331914" style="fill: #0000ff; stroke: #0000ff"/>
     <use xlink:href="#meeabd75b74" x="456.591669" y="288.324148" style="fill: #0000ff; stroke: #0000ff"/>
     <use xlink:href="#meeabd75b74" x="460.171235" y="288.07467" style="fill: #0000ff; stroke: #0000ff"/>
     <use xlink:href="#meeabd75b74" x="463.74745" y="285.562816" style="fill: #0000ff; stroke: #0000ff"/>
     <use xlink:href="#meeabd75b74" x="467.32255" y="283.837972" style="fill: #0000ff; stroke: #0000ff"/>
     <use xlink:href="#meeabd75b74" x="470.898765" y="281.309052" style="fill: #0000ff; stroke: #0000ff"/>
     <use xlink:href="#meeabd75b74" x="474.478331" y="274.501248" style="fill: #0000ff; stroke: #0000ff"/>
     <use xlink:href="#meeabd75b74" x="478.0635" y="270.671304" style="fill: #0000ff; stroke: #0000ff"/>
     <use xlink:href="#meeabd75b74" x="481.656547" y="268.071355" style="fill: #0000ff; stroke: #0000ff"/>
     <use xlink:href="#meeabd75b74" x="485.259781" y="265.616909" style="fill: #0000ff; stroke: #0000ff"/>
     <use xlink:href="#meeabd75b74" x="488.87556" y="263.5243" style="fill: #0000ff; stroke: #0000ff"/>
     <use xlink:href="#meeabd75b74" x="492.506296" y="262.35009" style="fill: #0000ff; stroke: #0000ff"/>
     <use xlink:href="#meeabd75b74" x="496.15447" y="258.519956" style="fill: #0000ff; stroke: #0000ff"/>
     <use xlink:href="#meeabd75b74" x="499.822645" y="257.919644" style="fill: #0000ff; stroke: #0000ff"/>
     <use xlink:href="#meeabd75b74" x="503.513479" y="254.419466" style="fill: #0000ff; stroke: #0000ff"/>
     <use xlink:href="#meeabd75b74" x="507.229741" y="254.240779" style="fill: #0000ff; stroke: #0000ff"/>
     <use xlink:href="#meeabd75b74" x="510.974326" y="250.469577" style="fill: #0000ff; stroke: #0000ff"/>
     <use xlink:href="#meeabd75b74" x="514.750272" y="246.186108" style="fill: #0000ff; stroke: #0000ff"/>
     <use xlink:href="#meeabd75b74" x="518.560784" y="245.367113" style="fill: #0000ff; stroke: #0000ff"/>
     <use xlink:href="#meeabd75b74" x="522.409254" y="244.705878" style="fill: #0000ff; stroke: #0000ff"/>
     <use xlink:href="#meeabd75b74" x="526.299286" y="241.905078" style="fill: #0000ff; stroke: #0000ff"/>
     <use xlink:href="#meeabd75b74" x="530.234728" y="241.823167" style="fill: #0000ff; stroke: #0000ff"/>
     <use xlink:href="#meeabd75b74" x="534.2197" y="239.084256" style="fill: #0000ff; stroke: #0000ff"/>
     <use xlink:href="#meeabd75b74" x="538.258636" y="237.826134" style="fill: #0000ff; stroke: #0000ff"/>
     <use xlink:href="#meeabd75b74" x="542.356327" y="237.238078" style="fill: #0000ff; stroke: #0000ff"/>
     <use xlink:href="#meeabd75b74" x="546.517968" y="229.979652" style="fill: #0000ff; stroke: #0000ff"/>
     <use xlink:href="#meeabd75b74" x="550.749222" y="228.733029" style="fill: #0000ff; stroke: #0000ff"/>
     <use xlink:href="#meeabd75b74" x="555.056288" y="223.745701" style="fill: #0000ff; stroke: #0000ff"/>
     <use xlink:href="#meeabd75b74" x="559.445979" y="222.935478" style="fill: #0000ff; stroke: #0000ff"/>
     <use xlink:href="#meeabd75b74" x="563.925827" y="216.38559" style="fill: #0000ff; stroke: #0000ff"/>
     <use xlink:href="#meeabd75b74" x="568.504192" y="214.903508" style="fill: #0000ff; stroke: #0000ff"/>
     <use xlink:href="#meeabd75b74" x="573.190412" y="212.346641" style="fill: #0000ff; stroke: #0000ff"/>
     <use xlink:href="#meeabd75b74" x="577.994967" y="212.01779" style="fill: #0000ff; stroke: #0000ff"/>
     <use xlink:href="#meeabd75b74" x="582.929696" y="211.978313" style="fill: #0000ff; stroke: #0000ff"/>
     <use xlink:href="#meeabd75b74" x="588.008061" y="211.932075" style="fill: #0000ff; stroke: #0000ff"/>
     <use xlink:href="#meeabd75b74" x="593.24547" y="211.122858" style="fill: #0000ff; stroke: #0000ff"/>
     <use xlink:href="#meeabd75b74" x="598.659699" y="208.099891" style="fill: #0000ff; stroke: #0000ff"/>
     <use xlink:href="#meeabd75b74" x="604.271425" y="202.502812" style="fill: #0000ff; stroke: #0000ff"/>
     <use xlink:href="#meeabd75b74" x="610.104922" y="186.746306" style="fill: #0000ff; stroke: #0000ff"/>
     <use xlink:href="#meeabd75b74" x="616.188981" y="179.364461" style="fill: #0000ff; stroke: #0000ff"/>
     <use xlink:href="#meeabd75b74" x="622.558141" y="177.351791" style="fill: #0000ff; stroke: #0000ff"/>
     <use xlink:href="#meeabd75b74" x="629.254382" y="173.148292" style="fill: #0000ff; stroke: #0000ff"/>
     <use xlink:href="#meeabd75b74" x="636.329489" y="171.825522" style="fill: #0000ff; stroke: #0000ff"/>
     <use xlink:href="#meeabd75b74" x="643.848453" y="171.664866" style="fill: #0000ff; stroke: #0000ff"/>
     <use xlink:href="#meeabd75b74" x="651.894492" y="165.88429" style="fill: #0000ff; stroke: #0000ff"/>
     <use xlink:href="#meeabd75b74" x="660.576752" y="165.876564" style="fill: #0000ff; stroke: #0000ff"/>
     <use xlink:href="#meeabd75b74" x="670.042598" y="165.868659" style="fill: #0000ff; stroke: #0000ff"/>
     <use xlink:href="#meeabd75b74" x="680.498284" y="161.518342" style="fill: #0000ff; stroke: #0000ff"/>
     <use xlink:href="#meeabd75b74" x="692.246003" y="139.023693" style="fill: #0000ff; stroke: #0000ff"/>
     <use xlink:href="#meeabd75b74" x="705.756071" y="132.090164" style="fill: #0000ff; stroke: #0000ff"/>
     <use xlink:href="#meeabd75b74" x="721.824339" y="129.400777" style="fill: #0000ff; stroke: #0000ff"/>
     <use xlink:href="#meeabd75b74" x="741.976146" y="124.452877" style="fill: #0000ff; stroke: #0000ff"/>
     <use xlink:href="#meeabd75b74" x="769.814493" y="59.940978" style="fill: #0000ff; stroke: #0000ff"/>
     <use xlink:href="#meeabd75b74" x="817.957727" y="59.816364" style="fill: #0000ff; stroke: #0000ff"/>
    </g>
   </g>
   <g id="line2d_12">
    <path d="M 113.112273 488.143636 
L 161.255507 459.607938 
L 189.093854 443.107453 
L 209.245661 431.162973 
L 225.313929 421.638909 
L 238.823997 413.631154 
L 250.571716 406.667987 
L 261.027402 400.470641 
L 270.493248 394.859997 
L 279.175508 389.713805 
L 287.221547 384.944716 
L 294.740511 380.488038 
L 301.815618 376.294445 
L 308.511859 372.325416 
L 314.881019 368.550255 
L 320.965078 364.944081 
L 326.798575 361.486422 
L 332.410301 358.160211 
L 337.82453 354.951062 
L 343.061939 351.846719 
L 348.140304 348.836646 
L 353.075033 345.911708 
L 357.879588 343.063928 
L 362.565808 340.286289 
L 367.144173 337.572577 
L 371.624021 334.917259 
L 376.013712 332.315379 
L 380.320778 329.762474 
L 384.552032 327.254504 
L 388.713673 324.787795 
L 392.811364 322.358991 
L 396.8503 319.965013 
L 400.835272 317.60302 
L 404.770714 315.270386 
L 408.660746 312.964666 
L 412.509216 310.683582 
L 416.319728 308.424996 
L 420.095674 306.186898 
L 423.840259 303.967389 
L 427.556521 301.764668 
L 431.247355 299.577018 
L 434.91553 297.402799 
L 438.563704 295.240435 
L 442.19444 293.088407 
L 445.810219 290.945245 
L 449.413453 288.809517 
L 453.0065 286.679829 
L 456.591669 284.55481 
L 460.171235 282.433111 
L 463.74745 280.313399 
L 467.32255 278.194348 
L 470.898765 276.074636 
L 474.478331 273.952938 
L 478.0635 271.827918 
L 481.656547 269.69823 
L 485.259781 267.562502 
L 488.87556 265.41934 
L 492.506296 263.267312 
L 496.15447 261.104948 
L 499.822645 258.930729 
L 503.513479 256.743079 
L 507.229741 254.540358 
L 510.974326 252.320849 
L 514.750272 250.082751 
L 518.560784 247.824165 
L 522.409254 245.543081 
L 526.299286 243.237362 
L 530.234728 240.904727 
L 534.2197 238.542734 
L 538.258636 236.148756 
L 542.356327 233.719952 
L 546.517968 231.253243 
L 550.749222 228.745273 
L 555.056288 226.192368 
L 559.445979 223.590488 
L 563.925827 220.93517 
L 568.504192 218.221458 
L 573.190412 215.443819 
L 577.994967 212.596039 
L 582.929696 209.671102 
L 588.008061 206.661028 
L 593.24547 203.556685 
L 598.659699 200.347536 
L 604.271425 197.021325 
L 610.104922 193.563666 
L 616.188981 189.957492 
L 622.558141 186.182331 
L 629.254382 182.213302 
L 636.329489 178.019709 
L 643.848453 173.563031 
L 651.894492 168.793942 
L 660.576752 163.64775 
L 670.042598 158.037106 
L 680.498284 151.83976 
L 692.246003 144.876593 
L 705.756071 136.868838 
L 721.824339 127.344774 
L 741.976146 115.400294 
L 769.814493 98.899809 
L 817.957727 70.364111 
" clip-path="url(#p2a51b69b6d)" style="fill: none; stroke: #ff0000; stroke-width: 1.5; stroke-linecap: square"/>
   </g>
   <g id="patch_3">
    <path d="M 77.87 509.56 
L 77.87 38.4 
" style="fill: none; stroke: #000000; stroke-width: 0.8; stroke-linejoin: miter; stroke-linecap: square"/>
   </g>
   <g id="patch_4">
    <path d="M 853.2 509.56 
L 853.2 38.4 
" style="fill: none; stroke: #000000; stroke-width: 0.8; stroke-linejoin: miter; stroke-linecap: square"/>
   </g>
   <g id="patch_5">
    <path d="M 77.87 509.56 
L 853.2 509.56 
" style="fill: none; stroke: #000000; stroke-width: 0.8; stroke-linejoin: miter; stroke-linecap: square"/>
   </g>
   <g id="patch_6">
    <path d="M 77.87 38.4 
L 853.2 38.4 
" style="fill: none; stroke: #000000; stroke-width: 0.8; stroke-linejoin: miter; stroke-linecap: square"/>
   </g>
   <g id="text_13">
    <!-- QQ Plot (BNN FC1 Index None, r=0.9955) -->
    <g transform="translate(142.14375 32.4) scale(0.28 -0.28)">
     <defs>
      <path id="DejaVuSans-Bold-50" d="M 588 4666 
L 2584 4666 
Q 3475 4666 3951 4270 
Q 4428 3875 4428 3144 
Q 4428 2409 3951 2014 
Q 3475 1619 2584 1619 
L 1791 1619 
L 1791 0 
L 588 0 
L 588 4666 
z
M 1791 3794 
L 1791 2491 
L 2456 2491 
Q 2806 2491 2997 2661 
Q 3188 2831 3188 3144 
Q 3188 3456 2997 3625 
Q 2806 3794 2456 3794 
L 1791 3794 
z
" transform="scale(0.015625)"/>
      <path id="DejaVuSans-Bold-28" d="M 2413 -844 
L 1484 -844 
Q 1006 -72 778 623 
Q 550 1319 550 2003 
Q 550 2688 779 3389 
Q 1009 4091 1484 4856 
L 2413 4856 
Q 2013 4116 1813 3408 
Q 1613 2700 1613 2009 
Q 1613 1319 1811 609 
Q 2009 -100 2413 -844 
z
" transform="scale(0.015625)"/>
      <path id="DejaVuSans-Bold-42" d="M 2456 2859 
Q 2741 2859 2887 2984 
Q 3034 3109 3034 3353 
Q 3034 3594 2887 3720 
Q 2741 3847 2456 3847 
L 1791 3847 
L 1791 2859 
L 2456 2859 
z
M 2497 819 
Q 2859 819 3042 972 
Q 3225 1125 3225 1434 
Q 3225 1738 3044 1889 
Q 2863 2041 2497 2041 
L 1791 2041 
L 1791 819 
L 2497 819 
z
M 3616 2497 
Q 4003 2384 4215 2081 
Q 4428 1778 4428 1338 
Q 4428 663 3972 331 
Q 3516 0 2584 0 
L 588 0 
L 588 4666 
L 2394 4666 
Q 3366 4666 3802 4372 
Q 4238 4078 4238 3431 
Q 4238 3091 4078 2852 
Q 3919 2613 3616 2497 
z
" transform="scale(0.015625)"/>
      <path id="DejaVuSans-Bold-4e" d="M 588 4666 
L 1931 4666 
L 3628 1466 
L 3628 4666 
L 4769 4666 
L 4769 0 
L 3425 0 
L 1728 3200 
L 1728 0 
L 588 0 
L 588 4666 
z
" transform="scale(0.015625)"/>
      <path id="DejaVuSans-Bold-46" d="M 588 4666 
L 3834 4666 
L 3834 3756 
L 1791 3756 
L 1791 2888 
L 3713 2888 
L 3713 1978 
L 1791 1978 
L 1791 0 
L 588 0 
L 588 4666 
z
" transform="scale(0.015625)"/>
      <path id="DejaVuSans-Bold-43" d="M 4288 256 
Q 3956 84 3597 -3 
Q 3238 -91 2847 -91 
Q 1681 -91 1000 561 
Q 319 1213 319 2328 
Q 319 3447 1000 4098 
Q 1681 4750 2847 4750 
Q 3238 4750 3597 4662 
Q 3956 4575 4288 4403 
L 4288 3438 
Q 3953 3666 3628 3772 
Q 3303 3878 2944 3878 
Q 2300 3878 1931 3465 
Q 1563 3053 1563 2328 
Q 1563 1606 1931 1193 
Q 2300 781 2944 781 
Q 3303 781 3628 887 
Q 3953 994 4288 1222 
L 4288 256 
z
" transform="scale(0.015625)"/>
      <path id="DejaVuSans-Bold-31" d="M 750 831 
L 1813 831 
L 1813 3847 
L 722 3622 
L 722 4441 
L 1806 4666 
L 2950 4666 
L 2950 831 
L 4013 831 
L 4013 0 
L 750 0 
L 750 831 
z
" transform="scale(0.015625)"/>
      <path id="DejaVuSans-Bold-49" d="M 588 4666 
L 1791 4666 
L 1791 0 
L 588 0 
L 588 4666 
z
" transform="scale(0.015625)"/>
      <path id="DejaVuSans-Bold-64" d="M 2919 2988 
L 2919 4863 
L 4044 4863 
L 4044 0 
L 2919 0 
L 2919 506 
Q 2688 197 2409 53 
Q 2131 -91 1766 -91 
Q 1119 -91 703 423 
Q 288 938 288 1747 
Q 288 2556 703 3070 
Q 1119 3584 1766 3584 
Q 2128 3584 2408 3439 
Q 2688 3294 2919 2988 
z
M 2181 722 
Q 2541 722 2730 984 
Q 2919 1247 2919 1747 
Q 2919 2247 2730 2509 
Q 2541 2772 2181 2772 
Q 1825 2772 1636 2509 
Q 1447 2247 1447 1747 
Q 1447 1247 1636 984 
Q 1825 722 2181 722 
z
" transform="scale(0.015625)"/>
      <path id="DejaVuSans-Bold-78" d="M 1422 1791 
L 159 3500 
L 1344 3500 
L 2059 2463 
L 2784 3500 
L 3969 3500 
L 2706 1797 
L 4031 0 
L 2847 0 
L 2059 1106 
L 1281 0 
L 97 0 
L 1422 1791 
z
" transform="scale(0.015625)"/>
      <path id="DejaVuSans-Bold-2c" d="M 653 1209 
L 1778 1209 
L 1778 256 
L 1006 -909 
L 341 -909 
L 653 256 
L 653 1209 
z
" transform="scale(0.015625)"/>
      <path id="DejaVuSans-Bold-3d" d="M 678 3084 
L 4684 3084 
L 4684 2350 
L 678 2350 
L 678 3084 
z
M 678 1663 
L 4684 1663 
L 4684 922 
L 678 922 
L 678 1663 
z
" transform="scale(0.015625)"/>
      <path id="DejaVuSans-Bold-30" d="M 2944 2338 
Q 2944 3213 2780 3570 
Q 2616 3928 2228 3928 
Q 1841 3928 1675 3570 
Q 1509 3213 1509 2338 
Q 1509 1453 1675 1090 
Q 1841 728 2228 728 
Q 2613 728 2778 1090 
Q 2944 1453 2944 2338 
z
M 4147 2328 
Q 4147 1169 3647 539 
Q 3147 -91 2228 -91 
Q 1306 -91 806 539 
Q 306 1169 306 2328 
Q 306 3491 806 4120 
Q 1306 4750 2228 4750 
Q 3147 4750 3647 4120 
Q 4147 3491 4147 2328 
z
" transform="scale(0.015625)"/>
      <path id="DejaVuSans-Bold-2e" d="M 653 1209 
L 1778 1209 
L 1778 0 
L 653 0 
L 653 1209 
z
" transform="scale(0.015625)"/>
      <path id="DejaVuSans-Bold-39" d="M 641 103 
L 641 966 
Q 928 831 1190 764 
Q 1453 697 1709 697 
Q 2247 697 2547 995 
Q 2847 1294 2900 1881 
Q 2688 1725 2447 1647 
Q 2206 1569 1925 1569 
Q 1209 1569 770 1986 
Q 331 2403 331 3084 
Q 331 3838 820 4291 
Q 1309 4744 2131 4744 
Q 3044 4744 3544 4128 
Q 4044 3513 4044 2388 
Q 4044 1231 3459 570 
Q 2875 -91 1856 -91 
Q 1528 -91 1228 -42 
Q 928 6 641 103 
z
M 2125 2350 
Q 2441 2350 2600 2554 
Q 2759 2759 2759 3169 
Q 2759 3575 2600 3781 
Q 2441 3988 2125 3988 
Q 1809 3988 1650 3781 
Q 1491 3575 1491 3169 
Q 1491 2759 1650 2554 
Q 1809 2350 2125 2350 
z
" transform="scale(0.015625)"/>
      <path id="DejaVuSans-Bold-35" d="M 678 4666 
L 3669 4666 
L 3669 3781 
L 1638 3781 
L 1638 3059 
Q 1775 3097 1914 3117 
Q 2053 3138 2203 3138 
Q 3056 3138 3531 2711 
Q 4006 2284 4006 1522 
Q 4006 766 3489 337 
Q 2972 -91 2053 -91 
Q 1656 -91 1267 -14 
Q 878 63 494 219 
L 494 1166 
Q 875 947 1217 837 
Q 1559 728 1863 728 
Q 2300 728 2551 942 
Q 2803 1156 2803 1522 
Q 2803 1891 2551 2103 
Q 2300 2316 1863 2316 
Q 1603 2316 1309 2248 
Q 1016 2181 678 2041 
L 678 4666 
z
" transform="scale(0.015625)"/>
      <path id="DejaVuSans-Bold-29" d="M 513 -844 
Q 913 -100 1113 609 
Q 1313 1319 1313 2009 
Q 1313 2700 1113 3408 
Q 913 4116 513 4856 
L 1441 4856 
Q 1916 4091 2145 3389 
Q 2375 2688 2375 2003 
Q 2375 1319 2147 623 
Q 1919 -72 1441 -844 
L 513 -844 
z
" transform="scale(0.015625)"/>
     </defs>
     <use xlink:href="#DejaVuSans-Bold-51"/>
     <use xlink:href="#DejaVuSans-Bold-51" transform="translate(85.009766 0)"/>
     <use xlink:href="#DejaVuSans-Bold-20" transform="translate(170.019531 0)"/>
     <use xlink:href="#DejaVuSans-Bold-50" transform="translate(204.833984 0)"/>
     <use xlink:href="#DejaVuSans-Bold-6c" transform="translate(278.125 0)"/>
     <use xlink:href="#DejaVuSans-Bold-6f" transform="translate(312.402344 0)"/>
     <use xlink:href="#DejaVuSans-Bold-74" transform="translate(381.103516 0)"/>
     <use xlink:href="#DejaVuSans-Bold-20" transform="translate(428.90625 0)"/>
     <use xlink:href="#DejaVuSans-Bold-28" transform="translate(463.720703 0)"/>
     <use xlink:href="#DejaVuSans-Bold-42" transform="translate(509.423828 0)"/>
     <use xlink:href="#DejaVuSans-Bold-4e" transform="translate(585.644531 0)"/>
     <use xlink:href="#DejaVuSans-Bold-4e" transform="translate(669.335938 0)"/>
     <use xlink:href="#DejaVuSans-Bold-20" transform="translate(753.027344 0)"/>
     <use xlink:href="#DejaVuSans-Bold-46" transform="translate(787.841797 0)"/>
     <use xlink:href="#DejaVuSans-Bold-43" transform="translate(856.152344 0)"/>
     <use xlink:href="#DejaVuSans-Bold-31" transform="translate(929.541016 0)"/>
     <use xlink:href="#DejaVuSans-Bold-20" transform="translate(999.121094 0)"/>
     <use xlink:href="#DejaVuSans-Bold-49" transform="translate(1033.935547 0)"/>
     <use xlink:href="#DejaVuSans-Bold-6e" transform="translate(1071.142578 0)"/>
     <use xlink:href="#DejaVuSans-Bold-64" transform="translate(1142.333984 0)"/>
     <use xlink:href="#DejaVuSans-Bold-65" transform="translate(1213.916016 0)"/>
     <use xlink:href="#DejaVuSans-Bold-78" transform="translate(1281.738281 0)"/>
     <use xlink:href="#DejaVuSans-Bold-20" transform="translate(1346.240234 0)"/>
     <use xlink:href="#DejaVuSans-Bold-4e" transform="translate(1381.054688 0)"/>
     <use xlink:href="#DejaVuSans-Bold-6f" transform="translate(1464.746094 0)"/>
     <use xlink:href="#DejaVuSans-Bold-6e" transform="translate(1533.447266 0)"/>
     <use xlink:href="#DejaVuSans-Bold-65" transform="translate(1604.638672 0)"/>
     <use xlink:href="#DejaVuSans-Bold-2c" transform="translate(1672.460938 0)"/>
     <use xlink:href="#DejaVuSans-Bold-20" transform="translate(1710.449219 0)"/>
     <use xlink:href="#DejaVuSans-Bold-72" transform="translate(1745.263672 0)"/>
     <use xlink:href="#DejaVuSans-Bold-3d" transform="translate(1794.580078 0)"/>
     <use xlink:href="#DejaVuSans-Bold-30" transform="translate(1878.369141 0)"/>
     <use xlink:href="#DejaVuSans-Bold-2e" transform="translate(1947.949219 0)"/>
     <use xlink:href="#DejaVuSans-Bold-39" transform="translate(1985.9375 0)"/>
     <use xlink:href="#DejaVuSans-Bold-39" transform="translate(2055.517578 0)"/>
     <use xlink:href="#DejaVuSans-Bold-35" transform="translate(2125.097656 0)"/>
     <use xlink:href="#DejaVuSans-Bold-35" transform="translate(2194.677734 0)"/>
     <use xlink:href="#DejaVuSans-Bold-29" transform="translate(2264.257812 0)"/>
    </g>
   </g>
  </g>
 </g>
 <defs>
  <clipPath id="p2a51b69b6d">
   <rect x="77.87" y="38.4" width="775.33" height="471.16"/>
  </clipPath>
 </defs>
</svg>
