<?xml version="1.0" encoding="utf-8" standalone="no"?>
<!DOCTYPE svg PUBLIC "-//W3C//DTD SVG 1.1//EN"
  "http://www.w3.org/Graphics/SVG/1.1/DTD/svg11.dtd">
<svg xmlns:xlink="http://www.w3.org/1999/xlink" width="864pt" height="576pt" viewBox="0 0 864 576" xmlns="http://www.w3.org/2000/svg" version="1.1">
 <metadata>
  <rdf:RDF xmlns:dc="http://purl.org/dc/elements/1.1/" xmlns:cc="http://creativecommons.org/ns#" xmlns:rdf="http://www.w3.org/1999/02/22-rdf-syntax-ns#">
   <cc:Work>
    <dc:type rdf:resource="http://purl.org/dc/dcmitype/StillImage"/>
<<<<<<<< HEAD:python/interface/SimulatorTool/plots/demo_histogram_3.svg
    <dc:date>2025-06-30T18:31:51.562004</dc:date>
========
    <dc:date>2025-06-28T17:23:08.074367</dc:date>
>>>>>>>> 5baa6be6f14571bc06693767a5c4a170f787ac65:python/interface/SimulatorTool/plots/demo_histogram.svg
    <dc:format>image/svg+xml</dc:format>
    <dc:creator>
     <cc:Agent>
      <dc:title>Matplotlib v3.10.3, https://matplotlib.org/</dc:title>
     </cc:Agent>
    </dc:creator>
   </cc:Work>
  </rdf:RDF>
 </metadata>
 <defs>
  <style type="text/css">*{stroke-linejoin: round; stroke-linecap: butt}</style>
 </defs>
 <g id="figure_1">
  <g id="patch_1">
   <path d="M 0 576 
L 864 576 
L 864 0 
L 0 0 
z
" style="fill: #ffffff"/>
  </g>
  <g id="axes_1">
   <g id="patch_2">
    <path d="M 59.6 509.56 
L 853.2 509.56 
L 853.2 70.08 
L 59.6 70.08 
z
" style="fill: #ffffff"/>
   </g>
   <g id="patch_3">
    <path d="M 95.672727 509.56 
L 110.101818 509.56 
<<<<<<<< HEAD:python/interface/SimulatorTool/plots/demo_histogram_3.svg
L 110.101818 370.04254 
L 95.672727 370.04254 
z
" clip-path="url(#p6080a42803)" style="fill: #1f77b4; fill-opacity: 0.5; stroke: #000000; stroke-width: 2; stroke-linejoin: miter"/>
========
L 110.101818 419.815238 
L 95.672727 419.815238 
z
" clip-path="url(#p4939377da6)" style="fill: #1f77b4; fill-opacity: 0.5; stroke: #000000; stroke-width: 2; stroke-linejoin: miter"/>
>>>>>>>> 5baa6be6f14571bc06693767a5c4a170f787ac65:python/interface/SimulatorTool/plots/demo_histogram.svg
   </g>
   <g id="patch_4">
    <path d="M 110.101818 509.56 
L 124.530909 509.56 
L 124.530909 509.56 
L 110.101818 509.56 
z
<<<<<<<< HEAD:python/interface/SimulatorTool/plots/demo_histogram_3.svg
" clip-path="url(#p6080a42803)" style="fill: #1f77b4; fill-opacity: 0.5; stroke: #000000; stroke-width: 2; stroke-linejoin: miter"/>
========
" clip-path="url(#p4939377da6)" style="fill: #1f77b4; fill-opacity: 0.5; stroke: #000000; stroke-width: 2; stroke-linejoin: miter"/>
>>>>>>>> 5baa6be6f14571bc06693767a5c4a170f787ac65:python/interface/SimulatorTool/plots/demo_histogram.svg
   </g>
   <g id="patch_5">
    <path d="M 124.530909 509.56 
L 138.96 509.56 
L 138.96 509.56 
L 124.530909 509.56 
z
<<<<<<<< HEAD:python/interface/SimulatorTool/plots/demo_histogram_3.svg
" clip-path="url(#p6080a42803)" style="fill: #1f77b4; fill-opacity: 0.5; stroke: #000000; stroke-width: 2; stroke-linejoin: miter"/>
========
" clip-path="url(#p4939377da6)" style="fill: #1f77b4; fill-opacity: 0.5; stroke: #000000; stroke-width: 2; stroke-linejoin: miter"/>
>>>>>>>> 5baa6be6f14571bc06693767a5c4a170f787ac65:python/interface/SimulatorTool/plots/demo_histogram.svg
   </g>
   <g id="patch_6">
    <path d="M 138.96 509.56 
L 153.389091 509.56 
L 153.389091 300.28381 
L 138.96 300.28381 
z
<<<<<<<< HEAD:python/interface/SimulatorTool/plots/demo_histogram_3.svg
" clip-path="url(#p6080a42803)" style="fill: #1f77b4; fill-opacity: 0.5; stroke: #000000; stroke-width: 2; stroke-linejoin: miter"/>
========
" clip-path="url(#p4939377da6)" style="fill: #1f77b4; fill-opacity: 0.5; stroke: #000000; stroke-width: 2; stroke-linejoin: miter"/>
>>>>>>>> 5baa6be6f14571bc06693767a5c4a170f787ac65:python/interface/SimulatorTool/plots/demo_histogram.svg
   </g>
   <g id="patch_7">
    <path d="M 153.389091 509.56 
L 167.818182 509.56 
L 167.818182 370.04254 
L 153.389091 370.04254 
z
<<<<<<<< HEAD:python/interface/SimulatorTool/plots/demo_histogram_3.svg
" clip-path="url(#p6080a42803)" style="fill: #1f77b4; fill-opacity: 0.5; stroke: #000000; stroke-width: 2; stroke-linejoin: miter"/>
========
" clip-path="url(#p4939377da6)" style="fill: #1f77b4; fill-opacity: 0.5; stroke: #000000; stroke-width: 2; stroke-linejoin: miter"/>
>>>>>>>> 5baa6be6f14571bc06693767a5c4a170f787ac65:python/interface/SimulatorTool/plots/demo_histogram.svg
   </g>
   <g id="patch_8">
    <path d="M 167.818182 509.56 
L 182.247273 509.56 
L 182.247273 509.56 
L 167.818182 509.56 
z
<<<<<<<< HEAD:python/interface/SimulatorTool/plots/demo_histogram_3.svg
" clip-path="url(#p6080a42803)" style="fill: #1f77b4; fill-opacity: 0.5; stroke: #000000; stroke-width: 2; stroke-linejoin: miter"/>
========
" clip-path="url(#p4939377da6)" style="fill: #1f77b4; fill-opacity: 0.5; stroke: #000000; stroke-width: 2; stroke-linejoin: miter"/>
>>>>>>>> 5baa6be6f14571bc06693767a5c4a170f787ac65:python/interface/SimulatorTool/plots/demo_histogram.svg
   </g>
   <g id="patch_9">
    <path d="M 182.247273 509.56 
L 196.676364 509.56 
<<<<<<<< HEAD:python/interface/SimulatorTool/plots/demo_histogram_3.svg
L 196.676364 370.04254 
L 182.247273 370.04254 
z
" clip-path="url(#p6080a42803)" style="fill: #1f77b4; fill-opacity: 0.5; stroke: #000000; stroke-width: 2; stroke-linejoin: miter"/>
========
L 196.676364 509.56 
L 182.247273 509.56 
z
" clip-path="url(#p4939377da6)" style="fill: #1f77b4; fill-opacity: 0.5; stroke: #000000; stroke-width: 2; stroke-linejoin: miter"/>
>>>>>>>> 5baa6be6f14571bc06693767a5c4a170f787ac65:python/interface/SimulatorTool/plots/demo_histogram.svg
   </g>
   <g id="patch_10">
    <path d="M 196.676364 509.56 
L 211.105455 509.56 
L 211.105455 509.56 
L 196.676364 509.56 
z
<<<<<<<< HEAD:python/interface/SimulatorTool/plots/demo_histogram_3.svg
" clip-path="url(#p6080a42803)" style="fill: #1f77b4; fill-opacity: 0.5; stroke: #000000; stroke-width: 2; stroke-linejoin: miter"/>
========
" clip-path="url(#p4939377da6)" style="fill: #1f77b4; fill-opacity: 0.5; stroke: #000000; stroke-width: 2; stroke-linejoin: miter"/>
>>>>>>>> 5baa6be6f14571bc06693767a5c4a170f787ac65:python/interface/SimulatorTool/plots/demo_histogram.svg
   </g>
   <g id="patch_11">
    <path d="M 211.105455 509.56 
L 225.534545 509.56 
<<<<<<<< HEAD:python/interface/SimulatorTool/plots/demo_histogram_3.svg
L 225.534545 230.525079 
L 211.105455 230.525079 
z
" clip-path="url(#p6080a42803)" style="fill: #1f77b4; fill-opacity: 0.5; stroke: #000000; stroke-width: 2; stroke-linejoin: miter"/>
========
L 225.534545 509.56 
L 211.105455 509.56 
z
" clip-path="url(#p4939377da6)" style="fill: #1f77b4; fill-opacity: 0.5; stroke: #000000; stroke-width: 2; stroke-linejoin: miter"/>
>>>>>>>> 5baa6be6f14571bc06693767a5c4a170f787ac65:python/interface/SimulatorTool/plots/demo_histogram.svg
   </g>
   <g id="patch_12">
    <path d="M 225.534545 509.56 
L 239.963636 509.56 
<<<<<<<< HEAD:python/interface/SimulatorTool/plots/demo_histogram_3.svg
L 239.963636 439.80127 
L 225.534545 439.80127 
z
" clip-path="url(#p6080a42803)" style="fill: #1f77b4; fill-opacity: 0.5; stroke: #000000; stroke-width: 2; stroke-linejoin: miter"/>
========
L 239.963636 419.815238 
L 225.534545 419.815238 
z
" clip-path="url(#p4939377da6)" style="fill: #1f77b4; fill-opacity: 0.5; stroke: #000000; stroke-width: 2; stroke-linejoin: miter"/>
>>>>>>>> 5baa6be6f14571bc06693767a5c4a170f787ac65:python/interface/SimulatorTool/plots/demo_histogram.svg
   </g>
   <g id="patch_13">
    <path d="M 239.963636 509.56 
L 254.392727 509.56 
L 254.392727 439.80127 
L 239.963636 439.80127 
z
<<<<<<<< HEAD:python/interface/SimulatorTool/plots/demo_histogram_3.svg
" clip-path="url(#p6080a42803)" style="fill: #1f77b4; fill-opacity: 0.5; stroke: #000000; stroke-width: 2; stroke-linejoin: miter"/>
========
" clip-path="url(#p4939377da6)" style="fill: #1f77b4; fill-opacity: 0.5; stroke: #000000; stroke-width: 2; stroke-linejoin: miter"/>
>>>>>>>> 5baa6be6f14571bc06693767a5c4a170f787ac65:python/interface/SimulatorTool/plots/demo_histogram.svg
   </g>
   <g id="patch_14">
    <path d="M 254.392727 509.56 
L 268.821818 509.56 
<<<<<<<< HEAD:python/interface/SimulatorTool/plots/demo_histogram_3.svg
L 268.821818 160.766349 
L 254.392727 160.766349 
z
" clip-path="url(#p6080a42803)" style="fill: #1f77b4; fill-opacity: 0.5; stroke: #000000; stroke-width: 2; stroke-linejoin: miter"/>
========
L 268.821818 240.325714 
L 254.392727 240.325714 
z
" clip-path="url(#p4939377da6)" style="fill: #1f77b4; fill-opacity: 0.5; stroke: #000000; stroke-width: 2; stroke-linejoin: miter"/>
>>>>>>>> 5baa6be6f14571bc06693767a5c4a170f787ac65:python/interface/SimulatorTool/plots/demo_histogram.svg
   </g>
   <g id="patch_15">
    <path d="M 268.821818 509.56 
L 283.250909 509.56 
<<<<<<<< HEAD:python/interface/SimulatorTool/plots/demo_histogram_3.svg
L 283.250909 160.766349 
L 268.821818 160.766349 
z
" clip-path="url(#p6080a42803)" style="fill: #1f77b4; fill-opacity: 0.5; stroke: #000000; stroke-width: 2; stroke-linejoin: miter"/>
========
L 283.250909 330.070476 
L 268.821818 330.070476 
z
" clip-path="url(#p4939377da6)" style="fill: #1f77b4; fill-opacity: 0.5; stroke: #000000; stroke-width: 2; stroke-linejoin: miter"/>
>>>>>>>> 5baa6be6f14571bc06693767a5c4a170f787ac65:python/interface/SimulatorTool/plots/demo_histogram.svg
   </g>
   <g id="patch_16">
    <path d="M 283.250909 509.56 
L 297.68 509.56 
<<<<<<<< HEAD:python/interface/SimulatorTool/plots/demo_histogram_3.svg
L 297.68 300.28381 
L 283.250909 300.28381 
z
" clip-path="url(#p6080a42803)" style="fill: #1f77b4; fill-opacity: 0.5; stroke: #000000; stroke-width: 2; stroke-linejoin: miter"/>
========
L 297.68 419.815238 
L 283.250909 419.815238 
z
" clip-path="url(#p4939377da6)" style="fill: #1f77b4; fill-opacity: 0.5; stroke: #000000; stroke-width: 2; stroke-linejoin: miter"/>
>>>>>>>> 5baa6be6f14571bc06693767a5c4a170f787ac65:python/interface/SimulatorTool/plots/demo_histogram.svg
   </g>
   <g id="patch_17">
    <path d="M 297.68 509.56 
L 312.109091 509.56 
<<<<<<<< HEAD:python/interface/SimulatorTool/plots/demo_histogram_3.svg
L 312.109091 370.04254 
L 297.68 370.04254 
z
" clip-path="url(#p6080a42803)" style="fill: #1f77b4; fill-opacity: 0.5; stroke: #000000; stroke-width: 2; stroke-linejoin: miter"/>
========
L 312.109091 60.83619 
L 297.68 60.83619 
z
" clip-path="url(#p4939377da6)" style="fill: #1f77b4; fill-opacity: 0.5; stroke: #000000; stroke-width: 2; stroke-linejoin: miter"/>
>>>>>>>> 5baa6be6f14571bc06693767a5c4a170f787ac65:python/interface/SimulatorTool/plots/demo_histogram.svg
   </g>
   <g id="patch_18">
    <path d="M 312.109091 509.56 
L 326.538182 509.56 
<<<<<<<< HEAD:python/interface/SimulatorTool/plots/demo_histogram_3.svg
L 326.538182 300.28381 
L 312.109091 300.28381 
z
" clip-path="url(#p6080a42803)" style="fill: #1f77b4; fill-opacity: 0.5; stroke: #000000; stroke-width: 2; stroke-linejoin: miter"/>
========
L 326.538182 419.815238 
L 312.109091 419.815238 
z
" clip-path="url(#p4939377da6)" style="fill: #1f77b4; fill-opacity: 0.5; stroke: #000000; stroke-width: 2; stroke-linejoin: miter"/>
>>>>>>>> 5baa6be6f14571bc06693767a5c4a170f787ac65:python/interface/SimulatorTool/plots/demo_histogram.svg
   </g>
   <g id="patch_19">
    <path d="M 326.538182 509.56 
L 340.967273 509.56 
<<<<<<<< HEAD:python/interface/SimulatorTool/plots/demo_histogram_3.svg
L 340.967273 439.80127 
L 326.538182 439.80127 
z
" clip-path="url(#p6080a42803)" style="fill: #1f77b4; fill-opacity: 0.5; stroke: #000000; stroke-width: 2; stroke-linejoin: miter"/>
========
L 340.967273 240.325714 
L 326.538182 240.325714 
z
" clip-path="url(#p4939377da6)" style="fill: #1f77b4; fill-opacity: 0.5; stroke: #000000; stroke-width: 2; stroke-linejoin: miter"/>
>>>>>>>> 5baa6be6f14571bc06693767a5c4a170f787ac65:python/interface/SimulatorTool/plots/demo_histogram.svg
   </g>
   <g id="patch_20">
    <path d="M 340.967273 509.56 
L 355.396364 509.56 
<<<<<<<< HEAD:python/interface/SimulatorTool/plots/demo_histogram_3.svg
L 355.396364 230.525079 
L 340.967273 230.525079 
z
" clip-path="url(#p6080a42803)" style="fill: #1f77b4; fill-opacity: 0.5; stroke: #000000; stroke-width: 2; stroke-linejoin: miter"/>
========
L 355.396364 150.580952 
L 340.967273 150.580952 
z
" clip-path="url(#p4939377da6)" style="fill: #1f77b4; fill-opacity: 0.5; stroke: #000000; stroke-width: 2; stroke-linejoin: miter"/>
>>>>>>>> 5baa6be6f14571bc06693767a5c4a170f787ac65:python/interface/SimulatorTool/plots/demo_histogram.svg
   </g>
   <g id="patch_21">
    <path d="M 355.396364 509.56 
L 369.825455 509.56 
<<<<<<<< HEAD:python/interface/SimulatorTool/plots/demo_histogram_3.svg
L 369.825455 230.525079 
L 355.396364 230.525079 
z
" clip-path="url(#p6080a42803)" style="fill: #1f77b4; fill-opacity: 0.5; stroke: #000000; stroke-width: 2; stroke-linejoin: miter"/>
========
L 369.825455 240.325714 
L 355.396364 240.325714 
z
" clip-path="url(#p4939377da6)" style="fill: #1f77b4; fill-opacity: 0.5; stroke: #000000; stroke-width: 2; stroke-linejoin: miter"/>
>>>>>>>> 5baa6be6f14571bc06693767a5c4a170f787ac65:python/interface/SimulatorTool/plots/demo_histogram.svg
   </g>
   <g id="patch_22">
    <path d="M 369.825455 509.56 
L 384.254545 509.56 
<<<<<<<< HEAD:python/interface/SimulatorTool/plots/demo_histogram_3.svg
L 384.254545 300.28381 
L 369.825455 300.28381 
z
" clip-path="url(#p6080a42803)" style="fill: #1f77b4; fill-opacity: 0.5; stroke: #000000; stroke-width: 2; stroke-linejoin: miter"/>
========
L 384.254545 330.070476 
L 369.825455 330.070476 
z
" clip-path="url(#p4939377da6)" style="fill: #1f77b4; fill-opacity: 0.5; stroke: #000000; stroke-width: 2; stroke-linejoin: miter"/>
>>>>>>>> 5baa6be6f14571bc06693767a5c4a170f787ac65:python/interface/SimulatorTool/plots/demo_histogram.svg
   </g>
   <g id="patch_23">
    <path d="M 384.254545 509.56 
L 398.683636 509.56 
<<<<<<<< HEAD:python/interface/SimulatorTool/plots/demo_histogram_3.svg
L 398.683636 160.766349 
L 384.254545 160.766349 
z
" clip-path="url(#p6080a42803)" style="fill: #1f77b4; fill-opacity: 0.5; stroke: #000000; stroke-width: 2; stroke-linejoin: miter"/>
========
L 398.683636 330.070476 
L 384.254545 330.070476 
z
" clip-path="url(#p4939377da6)" style="fill: #1f77b4; fill-opacity: 0.5; stroke: #000000; stroke-width: 2; stroke-linejoin: miter"/>
>>>>>>>> 5baa6be6f14571bc06693767a5c4a170f787ac65:python/interface/SimulatorTool/plots/demo_histogram.svg
   </g>
   <g id="patch_24">
    <path d="M 398.683636 509.56 
L 413.112727 509.56 
<<<<<<<< HEAD:python/interface/SimulatorTool/plots/demo_histogram_3.svg
L 413.112727 370.04254 
L 398.683636 370.04254 
z
" clip-path="url(#p6080a42803)" style="fill: #1f77b4; fill-opacity: 0.5; stroke: #000000; stroke-width: 2; stroke-linejoin: miter"/>
========
L 413.112727 330.070476 
L 398.683636 330.070476 
z
" clip-path="url(#p4939377da6)" style="fill: #1f77b4; fill-opacity: 0.5; stroke: #000000; stroke-width: 2; stroke-linejoin: miter"/>
>>>>>>>> 5baa6be6f14571bc06693767a5c4a170f787ac65:python/interface/SimulatorTool/plots/demo_histogram.svg
   </g>
   <g id="patch_25">
    <path d="M 413.112727 509.56 
L 427.541818 509.56 
<<<<<<<< HEAD:python/interface/SimulatorTool/plots/demo_histogram_3.svg
L 427.541818 370.04254 
L 413.112727 370.04254 
z
" clip-path="url(#p6080a42803)" style="fill: #1f77b4; fill-opacity: 0.5; stroke: #000000; stroke-width: 2; stroke-linejoin: miter"/>
========
L 427.541818 60.83619 
L 413.112727 60.83619 
z
" clip-path="url(#p4939377da6)" style="fill: #1f77b4; fill-opacity: 0.5; stroke: #000000; stroke-width: 2; stroke-linejoin: miter"/>
>>>>>>>> 5baa6be6f14571bc06693767a5c4a170f787ac65:python/interface/SimulatorTool/plots/demo_histogram.svg
   </g>
   <g id="patch_26">
    <path d="M 427.541818 509.56 
L 441.970909 509.56 
<<<<<<<< HEAD:python/interface/SimulatorTool/plots/demo_histogram_3.svg
L 441.970909 230.525079 
L 427.541818 230.525079 
z
" clip-path="url(#p6080a42803)" style="fill: #1f77b4; fill-opacity: 0.5; stroke: #000000; stroke-width: 2; stroke-linejoin: miter"/>
========
L 441.970909 60.83619 
L 427.541818 60.83619 
z
" clip-path="url(#p4939377da6)" style="fill: #1f77b4; fill-opacity: 0.5; stroke: #000000; stroke-width: 2; stroke-linejoin: miter"/>
>>>>>>>> 5baa6be6f14571bc06693767a5c4a170f787ac65:python/interface/SimulatorTool/plots/demo_histogram.svg
   </g>
   <g id="patch_27">
    <path d="M 441.970909 509.56 
L 456.4 509.56 
<<<<<<<< HEAD:python/interface/SimulatorTool/plots/demo_histogram_3.svg
L 456.4 230.525079 
L 441.970909 230.525079 
z
" clip-path="url(#p6080a42803)" style="fill: #1f77b4; fill-opacity: 0.5; stroke: #000000; stroke-width: 2; stroke-linejoin: miter"/>
========
L 456.4 60.83619 
L 441.970909 60.83619 
z
" clip-path="url(#p4939377da6)" style="fill: #1f77b4; fill-opacity: 0.5; stroke: #000000; stroke-width: 2; stroke-linejoin: miter"/>
>>>>>>>> 5baa6be6f14571bc06693767a5c4a170f787ac65:python/interface/SimulatorTool/plots/demo_histogram.svg
   </g>
   <g id="patch_28">
    <path d="M 456.4 509.56 
L 470.829091 509.56 
<<<<<<<< HEAD:python/interface/SimulatorTool/plots/demo_histogram_3.svg
L 470.829091 370.04254 
L 456.4 370.04254 
z
" clip-path="url(#p6080a42803)" style="fill: #1f77b4; fill-opacity: 0.5; stroke: #000000; stroke-width: 2; stroke-linejoin: miter"/>
========
L 470.829091 60.83619 
L 456.4 60.83619 
z
" clip-path="url(#p4939377da6)" style="fill: #1f77b4; fill-opacity: 0.5; stroke: #000000; stroke-width: 2; stroke-linejoin: miter"/>
>>>>>>>> 5baa6be6f14571bc06693767a5c4a170f787ac65:python/interface/SimulatorTool/plots/demo_histogram.svg
   </g>
   <g id="patch_29">
    <path d="M 470.829091 509.56 
L 485.258182 509.56 
<<<<<<<< HEAD:python/interface/SimulatorTool/plots/demo_histogram_3.svg
L 485.258182 160.766349 
L 470.829091 160.766349 
z
" clip-path="url(#p6080a42803)" style="fill: #1f77b4; fill-opacity: 0.5; stroke: #000000; stroke-width: 2; stroke-linejoin: miter"/>
========
L 485.258182 330.070476 
L 470.829091 330.070476 
z
" clip-path="url(#p4939377da6)" style="fill: #1f77b4; fill-opacity: 0.5; stroke: #000000; stroke-width: 2; stroke-linejoin: miter"/>
>>>>>>>> 5baa6be6f14571bc06693767a5c4a170f787ac65:python/interface/SimulatorTool/plots/demo_histogram.svg
   </g>
   <g id="patch_30">
    <path d="M 485.258182 509.56 
L 499.687273 509.56 
<<<<<<<< HEAD:python/interface/SimulatorTool/plots/demo_histogram_3.svg
L 499.687273 370.04254 
L 485.258182 370.04254 
z
" clip-path="url(#p6080a42803)" style="fill: #1f77b4; fill-opacity: 0.5; stroke: #000000; stroke-width: 2; stroke-linejoin: miter"/>
========
L 499.687273 330.070476 
L 485.258182 330.070476 
z
" clip-path="url(#p4939377da6)" style="fill: #1f77b4; fill-opacity: 0.5; stroke: #000000; stroke-width: 2; stroke-linejoin: miter"/>
>>>>>>>> 5baa6be6f14571bc06693767a5c4a170f787ac65:python/interface/SimulatorTool/plots/demo_histogram.svg
   </g>
   <g id="patch_31">
    <path d="M 499.687273 509.56 
L 514.116364 509.56 
<<<<<<<< HEAD:python/interface/SimulatorTool/plots/demo_histogram_3.svg
L 514.116364 230.525079 
L 499.687273 230.525079 
z
" clip-path="url(#p6080a42803)" style="fill: #1f77b4; fill-opacity: 0.5; stroke: #000000; stroke-width: 2; stroke-linejoin: miter"/>
========
L 514.116364 240.325714 
L 499.687273 240.325714 
z
" clip-path="url(#p4939377da6)" style="fill: #1f77b4; fill-opacity: 0.5; stroke: #000000; stroke-width: 2; stroke-linejoin: miter"/>
>>>>>>>> 5baa6be6f14571bc06693767a5c4a170f787ac65:python/interface/SimulatorTool/plots/demo_histogram.svg
   </g>
   <g id="patch_32">
    <path d="M 514.116364 509.56 
L 528.545455 509.56 
<<<<<<<< HEAD:python/interface/SimulatorTool/plots/demo_histogram_3.svg
L 528.545455 370.04254 
L 514.116364 370.04254 
z
" clip-path="url(#p6080a42803)" style="fill: #1f77b4; fill-opacity: 0.5; stroke: #000000; stroke-width: 2; stroke-linejoin: miter"/>
========
L 528.545455 150.580952 
L 514.116364 150.580952 
z
" clip-path="url(#p4939377da6)" style="fill: #1f77b4; fill-opacity: 0.5; stroke: #000000; stroke-width: 2; stroke-linejoin: miter"/>
>>>>>>>> 5baa6be6f14571bc06693767a5c4a170f787ac65:python/interface/SimulatorTool/plots/demo_histogram.svg
   </g>
   <g id="patch_33">
    <path d="M 528.545455 509.56 
L 542.974545 509.56 
<<<<<<<< HEAD:python/interface/SimulatorTool/plots/demo_histogram_3.svg
L 542.974545 91.007619 
L 528.545455 91.007619 
z
" clip-path="url(#p6080a42803)" style="fill: #1f77b4; fill-opacity: 0.5; stroke: #000000; stroke-width: 2; stroke-linejoin: miter"/>
========
L 542.974545 60.83619 
L 528.545455 60.83619 
z
" clip-path="url(#p4939377da6)" style="fill: #1f77b4; fill-opacity: 0.5; stroke: #000000; stroke-width: 2; stroke-linejoin: miter"/>
>>>>>>>> 5baa6be6f14571bc06693767a5c4a170f787ac65:python/interface/SimulatorTool/plots/demo_histogram.svg
   </g>
   <g id="patch_34">
    <path d="M 542.974545 509.56 
L 557.403636 509.56 
<<<<<<<< HEAD:python/interface/SimulatorTool/plots/demo_histogram_3.svg
L 557.403636 439.80127 
L 542.974545 439.80127 
z
" clip-path="url(#p6080a42803)" style="fill: #1f77b4; fill-opacity: 0.5; stroke: #000000; stroke-width: 2; stroke-linejoin: miter"/>
========
L 557.403636 240.325714 
L 542.974545 240.325714 
z
" clip-path="url(#p4939377da6)" style="fill: #1f77b4; fill-opacity: 0.5; stroke: #000000; stroke-width: 2; stroke-linejoin: miter"/>
>>>>>>>> 5baa6be6f14571bc06693767a5c4a170f787ac65:python/interface/SimulatorTool/plots/demo_histogram.svg
   </g>
   <g id="patch_35">
    <path d="M 557.403636 509.56 
L 571.832727 509.56 
<<<<<<<< HEAD:python/interface/SimulatorTool/plots/demo_histogram_3.svg
L 571.832727 509.56 
L 557.403636 509.56 
z
" clip-path="url(#p6080a42803)" style="fill: #1f77b4; fill-opacity: 0.5; stroke: #000000; stroke-width: 2; stroke-linejoin: miter"/>
========
L 571.832727 330.070476 
L 557.403636 330.070476 
z
" clip-path="url(#p4939377da6)" style="fill: #1f77b4; fill-opacity: 0.5; stroke: #000000; stroke-width: 2; stroke-linejoin: miter"/>
>>>>>>>> 5baa6be6f14571bc06693767a5c4a170f787ac65:python/interface/SimulatorTool/plots/demo_histogram.svg
   </g>
   <g id="patch_36">
    <path d="M 571.832727 509.56 
L 586.261818 509.56 
<<<<<<<< HEAD:python/interface/SimulatorTool/plots/demo_histogram_3.svg
L 586.261818 439.80127 
L 571.832727 439.80127 
z
" clip-path="url(#p6080a42803)" style="fill: #1f77b4; fill-opacity: 0.5; stroke: #000000; stroke-width: 2; stroke-linejoin: miter"/>
========
L 586.261818 330.070476 
L 571.832727 330.070476 
z
" clip-path="url(#p4939377da6)" style="fill: #1f77b4; fill-opacity: 0.5; stroke: #000000; stroke-width: 2; stroke-linejoin: miter"/>
>>>>>>>> 5baa6be6f14571bc06693767a5c4a170f787ac65:python/interface/SimulatorTool/plots/demo_histogram.svg
   </g>
   <g id="patch_37">
    <path d="M 586.261818 509.56 
L 600.690909 509.56 
<<<<<<<< HEAD:python/interface/SimulatorTool/plots/demo_histogram_3.svg
L 600.690909 370.04254 
L 586.261818 370.04254 
z
" clip-path="url(#p6080a42803)" style="fill: #1f77b4; fill-opacity: 0.5; stroke: #000000; stroke-width: 2; stroke-linejoin: miter"/>
========
L 600.690909 419.815238 
L 586.261818 419.815238 
z
" clip-path="url(#p4939377da6)" style="fill: #1f77b4; fill-opacity: 0.5; stroke: #000000; stroke-width: 2; stroke-linejoin: miter"/>
>>>>>>>> 5baa6be6f14571bc06693767a5c4a170f787ac65:python/interface/SimulatorTool/plots/demo_histogram.svg
   </g>
   <g id="patch_38">
    <path d="M 600.690909 509.56 
L 615.12 509.56 
<<<<<<<< HEAD:python/interface/SimulatorTool/plots/demo_histogram_3.svg
L 615.12 300.28381 
L 600.690909 300.28381 
z
" clip-path="url(#p6080a42803)" style="fill: #1f77b4; fill-opacity: 0.5; stroke: #000000; stroke-width: 2; stroke-linejoin: miter"/>
========
L 615.12 330.070476 
L 600.690909 330.070476 
z
" clip-path="url(#p4939377da6)" style="fill: #1f77b4; fill-opacity: 0.5; stroke: #000000; stroke-width: 2; stroke-linejoin: miter"/>
>>>>>>>> 5baa6be6f14571bc06693767a5c4a170f787ac65:python/interface/SimulatorTool/plots/demo_histogram.svg
   </g>
   <g id="patch_39">
    <path d="M 615.12 509.56 
L 629.549091 509.56 
<<<<<<<< HEAD:python/interface/SimulatorTool/plots/demo_histogram_3.svg
L 629.549091 230.525079 
L 615.12 230.525079 
z
" clip-path="url(#p6080a42803)" style="fill: #1f77b4; fill-opacity: 0.5; stroke: #000000; stroke-width: 2; stroke-linejoin: miter"/>
========
L 629.549091 240.325714 
L 615.12 240.325714 
z
" clip-path="url(#p4939377da6)" style="fill: #1f77b4; fill-opacity: 0.5; stroke: #000000; stroke-width: 2; stroke-linejoin: miter"/>
>>>>>>>> 5baa6be6f14571bc06693767a5c4a170f787ac65:python/interface/SimulatorTool/plots/demo_histogram.svg
   </g>
   <g id="patch_40">
    <path d="M 629.549091 509.56 
L 643.978182 509.56 
<<<<<<<< HEAD:python/interface/SimulatorTool/plots/demo_histogram_3.svg
L 643.978182 509.56 
L 629.549091 509.56 
z
" clip-path="url(#p6080a42803)" style="fill: #1f77b4; fill-opacity: 0.5; stroke: #000000; stroke-width: 2; stroke-linejoin: miter"/>
========
L 643.978182 240.325714 
L 629.549091 240.325714 
z
" clip-path="url(#p4939377da6)" style="fill: #1f77b4; fill-opacity: 0.5; stroke: #000000; stroke-width: 2; stroke-linejoin: miter"/>
>>>>>>>> 5baa6be6f14571bc06693767a5c4a170f787ac65:python/interface/SimulatorTool/plots/demo_histogram.svg
   </g>
   <g id="patch_41">
    <path d="M 643.978182 509.56 
L 658.407273 509.56 
<<<<<<<< HEAD:python/interface/SimulatorTool/plots/demo_histogram_3.svg
L 658.407273 509.56 
L 643.978182 509.56 
z
" clip-path="url(#p6080a42803)" style="fill: #1f77b4; fill-opacity: 0.5; stroke: #000000; stroke-width: 2; stroke-linejoin: miter"/>
========
L 658.407273 240.325714 
L 643.978182 240.325714 
z
" clip-path="url(#p4939377da6)" style="fill: #1f77b4; fill-opacity: 0.5; stroke: #000000; stroke-width: 2; stroke-linejoin: miter"/>
>>>>>>>> 5baa6be6f14571bc06693767a5c4a170f787ac65:python/interface/SimulatorTool/plots/demo_histogram.svg
   </g>
   <g id="patch_42">
    <path d="M 658.407273 509.56 
L 672.836364 509.56 
<<<<<<<< HEAD:python/interface/SimulatorTool/plots/demo_histogram_3.svg
L 672.836364 439.80127 
L 658.407273 439.80127 
z
" clip-path="url(#p6080a42803)" style="fill: #1f77b4; fill-opacity: 0.5; stroke: #000000; stroke-width: 2; stroke-linejoin: miter"/>
========
L 672.836364 240.325714 
L 658.407273 240.325714 
z
" clip-path="url(#p4939377da6)" style="fill: #1f77b4; fill-opacity: 0.5; stroke: #000000; stroke-width: 2; stroke-linejoin: miter"/>
>>>>>>>> 5baa6be6f14571bc06693767a5c4a170f787ac65:python/interface/SimulatorTool/plots/demo_histogram.svg
   </g>
   <g id="patch_43">
    <path d="M 672.836364 509.56 
L 687.265455 509.56 
<<<<<<<< HEAD:python/interface/SimulatorTool/plots/demo_histogram_3.svg
L 687.265455 439.80127 
L 672.836364 439.80127 
z
" clip-path="url(#p6080a42803)" style="fill: #1f77b4; fill-opacity: 0.5; stroke: #000000; stroke-width: 2; stroke-linejoin: miter"/>
========
L 687.265455 509.56 
L 672.836364 509.56 
z
" clip-path="url(#p4939377da6)" style="fill: #1f77b4; fill-opacity: 0.5; stroke: #000000; stroke-width: 2; stroke-linejoin: miter"/>
>>>>>>>> 5baa6be6f14571bc06693767a5c4a170f787ac65:python/interface/SimulatorTool/plots/demo_histogram.svg
   </g>
   <g id="patch_44">
    <path d="M 687.265455 509.56 
L 701.694545 509.56 
<<<<<<<< HEAD:python/interface/SimulatorTool/plots/demo_histogram_3.svg
L 701.694545 370.04254 
L 687.265455 370.04254 
z
" clip-path="url(#p6080a42803)" style="fill: #1f77b4; fill-opacity: 0.5; stroke: #000000; stroke-width: 2; stroke-linejoin: miter"/>
========
L 701.694545 150.580952 
L 687.265455 150.580952 
z
" clip-path="url(#p4939377da6)" style="fill: #1f77b4; fill-opacity: 0.5; stroke: #000000; stroke-width: 2; stroke-linejoin: miter"/>
>>>>>>>> 5baa6be6f14571bc06693767a5c4a170f787ac65:python/interface/SimulatorTool/plots/demo_histogram.svg
   </g>
   <g id="patch_45">
    <path d="M 701.694545 509.56 
L 716.123636 509.56 
L 716.123636 419.815238 
L 701.694545 419.815238 
z
<<<<<<<< HEAD:python/interface/SimulatorTool/plots/demo_histogram_3.svg
" clip-path="url(#p6080a42803)" style="fill: #1f77b4; fill-opacity: 0.5; stroke: #000000; stroke-width: 2; stroke-linejoin: miter"/>
========
" clip-path="url(#p4939377da6)" style="fill: #1f77b4; fill-opacity: 0.5; stroke: #000000; stroke-width: 2; stroke-linejoin: miter"/>
>>>>>>>> 5baa6be6f14571bc06693767a5c4a170f787ac65:python/interface/SimulatorTool/plots/demo_histogram.svg
   </g>
   <g id="patch_46">
    <path d="M 716.123636 509.56 
L 730.552727 509.56 
<<<<<<<< HEAD:python/interface/SimulatorTool/plots/demo_histogram_3.svg
L 730.552727 509.56 
L 716.123636 509.56 
z
" clip-path="url(#p6080a42803)" style="fill: #1f77b4; fill-opacity: 0.5; stroke: #000000; stroke-width: 2; stroke-linejoin: miter"/>
========
L 730.552727 330.070476 
L 716.123636 330.070476 
z
" clip-path="url(#p4939377da6)" style="fill: #1f77b4; fill-opacity: 0.5; stroke: #000000; stroke-width: 2; stroke-linejoin: miter"/>
>>>>>>>> 5baa6be6f14571bc06693767a5c4a170f787ac65:python/interface/SimulatorTool/plots/demo_histogram.svg
   </g>
   <g id="patch_47">
    <path d="M 730.552727 509.56 
L 744.981818 509.56 
<<<<<<<< HEAD:python/interface/SimulatorTool/plots/demo_histogram_3.svg
L 744.981818 509.56 
L 730.552727 509.56 
z
" clip-path="url(#p6080a42803)" style="fill: #1f77b4; fill-opacity: 0.5; stroke: #000000; stroke-width: 2; stroke-linejoin: miter"/>
========
L 744.981818 419.815238 
L 730.552727 419.815238 
z
" clip-path="url(#p4939377da6)" style="fill: #1f77b4; fill-opacity: 0.5; stroke: #000000; stroke-width: 2; stroke-linejoin: miter"/>
>>>>>>>> 5baa6be6f14571bc06693767a5c4a170f787ac65:python/interface/SimulatorTool/plots/demo_histogram.svg
   </g>
   <g id="patch_48">
    <path d="M 744.981818 509.56 
L 759.410909 509.56 
<<<<<<<< HEAD:python/interface/SimulatorTool/plots/demo_histogram_3.svg
L 759.410909 509.56 
L 744.981818 509.56 
z
" clip-path="url(#p6080a42803)" style="fill: #1f77b4; fill-opacity: 0.5; stroke: #000000; stroke-width: 2; stroke-linejoin: miter"/>
========
L 759.410909 419.815238 
L 744.981818 419.815238 
z
" clip-path="url(#p4939377da6)" style="fill: #1f77b4; fill-opacity: 0.5; stroke: #000000; stroke-width: 2; stroke-linejoin: miter"/>
>>>>>>>> 5baa6be6f14571bc06693767a5c4a170f787ac65:python/interface/SimulatorTool/plots/demo_histogram.svg
   </g>
   <g id="patch_49">
    <path d="M 759.410909 509.56 
L 773.84 509.56 
L 773.84 509.56 
L 759.410909 509.56 
z
<<<<<<<< HEAD:python/interface/SimulatorTool/plots/demo_histogram_3.svg
" clip-path="url(#p6080a42803)" style="fill: #1f77b4; fill-opacity: 0.5; stroke: #000000; stroke-width: 2; stroke-linejoin: miter"/>
========
" clip-path="url(#p4939377da6)" style="fill: #1f77b4; fill-opacity: 0.5; stroke: #000000; stroke-width: 2; stroke-linejoin: miter"/>
>>>>>>>> 5baa6be6f14571bc06693767a5c4a170f787ac65:python/interface/SimulatorTool/plots/demo_histogram.svg
   </g>
   <g id="patch_50">
    <path d="M 773.84 509.56 
L 788.269091 509.56 
<<<<<<<< HEAD:python/interface/SimulatorTool/plots/demo_histogram_3.svg
L 788.269091 509.56 
L 773.84 509.56 
z
" clip-path="url(#p6080a42803)" style="fill: #1f77b4; fill-opacity: 0.5; stroke: #000000; stroke-width: 2; stroke-linejoin: miter"/>
========
L 788.269091 419.815238 
L 773.84 419.815238 
z
" clip-path="url(#p4939377da6)" style="fill: #1f77b4; fill-opacity: 0.5; stroke: #000000; stroke-width: 2; stroke-linejoin: miter"/>
>>>>>>>> 5baa6be6f14571bc06693767a5c4a170f787ac65:python/interface/SimulatorTool/plots/demo_histogram.svg
   </g>
   <g id="patch_51">
    <path d="M 788.269091 509.56 
L 802.698182 509.56 
<<<<<<<< HEAD:python/interface/SimulatorTool/plots/demo_histogram_3.svg
L 802.698182 509.56 
L 788.269091 509.56 
z
" clip-path="url(#p6080a42803)" style="fill: #1f77b4; fill-opacity: 0.5; stroke: #000000; stroke-width: 2; stroke-linejoin: miter"/>
========
L 802.698182 419.815238 
L 788.269091 419.815238 
z
" clip-path="url(#p4939377da6)" style="fill: #1f77b4; fill-opacity: 0.5; stroke: #000000; stroke-width: 2; stroke-linejoin: miter"/>
>>>>>>>> 5baa6be6f14571bc06693767a5c4a170f787ac65:python/interface/SimulatorTool/plots/demo_histogram.svg
   </g>
   <g id="patch_52">
    <path d="M 802.698182 509.56 
L 817.127273 509.56 
<<<<<<<< HEAD:python/interface/SimulatorTool/plots/demo_histogram_3.svg
L 817.127273 370.04254 
L 802.698182 370.04254 
z
" clip-path="url(#p6080a42803)" style="fill: #1f77b4; fill-opacity: 0.5; stroke: #000000; stroke-width: 2; stroke-linejoin: miter"/>
========
L 817.127273 419.815238 
L 802.698182 419.815238 
z
" clip-path="url(#p4939377da6)" style="fill: #1f77b4; fill-opacity: 0.5; stroke: #000000; stroke-width: 2; stroke-linejoin: miter"/>
>>>>>>>> 5baa6be6f14571bc06693767a5c4a170f787ac65:python/interface/SimulatorTool/plots/demo_histogram.svg
   </g>
   <g id="matplotlib.axis_1">
    <g id="xtick_1">
     <g id="line2d_1">
      <defs>
<<<<<<<< HEAD:python/interface/SimulatorTool/plots/demo_histogram_3.svg
       <path id="md6450abb80" d="M 0 0 
========
       <path id="m7d1432d476" d="M 0 0 
>>>>>>>> 5baa6be6f14571bc06693767a5c4a170f787ac65:python/interface/SimulatorTool/plots/demo_histogram.svg
L 0 3.5 
" style="stroke: #000000; stroke-width: 0.8"/>
      </defs>
      <g>
<<<<<<<< HEAD:python/interface/SimulatorTool/plots/demo_histogram_3.svg
       <use xlink:href="#md6450abb80" x="97.966843" y="509.56" style="stroke: #000000; stroke-width: 0.8"/>
========
       <use xlink:href="#m7d1432d476" x="196.582474" y="509.56" style="stroke: #000000; stroke-width: 0.8"/>
>>>>>>>> 5baa6be6f14571bc06693767a5c4a170f787ac65:python/interface/SimulatorTool/plots/demo_histogram.svg
      </g>
     </g>
     <g id="text_1">
      <!-- −1 -->
<<<<<<<< HEAD:python/interface/SimulatorTool/plots/demo_histogram_3.svg
      <g transform="translate(81.750437 533.276562) scale(0.22 -0.22)">
========
      <g transform="translate(180.366068 533.276562) scale(0.22 -0.22)">
>>>>>>>> 5baa6be6f14571bc06693767a5c4a170f787ac65:python/interface/SimulatorTool/plots/demo_histogram.svg
       <defs>
        <path id="DejaVuSans-2212" d="M 678 2272 
L 4684 2272 
L 4684 1741 
L 678 1741 
L 678 2272 
z
" transform="scale(0.015625)"/>
        <path id="DejaVuSans-31" d="M 794 531 
L 1825 531 
L 1825 4091 
L 703 3866 
L 703 4441 
L 1819 4666 
L 2450 4666 
L 2450 531 
L 3481 531 
L 3481 0 
L 794 0 
L 794 531 
z
" transform="scale(0.015625)"/>
       </defs>
       <use xlink:href="#DejaVuSans-2212"/>
       <use xlink:href="#DejaVuSans-31" transform="translate(83.789062 0)"/>
      </g>
     </g>
    </g>
    <g id="xtick_2">
     <g id="line2d_2">
      <g>
<<<<<<<< HEAD:python/interface/SimulatorTool/plots/demo_histogram_3.svg
       <use xlink:href="#md6450abb80" x="253.382019" y="509.56" style="stroke: #000000; stroke-width: 0.8"/>
========
       <use xlink:href="#m7d1432d476" x="343.47567" y="509.56" style="stroke: #000000; stroke-width: 0.8"/>
>>>>>>>> 5baa6be6f14571bc06693767a5c4a170f787ac65:python/interface/SimulatorTool/plots/demo_histogram.svg
      </g>
     </g>
     <g id="text_2">
      <!-- 0 -->
<<<<<<<< HEAD:python/interface/SimulatorTool/plots/demo_histogram_3.svg
      <g transform="translate(246.383269 533.276562) scale(0.22 -0.22)">
========
      <g transform="translate(336.47692 533.276562) scale(0.22 -0.22)">
>>>>>>>> 5baa6be6f14571bc06693767a5c4a170f787ac65:python/interface/SimulatorTool/plots/demo_histogram.svg
       <defs>
        <path id="DejaVuSans-30" d="M 2034 4250 
Q 1547 4250 1301 3770 
Q 1056 3291 1056 2328 
Q 1056 1369 1301 889 
Q 1547 409 2034 409 
Q 2525 409 2770 889 
Q 3016 1369 3016 2328 
Q 3016 3291 2770 3770 
Q 2525 4250 2034 4250 
z
M 2034 4750 
Q 2819 4750 3233 4129 
Q 3647 3509 3647 2328 
Q 3647 1150 3233 529 
Q 2819 -91 2034 -91 
Q 1250 -91 836 529 
Q 422 1150 422 2328 
Q 422 3509 836 4129 
Q 1250 4750 2034 4750 
z
" transform="scale(0.015625)"/>
       </defs>
       <use xlink:href="#DejaVuSans-30"/>
      </g>
     </g>
    </g>
    <g id="xtick_3">
     <g id="line2d_3">
      <g>
<<<<<<<< HEAD:python/interface/SimulatorTool/plots/demo_histogram_3.svg
       <use xlink:href="#md6450abb80" x="408.797195" y="509.56" style="stroke: #000000; stroke-width: 0.8"/>
========
       <use xlink:href="#m7d1432d476" x="490.368866" y="509.56" style="stroke: #000000; stroke-width: 0.8"/>
>>>>>>>> 5baa6be6f14571bc06693767a5c4a170f787ac65:python/interface/SimulatorTool/plots/demo_histogram.svg
      </g>
     </g>
     <g id="text_3">
      <!-- 1 -->
<<<<<<<< HEAD:python/interface/SimulatorTool/plots/demo_histogram_3.svg
      <g transform="translate(401.798445 533.276562) scale(0.22 -0.22)">
========
      <g transform="translate(483.370116 533.276562) scale(0.22 -0.22)">
>>>>>>>> 5baa6be6f14571bc06693767a5c4a170f787ac65:python/interface/SimulatorTool/plots/demo_histogram.svg
       <use xlink:href="#DejaVuSans-31"/>
      </g>
     </g>
    </g>
    <g id="xtick_4">
     <g id="line2d_4">
      <g>
<<<<<<<< HEAD:python/interface/SimulatorTool/plots/demo_histogram_3.svg
       <use xlink:href="#md6450abb80" x="564.212372" y="509.56" style="stroke: #000000; stroke-width: 0.8"/>
========
       <use xlink:href="#m7d1432d476" x="637.262062" y="509.56" style="stroke: #000000; stroke-width: 0.8"/>
>>>>>>>> 5baa6be6f14571bc06693767a5c4a170f787ac65:python/interface/SimulatorTool/plots/demo_histogram.svg
      </g>
     </g>
     <g id="text_4">
      <!-- 2 -->
<<<<<<<< HEAD:python/interface/SimulatorTool/plots/demo_histogram_3.svg
      <g transform="translate(557.213622 533.276562) scale(0.22 -0.22)">
========
      <g transform="translate(630.263312 533.276562) scale(0.22 -0.22)">
>>>>>>>> 5baa6be6f14571bc06693767a5c4a170f787ac65:python/interface/SimulatorTool/plots/demo_histogram.svg
       <defs>
        <path id="DejaVuSans-32" d="M 1228 531 
L 3431 531 
L 3431 0 
L 469 0 
L 469 531 
Q 828 903 1448 1529 
Q 2069 2156 2228 2338 
Q 2531 2678 2651 2914 
Q 2772 3150 2772 3378 
Q 2772 3750 2511 3984 
Q 2250 4219 1831 4219 
Q 1534 4219 1204 4116 
Q 875 4013 500 3803 
L 500 4441 
Q 881 4594 1212 4672 
Q 1544 4750 1819 4750 
Q 2544 4750 2975 4387 
Q 3406 4025 3406 3419 
Q 3406 3131 3298 2873 
Q 3191 2616 2906 2266 
Q 2828 2175 2409 1742 
Q 1991 1309 1228 531 
z
" transform="scale(0.015625)"/>
       </defs>
       <use xlink:href="#DejaVuSans-32"/>
      </g>
     </g>
    </g>
    <g id="xtick_5">
     <g id="line2d_5">
      <g>
<<<<<<<< HEAD:python/interface/SimulatorTool/plots/demo_histogram_3.svg
       <use xlink:href="#md6450abb80" x="719.627548" y="509.56" style="stroke: #000000; stroke-width: 0.8"/>
========
       <use xlink:href="#m7d1432d476" x="784.155257" y="509.56" style="stroke: #000000; stroke-width: 0.8"/>
>>>>>>>> 5baa6be6f14571bc06693767a5c4a170f787ac65:python/interface/SimulatorTool/plots/demo_histogram.svg
      </g>
     </g>
     <g id="text_5">
      <!-- 3 -->
<<<<<<<< HEAD:python/interface/SimulatorTool/plots/demo_histogram_3.svg
      <g transform="translate(712.628798 533.276562) scale(0.22 -0.22)">
========
      <g transform="translate(777.156507 533.276562) scale(0.22 -0.22)">
>>>>>>>> 5baa6be6f14571bc06693767a5c4a170f787ac65:python/interface/SimulatorTool/plots/demo_histogram.svg
       <defs>
        <path id="DejaVuSans-33" d="M 2597 2516 
Q 3050 2419 3304 2112 
Q 3559 1806 3559 1356 
Q 3559 666 3084 287 
Q 2609 -91 1734 -91 
Q 1441 -91 1130 -33 
Q 819 25 488 141 
L 488 750 
Q 750 597 1062 519 
Q 1375 441 1716 441 
Q 2309 441 2620 675 
Q 2931 909 2931 1356 
Q 2931 1769 2642 2001 
Q 2353 2234 1838 2234 
L 1294 2234 
L 1294 2753 
L 1863 2753 
Q 2328 2753 2575 2939 
Q 2822 3125 2822 3475 
Q 2822 3834 2567 4026 
Q 2313 4219 1838 4219 
Q 1578 4219 1281 4162 
Q 984 4106 628 3988 
L 628 4550 
Q 988 4650 1302 4700 
Q 1616 4750 1894 4750 
Q 2613 4750 3031 4423 
Q 3450 4097 3450 3541 
Q 3450 3153 3228 2886 
Q 3006 2619 2597 2516 
z
" transform="scale(0.015625)"/>
       </defs>
       <use xlink:href="#DejaVuSans-33"/>
      </g>
     </g>
    </g>
    <g id="text_6">
     <!-- Value -->
     <g transform="translate(418.879375 560.088125) scale(0.24 -0.24)">
      <defs>
       <path id="DejaVuSans-Bold-56" d="M 31 4666 
L 1241 4666 
L 2478 1222 
L 3713 4666 
L 4922 4666 
L 3194 0 
L 1759 0 
L 31 4666 
z
" transform="scale(0.015625)"/>
       <path id="DejaVuSans-Bold-61" d="M 2106 1575 
Q 1756 1575 1579 1456 
Q 1403 1338 1403 1106 
Q 1403 894 1545 773 
Q 1688 653 1941 653 
Q 2256 653 2472 879 
Q 2688 1106 2688 1447 
L 2688 1575 
L 2106 1575 
z
M 3816 1997 
L 3816 0 
L 2688 0 
L 2688 519 
Q 2463 200 2181 54 
Q 1900 -91 1497 -91 
Q 953 -91 614 226 
Q 275 544 275 1050 
Q 275 1666 698 1953 
Q 1122 2241 2028 2241 
L 2688 2241 
L 2688 2328 
Q 2688 2594 2478 2717 
Q 2269 2841 1825 2841 
Q 1466 2841 1156 2769 
Q 847 2697 581 2553 
L 581 3406 
Q 941 3494 1303 3539 
Q 1666 3584 2028 3584 
Q 2975 3584 3395 3211 
Q 3816 2838 3816 1997 
z
" transform="scale(0.015625)"/>
       <path id="DejaVuSans-Bold-6c" d="M 538 4863 
L 1656 4863 
L 1656 0 
L 538 0 
L 538 4863 
z
" transform="scale(0.015625)"/>
       <path id="DejaVuSans-Bold-75" d="M 500 1363 
L 500 3500 
L 1625 3500 
L 1625 3150 
Q 1625 2866 1622 2436 
Q 1619 2006 1619 1863 
Q 1619 1441 1641 1255 
Q 1663 1069 1716 984 
Q 1784 875 1895 815 
Q 2006 756 2150 756 
Q 2500 756 2700 1025 
Q 2900 1294 2900 1772 
L 2900 3500 
L 4019 3500 
L 4019 0 
L 2900 0 
L 2900 506 
Q 2647 200 2364 54 
Q 2081 -91 1741 -91 
Q 1134 -91 817 281 
Q 500 653 500 1363 
z
" transform="scale(0.015625)"/>
       <path id="DejaVuSans-Bold-65" d="M 4031 1759 
L 4031 1441 
L 1416 1441 
Q 1456 1047 1700 850 
Q 1944 653 2381 653 
Q 2734 653 3104 758 
Q 3475 863 3866 1075 
L 3866 213 
Q 3469 63 3072 -14 
Q 2675 -91 2278 -91 
Q 1328 -91 801 392 
Q 275 875 275 1747 
Q 275 2603 792 3093 
Q 1309 3584 2216 3584 
Q 3041 3584 3536 3087 
Q 4031 2591 4031 1759 
z
M 2881 2131 
Q 2881 2450 2695 2645 
Q 2509 2841 2209 2841 
Q 1884 2841 1681 2658 
Q 1478 2475 1428 2131 
L 2881 2131 
z
" transform="scale(0.015625)"/>
      </defs>
      <use xlink:href="#DejaVuSans-Bold-56"/>
<<<<<<<< HEAD:python/interface/SimulatorTool/plots/demo_histogram_3.svg
      <use xlink:href="#DejaVuSans-Bold-61" transform="translate(71.892578 0)"/>
      <use xlink:href="#DejaVuSans-Bold-6c" transform="translate(139.373047 0)"/>
      <use xlink:href="#DejaVuSans-Bold-75" transform="translate(173.650391 0)"/>
      <use xlink:href="#DejaVuSans-Bold-65" transform="translate(244.841797 0)"/>
========
      <use xlink:href="#DejaVuSans-Bold-61" x="71.892578"/>
      <use xlink:href="#DejaVuSans-Bold-6c" x="139.373047"/>
      <use xlink:href="#DejaVuSans-Bold-75" x="173.650391"/>
      <use xlink:href="#DejaVuSans-Bold-65" x="244.841797"/>
>>>>>>>> 5baa6be6f14571bc06693767a5c4a170f787ac65:python/interface/SimulatorTool/plots/demo_histogram.svg
     </g>
    </g>
   </g>
   <g id="matplotlib.axis_2">
    <g id="ytick_1">
     <g id="line2d_6">
      <defs>
<<<<<<<< HEAD:python/interface/SimulatorTool/plots/demo_histogram_3.svg
       <path id="mf9ed10e2fd" d="M 0 0 
========
       <path id="mab81671c52" d="M 0 0 
>>>>>>>> 5baa6be6f14571bc06693767a5c4a170f787ac65:python/interface/SimulatorTool/plots/demo_histogram.svg
L -3.5 0 
" style="stroke: #000000; stroke-width: 0.8"/>
      </defs>
      <g>
<<<<<<<< HEAD:python/interface/SimulatorTool/plots/demo_histogram_3.svg
       <use xlink:href="#mf9ed10e2fd" x="59.6" y="509.56" style="stroke: #000000; stroke-width: 0.8"/>
========
       <use xlink:href="#mab81671c52" x="59.6" y="509.56" style="stroke: #000000; stroke-width: 0.8"/>
>>>>>>>> 5baa6be6f14571bc06693767a5c4a170f787ac65:python/interface/SimulatorTool/plots/demo_histogram.svg
      </g>
     </g>
     <g id="text_7">
      <!-- 0 -->
      <g transform="translate(38.6025 517.918281) scale(0.22 -0.22)">
       <use xlink:href="#DejaVuSans-30"/>
      </g>
     </g>
    </g>
    <g id="ytick_2">
     <g id="line2d_7">
      <g>
<<<<<<<< HEAD:python/interface/SimulatorTool/plots/demo_histogram_3.svg
       <use xlink:href="#mf9ed10e2fd" x="59.6" y="439.80127" style="stroke: #000000; stroke-width: 0.8"/>
========
       <use xlink:href="#mab81671c52" x="59.6" y="419.815238" style="stroke: #000000; stroke-width: 0.8"/>
>>>>>>>> 5baa6be6f14571bc06693767a5c4a170f787ac65:python/interface/SimulatorTool/plots/demo_histogram.svg
      </g>
     </g>
     <g id="text_8">
      <!-- 1 -->
<<<<<<<< HEAD:python/interface/SimulatorTool/plots/demo_histogram_3.svg
      <g transform="translate(38.6025 448.159551) scale(0.22 -0.22)">
========
      <g transform="translate(38.6025 428.173519) scale(0.22 -0.22)">
>>>>>>>> 5baa6be6f14571bc06693767a5c4a170f787ac65:python/interface/SimulatorTool/plots/demo_histogram.svg
       <use xlink:href="#DejaVuSans-31"/>
      </g>
     </g>
    </g>
    <g id="ytick_3">
     <g id="line2d_8">
      <g>
<<<<<<<< HEAD:python/interface/SimulatorTool/plots/demo_histogram_3.svg
       <use xlink:href="#mf9ed10e2fd" x="59.6" y="370.04254" style="stroke: #000000; stroke-width: 0.8"/>
========
       <use xlink:href="#mab81671c52" x="59.6" y="330.070476" style="stroke: #000000; stroke-width: 0.8"/>
>>>>>>>> 5baa6be6f14571bc06693767a5c4a170f787ac65:python/interface/SimulatorTool/plots/demo_histogram.svg
      </g>
     </g>
     <g id="text_9">
      <!-- 2 -->
<<<<<<<< HEAD:python/interface/SimulatorTool/plots/demo_histogram_3.svg
      <g transform="translate(38.6025 378.400821) scale(0.22 -0.22)">
========
      <g transform="translate(38.6025 338.428757) scale(0.22 -0.22)">
>>>>>>>> 5baa6be6f14571bc06693767a5c4a170f787ac65:python/interface/SimulatorTool/plots/demo_histogram.svg
       <use xlink:href="#DejaVuSans-32"/>
      </g>
     </g>
    </g>
    <g id="ytick_4">
     <g id="line2d_9">
      <g>
<<<<<<<< HEAD:python/interface/SimulatorTool/plots/demo_histogram_3.svg
       <use xlink:href="#mf9ed10e2fd" x="59.6" y="300.28381" style="stroke: #000000; stroke-width: 0.8"/>
========
       <use xlink:href="#mab81671c52" x="59.6" y="240.325714" style="stroke: #000000; stroke-width: 0.8"/>
>>>>>>>> 5baa6be6f14571bc06693767a5c4a170f787ac65:python/interface/SimulatorTool/plots/demo_histogram.svg
      </g>
     </g>
     <g id="text_10">
      <!-- 3 -->
<<<<<<<< HEAD:python/interface/SimulatorTool/plots/demo_histogram_3.svg
      <g transform="translate(38.6025 308.642091) scale(0.22 -0.22)">
========
      <g transform="translate(38.6025 248.683996) scale(0.22 -0.22)">
>>>>>>>> 5baa6be6f14571bc06693767a5c4a170f787ac65:python/interface/SimulatorTool/plots/demo_histogram.svg
       <use xlink:href="#DejaVuSans-33"/>
      </g>
     </g>
    </g>
    <g id="ytick_5">
     <g id="line2d_10">
      <g>
<<<<<<<< HEAD:python/interface/SimulatorTool/plots/demo_histogram_3.svg
       <use xlink:href="#mf9ed10e2fd" x="59.6" y="230.525079" style="stroke: #000000; stroke-width: 0.8"/>
========
       <use xlink:href="#mab81671c52" x="59.6" y="150.580952" style="stroke: #000000; stroke-width: 0.8"/>
>>>>>>>> 5baa6be6f14571bc06693767a5c4a170f787ac65:python/interface/SimulatorTool/plots/demo_histogram.svg
      </g>
     </g>
     <g id="text_11">
      <!-- 4 -->
<<<<<<<< HEAD:python/interface/SimulatorTool/plots/demo_histogram_3.svg
      <g transform="translate(38.6025 238.883361) scale(0.22 -0.22)">
========
      <g transform="translate(38.6025 158.939234) scale(0.22 -0.22)">
>>>>>>>> 5baa6be6f14571bc06693767a5c4a170f787ac65:python/interface/SimulatorTool/plots/demo_histogram.svg
       <defs>
        <path id="DejaVuSans-34" d="M 2419 4116 
L 825 1625 
L 2419 1625 
L 2419 4116 
z
M 2253 4666 
L 3047 4666 
L 3047 1625 
L 3713 1625 
L 3713 1100 
L 3047 1100 
L 3047 0 
L 2419 0 
L 2419 1100 
L 313 1100 
L 313 1709 
L 2253 4666 
z
" transform="scale(0.015625)"/>
       </defs>
       <use xlink:href="#DejaVuSans-34"/>
      </g>
     </g>
    </g>
    <g id="ytick_6">
     <g id="line2d_11">
      <g>
<<<<<<<< HEAD:python/interface/SimulatorTool/plots/demo_histogram_3.svg
       <use xlink:href="#mf9ed10e2fd" x="59.6" y="160.766349" style="stroke: #000000; stroke-width: 0.8"/>
========
       <use xlink:href="#mab81671c52" x="59.6" y="60.83619" style="stroke: #000000; stroke-width: 0.8"/>
>>>>>>>> 5baa6be6f14571bc06693767a5c4a170f787ac65:python/interface/SimulatorTool/plots/demo_histogram.svg
      </g>
     </g>
     <g id="text_12">
      <!-- 5 -->
<<<<<<<< HEAD:python/interface/SimulatorTool/plots/demo_histogram_3.svg
      <g transform="translate(38.6025 169.12463) scale(0.22 -0.22)">
========
      <g transform="translate(38.6025 69.194472) scale(0.22 -0.22)">
>>>>>>>> 5baa6be6f14571bc06693767a5c4a170f787ac65:python/interface/SimulatorTool/plots/demo_histogram.svg
       <defs>
        <path id="DejaVuSans-35" d="M 691 4666 
L 3169 4666 
L 3169 4134 
L 1269 4134 
L 1269 2991 
Q 1406 3038 1543 3061 
Q 1681 3084 1819 3084 
Q 2600 3084 3056 2656 
Q 3513 2228 3513 1497 
Q 3513 744 3044 326 
Q 2575 -91 1722 -91 
Q 1428 -91 1123 -41 
Q 819 9 494 109 
L 494 744 
Q 775 591 1075 516 
Q 1375 441 1709 441 
Q 2250 441 2565 725 
Q 2881 1009 2881 1497 
Q 2881 1984 2565 2268 
Q 2250 2553 1709 2553 
Q 1456 2553 1204 2497 
Q 953 2441 691 2322 
L 691 4666 
z
" transform="scale(0.015625)"/>
       </defs>
       <use xlink:href="#DejaVuSans-35"/>
      </g>
     </g>
    </g>
<<<<<<<< HEAD:python/interface/SimulatorTool/plots/demo_histogram_3.svg
    <g id="ytick_7">
     <g id="line2d_12">
      <g>
       <use xlink:href="#mf9ed10e2fd" x="59.6" y="91.007619" style="stroke: #000000; stroke-width: 0.8"/>
      </g>
     </g>
     <g id="text_13">
      <!-- 6 -->
      <g transform="translate(38.6025 99.3659) scale(0.22 -0.22)">
       <defs>
        <path id="DejaVuSans-36" d="M 2113 2584 
Q 1688 2584 1439 2293 
Q 1191 2003 1191 1497 
Q 1191 994 1439 701 
Q 1688 409 2113 409 
Q 2538 409 2786 701 
Q 3034 994 3034 1497 
Q 3034 2003 2786 2293 
Q 2538 2584 2113 2584 
z
M 3366 4563 
L 3366 3988 
Q 3128 4100 2886 4159 
Q 2644 4219 2406 4219 
Q 1781 4219 1451 3797 
Q 1122 3375 1075 2522 
Q 1259 2794 1537 2939 
Q 1816 3084 2150 3084 
Q 2853 3084 3261 2657 
Q 3669 2231 3669 1497 
Q 3669 778 3244 343 
Q 2819 -91 2113 -91 
Q 1303 -91 875 529 
Q 447 1150 447 2328 
Q 447 3434 972 4092 
Q 1497 4750 2381 4750 
Q 2619 4750 2861 4703 
Q 3103 4656 3366 4563 
z
" transform="scale(0.015625)"/>
       </defs>
       <use xlink:href="#DejaVuSans-36"/>
      </g>
     </g>
    </g>
    <g id="text_14">
========
    <g id="text_13">
>>>>>>>> 5baa6be6f14571bc06693767a5c4a170f787ac65:python/interface/SimulatorTool/plots/demo_histogram.svg
     <!-- Count -->
     <g transform="translate(29.61125 329.691875) rotate(-90) scale(0.24 -0.24)">
      <defs>
       <path id="DejaVuSans-Bold-43" d="M 4288 256 
Q 3956 84 3597 -3 
Q 3238 -91 2847 -91 
Q 1681 -91 1000 561 
Q 319 1213 319 2328 
Q 319 3447 1000 4098 
Q 1681 4750 2847 4750 
Q 3238 4750 3597 4662 
Q 3956 4575 4288 4403 
L 4288 3438 
Q 3953 3666 3628 3772 
Q 3303 3878 2944 3878 
Q 2300 3878 1931 3465 
Q 1563 3053 1563 2328 
Q 1563 1606 1931 1193 
Q 2300 781 2944 781 
Q 3303 781 3628 887 
Q 3953 994 4288 1222 
L 4288 256 
z
" transform="scale(0.015625)"/>
       <path id="DejaVuSans-Bold-6f" d="M 2203 2784 
Q 1831 2784 1636 2517 
Q 1441 2250 1441 1747 
Q 1441 1244 1636 976 
Q 1831 709 2203 709 
Q 2569 709 2762 976 
Q 2956 1244 2956 1747 
Q 2956 2250 2762 2517 
Q 2569 2784 2203 2784 
z
M 2203 3584 
Q 3106 3584 3614 3096 
Q 4122 2609 4122 1747 
Q 4122 884 3614 396 
Q 3106 -91 2203 -91 
Q 1297 -91 786 396 
Q 275 884 275 1747 
Q 275 2609 786 3096 
Q 1297 3584 2203 3584 
z
" transform="scale(0.015625)"/>
       <path id="DejaVuSans-Bold-6e" d="M 4056 2131 
L 4056 0 
L 2931 0 
L 2931 347 
L 2931 1631 
Q 2931 2084 2911 2256 
Q 2891 2428 2841 2509 
Q 2775 2619 2662 2680 
Q 2550 2741 2406 2741 
Q 2056 2741 1856 2470 
Q 1656 2200 1656 1722 
L 1656 0 
L 538 0 
L 538 3500 
L 1656 3500 
L 1656 2988 
Q 1909 3294 2193 3439 
Q 2478 3584 2822 3584 
Q 3428 3584 3742 3212 
Q 4056 2841 4056 2131 
z
" transform="scale(0.015625)"/>
       <path id="DejaVuSans-Bold-74" d="M 1759 4494 
L 1759 3500 
L 2913 3500 
L 2913 2700 
L 1759 2700 
L 1759 1216 
Q 1759 972 1856 886 
Q 1953 800 2241 800 
L 2816 800 
L 2816 0 
L 1856 0 
Q 1194 0 917 276 
Q 641 553 641 1216 
L 641 2700 
L 84 2700 
L 84 3500 
L 641 3500 
L 641 4494 
L 1759 4494 
z
" transform="scale(0.015625)"/>
      </defs>
      <use xlink:href="#DejaVuSans-Bold-43"/>
      <use xlink:href="#DejaVuSans-Bold-6f" transform="translate(73.388672 0)"/>
      <use xlink:href="#DejaVuSans-Bold-75" transform="translate(142.089844 0)"/>
      <use xlink:href="#DejaVuSans-Bold-6e" transform="translate(213.28125 0)"/>
      <use xlink:href="#DejaVuSans-Bold-74" transform="translate(284.472656 0)"/>
     </g>
    </g>
   </g>
<<<<<<<< HEAD:python/interface/SimulatorTool/plots/demo_histogram_3.svg
   <g id="line2d_13">
    <path d="M 95.672727 464.149191 
L 106.548926 457.044448 
L 117.425126 449.623634 
L 128.301325 441.925058 
L 139.177524 433.959675 
L 150.053723 425.713982 
L 160.929922 417.16019 
L 171.806122 408.272154 
L 182.682321 399.043965 
L 193.55852 389.507072 
L 208.060119 376.457137 
L 226.187117 360.094227 
L 237.063317 350.586669 
L 244.314116 344.502696 
L 251.564915 338.686901 
L 258.815715 333.186185 
L 266.066514 328.037136 
L 273.317314 323.264426 
L 280.568113 318.880181 
L 287.818913 314.884352 
L 295.069712 311.265976 
L 302.320512 308.005176 
L 309.571311 305.075635 
L 316.822111 302.447284 
L 324.07291 300.088905 
L 331.323709 297.970432 
L 338.574509 296.064772 
L 345.825308 294.349052 
L 353.076108 292.805304 
L 360.326907 291.420657 
L 371.203106 289.625894 
L 382.079306 288.16435 
L 389.330105 287.38041 
L 396.580905 286.75792 
L 403.831704 286.308771 
L 411.082503 286.04856 
L 418.333303 285.996658 
L 425.584102 286.176153 
L 432.834902 286.613507 
L 440.085701 287.337855 
L 447.336501 288.379849 
L 454.5873 289.770085 
L 461.8381 291.537163 
L 469.088899 293.70553 
L 476.339698 296.293291 
L 483.590498 299.310213 
L 490.841297 302.756137 
L 498.092097 306.620004 
L 505.342896 310.87964 
L 512.593696 315.502381 
L 519.844495 320.446525 
L 527.095295 325.663527 
L 537.971494 333.885122 
L 548.847693 342.423255 
L 603.228689 385.625177 
L 646.733486 419.400679 
L 664.860484 433.267041 
L 675.736683 441.342136 
L 686.612883 449.094373 
L 693.863682 454.020393 
L 701.114481 458.70891 
L 708.365281 463.12488 
L 715.61608 467.237385 
L 722.86688 471.021274 
L 730.117679 474.458609 
L 737.368479 477.539853 
L 744.619278 480.264684 
L 751.870078 482.642366 
L 759.120877 484.691588 
L 766.371677 486.439757 
L 773.622476 487.921733 
L 780.873275 489.178079 
L 788.124075 490.252919 
L 799.000274 491.623701 
L 817.127273 493.611357 
L 817.127273 493.611357 
" clip-path="url(#p6080a42803)" style="fill: none; stroke: #1f77b4; stroke-width: 1.5; stroke-linecap: square"/>
========
   <g id="line2d_12">
    <path d="M 95.672727 499.395649 
L 110.174326 498.407121 
L 121.050525 497.425299 
L 128.301325 496.534886 
L 135.552124 495.364271 
L 142.802924 493.827241 
L 146.428323 492.893349 
L 150.053723 491.834184 
L 153.679123 490.638632 
L 157.304523 489.295862 
L 160.929922 487.795457 
L 164.555322 486.127551 
L 168.180722 484.282967 
L 171.806122 482.253345 
L 175.431521 480.031271 
L 179.056921 477.6104 
L 182.682321 474.985567 
L 186.30772 472.152892 
L 189.93312 469.109865 
L 193.55852 465.855426 
L 197.18392 462.390022 
L 200.809319 458.715654 
L 204.434719 454.835894 
L 208.060119 450.755896 
L 211.685519 446.482376 
L 218.936318 437.389198 
L 226.187117 427.639387 
L 233.437917 417.336403 
L 240.688716 406.60004 
L 251.564915 389.971059 
L 273.317314 356.484838 
L 280.568113 345.699779 
L 287.818913 335.261016 
L 295.069712 325.229059 
L 302.320512 315.638481 
L 309.571311 306.497979 
L 316.822111 297.792306 
L 324.07291 289.486023 
L 331.323709 281.528889 
L 338.574509 273.862542 
L 349.450708 262.781024 
L 360.326907 252.061838 
L 371.203106 241.632837 
L 382.079306 231.547591 
L 389.330105 225.104016 
L 396.580905 218.983073 
L 403.831704 213.29069 
L 407.457104 210.641473 
L 411.082503 208.143478 
L 414.707903 205.81147 
L 418.333303 203.659728 
L 421.958703 201.701754 
L 425.584102 199.950004 
L 429.209502 198.41564 
L 432.834902 197.108308 
L 436.460302 196.03596 
L 440.085701 195.204711 
L 443.711101 194.618735 
L 447.336501 194.280209 
L 450.9619 194.189304 
L 454.5873 194.344213 
L 458.2127 194.74122 
L 461.8381 195.374811 
L 465.463499 196.237807 
L 469.088899 197.321534 
L 472.714299 198.616003 
L 476.339698 200.110108 
L 479.965098 201.791827 
L 483.590498 203.648426 
L 487.215898 205.666652 
L 490.841297 207.832923 
L 498.092097 212.554589 
L 505.342896 217.703989 
L 512.593696 223.174977 
L 523.469895 231.766304 
L 548.847693 252.075273 
L 556.098492 257.608499 
L 563.349292 262.911557 
L 570.600091 267.941874 
L 577.850891 272.671405 
L 585.10169 277.089258 
L 592.35249 281.20379 
L 599.603289 285.04371 
L 606.854089 288.657805 
L 617.730288 293.806256 
L 632.231887 300.61632 
L 639.482686 304.211136 
L 646.733486 308.055286 
L 653.984285 312.228847 
L 661.235085 316.796221 
L 668.485884 321.802526 
L 675.736683 327.271498 
L 682.987483 333.204967 
L 690.238282 339.583841 
L 697.489082 346.370374 
L 704.739881 353.511445 
L 711.990681 360.942482 
L 722.86688 372.474697 
L 755.495477 407.578477 
L 766.371677 418.767425 
L 773.622476 425.958094 
L 780.873275 432.902578 
L 788.124075 439.581328 
L 795.374874 445.979559 
L 802.625674 452.08572 
L 809.876473 457.890151 
L 817.127273 463.384089 
L 817.127273 463.384089 
" clip-path="url(#p4939377da6)" style="fill: none; stroke: #1f77b4; stroke-width: 1.5; stroke-linecap: square"/>
>>>>>>>> 5baa6be6f14571bc06693767a5c4a170f787ac65:python/interface/SimulatorTool/plots/demo_histogram.svg
   </g>
   <g id="patch_53">
    <path d="M 59.6 509.56 
L 59.6 70.08 
" style="fill: none; stroke: #000000; stroke-width: 0.8; stroke-linejoin: miter; stroke-linecap: square"/>
   </g>
   <g id="patch_54">
    <path d="M 853.2 509.56 
L 853.2 70.08 
" style="fill: none; stroke: #000000; stroke-width: 0.8; stroke-linejoin: miter; stroke-linecap: square"/>
   </g>
   <g id="patch_55">
    <path d="M 59.6 509.56 
L 853.2 509.56 
" style="fill: none; stroke: #000000; stroke-width: 0.8; stroke-linejoin: miter; stroke-linecap: square"/>
   </g>
   <g id="patch_56">
    <path d="M 59.6 70.08 
L 853.2 70.08 
" style="fill: none; stroke: #000000; stroke-width: 0.8; stroke-linejoin: miter; stroke-linecap: square"/>
   </g>
<<<<<<<< HEAD:python/interface/SimulatorTool/plots/demo_histogram_3.svg
   <g id="text_15">
    <!-- Demo (Choose file) Histogram #3 -->
    <g transform="translate(192.70125 32.507375) scale(0.28 -0.28)">
========
   <g id="text_14">
    <!-- Demo (Choose file) Histogram -->
    <g transform="translate(219.0475 32.358125) scale(0.28 -0.28)">
>>>>>>>> 5baa6be6f14571bc06693767a5c4a170f787ac65:python/interface/SimulatorTool/plots/demo_histogram.svg
     <defs>
      <path id="DejaVuSans-Bold-44" d="M 1791 3756 
L 1791 909 
L 2222 909 
Q 2959 909 3348 1275 
Q 3738 1641 3738 2338 
Q 3738 3031 3350 3393 
Q 2963 3756 2222 3756 
L 1791 3756 
z
M 588 4666 
L 1856 4666 
Q 2919 4666 3439 4514 
Q 3959 4363 4331 4000 
Q 4659 3684 4818 3271 
Q 4978 2859 4978 2338 
Q 4978 1809 4818 1395 
Q 4659 981 4331 666 
Q 3956 303 3431 151 
Q 2906 0 1856 0 
L 588 0 
L 588 4666 
z
" transform="scale(0.015625)"/>
      <path id="DejaVuSans-Bold-6d" d="M 3781 2919 
Q 3994 3244 4286 3414 
Q 4578 3584 4928 3584 
Q 5531 3584 5847 3212 
Q 6163 2841 6163 2131 
L 6163 0 
L 5038 0 
L 5038 1825 
Q 5041 1866 5042 1909 
Q 5044 1953 5044 2034 
Q 5044 2406 4934 2573 
Q 4825 2741 4581 2741 
Q 4263 2741 4089 2478 
Q 3916 2216 3909 1719 
L 3909 0 
L 2784 0 
L 2784 1825 
Q 2784 2406 2684 2573 
Q 2584 2741 2328 2741 
Q 2006 2741 1831 2477 
Q 1656 2213 1656 1722 
L 1656 0 
L 531 0 
L 531 3500 
L 1656 3500 
L 1656 2988 
Q 1863 3284 2130 3434 
Q 2397 3584 2719 3584 
Q 3081 3584 3359 3409 
Q 3638 3234 3781 2919 
z
" transform="scale(0.015625)"/>
      <path id="DejaVuSans-Bold-20" transform="scale(0.015625)"/>
      <path id="DejaVuSans-Bold-28" d="M 2413 -844 
L 1484 -844 
Q 1006 -72 778 623 
Q 550 1319 550 2003 
Q 550 2688 779 3389 
Q 1009 4091 1484 4856 
L 2413 4856 
Q 2013 4116 1813 3408 
Q 1613 2700 1613 2009 
Q 1613 1319 1811 609 
Q 2009 -100 2413 -844 
z
" transform="scale(0.015625)"/>
      <path id="DejaVuSans-Bold-68" d="M 4056 2131 
L 4056 0 
L 2931 0 
L 2931 347 
L 2931 1625 
Q 2931 2084 2911 2256 
Q 2891 2428 2841 2509 
Q 2775 2619 2662 2680 
Q 2550 2741 2406 2741 
Q 2056 2741 1856 2470 
Q 1656 2200 1656 1722 
L 1656 0 
L 538 0 
L 538 4863 
L 1656 4863 
L 1656 2988 
Q 1909 3294 2193 3439 
Q 2478 3584 2822 3584 
Q 3428 3584 3742 3212 
Q 4056 2841 4056 2131 
z
" transform="scale(0.015625)"/>
      <path id="DejaVuSans-Bold-73" d="M 3272 3391 
L 3272 2541 
Q 2913 2691 2578 2766 
Q 2244 2841 1947 2841 
Q 1628 2841 1473 2761 
Q 1319 2681 1319 2516 
Q 1319 2381 1436 2309 
Q 1553 2238 1856 2203 
L 2053 2175 
Q 2913 2066 3209 1816 
Q 3506 1566 3506 1031 
Q 3506 472 3093 190 
Q 2681 -91 1863 -91 
Q 1516 -91 1145 -36 
Q 775 19 384 128 
L 384 978 
Q 719 816 1070 734 
Q 1422 653 1784 653 
Q 2113 653 2278 743 
Q 2444 834 2444 1013 
Q 2444 1163 2330 1236 
Q 2216 1309 1875 1350 
L 1678 1375 
Q 931 1469 631 1722 
Q 331 1975 331 2491 
Q 331 3047 712 3315 
Q 1094 3584 1881 3584 
Q 2191 3584 2531 3537 
Q 2872 3491 3272 3391 
z
" transform="scale(0.015625)"/>
      <path id="DejaVuSans-Bold-66" d="M 2841 4863 
L 2841 4128 
L 2222 4128 
Q 1984 4128 1890 4042 
Q 1797 3956 1797 3744 
L 1797 3500 
L 2753 3500 
L 2753 2700 
L 1797 2700 
L 1797 0 
L 678 0 
L 678 2700 
L 122 2700 
L 122 3500 
L 678 3500 
L 678 3744 
Q 678 4316 997 4589 
Q 1316 4863 1984 4863 
L 2841 4863 
z
" transform="scale(0.015625)"/>
      <path id="DejaVuSans-Bold-69" d="M 538 3500 
L 1656 3500 
L 1656 0 
L 538 0 
L 538 3500 
z
M 538 4863 
L 1656 4863 
L 1656 3950 
L 538 3950 
L 538 4863 
z
" transform="scale(0.015625)"/>
      <path id="DejaVuSans-Bold-29" d="M 513 -844 
Q 913 -100 1113 609 
Q 1313 1319 1313 2009 
Q 1313 2700 1113 3408 
Q 913 4116 513 4856 
L 1441 4856 
Q 1916 4091 2145 3389 
Q 2375 2688 2375 2003 
Q 2375 1319 2147 623 
Q 1919 -72 1441 -844 
L 513 -844 
z
" transform="scale(0.015625)"/>
      <path id="DejaVuSans-Bold-48" d="M 588 4666 
L 1791 4666 
L 1791 2888 
L 3566 2888 
L 3566 4666 
L 4769 4666 
L 4769 0 
L 3566 0 
L 3566 1978 
L 1791 1978 
L 1791 0 
L 588 0 
L 588 4666 
z
" transform="scale(0.015625)"/>
      <path id="DejaVuSans-Bold-67" d="M 2919 594 
Q 2688 288 2409 144 
Q 2131 0 1766 0 
Q 1125 0 706 504 
Q 288 1009 288 1791 
Q 288 2575 706 3076 
Q 1125 3578 1766 3578 
Q 2131 3578 2409 3434 
Q 2688 3291 2919 2981 
L 2919 3500 
L 4044 3500 
L 4044 353 
Q 4044 -491 3511 -936 
Q 2978 -1381 1966 -1381 
Q 1638 -1381 1331 -1331 
Q 1025 -1281 716 -1178 
L 716 -306 
Q 1009 -475 1290 -558 
Q 1572 -641 1856 -641 
Q 2406 -641 2662 -400 
Q 2919 -159 2919 353 
L 2919 594 
z
M 2181 2772 
Q 1834 2772 1640 2515 
Q 1447 2259 1447 1791 
Q 1447 1309 1634 1061 
Q 1822 813 2181 813 
Q 2531 813 2725 1069 
Q 2919 1325 2919 1791 
Q 2919 2259 2725 2515 
Q 2531 2772 2181 2772 
z
" transform="scale(0.015625)"/>
      <path id="DejaVuSans-Bold-72" d="M 3138 2547 
Q 2991 2616 2845 2648 
Q 2700 2681 2553 2681 
Q 2122 2681 1889 2404 
Q 1656 2128 1656 1613 
L 1656 0 
L 538 0 
L 538 3500 
L 1656 3500 
L 1656 2925 
Q 1872 3269 2151 3426 
Q 2431 3584 2822 3584 
Q 2878 3584 2943 3579 
Q 3009 3575 3134 3559 
L 3138 2547 
z
" transform="scale(0.015625)"/>
<<<<<<<< HEAD:python/interface/SimulatorTool/plots/demo_histogram_3.svg
      <path id="DejaVuSans-Bold-23" d="M 2847 4594 
L 2547 3391 
L 3372 3391 
L 3675 4594 
L 4366 4594 
L 4063 3391 
L 4928 3391 
L 4928 2725 
L 3897 2725 
L 3681 1869 
L 4569 1869 
L 4569 1197 
L 3519 1197 
L 3219 0 
L 2528 0 
L 2828 1197 
L 2003 1197 
L 1703 0 
L 1006 0 
L 1306 1197 
L 434 1197 
L 434 1869 
L 1459 1869 
L 1678 2725 
L 794 2725 
L 794 3391 
L 1850 3391 
L 2150 4594 
L 2847 4594 
z
M 3200 2725 
L 2375 2725 
L 2156 1869 
L 2981 1869 
L 3200 2725 
z
" transform="scale(0.015625)"/>
      <path id="DejaVuSans-Bold-33" d="M 2981 2516 
Q 3453 2394 3698 2092 
Q 3944 1791 3944 1325 
Q 3944 631 3412 270 
Q 2881 -91 1863 -91 
Q 1503 -91 1142 -33 
Q 781 25 428 141 
L 428 1069 
Q 766 900 1098 814 
Q 1431 728 1753 728 
Q 2231 728 2486 893 
Q 2741 1059 2741 1369 
Q 2741 1688 2480 1852 
Q 2219 2016 1709 2016 
L 1228 2016 
L 1228 2791 
L 1734 2791 
Q 2188 2791 2409 2933 
Q 2631 3075 2631 3366 
Q 2631 3634 2415 3781 
Q 2200 3928 1806 3928 
Q 1516 3928 1219 3862 
Q 922 3797 628 3669 
L 628 4550 
Q 984 4650 1334 4700 
Q 1684 4750 2022 4750 
Q 2931 4750 3382 4451 
Q 3834 4153 3834 3553 
Q 3834 3144 3618 2883 
Q 3403 2622 2981 2516 
z
" transform="scale(0.015625)"/>
     </defs>
     <use xlink:href="#DejaVuSans-Bold-44"/>
     <use xlink:href="#DejaVuSans-Bold-65" transform="translate(83.007812 0)"/>
     <use xlink:href="#DejaVuSans-Bold-6d" transform="translate(150.830078 0)"/>
     <use xlink:href="#DejaVuSans-Bold-6f" transform="translate(255.029297 0)"/>
     <use xlink:href="#DejaVuSans-Bold-20" transform="translate(323.730469 0)"/>
     <use xlink:href="#DejaVuSans-Bold-28" transform="translate(358.544922 0)"/>
     <use xlink:href="#DejaVuSans-Bold-43" transform="translate(404.248047 0)"/>
     <use xlink:href="#DejaVuSans-Bold-68" transform="translate(477.636719 0)"/>
     <use xlink:href="#DejaVuSans-Bold-6f" transform="translate(548.828125 0)"/>
     <use xlink:href="#DejaVuSans-Bold-6f" transform="translate(617.529297 0)"/>
     <use xlink:href="#DejaVuSans-Bold-73" transform="translate(686.230469 0)"/>
     <use xlink:href="#DejaVuSans-Bold-65" transform="translate(745.751953 0)"/>
     <use xlink:href="#DejaVuSans-Bold-20" transform="translate(813.574219 0)"/>
     <use xlink:href="#DejaVuSans-Bold-66" transform="translate(848.388672 0)"/>
     <use xlink:href="#DejaVuSans-Bold-69" transform="translate(891.894531 0)"/>
     <use xlink:href="#DejaVuSans-Bold-6c" transform="translate(926.171875 0)"/>
     <use xlink:href="#DejaVuSans-Bold-65" transform="translate(960.449219 0)"/>
     <use xlink:href="#DejaVuSans-Bold-29" transform="translate(1028.271484 0)"/>
     <use xlink:href="#DejaVuSans-Bold-20" transform="translate(1073.974609 0)"/>
     <use xlink:href="#DejaVuSans-Bold-48" transform="translate(1108.789062 0)"/>
     <use xlink:href="#DejaVuSans-Bold-69" transform="translate(1192.480469 0)"/>
     <use xlink:href="#DejaVuSans-Bold-73" transform="translate(1226.757812 0)"/>
     <use xlink:href="#DejaVuSans-Bold-74" transform="translate(1286.279297 0)"/>
     <use xlink:href="#DejaVuSans-Bold-6f" transform="translate(1334.082031 0)"/>
     <use xlink:href="#DejaVuSans-Bold-67" transform="translate(1402.783203 0)"/>
     <use xlink:href="#DejaVuSans-Bold-72" transform="translate(1474.365234 0)"/>
     <use xlink:href="#DejaVuSans-Bold-61" transform="translate(1523.681641 0)"/>
     <use xlink:href="#DejaVuSans-Bold-6d" transform="translate(1591.162109 0)"/>
     <use xlink:href="#DejaVuSans-Bold-20" transform="translate(1695.361328 0)"/>
     <use xlink:href="#DejaVuSans-Bold-23" transform="translate(1730.175781 0)"/>
     <use xlink:href="#DejaVuSans-Bold-33" transform="translate(1813.964844 0)"/>
    </g>
    <!-- μ=1.00, σ=1.00 -->
    <g transform="translate(332.460625 64.08) scale(0.28 -0.28)">
     <defs>
      <path id="DejaVuSans-Bold-3bc" d="M 544 -1338 
L 544 3500 
L 1672 3500 
L 1672 1466 
Q 1672 1103 1828 926 
Q 1984 750 2303 750 
Q 2625 750 2781 926 
Q 2938 1103 2938 1466 
L 2938 3500 
L 4063 3500 
L 4063 1159 
Q 4063 938 4114 850 
Q 4166 763 4288 763 
Q 4344 763 4395 778 
Q 4447 794 4506 831 
L 4506 50 
Q 4341 -22 4195 -56 
Q 4050 -91 3909 -91 
Q 3631 -91 3454 26 
Q 3278 144 3169 403 
Q 3022 156 2811 32 
Q 2600 -91 2322 -91 
Q 2091 -91 1928 -17 
Q 1766 56 1672 206 
L 1672 -1338 
L 544 -1338 
z
" transform="scale(0.015625)"/>
      <path id="DejaVuSans-Bold-3d" d="M 678 3084 
L 4684 3084 
L 4684 2350 
L 678 2350 
L 678 3084 
z
M 678 1663 
L 4684 1663 
L 4684 922 
L 678 922 
L 678 1663 
z
" transform="scale(0.015625)"/>
      <path id="DejaVuSans-Bold-31" d="M 750 831 
L 1813 831 
L 1813 3847 
L 722 3622 
L 722 4441 
L 1806 4666 
L 2950 4666 
L 2950 831 
L 4013 831 
L 4013 0 
L 750 0 
L 750 831 
z
" transform="scale(0.015625)"/>
      <path id="DejaVuSans-Bold-2e" d="M 653 1209 
L 1778 1209 
L 1778 0 
L 653 0 
L 653 1209 
z
" transform="scale(0.015625)"/>
      <path id="DejaVuSans-Bold-30" d="M 2944 2338 
Q 2944 3213 2780 3570 
Q 2616 3928 2228 3928 
Q 1841 3928 1675 3570 
Q 1509 3213 1509 2338 
Q 1509 1453 1675 1090 
Q 1841 728 2228 728 
Q 2613 728 2778 1090 
Q 2944 1453 2944 2338 
z
M 4147 2328 
Q 4147 1169 3647 539 
Q 3147 -91 2228 -91 
Q 1306 -91 806 539 
Q 306 1169 306 2328 
Q 306 3491 806 4120 
Q 1306 4750 2228 4750 
Q 3147 4750 3647 4120 
Q 4147 3491 4147 2328 
z
" transform="scale(0.015625)"/>
      <path id="DejaVuSans-Bold-2c" d="M 653 1209 
L 1778 1209 
L 1778 256 
L 1006 -909 
L 341 -909 
L 653 256 
L 653 1209 
z
" transform="scale(0.015625)"/>
      <path id="DejaVuSans-Bold-3c3" d="M 2200 2784 
Q 1831 2784 1636 2517 
Q 1441 2250 1441 1747 
Q 1441 1244 1636 976 
Q 1831 709 2200 709 
Q 2569 709 2762 976 
Q 2956 1244 2956 1747 
Q 2956 2250 2762 2517 
Q 2569 2784 2200 2784 
z
M 4650 2700 
L 3916 2700 
Q 4122 2291 4122 1747 
Q 4122 884 3614 396 
Q 3106 -91 2203 -91 
Q 1297 -91 786 396 
Q 275 884 275 1747 
Q 275 2609 788 3097 
Q 1209 3500 2203 3500 
L 4650 3500 
L 4650 2700 
z
" transform="scale(0.015625)"/>
     </defs>
     <use xlink:href="#DejaVuSans-Bold-3bc"/>
     <use xlink:href="#DejaVuSans-Bold-3d" transform="translate(73.583984 0)"/>
     <use xlink:href="#DejaVuSans-Bold-31" transform="translate(157.373047 0)"/>
     <use xlink:href="#DejaVuSans-Bold-2e" transform="translate(226.953125 0)"/>
     <use xlink:href="#DejaVuSans-Bold-30" transform="translate(264.941406 0)"/>
     <use xlink:href="#DejaVuSans-Bold-30" transform="translate(334.521484 0)"/>
     <use xlink:href="#DejaVuSans-Bold-2c" transform="translate(404.101562 0)"/>
     <use xlink:href="#DejaVuSans-Bold-20" transform="translate(442.089844 0)"/>
     <use xlink:href="#DejaVuSans-Bold-3c3" transform="translate(476.904297 0)"/>
     <use xlink:href="#DejaVuSans-Bold-3d" transform="translate(554.785156 0)"/>
     <use xlink:href="#DejaVuSans-Bold-31" transform="translate(638.574219 0)"/>
     <use xlink:href="#DejaVuSans-Bold-2e" transform="translate(708.154297 0)"/>
     <use xlink:href="#DejaVuSans-Bold-30" transform="translate(746.142578 0)"/>
     <use xlink:href="#DejaVuSans-Bold-30" transform="translate(815.722656 0)"/>
========
     </defs>
     <use xlink:href="#DejaVuSans-Bold-44"/>
     <use xlink:href="#DejaVuSans-Bold-65" x="83.007812"/>
     <use xlink:href="#DejaVuSans-Bold-6d" x="150.830078"/>
     <use xlink:href="#DejaVuSans-Bold-6f" x="255.029297"/>
     <use xlink:href="#DejaVuSans-Bold-20" x="323.730469"/>
     <use xlink:href="#DejaVuSans-Bold-28" x="358.544922"/>
     <use xlink:href="#DejaVuSans-Bold-43" x="404.248047"/>
     <use xlink:href="#DejaVuSans-Bold-68" x="477.636719"/>
     <use xlink:href="#DejaVuSans-Bold-6f" x="548.828125"/>
     <use xlink:href="#DejaVuSans-Bold-6f" x="617.529297"/>
     <use xlink:href="#DejaVuSans-Bold-73" x="686.230469"/>
     <use xlink:href="#DejaVuSans-Bold-65" x="745.751953"/>
     <use xlink:href="#DejaVuSans-Bold-20" x="813.574219"/>
     <use xlink:href="#DejaVuSans-Bold-66" x="848.388672"/>
     <use xlink:href="#DejaVuSans-Bold-69" x="891.894531"/>
     <use xlink:href="#DejaVuSans-Bold-6c" x="926.171875"/>
     <use xlink:href="#DejaVuSans-Bold-65" x="960.449219"/>
     <use xlink:href="#DejaVuSans-Bold-29" x="1028.271484"/>
     <use xlink:href="#DejaVuSans-Bold-20" x="1073.974609"/>
     <use xlink:href="#DejaVuSans-Bold-48" x="1108.789062"/>
     <use xlink:href="#DejaVuSans-Bold-69" x="1192.480469"/>
     <use xlink:href="#DejaVuSans-Bold-73" x="1226.757812"/>
     <use xlink:href="#DejaVuSans-Bold-74" x="1286.279297"/>
     <use xlink:href="#DejaVuSans-Bold-6f" x="1334.082031"/>
     <use xlink:href="#DejaVuSans-Bold-67" x="1402.783203"/>
     <use xlink:href="#DejaVuSans-Bold-72" x="1474.365234"/>
     <use xlink:href="#DejaVuSans-Bold-61" x="1523.681641"/>
     <use xlink:href="#DejaVuSans-Bold-6d" x="1591.162109"/>
>>>>>>>> 5baa6be6f14571bc06693767a5c4a170f787ac65:python/interface/SimulatorTool/plots/demo_histogram.svg
    </g>
   </g>
  </g>
 </g>
 <defs>
<<<<<<<< HEAD:python/interface/SimulatorTool/plots/demo_histogram_3.svg
  <clipPath id="p6080a42803">
   <rect x="59.6" y="70.08" width="793.6" height="439.48"/>
========
  <clipPath id="p4939377da6">
   <rect x="59.6" y="38.4" width="793.6" height="471.16"/>
>>>>>>>> 5baa6be6f14571bc06693767a5c4a170f787ac65:python/interface/SimulatorTool/plots/demo_histogram.svg
  </clipPath>
 </defs>
</svg>
