<?xml version="1.0" encoding="utf-8" standalone="no"?>
<!DOCTYPE svg PUBLIC "-//W3C//DTD SVG 1.1//EN"
  "http://www.w3.org/Graphics/SVG/1.1/DTD/svg11.dtd">
<svg xmlns:xlink="http://www.w3.org/1999/xlink" width="864pt" height="576pt" viewBox="0 0 864 576" xmlns="http://www.w3.org/2000/svg" version="1.1">
 <metadata>
  <rdf:RDF xmlns:dc="http://purl.org/dc/elements/1.1/" xmlns:cc="http://creativecommons.org/ns#" xmlns:rdf="http://www.w3.org/1999/02/22-rdf-syntax-ns#">
   <cc:Work>
    <dc:type rdf:resource="http://purl.org/dc/dcmitype/StillImage"/>
    <dc:date>2025-07-13T20:04:16.904758</dc:date>
    <dc:format>image/svg+xml</dc:format>
    <dc:creator>
     <cc:Agent>
      <dc:title>Matplotlib v3.9.2, https://matplotlib.org/</dc:title>
     </cc:Agent>
    </dc:creator>
   </cc:Work>
  </rdf:RDF>
 </metadata>
 <defs>
  <style type="text/css">*{stroke-linejoin: round; stroke-linecap: butt}</style>
 </defs>
 <g id="figure_1">
  <g id="patch_1">
   <path d="M 0 576 
L 864 576 
L 864 0 
L 0 0 
z
" style="fill: #ffffff"/>
  </g>
  <g id="axes_1">
   <g id="patch_2">
    <path d="M 73.55 509.56 
L 853.2 509.56 
L 853.2 38.4 
L 73.55 38.4 
z
" style="fill: #ffffff"/>
   </g>
   <g id="patch_3">
    <path d="M 108.988636 509.56 
L 123.164091 509.56 
L 123.164091 501.687652 
L 108.988636 501.687652 
z
" clip-path="url(#p113b096667)" style="fill: #1f77b4; fill-opacity: 0.5; stroke: #000000; stroke-width: 2; stroke-linejoin: miter"/>
   </g>
   <g id="patch_4">
    <path d="M 123.164091 509.56 
L 137.339545 509.56 
L 137.339545 509.56 
L 123.164091 509.56 
z
" clip-path="url(#p113b096667)" style="fill: #1f77b4; fill-opacity: 0.5; stroke: #000000; stroke-width: 2; stroke-linejoin: miter"/>
   </g>
   <g id="patch_5">
    <path d="M 137.339545 509.56 
L 151.515 509.56 
L 151.515 501.687652 
L 137.339545 501.687652 
z
" clip-path="url(#p113b096667)" style="fill: #1f77b4; fill-opacity: 0.5; stroke: #000000; stroke-width: 2; stroke-linejoin: miter"/>
   </g>
   <g id="patch_6">
    <path d="M 151.515 509.56 
L 165.690455 509.56 
L 165.690455 485.942957 
L 151.515 485.942957 
z
" clip-path="url(#p113b096667)" style="fill: #1f77b4; fill-opacity: 0.5; stroke: #000000; stroke-width: 2; stroke-linejoin: miter"/>
   </g>
   <g id="patch_7">
    <path d="M 165.690455 509.56 
L 179.865909 509.56 
L 179.865909 485.942957 
L 165.690455 485.942957 
z
" clip-path="url(#p113b096667)" style="fill: #1f77b4; fill-opacity: 0.5; stroke: #000000; stroke-width: 2; stroke-linejoin: miter"/>
   </g>
   <g id="patch_8">
    <path d="M 179.865909 509.56 
L 194.041364 509.56 
L 194.041364 399.347135 
L 179.865909 399.347135 
z
" clip-path="url(#p113b096667)" style="fill: #1f77b4; fill-opacity: 0.5; stroke: #000000; stroke-width: 2; stroke-linejoin: miter"/>
   </g>
   <g id="patch_9">
    <path d="M 194.041364 509.56 
L 208.216818 509.56 
L 208.216818 352.113049 
L 194.041364 352.113049 
z
" clip-path="url(#p113b096667)" style="fill: #1f77b4; fill-opacity: 0.5; stroke: #000000; stroke-width: 2; stroke-linejoin: miter"/>
   </g>
   <g id="patch_10">
    <path d="M 208.216818 509.56 
L 222.392273 509.56 
L 222.392273 226.155489 
L 208.216818 226.155489 
z
" clip-path="url(#p113b096667)" style="fill: #1f77b4; fill-opacity: 0.5; stroke: #000000; stroke-width: 2; stroke-linejoin: miter"/>
   </g>
   <g id="patch_11">
    <path d="M 222.392273 509.56 
L 236.567727 509.56 
L 236.567727 210.410794 
L 222.392273 210.410794 
z
" clip-path="url(#p113b096667)" style="fill: #1f77b4; fill-opacity: 0.5; stroke: #000000; stroke-width: 2; stroke-linejoin: miter"/>
   </g>
   <g id="patch_12">
    <path d="M 236.567727 509.56 
L 250.743182 509.56 
L 250.743182 115.942623 
L 236.567727 115.942623 
z
" clip-path="url(#p113b096667)" style="fill: #1f77b4; fill-opacity: 0.5; stroke: #000000; stroke-width: 2; stroke-linejoin: miter"/>
   </g>
   <g id="patch_13">
    <path d="M 250.743182 509.56 
L 264.918636 509.56 
L 264.918636 76.580886 
L 250.743182 76.580886 
z
" clip-path="url(#p113b096667)" style="fill: #1f77b4; fill-opacity: 0.5; stroke: #000000; stroke-width: 2; stroke-linejoin: miter"/>
   </g>
   <g id="patch_14">
    <path d="M 264.918636 509.56 
L 279.094091 509.56 
L 279.094091 320.623659 
L 264.918636 320.623659 
z
" clip-path="url(#p113b096667)" style="fill: #1f77b4; fill-opacity: 0.5; stroke: #000000; stroke-width: 2; stroke-linejoin: miter"/>
   </g>
   <g id="patch_15">
    <path d="M 279.094091 509.56 
L 293.269545 509.56 
L 293.269545 336.368354 
L 279.094091 336.368354 
z
" clip-path="url(#p113b096667)" style="fill: #1f77b4; fill-opacity: 0.5; stroke: #000000; stroke-width: 2; stroke-linejoin: miter"/>
   </g>
   <g id="patch_16">
    <path d="M 293.269545 509.56 
L 307.445 509.56 
L 307.445 399.347135 
L 293.269545 399.347135 
z
" clip-path="url(#p113b096667)" style="fill: #1f77b4; fill-opacity: 0.5; stroke: #000000; stroke-width: 2; stroke-linejoin: miter"/>
   </g>
   <g id="patch_17">
    <path d="M 307.445 509.56 
L 321.620455 509.56 
L 321.620455 352.113049 
L 307.445 352.113049 
z
" clip-path="url(#p113b096667)" style="fill: #1f77b4; fill-opacity: 0.5; stroke: #000000; stroke-width: 2; stroke-linejoin: miter"/>
   </g>
   <g id="patch_18">
    <path d="M 321.620455 509.56 
L 335.795909 509.56 
L 335.795909 312.751312 
L 321.620455 312.751312 
z
" clip-path="url(#p113b096667)" style="fill: #1f77b4; fill-opacity: 0.5; stroke: #000000; stroke-width: 2; stroke-linejoin: miter"/>
   </g>
   <g id="patch_19">
    <path d="M 335.795909 509.56 
L 349.971364 509.56 
L 349.971364 273.389574 
L 335.795909 273.389574 
z
" clip-path="url(#p113b096667)" style="fill: #1f77b4; fill-opacity: 0.5; stroke: #000000; stroke-width: 2; stroke-linejoin: miter"/>
   </g>
   <g id="patch_20">
    <path d="M 349.971364 509.56 
L 364.146818 509.56 
L 364.146818 108.070276 
L 349.971364 108.070276 
z
" clip-path="url(#p113b096667)" style="fill: #1f77b4; fill-opacity: 0.5; stroke: #000000; stroke-width: 2; stroke-linejoin: miter"/>
   </g>
   <g id="patch_21">
    <path d="M 364.146818 509.56 
L 378.322273 509.56 
L 378.322273 100.197928 
L 364.146818 100.197928 
z
" clip-path="url(#p113b096667)" style="fill: #1f77b4; fill-opacity: 0.5; stroke: #000000; stroke-width: 2; stroke-linejoin: miter"/>
   </g>
   <g id="patch_22">
    <path d="M 378.322273 509.56 
L 392.497727 509.56 
L 392.497727 60.83619 
L 378.322273 60.83619 
z
" clip-path="url(#p113b096667)" style="fill: #1f77b4; fill-opacity: 0.5; stroke: #000000; stroke-width: 2; stroke-linejoin: miter"/>
   </g>
   <g id="patch_23">
    <path d="M 392.497727 509.56 
L 406.673182 509.56 
L 406.673182 155.304361 
L 392.497727 155.304361 
z
" clip-path="url(#p113b096667)" style="fill: #1f77b4; fill-opacity: 0.5; stroke: #000000; stroke-width: 2; stroke-linejoin: miter"/>
   </g>
   <g id="patch_24">
    <path d="M 406.673182 509.56 
L 420.848636 509.56 
L 420.848636 202.538446 
L 406.673182 202.538446 
z
" clip-path="url(#p113b096667)" style="fill: #1f77b4; fill-opacity: 0.5; stroke: #000000; stroke-width: 2; stroke-linejoin: miter"/>
   </g>
   <g id="patch_25">
    <path d="M 420.848636 509.56 
L 435.024091 509.56 
L 435.024091 297.006617 
L 420.848636 297.006617 
z
" clip-path="url(#p113b096667)" style="fill: #1f77b4; fill-opacity: 0.5; stroke: #000000; stroke-width: 2; stroke-linejoin: miter"/>
   </g>
   <g id="patch_26">
    <path d="M 435.024091 509.56 
L 449.199545 509.56 
L 449.199545 359.985397 
L 435.024091 359.985397 
z
" clip-path="url(#p113b096667)" style="fill: #1f77b4; fill-opacity: 0.5; stroke: #000000; stroke-width: 2; stroke-linejoin: miter"/>
   </g>
   <g id="patch_27">
    <path d="M 449.199545 509.56 
L 463.375 509.56 
L 463.375 375.730092 
L 449.199545 375.730092 
z
" clip-path="url(#p113b096667)" style="fill: #1f77b4; fill-opacity: 0.5; stroke: #000000; stroke-width: 2; stroke-linejoin: miter"/>
   </g>
   <g id="patch_28">
    <path d="M 463.375 509.56 
L 477.550455 509.56 
L 477.550455 359.985397 
L 463.375 359.985397 
z
" clip-path="url(#p113b096667)" style="fill: #1f77b4; fill-opacity: 0.5; stroke: #000000; stroke-width: 2; stroke-linejoin: miter"/>
   </g>
   <g id="patch_29">
    <path d="M 477.550455 509.56 
L 491.725909 509.56 
L 491.725909 391.474787 
L 477.550455 391.474787 
z
" clip-path="url(#p113b096667)" style="fill: #1f77b4; fill-opacity: 0.5; stroke: #000000; stroke-width: 2; stroke-linejoin: miter"/>
   </g>
   <g id="patch_30">
    <path d="M 491.725909 509.56 
L 505.901364 509.56 
L 505.901364 328.496007 
L 491.725909 328.496007 
z
" clip-path="url(#p113b096667)" style="fill: #1f77b4; fill-opacity: 0.5; stroke: #000000; stroke-width: 2; stroke-linejoin: miter"/>
   </g>
   <g id="patch_31">
    <path d="M 505.901364 509.56 
L 520.076818 509.56 
L 520.076818 297.006617 
L 505.901364 297.006617 
z
" clip-path="url(#p113b096667)" style="fill: #1f77b4; fill-opacity: 0.5; stroke: #000000; stroke-width: 2; stroke-linejoin: miter"/>
   </g>
   <g id="patch_32">
    <path d="M 520.076818 509.56 
L 534.252273 509.56 
L 534.252273 344.240702 
L 520.076818 344.240702 
z
" clip-path="url(#p113b096667)" style="fill: #1f77b4; fill-opacity: 0.5; stroke: #000000; stroke-width: 2; stroke-linejoin: miter"/>
   </g>
   <g id="patch_33">
    <path d="M 534.252273 509.56 
L 548.427727 509.56 
L 548.427727 289.134269 
L 534.252273 289.134269 
z
" clip-path="url(#p113b096667)" style="fill: #1f77b4; fill-opacity: 0.5; stroke: #000000; stroke-width: 2; stroke-linejoin: miter"/>
   </g>
   <g id="patch_34">
    <path d="M 548.427727 509.56 
L 562.603182 509.56 
L 562.603182 367.857744 
L 548.427727 367.857744 
z
" clip-path="url(#p113b096667)" style="fill: #1f77b4; fill-opacity: 0.5; stroke: #000000; stroke-width: 2; stroke-linejoin: miter"/>
   </g>
   <g id="patch_35">
    <path d="M 562.603182 509.56 
L 576.778636 509.56 
L 576.778636 312.751312 
L 562.603182 312.751312 
z
" clip-path="url(#p113b096667)" style="fill: #1f77b4; fill-opacity: 0.5; stroke: #000000; stroke-width: 2; stroke-linejoin: miter"/>
   </g>
   <g id="patch_36">
    <path d="M 576.778636 509.56 
L 590.954091 509.56 
L 590.954091 297.006617 
L 576.778636 297.006617 
z
" clip-path="url(#p113b096667)" style="fill: #1f77b4; fill-opacity: 0.5; stroke: #000000; stroke-width: 2; stroke-linejoin: miter"/>
   </g>
   <g id="patch_37">
    <path d="M 590.954091 509.56 
L 605.129545 509.56 
L 605.129545 320.623659 
L 590.954091 320.623659 
z
" clip-path="url(#p113b096667)" style="fill: #1f77b4; fill-opacity: 0.5; stroke: #000000; stroke-width: 2; stroke-linejoin: miter"/>
   </g>
   <g id="patch_38">
    <path d="M 605.129545 509.56 
L 619.305 509.56 
L 619.305 359.985397 
L 605.129545 359.985397 
z
" clip-path="url(#p113b096667)" style="fill: #1f77b4; fill-opacity: 0.5; stroke: #000000; stroke-width: 2; stroke-linejoin: miter"/>
   </g>
   <g id="patch_39">
    <path d="M 619.305 509.56 
L 633.480455 509.56 
L 633.480455 391.474787 
L 619.305 391.474787 
z
" clip-path="url(#p113b096667)" style="fill: #1f77b4; fill-opacity: 0.5; stroke: #000000; stroke-width: 2; stroke-linejoin: miter"/>
   </g>
   <g id="patch_40">
    <path d="M 633.480455 509.56 
L 647.655909 509.56 
L 647.655909 399.347135 
L 633.480455 399.347135 
z
" clip-path="url(#p113b096667)" style="fill: #1f77b4; fill-opacity: 0.5; stroke: #000000; stroke-width: 2; stroke-linejoin: miter"/>
   </g>
   <g id="patch_41">
    <path d="M 647.655909 509.56 
L 661.831364 509.56 
L 661.831364 446.58122 
L 647.655909 446.58122 
z
" clip-path="url(#p113b096667)" style="fill: #1f77b4; fill-opacity: 0.5; stroke: #000000; stroke-width: 2; stroke-linejoin: miter"/>
   </g>
   <g id="patch_42">
    <path d="M 661.831364 509.56 
L 676.006818 509.56 
L 676.006818 470.198262 
L 661.831364 470.198262 
z
" clip-path="url(#p113b096667)" style="fill: #1f77b4; fill-opacity: 0.5; stroke: #000000; stroke-width: 2; stroke-linejoin: miter"/>
   </g>
   <g id="patch_43">
    <path d="M 676.006818 509.56 
L 690.182273 509.56 
L 690.182273 422.964177 
L 676.006818 422.964177 
z
" clip-path="url(#p113b096667)" style="fill: #1f77b4; fill-opacity: 0.5; stroke: #000000; stroke-width: 2; stroke-linejoin: miter"/>
   </g>
   <g id="patch_44">
    <path d="M 690.182273 509.56 
L 704.357727 509.56 
L 704.357727 454.453567 
L 690.182273 454.453567 
z
" clip-path="url(#p113b096667)" style="fill: #1f77b4; fill-opacity: 0.5; stroke: #000000; stroke-width: 2; stroke-linejoin: miter"/>
   </g>
   <g id="patch_45">
    <path d="M 704.357727 509.56 
L 718.533182 509.56 
L 718.533182 399.347135 
L 704.357727 399.347135 
z
" clip-path="url(#p113b096667)" style="fill: #1f77b4; fill-opacity: 0.5; stroke: #000000; stroke-width: 2; stroke-linejoin: miter"/>
   </g>
   <g id="patch_46">
    <path d="M 718.533182 509.56 
L 732.708636 509.56 
L 732.708636 470.198262 
L 718.533182 470.198262 
z
" clip-path="url(#p113b096667)" style="fill: #1f77b4; fill-opacity: 0.5; stroke: #000000; stroke-width: 2; stroke-linejoin: miter"/>
   </g>
   <g id="patch_47">
    <path d="M 732.708636 509.56 
L 746.884091 509.56 
L 746.884091 485.942957 
L 732.708636 485.942957 
z
" clip-path="url(#p113b096667)" style="fill: #1f77b4; fill-opacity: 0.5; stroke: #000000; stroke-width: 2; stroke-linejoin: miter"/>
   </g>
   <g id="patch_48">
    <path d="M 746.884091 509.56 
L 761.059545 509.56 
L 761.059545 493.815305 
L 746.884091 493.815305 
z
" clip-path="url(#p113b096667)" style="fill: #1f77b4; fill-opacity: 0.5; stroke: #000000; stroke-width: 2; stroke-linejoin: miter"/>
   </g>
   <g id="patch_49">
    <path d="M 761.059545 509.56 
L 775.235 509.56 
L 775.235 493.815305 
L 761.059545 493.815305 
z
" clip-path="url(#p113b096667)" style="fill: #1f77b4; fill-opacity: 0.5; stroke: #000000; stroke-width: 2; stroke-linejoin: miter"/>
   </g>
   <g id="patch_50">
    <path d="M 775.235 509.56 
L 789.410455 509.56 
L 789.410455 501.687652 
L 775.235 501.687652 
z
" clip-path="url(#p113b096667)" style="fill: #1f77b4; fill-opacity: 0.5; stroke: #000000; stroke-width: 2; stroke-linejoin: miter"/>
   </g>
   <g id="patch_51">
    <path d="M 789.410455 509.56 
L 803.585909 509.56 
L 803.585909 493.815305 
L 789.410455 493.815305 
z
" clip-path="url(#p113b096667)" style="fill: #1f77b4; fill-opacity: 0.5; stroke: #000000; stroke-width: 2; stroke-linejoin: miter"/>
   </g>
   <g id="patch_52">
    <path d="M 803.585909 509.56 
L 817.761364 509.56 
L 817.761364 493.815305 
L 803.585909 493.815305 
z
" clip-path="url(#p113b096667)" style="fill: #1f77b4; fill-opacity: 0.5; stroke: #000000; stroke-width: 2; stroke-linejoin: miter"/>
   </g>
   <g id="matplotlib.axis_1">
    <g id="xtick_1">
     <g id="line2d_1">
      <defs>
       <path id="m9f77f69f4b" d="M 0 0 
L 0 3.5 
" style="stroke: #000000; stroke-width: 0.8"/>
      </defs>
      <g>
       <use xlink:href="#m9f77f69f4b" x="206.654971" y="509.56" style="stroke: #000000; stroke-width: 0.8"/>
      </g>
     </g>
     <g id="text_1">
      <!-- 0 -->
      <g transform="translate(199.656221 533.276562) scale(0.22 -0.22)">
       <defs>
        <path id="DejaVuSans-30" d="M 2034 4250 
Q 1547 4250 1301 3770 
Q 1056 3291 1056 2328 
Q 1056 1369 1301 889 
Q 1547 409 2034 409 
Q 2525 409 2770 889 
Q 3016 1369 3016 2328 
Q 3016 3291 2770 3770 
Q 2525 4250 2034 4250 
z
M 2034 4750 
Q 2819 4750 3233 4129 
Q 3647 3509 3647 2328 
Q 3647 1150 3233 529 
Q 2819 -91 2034 -91 
Q 1250 -91 836 529 
Q 422 1150 422 2328 
Q 422 3509 836 4129 
Q 1250 4750 2034 4750 
z
" transform="scale(0.015625)"/>
       </defs>
       <use xlink:href="#DejaVuSans-30"/>
      </g>
     </g>
    </g>
    <g id="xtick_2">
     <g id="line2d_2">
      <g>
       <use xlink:href="#m9f77f69f4b" x="373.241743" y="509.56" style="stroke: #000000; stroke-width: 0.8"/>
      </g>
     </g>
     <g id="text_2">
      <!-- 5 -->
      <g transform="translate(366.242993 533.276562) scale(0.22 -0.22)">
       <defs>
        <path id="DejaVuSans-35" d="M 691 4666 
L 3169 4666 
L 3169 4134 
L 1269 4134 
L 1269 2991 
Q 1406 3038 1543 3061 
Q 1681 3084 1819 3084 
Q 2600 3084 3056 2656 
Q 3513 2228 3513 1497 
Q 3513 744 3044 326 
Q 2575 -91 1722 -91 
Q 1428 -91 1123 -41 
Q 819 9 494 109 
L 494 744 
Q 775 591 1075 516 
Q 1375 441 1709 441 
Q 2250 441 2565 725 
Q 2881 1009 2881 1497 
Q 2881 1984 2565 2268 
Q 2250 2553 1709 2553 
Q 1456 2553 1204 2497 
Q 953 2441 691 2322 
L 691 4666 
z
" transform="scale(0.015625)"/>
       </defs>
       <use xlink:href="#DejaVuSans-35"/>
      </g>
     </g>
    </g>
    <g id="xtick_3">
     <g id="line2d_3">
      <g>
       <use xlink:href="#m9f77f69f4b" x="539.828516" y="509.56" style="stroke: #000000; stroke-width: 0.8"/>
      </g>
     </g>
     <g id="text_3">
      <!-- 10 -->
      <g transform="translate(525.831016 533.276562) scale(0.22 -0.22)">
       <defs>
        <path id="DejaVuSans-31" d="M 794 531 
L 1825 531 
L 1825 4091 
L 703 3866 
L 703 4441 
L 1819 4666 
L 2450 4666 
L 2450 531 
L 3481 531 
L 3481 0 
L 794 0 
L 794 531 
z
" transform="scale(0.015625)"/>
       </defs>
       <use xlink:href="#DejaVuSans-31"/>
       <use xlink:href="#DejaVuSans-30" x="63.623047"/>
      </g>
     </g>
    </g>
    <g id="xtick_4">
     <g id="line2d_4">
      <g>
       <use xlink:href="#m9f77f69f4b" x="706.415288" y="509.56" style="stroke: #000000; stroke-width: 0.8"/>
      </g>
     </g>
     <g id="text_4">
      <!-- 15 -->
      <g transform="translate(692.417788 533.276562) scale(0.22 -0.22)">
       <use xlink:href="#DejaVuSans-31"/>
       <use xlink:href="#DejaVuSans-35" x="63.623047"/>
      </g>
     </g>
    </g>
    <g id="text_5">
     <!-- Value -->
     <g transform="translate(425.854375 560.088125) scale(0.24 -0.24)">
      <defs>
       <path id="DejaVuSans-Bold-56" d="M 31 4666 
L 1241 4666 
L 2478 1222 
L 3713 4666 
L 4922 4666 
L 3194 0 
L 1759 0 
L 31 4666 
z
" transform="scale(0.015625)"/>
       <path id="DejaVuSans-Bold-61" d="M 2106 1575 
Q 1756 1575 1579 1456 
Q 1403 1338 1403 1106 
Q 1403 894 1545 773 
Q 1688 653 1941 653 
Q 2256 653 2472 879 
Q 2688 1106 2688 1447 
L 2688 1575 
L 2106 1575 
z
M 3816 1997 
L 3816 0 
L 2688 0 
L 2688 519 
Q 2463 200 2181 54 
Q 1900 -91 1497 -91 
Q 953 -91 614 226 
Q 275 544 275 1050 
Q 275 1666 698 1953 
Q 1122 2241 2028 2241 
L 2688 2241 
L 2688 2328 
Q 2688 2594 2478 2717 
Q 2269 2841 1825 2841 
Q 1466 2841 1156 2769 
Q 847 2697 581 2553 
L 581 3406 
Q 941 3494 1303 3539 
Q 1666 3584 2028 3584 
Q 2975 3584 3395 3211 
Q 3816 2838 3816 1997 
z
" transform="scale(0.015625)"/>
       <path id="DejaVuSans-Bold-6c" d="M 538 4863 
L 1656 4863 
L 1656 0 
L 538 0 
L 538 4863 
z
" transform="scale(0.015625)"/>
       <path id="DejaVuSans-Bold-75" d="M 500 1363 
L 500 3500 
L 1625 3500 
L 1625 3150 
Q 1625 2866 1622 2436 
Q 1619 2006 1619 1863 
Q 1619 1441 1641 1255 
Q 1663 1069 1716 984 
Q 1784 875 1895 815 
Q 2006 756 2150 756 
Q 2500 756 2700 1025 
Q 2900 1294 2900 1772 
L 2900 3500 
L 4019 3500 
L 4019 0 
L 2900 0 
L 2900 506 
Q 2647 200 2364 54 
Q 2081 -91 1741 -91 
Q 1134 -91 817 281 
Q 500 653 500 1363 
z
" transform="scale(0.015625)"/>
       <path id="DejaVuSans-Bold-65" d="M 4031 1759 
L 4031 1441 
L 1416 1441 
Q 1456 1047 1700 850 
Q 1944 653 2381 653 
Q 2734 653 3104 758 
Q 3475 863 3866 1075 
L 3866 213 
Q 3469 63 3072 -14 
Q 2675 -91 2278 -91 
Q 1328 -91 801 392 
Q 275 875 275 1747 
Q 275 2603 792 3093 
Q 1309 3584 2216 3584 
Q 3041 3584 3536 3087 
Q 4031 2591 4031 1759 
z
M 2881 2131 
Q 2881 2450 2695 2645 
Q 2509 2841 2209 2841 
Q 1884 2841 1681 2658 
Q 1478 2475 1428 2131 
L 2881 2131 
z
" transform="scale(0.015625)"/>
      </defs>
      <use xlink:href="#DejaVuSans-Bold-56"/>
      <use xlink:href="#DejaVuSans-Bold-61" x="71.892578"/>
      <use xlink:href="#DejaVuSans-Bold-6c" x="139.373047"/>
      <use xlink:href="#DejaVuSans-Bold-75" x="173.650391"/>
      <use xlink:href="#DejaVuSans-Bold-65" x="244.841797"/>
     </g>
    </g>
   </g>
   <g id="matplotlib.axis_2">
    <g id="ytick_1">
     <g id="line2d_5">
      <defs>
       <path id="mc1c435d49c" d="M 0 0 
L -3.5 0 
" style="stroke: #000000; stroke-width: 0.8"/>
      </defs>
      <g>
       <use xlink:href="#mc1c435d49c" x="73.55" y="509.56" style="stroke: #000000; stroke-width: 0.8"/>
      </g>
     </g>
     <g id="text_6">
      <!-- 0 -->
      <g transform="translate(52.5525 517.918281) scale(0.22 -0.22)">
       <use xlink:href="#DejaVuSans-30"/>
      </g>
     </g>
    </g>
    <g id="ytick_2">
     <g id="line2d_6">
      <g>
       <use xlink:href="#mc1c435d49c" x="73.55" y="430.836525" style="stroke: #000000; stroke-width: 0.8"/>
      </g>
     </g>
     <g id="text_7">
      <!-- 10 -->
      <g transform="translate(38.555 439.194806) scale(0.22 -0.22)">
       <use xlink:href="#DejaVuSans-31"/>
       <use xlink:href="#DejaVuSans-30" x="63.623047"/>
      </g>
     </g>
    </g>
    <g id="ytick_3">
     <g id="line2d_7">
      <g>
       <use xlink:href="#mc1c435d49c" x="73.55" y="352.113049" style="stroke: #000000; stroke-width: 0.8"/>
      </g>
     </g>
     <g id="text_8">
      <!-- 20 -->
      <g transform="translate(38.555 360.471331) scale(0.22 -0.22)">
       <defs>
        <path id="DejaVuSans-32" d="M 1228 531 
L 3431 531 
L 3431 0 
L 469 0 
L 469 531 
Q 828 903 1448 1529 
Q 2069 2156 2228 2338 
Q 2531 2678 2651 2914 
Q 2772 3150 2772 3378 
Q 2772 3750 2511 3984 
Q 2250 4219 1831 4219 
Q 1534 4219 1204 4116 
Q 875 4013 500 3803 
L 500 4441 
Q 881 4594 1212 4672 
Q 1544 4750 1819 4750 
Q 2544 4750 2975 4387 
Q 3406 4025 3406 3419 
Q 3406 3131 3298 2873 
Q 3191 2616 2906 2266 
Q 2828 2175 2409 1742 
Q 1991 1309 1228 531 
z
" transform="scale(0.015625)"/>
       </defs>
       <use xlink:href="#DejaVuSans-32"/>
       <use xlink:href="#DejaVuSans-30" x="63.623047"/>
      </g>
     </g>
    </g>
    <g id="ytick_4">
     <g id="line2d_8">
      <g>
       <use xlink:href="#mc1c435d49c" x="73.55" y="273.389574" style="stroke: #000000; stroke-width: 0.8"/>
      </g>
     </g>
     <g id="text_9">
      <!-- 30 -->
      <g transform="translate(38.555 281.747855) scale(0.22 -0.22)">
       <defs>
        <path id="DejaVuSans-33" d="M 2597 2516 
Q 3050 2419 3304 2112 
Q 3559 1806 3559 1356 
Q 3559 666 3084 287 
Q 2609 -91 1734 -91 
Q 1441 -91 1130 -33 
Q 819 25 488 141 
L 488 750 
Q 750 597 1062 519 
Q 1375 441 1716 441 
Q 2309 441 2620 675 
Q 2931 909 2931 1356 
Q 2931 1769 2642 2001 
Q 2353 2234 1838 2234 
L 1294 2234 
L 1294 2753 
L 1863 2753 
Q 2328 2753 2575 2939 
Q 2822 3125 2822 3475 
Q 2822 3834 2567 4026 
Q 2313 4219 1838 4219 
Q 1578 4219 1281 4162 
Q 984 4106 628 3988 
L 628 4550 
Q 988 4650 1302 4700 
Q 1616 4750 1894 4750 
Q 2613 4750 3031 4423 
Q 3450 4097 3450 3541 
Q 3450 3153 3228 2886 
Q 3006 2619 2597 2516 
z
" transform="scale(0.015625)"/>
       </defs>
       <use xlink:href="#DejaVuSans-33"/>
       <use xlink:href="#DejaVuSans-30" x="63.623047"/>
      </g>
     </g>
    </g>
    <g id="ytick_5">
     <g id="line2d_9">
      <g>
       <use xlink:href="#mc1c435d49c" x="73.55" y="194.666099" style="stroke: #000000; stroke-width: 0.8"/>
      </g>
     </g>
     <g id="text_10">
      <!-- 40 -->
      <g transform="translate(38.555 203.02438) scale(0.22 -0.22)">
       <defs>
        <path id="DejaVuSans-34" d="M 2419 4116 
L 825 1625 
L 2419 1625 
L 2419 4116 
z
M 2253 4666 
L 3047 4666 
L 3047 1625 
L 3713 1625 
L 3713 1100 
L 3047 1100 
L 3047 0 
L 2419 0 
L 2419 1100 
L 313 1100 
L 313 1709 
L 2253 4666 
z
" transform="scale(0.015625)"/>
       </defs>
       <use xlink:href="#DejaVuSans-34"/>
       <use xlink:href="#DejaVuSans-30" x="63.623047"/>
      </g>
     </g>
    </g>
    <g id="ytick_6">
     <g id="line2d_10">
      <g>
       <use xlink:href="#mc1c435d49c" x="73.55" y="115.942623" style="stroke: #000000; stroke-width: 0.8"/>
      </g>
     </g>
     <g id="text_11">
      <!-- 50 -->
      <g transform="translate(38.555 124.300904) scale(0.22 -0.22)">
       <use xlink:href="#DejaVuSans-35"/>
       <use xlink:href="#DejaVuSans-30" x="63.623047"/>
      </g>
     </g>
    </g>
    <g id="text_12">
     <!-- Count -->
     <g transform="translate(29.56375 313.851875) rotate(-90) scale(0.24 -0.24)">
      <defs>
       <path id="DejaVuSans-Bold-43" d="M 4288 256 
Q 3956 84 3597 -3 
Q 3238 -91 2847 -91 
Q 1681 -91 1000 561 
Q 319 1213 319 2328 
Q 319 3447 1000 4098 
Q 1681 4750 2847 4750 
Q 3238 4750 3597 4662 
Q 3956 4575 4288 4403 
L 4288 3438 
Q 3953 3666 3628 3772 
Q 3303 3878 2944 3878 
Q 2300 3878 1931 3465 
Q 1563 3053 1563 2328 
Q 1563 1606 1931 1193 
Q 2300 781 2944 781 
Q 3303 781 3628 887 
Q 3953 994 4288 1222 
L 4288 256 
z
" transform="scale(0.015625)"/>
       <path id="DejaVuSans-Bold-6f" d="M 2203 2784 
Q 1831 2784 1636 2517 
Q 1441 2250 1441 1747 
Q 1441 1244 1636 976 
Q 1831 709 2203 709 
Q 2569 709 2762 976 
Q 2956 1244 2956 1747 
Q 2956 2250 2762 2517 
Q 2569 2784 2203 2784 
z
M 2203 3584 
Q 3106 3584 3614 3096 
Q 4122 2609 4122 1747 
Q 4122 884 3614 396 
Q 3106 -91 2203 -91 
Q 1297 -91 786 396 
Q 275 884 275 1747 
Q 275 2609 786 3096 
Q 1297 3584 2203 3584 
z
" transform="scale(0.015625)"/>
       <path id="DejaVuSans-Bold-6e" d="M 4056 2131 
L 4056 0 
L 2931 0 
L 2931 347 
L 2931 1631 
Q 2931 2084 2911 2256 
Q 2891 2428 2841 2509 
Q 2775 2619 2662 2680 
Q 2550 2741 2406 2741 
Q 2056 2741 1856 2470 
Q 1656 2200 1656 1722 
L 1656 0 
L 538 0 
L 538 3500 
L 1656 3500 
L 1656 2988 
Q 1909 3294 2193 3439 
Q 2478 3584 2822 3584 
Q 3428 3584 3742 3212 
Q 4056 2841 4056 2131 
z
" transform="scale(0.015625)"/>
       <path id="DejaVuSans-Bold-74" d="M 1759 4494 
L 1759 3500 
L 2913 3500 
L 2913 2700 
L 1759 2700 
L 1759 1216 
Q 1759 972 1856 886 
Q 1953 800 2241 800 
L 2816 800 
L 2816 0 
L 1856 0 
Q 1194 0 917 276 
Q 641 553 641 1216 
L 641 2700 
L 84 2700 
L 84 3500 
L 641 3500 
L 641 4494 
L 1759 4494 
z
" transform="scale(0.015625)"/>
      </defs>
      <use xlink:href="#DejaVuSans-Bold-43"/>
      <use xlink:href="#DejaVuSans-Bold-6f" x="73.388672"/>
      <use xlink:href="#DejaVuSans-Bold-75" x="142.089844"/>
      <use xlink:href="#DejaVuSans-Bold-6e" x="213.28125"/>
      <use xlink:href="#DejaVuSans-Bold-74" x="284.472656"/>
     </g>
    </g>
   </g>
   <g id="line2d_11">
    <path d="M 108.988636 501.901117 
L 112.550308 500.485409 
L 116.11198 498.828055 
L 119.673652 496.897139 
L 123.235324 494.659256 
L 126.796996 492.080026 
L 130.358668 489.124723 
L 133.92034 485.758991 
L 137.482012 481.949659 
L 141.043684 477.665621 
L 144.605356 472.87877 
L 148.167028 467.56498 
L 151.7287 461.705091 
L 155.290372 455.285893 
L 158.852044 448.301078 
L 162.413716 440.752136 
L 165.975388 432.649174 
L 169.53706 424.011626 
L 173.098732 414.868843 
L 176.660404 405.260522 
L 180.222076 395.23696 
L 187.34542 374.198359 
L 205.15378 319.804005 
L 208.715452 309.439705 
L 212.277124 299.511302 
L 215.838796 290.132911 
L 219.400468 281.41433 
L 222.96214 273.458096 
L 226.523812 266.35647 
L 230.085484 260.18845 
L 233.647156 255.016926 
L 237.208828 250.886107 
L 240.7705 247.819339 
L 244.332172 245.817428 
L 247.893844 244.857587 
L 251.455516 244.893082 
L 255.017188 245.853634 
L 258.57886 247.646616 
L 262.140532 250.159017 
L 265.702204 253.260143 
L 269.263876 256.804961 
L 276.38722 264.597531 
L 279.948892 268.520285 
L 283.510564 272.24584 
L 287.072236 275.62122 
L 290.633908 278.505124 
L 294.19558 280.771771 
L 297.757252 282.314238 
L 301.318924 283.047185 
L 304.880596 282.908903 
L 308.442268 281.862653 
L 312.00394 279.897288 
L 315.565612 277.02717 
L 319.127284 273.291422 
L 322.688956 268.752574 
L 326.250628 263.494669 
L 329.8123 257.620887 
L 333.373972 251.250795 
L 340.497316 237.563194 
L 347.62066 223.594041 
L 351.182332 216.883193 
L 354.744004 210.553185 
L 358.305676 204.744308 
L 361.867348 199.586232 
L 365.42902 195.195117 
L 368.990692 191.671052 
L 372.552364 189.095914 
L 376.114036 187.531685 
L 379.675708 187.019275 
L 383.23738 187.577891 
L 386.799052 189.204971 
L 390.360724 191.876672 
L 393.922396 195.548911 
L 397.484068 200.158899 
L 401.04574 205.627138 
L 404.607412 211.859783 
L 408.169084 218.751299 
L 411.730756 226.187318 
L 415.292428 234.047599 
L 422.415772 250.548275 
L 433.100788 275.456163 
L 436.66246 283.363726 
L 440.224132 290.918037 
L 443.785804 298.042642 
L 447.347476 304.673659 
L 450.909148 310.760211 
L 454.47082 316.264544 
L 458.032492 321.161849 
L 461.594164 325.439818 
L 465.155836 329.097981 
L 468.717508 332.146836 
L 472.27918 334.606826 
L 475.840852 336.507172 
L 479.402524 337.884612 
L 482.964196 338.782065 
L 486.525868 339.247259 
L 490.08754 339.331346 
L 493.649212 339.087543 
L 497.210884 338.569838 
L 500.772556 337.831773 
L 504.334228 336.925355 
L 511.457572 334.802336 
L 522.142588 331.477087 
L 529.265932 329.561537 
L 532.827604 328.770469 
L 536.389276 328.115846 
L 539.950948 327.613029 
L 543.51262 327.275206 
L 547.074292 327.11399 
L 550.635964 327.139989 
L 554.197636 327.363276 
L 557.759308 327.79375 
L 561.32098 328.441348 
L 564.882652 329.316094 
L 568.444324 330.427985 
L 572.005996 331.786716 
L 575.567668 333.401254 
L 579.12934 335.279311 
L 582.691012 337.426726 
L 586.252684 339.846813 
L 589.814356 342.539725 
L 593.376028 345.501865 
L 596.9377 348.725401 
L 600.499372 352.197917 
L 604.061044 355.902235 
L 607.622716 359.816429 
L 614.74606 368.164481 
L 621.869404 376.984875 
L 636.116092 394.833918 
L 643.239436 403.265689 
L 646.801108 407.248178 
L 650.36278 411.045197 
L 653.924452 414.64166 
L 657.486124 418.028818 
L 661.047796 421.204388 
L 664.609468 424.172434 
L 668.17114 426.943008 
L 671.732812 429.531558 
L 675.294484 431.958134 
L 682.417828 436.422593 
L 689.541172 440.54903 
L 703.78786 448.61506 
L 710.911204 452.857821 
L 718.034548 457.326612 
L 728.719564 464.371019 
L 742.966252 473.822063 
L 750.089596 478.263355 
L 757.21294 482.356054 
L 764.336284 486.026982 
L 771.459628 489.24828 
L 778.582972 492.033798 
L 785.706316 494.428805 
L 792.82966 496.49628 
L 799.953004 498.303068 
L 807.076348 499.908558 
L 817.761364 502.032515 
L 817.761364 502.032515 
" clip-path="url(#p113b096667)" style="fill: none; stroke: #1f77b4; stroke-width: 1.5; stroke-linecap: square"/>
   </g>
   <g id="patch_53">
    <path d="M 73.55 509.56 
L 73.55 38.4 
" style="fill: none; stroke: #000000; stroke-width: 0.8; stroke-linejoin: miter; stroke-linecap: square"/>
   </g>
   <g id="patch_54">
    <path d="M 853.2 509.56 
L 853.2 38.4 
" style="fill: none; stroke: #000000; stroke-width: 0.8; stroke-linejoin: miter; stroke-linecap: square"/>
   </g>
   <g id="patch_55">
    <path d="M 73.55 509.56 
L 853.2 509.56 
" style="fill: none; stroke: #000000; stroke-width: 0.8; stroke-linejoin: miter; stroke-linecap: square"/>
   </g>
   <g id="patch_56">
    <path d="M 73.55 38.4 
L 853.2 38.4 
" style="fill: none; stroke: #000000; stroke-width: 0.8; stroke-linejoin: miter; stroke-linecap: square"/>
   </g>
   <g id="text_13">
    <!-- Gaussian Mixture Model Histogram (α = [0.3, 0.3, 0.4]) -->
    <g transform="translate(29.819063 32.358125) scale(0.28 -0.28)">
     <defs>
      <path id="DejaVuSans-Bold-47" d="M 4781 347 
Q 4331 128 3847 18 
Q 3363 -91 2847 -91 
Q 1681 -91 1000 561 
Q 319 1213 319 2328 
Q 319 3456 1012 4103 
Q 1706 4750 2913 4750 
Q 3378 4750 3804 4662 
Q 4231 4575 4609 4403 
L 4609 3438 
Q 4219 3659 3833 3768 
Q 3447 3878 3059 3878 
Q 2341 3878 1952 3476 
Q 1563 3075 1563 2328 
Q 1563 1588 1938 1184 
Q 2313 781 3003 781 
Q 3191 781 3352 804 
Q 3513 828 3641 878 
L 3641 1784 
L 2906 1784 
L 2906 2591 
L 4781 2591 
L 4781 347 
z
" transform="scale(0.015625)"/>
      <path id="DejaVuSans-Bold-73" d="M 3272 3391 
L 3272 2541 
Q 2913 2691 2578 2766 
Q 2244 2841 1947 2841 
Q 1628 2841 1473 2761 
Q 1319 2681 1319 2516 
Q 1319 2381 1436 2309 
Q 1553 2238 1856 2203 
L 2053 2175 
Q 2913 2066 3209 1816 
Q 3506 1566 3506 1031 
Q 3506 472 3093 190 
Q 2681 -91 1863 -91 
Q 1516 -91 1145 -36 
Q 775 19 384 128 
L 384 978 
Q 719 816 1070 734 
Q 1422 653 1784 653 
Q 2113 653 2278 743 
Q 2444 834 2444 1013 
Q 2444 1163 2330 1236 
Q 2216 1309 1875 1350 
L 1678 1375 
Q 931 1469 631 1722 
Q 331 1975 331 2491 
Q 331 3047 712 3315 
Q 1094 3584 1881 3584 
Q 2191 3584 2531 3537 
Q 2872 3491 3272 3391 
z
" transform="scale(0.015625)"/>
      <path id="DejaVuSans-Bold-69" d="M 538 3500 
L 1656 3500 
L 1656 0 
L 538 0 
L 538 3500 
z
M 538 4863 
L 1656 4863 
L 1656 3950 
L 538 3950 
L 538 4863 
z
" transform="scale(0.015625)"/>
      <path id="DejaVuSans-Bold-20" transform="scale(0.015625)"/>
      <path id="DejaVuSans-Bold-4d" d="M 588 4666 
L 2119 4666 
L 3181 2169 
L 4250 4666 
L 5778 4666 
L 5778 0 
L 4641 0 
L 4641 3413 
L 3566 897 
L 2803 897 
L 1728 3413 
L 1728 0 
L 588 0 
L 588 4666 
z
" transform="scale(0.015625)"/>
      <path id="DejaVuSans-Bold-78" d="M 1422 1791 
L 159 3500 
L 1344 3500 
L 2059 2463 
L 2784 3500 
L 3969 3500 
L 2706 1797 
L 4031 0 
L 2847 0 
L 2059 1106 
L 1281 0 
L 97 0 
L 1422 1791 
z
" transform="scale(0.015625)"/>
      <path id="DejaVuSans-Bold-72" d="M 3138 2547 
Q 2991 2616 2845 2648 
Q 2700 2681 2553 2681 
Q 2122 2681 1889 2404 
Q 1656 2128 1656 1613 
L 1656 0 
L 538 0 
L 538 3500 
L 1656 3500 
L 1656 2925 
Q 1872 3269 2151 3426 
Q 2431 3584 2822 3584 
Q 2878 3584 2943 3579 
Q 3009 3575 3134 3559 
L 3138 2547 
z
" transform="scale(0.015625)"/>
      <path id="DejaVuSans-Bold-64" d="M 2919 2988 
L 2919 4863 
L 4044 4863 
L 4044 0 
L 2919 0 
L 2919 506 
Q 2688 197 2409 53 
Q 2131 -91 1766 -91 
Q 1119 -91 703 423 
Q 288 938 288 1747 
Q 288 2556 703 3070 
Q 1119 3584 1766 3584 
Q 2128 3584 2408 3439 
Q 2688 3294 2919 2988 
z
M 2181 722 
Q 2541 722 2730 984 
Q 2919 1247 2919 1747 
Q 2919 2247 2730 2509 
Q 2541 2772 2181 2772 
Q 1825 2772 1636 2509 
Q 1447 2247 1447 1747 
Q 1447 1247 1636 984 
Q 1825 722 2181 722 
z
" transform="scale(0.015625)"/>
      <path id="DejaVuSans-Bold-48" d="M 588 4666 
L 1791 4666 
L 1791 2888 
L 3566 2888 
L 3566 4666 
L 4769 4666 
L 4769 0 
L 3566 0 
L 3566 1978 
L 1791 1978 
L 1791 0 
L 588 0 
L 588 4666 
z
" transform="scale(0.015625)"/>
      <path id="DejaVuSans-Bold-67" d="M 2919 594 
Q 2688 288 2409 144 
Q 2131 0 1766 0 
Q 1125 0 706 504 
Q 288 1009 288 1791 
Q 288 2575 706 3076 
Q 1125 3578 1766 3578 
Q 2131 3578 2409 3434 
Q 2688 3291 2919 2981 
L 2919 3500 
L 4044 3500 
L 4044 353 
Q 4044 -491 3511 -936 
Q 2978 -1381 1966 -1381 
Q 1638 -1381 1331 -1331 
Q 1025 -1281 716 -1178 
L 716 -306 
Q 1009 -475 1290 -558 
Q 1572 -641 1856 -641 
Q 2406 -641 2662 -400 
Q 2919 -159 2919 353 
L 2919 594 
z
M 2181 2772 
Q 1834 2772 1640 2515 
Q 1447 2259 1447 1791 
Q 1447 1309 1634 1061 
Q 1822 813 2181 813 
Q 2531 813 2725 1069 
Q 2919 1325 2919 1791 
Q 2919 2259 2725 2515 
Q 2531 2772 2181 2772 
z
" transform="scale(0.015625)"/>
      <path id="DejaVuSans-Bold-6d" d="M 3781 2919 
Q 3994 3244 4286 3414 
Q 4578 3584 4928 3584 
Q 5531 3584 5847 3212 
Q 6163 2841 6163 2131 
L 6163 0 
L 5038 0 
L 5038 1825 
Q 5041 1866 5042 1909 
Q 5044 1953 5044 2034 
Q 5044 2406 4934 2573 
Q 4825 2741 4581 2741 
Q 4263 2741 4089 2478 
Q 3916 2216 3909 1719 
L 3909 0 
L 2784 0 
L 2784 1825 
Q 2784 2406 2684 2573 
Q 2584 2741 2328 2741 
Q 2006 2741 1831 2477 
Q 1656 2213 1656 1722 
L 1656 0 
L 531 0 
L 531 3500 
L 1656 3500 
L 1656 2988 
Q 1863 3284 2130 3434 
Q 2397 3584 2719 3584 
Q 3081 3584 3359 3409 
Q 3638 3234 3781 2919 
z
" transform="scale(0.015625)"/>
      <path id="DejaVuSans-Bold-28" d="M 2413 -844 
L 1484 -844 
Q 1006 -72 778 623 
Q 550 1319 550 2003 
Q 550 2688 779 3389 
Q 1009 4091 1484 4856 
L 2413 4856 
Q 2013 4116 1813 3408 
Q 1613 2700 1613 2009 
Q 1613 1319 1811 609 
Q 2009 -100 2413 -844 
z
" transform="scale(0.015625)"/>
      <path id="DejaVuSans-Bold-3b1" d="M 3006 3163 
L 3119 3500 
L 4088 3500 
L 3484 1697 
L 3569 1219 
Q 3659 703 3872 703 
L 4128 703 
L 4128 0 
L 3809 0 
Q 3313 0 3059 263 
Q 3003 322 2988 353 
Q 2838 163 2689 39 
Q 2541 -84 1763 -78 
Q 988 -72 648 400 
Q 309 872 309 1794 
Q 309 2713 663 3088 
Q 1109 3569 1966 3578 
Q 2688 3588 3006 3163 
z
M 2575 1841 
L 2481 2350 
Q 2394 2825 1981 2828 
Q 1772 2828 1598 2558 
Q 1425 2288 1425 1741 
Q 1425 1191 1581 944 
Q 1738 697 1969 691 
Q 2213 684 2363 1163 
L 2575 1841 
z
" transform="scale(0.015625)"/>
      <path id="DejaVuSans-Bold-3d" d="M 678 3084 
L 4684 3084 
L 4684 2350 
L 678 2350 
L 678 3084 
z
M 678 1663 
L 4684 1663 
L 4684 922 
L 678 922 
L 678 1663 
z
" transform="scale(0.015625)"/>
      <path id="DejaVuSans-Bold-5b" d="M 550 4863 
L 2491 4863 
L 2491 4159 
L 1613 4159 
L 1613 -141 
L 2491 -141 
L 2491 -844 
L 550 -844 
L 550 4863 
z
" transform="scale(0.015625)"/>
      <path id="DejaVuSans-Bold-30" d="M 2944 2338 
Q 2944 3213 2780 3570 
Q 2616 3928 2228 3928 
Q 1841 3928 1675 3570 
Q 1509 3213 1509 2338 
Q 1509 1453 1675 1090 
Q 1841 728 2228 728 
Q 2613 728 2778 1090 
Q 2944 1453 2944 2338 
z
M 4147 2328 
Q 4147 1169 3647 539 
Q 3147 -91 2228 -91 
Q 1306 -91 806 539 
Q 306 1169 306 2328 
Q 306 3491 806 4120 
Q 1306 4750 2228 4750 
Q 3147 4750 3647 4120 
Q 4147 3491 4147 2328 
z
" transform="scale(0.015625)"/>
      <path id="DejaVuSans-Bold-2e" d="M 653 1209 
L 1778 1209 
L 1778 0 
L 653 0 
L 653 1209 
z
" transform="scale(0.015625)"/>
      <path id="DejaVuSans-Bold-33" d="M 2981 2516 
Q 3453 2394 3698 2092 
Q 3944 1791 3944 1325 
Q 3944 631 3412 270 
Q 2881 -91 1863 -91 
Q 1503 -91 1142 -33 
Q 781 25 428 141 
L 428 1069 
Q 766 900 1098 814 
Q 1431 728 1753 728 
Q 2231 728 2486 893 
Q 2741 1059 2741 1369 
Q 2741 1688 2480 1852 
Q 2219 2016 1709 2016 
L 1228 2016 
L 1228 2791 
L 1734 2791 
Q 2188 2791 2409 2933 
Q 2631 3075 2631 3366 
Q 2631 3634 2415 3781 
Q 2200 3928 1806 3928 
Q 1516 3928 1219 3862 
Q 922 3797 628 3669 
L 628 4550 
Q 984 4650 1334 4700 
Q 1684 4750 2022 4750 
Q 2931 4750 3382 4451 
Q 3834 4153 3834 3553 
Q 3834 3144 3618 2883 
Q 3403 2622 2981 2516 
z
" transform="scale(0.015625)"/>
      <path id="DejaVuSans-Bold-2c" d="M 653 1209 
L 1778 1209 
L 1778 256 
L 1006 -909 
L 341 -909 
L 653 256 
L 653 1209 
z
" transform="scale(0.015625)"/>
      <path id="DejaVuSans-Bold-34" d="M 2356 3675 
L 1038 1722 
L 2356 1722 
L 2356 3675 
z
M 2156 4666 
L 3494 4666 
L 3494 1722 
L 4159 1722 
L 4159 850 
L 3494 850 
L 3494 0 
L 2356 0 
L 2356 850 
L 288 850 
L 288 1881 
L 2156 4666 
z
" transform="scale(0.015625)"/>
      <path id="DejaVuSans-Bold-5d" d="M 2375 -844 
L 434 -844 
L 434 -141 
L 1313 -141 
L 1313 4159 
L 434 4159 
L 434 4863 
L 2375 4863 
L 2375 -844 
z
" transform="scale(0.015625)"/>
      <path id="DejaVuSans-Bold-29" d="M 513 -844 
Q 913 -100 1113 609 
Q 1313 1319 1313 2009 
Q 1313 2700 1113 3408 
Q 913 4116 513 4856 
L 1441 4856 
Q 1916 4091 2145 3389 
Q 2375 2688 2375 2003 
Q 2375 1319 2147 623 
Q 1919 -72 1441 -844 
L 513 -844 
z
" transform="scale(0.015625)"/>
     </defs>
     <use xlink:href="#DejaVuSans-Bold-47"/>
     <use xlink:href="#DejaVuSans-Bold-61" x="82.080078"/>
     <use xlink:href="#DejaVuSans-Bold-75" x="149.560547"/>
     <use xlink:href="#DejaVuSans-Bold-73" x="220.751953"/>
     <use xlink:href="#DejaVuSans-Bold-73" x="280.273438"/>
     <use xlink:href="#DejaVuSans-Bold-69" x="339.794922"/>
     <use xlink:href="#DejaVuSans-Bold-61" x="374.072266"/>
     <use xlink:href="#DejaVuSans-Bold-6e" x="441.552734"/>
     <use xlink:href="#DejaVuSans-Bold-20" x="512.744141"/>
     <use xlink:href="#DejaVuSans-Bold-4d" x="547.558594"/>
     <use xlink:href="#DejaVuSans-Bold-69" x="647.070312"/>
     <use xlink:href="#DejaVuSans-Bold-78" x="681.347656"/>
     <use xlink:href="#DejaVuSans-Bold-74" x="745.849609"/>
     <use xlink:href="#DejaVuSans-Bold-75" x="793.652344"/>
     <use xlink:href="#DejaVuSans-Bold-72" x="864.84375"/>
     <use xlink:href="#DejaVuSans-Bold-65" x="914.160156"/>
     <use xlink:href="#DejaVuSans-Bold-20" x="981.982422"/>
     <use xlink:href="#DejaVuSans-Bold-4d" x="1016.796875"/>
     <use xlink:href="#DejaVuSans-Bold-6f" x="1116.308594"/>
     <use xlink:href="#DejaVuSans-Bold-64" x="1185.009766"/>
     <use xlink:href="#DejaVuSans-Bold-65" x="1256.591797"/>
     <use xlink:href="#DejaVuSans-Bold-6c" x="1324.414062"/>
     <use xlink:href="#DejaVuSans-Bold-20" x="1358.691406"/>
     <use xlink:href="#DejaVuSans-Bold-48" x="1393.505859"/>
     <use xlink:href="#DejaVuSans-Bold-69" x="1477.197266"/>
     <use xlink:href="#DejaVuSans-Bold-73" x="1511.474609"/>
     <use xlink:href="#DejaVuSans-Bold-74" x="1570.996094"/>
     <use xlink:href="#DejaVuSans-Bold-6f" x="1618.798828"/>
     <use xlink:href="#DejaVuSans-Bold-67" x="1687.5"/>
     <use xlink:href="#DejaVuSans-Bold-72" x="1759.082031"/>
     <use xlink:href="#DejaVuSans-Bold-61" x="1808.398438"/>
     <use xlink:href="#DejaVuSans-Bold-6d" x="1875.878906"/>
     <use xlink:href="#DejaVuSans-Bold-20" x="1980.078125"/>
     <use xlink:href="#DejaVuSans-Bold-28" x="2014.892578"/>
     <use xlink:href="#DejaVuSans-Bold-3b1" x="2060.595703"/>
     <use xlink:href="#DejaVuSans-Bold-20" x="2129.296875"/>
     <use xlink:href="#DejaVuSans-Bold-3d" x="2164.111328"/>
     <use xlink:href="#DejaVuSans-Bold-20" x="2247.900391"/>
     <use xlink:href="#DejaVuSans-Bold-5b" x="2282.714844"/>
     <use xlink:href="#DejaVuSans-Bold-30" x="2328.417969"/>
     <use xlink:href="#DejaVuSans-Bold-2e" x="2397.998047"/>
     <use xlink:href="#DejaVuSans-Bold-33" x="2435.986328"/>
     <use xlink:href="#DejaVuSans-Bold-2c" x="2505.566406"/>
     <use xlink:href="#DejaVuSans-Bold-20" x="2543.554688"/>
     <use xlink:href="#DejaVuSans-Bold-30" x="2578.369141"/>
     <use xlink:href="#DejaVuSans-Bold-2e" x="2647.949219"/>
     <use xlink:href="#DejaVuSans-Bold-33" x="2685.9375"/>
     <use xlink:href="#DejaVuSans-Bold-2c" x="2755.517578"/>
     <use xlink:href="#DejaVuSans-Bold-20" x="2793.505859"/>
     <use xlink:href="#DejaVuSans-Bold-30" x="2828.320312"/>
     <use xlink:href="#DejaVuSans-Bold-2e" x="2897.900391"/>
     <use xlink:href="#DejaVuSans-Bold-34" x="2935.888672"/>
     <use xlink:href="#DejaVuSans-Bold-5d" x="3005.46875"/>
     <use xlink:href="#DejaVuSans-Bold-29" x="3051.171875"/>
    </g>
   </g>
  </g>
 </g>
 <defs>
  <clipPath id="p113b096667">
   <rect x="73.55" y="38.4" width="779.65" height="471.16"/>
  </clipPath>
 </defs>
</svg>
